ISO-10303-21;
HEADER;
FILE_DESCRIPTION(('FreeCAD Model'),'2;1');
FILE_NAME('Open CASCADE Shape Model','2026-08-13T15:55:21',(''),(''),
  'Open CASCADE STEP processor 7.8','FreeCAD','Unknown');
FILE_SCHEMA(('AUTOMOTIVE_DESIGN { 1 0 10303 214 1 1 1 1 }'));
ENDSEC;
DATA;
#1 = APPLICATION_PROTOCOL_DEFINITION('international standard',
  'automotive_design',2000,#2);
#2 = APPLICATION_CONTEXT(
  'core data for automotive mechanical design processes');
#3 = SHAPE_DEFINITION_REPRESENTATION(#4,#10);
#4 = PRODUCT_DEFINITION_SHAPE('','',#5);
#5 = PRODUCT_DEFINITION('design','',#6,#9);
#6 = PRODUCT_DEFINITION_FORMATION('','',#7);
#7 = PRODUCT('Body','Body','',(#8));
#8 = PRODUCT_CONTEXT('',#2,'mechanical');
#9 = PRODUCT_DEFINITION_CONTEXT('part definition',#2,'design');
#10 = ADVANCED_BREP_SHAPE_REPRESENTATION('',(#11,#15),#869);
#11 = AXIS2_PLACEMENT_3D('',#12,#13,#14);
#12 = CARTESIAN_POINT('',(0.,0.,0.));
#13 = DIRECTION('',(0.,0.,1.));
#14 = DIRECTION('',(1.,0.,-0.));
#15 = MANIFOLD_SOLID_BREP('',#16);
#16 = CLOSED_SHELL('',(#17,#57,#88,#119,#218,#317,#334,#373,#412,#429,
    #446,#463,#475,#506,#549,#573,#609,#659,#683,#726,#743,#760,#777,
    #794,#811,#828,#840,#857));
#17 = ADVANCED_FACE('',(#18),#52,.T.);
#18 = FACE_BOUND('',#19,.T.);
#19 = EDGE_LOOP('',(#20,#30,#38,#46));
#20 = ORIENTED_EDGE('',*,*,#21,.T.);
#21 = EDGE_CURVE('',#22,#24,#26,.T.);
#22 = VERTEX_POINT('',#23);
#23 = CARTESIAN_POINT('',(-1.7E-14,5.05,17.7));
#24 = VERTEX_POINT('',#25);
#25 = CARTESIAN_POINT('',(-26.,5.05,17.7));
#26 = LINE('',#27,#28);
#27 = CARTESIAN_POINT('',(-2.105E-14,5.05,17.7));
#28 = VECTOR('',#29,1.);
#29 = DIRECTION('',(-1.,4.4E-16,1.1E-16));
#30 = ORIENTED_EDGE('',*,*,#31,.T.);
#31 = EDGE_CURVE('',#24,#32,#34,.T.);
#32 = VERTEX_POINT('',#33);
#33 = CARTESIAN_POINT('',(-26.,5.05,16.607106781187));
#34 = LINE('',#35,#36);
#35 = CARTESIAN_POINT('',(-26.,5.05,17.7));
#36 = VECTOR('',#37,1.);
#37 = DIRECTION('',(1.E-15,5.6E-16,-1.));
#38 = ORIENTED_EDGE('',*,*,#39,.F.);
#39 = EDGE_CURVE('',#40,#32,#42,.T.);
#40 = VERTEX_POINT('',#41);
#41 = CARTESIAN_POINT('',(-1.6E-14,5.05,16.607106781187));
#42 = LINE('',#43,#44);
#43 = CARTESIAN_POINT('',(-1.996E-14,5.05,16.607106781187));
#44 = VECTOR('',#45,1.);
#45 = DIRECTION('',(-1.,4.4E-16,1.1E-16));
#46 = ORIENTED_EDGE('',*,*,#47,.F.);
#47 = EDGE_CURVE('',#22,#40,#48,.T.);
#48 = LINE('',#49,#50);
#49 = CARTESIAN_POINT('',(-2.217E-14,5.05,17.7));
#50 = VECTOR('',#51,1.);
#51 = DIRECTION('',(1.E-15,5.6E-16,-1.));
#52 = PLANE('',#53);
#53 = AXIS2_PLACEMENT_3D('',#54,#55,#56);
#54 = CARTESIAN_POINT('',(-2.105E-14,5.05,17.7));
#55 = DIRECTION('',(4.4E-16,-1.,5.6E-16));
#56 = DIRECTION('',(1.E-15,-5.6E-16,-1.));
#57 = ADVANCED_FACE('',(#58),#83,.F.);
#58 = FACE_BOUND('',#59,.F.);
#59 = EDGE_LOOP('',(#60,#61,#69,#77));
#60 = ORIENTED_EDGE('',*,*,#21,.T.);
#61 = ORIENTED_EDGE('',*,*,#62,.T.);
#62 = EDGE_CURVE('',#24,#63,#65,.T.);
#63 = VERTEX_POINT('',#64);
#64 = CARTESIAN_POINT('',(-26.,7.,17.7));
#65 = LINE('',#66,#67);
#66 = CARTESIAN_POINT('',(-26.,5.05,17.7));
#67 = VECTOR('',#68,1.);
#68 = DIRECTION('',(-8.9E-16,1.,-7.8E-16));
#69 = ORIENTED_EDGE('',*,*,#70,.F.);
#70 = EDGE_CURVE('',#71,#63,#73,.T.);
#71 = VERTEX_POINT('',#72);
#72 = CARTESIAN_POINT('',(-1.7E-14,7.,17.7));
#73 = LINE('',#74,#75);
#74 = CARTESIAN_POINT('',(-2.235E-14,7.,17.7));
#75 = VECTOR('',#76,1.);
#76 = DIRECTION('',(-1.,4.4E-16,1.1E-16));
#77 = ORIENTED_EDGE('',*,*,#78,.F.);
#78 = EDGE_CURVE('',#22,#71,#79,.T.);
#79 = LINE('',#80,#81);
#80 = CARTESIAN_POINT('',(-2.217E-14,5.05,17.7));
#81 = VECTOR('',#82,1.);
#82 = DIRECTION('',(-8.9E-16,1.,-7.8E-16));
#83 = PLANE('',#84);
#84 = AXIS2_PLACEMENT_3D('',#85,#86,#87);
#85 = CARTESIAN_POINT('',(-2.105E-14,5.05,17.7));
#86 = DIRECTION('',(7.8E-16,1.1E-16,-1.));
#87 = DIRECTION('',(-6.7E-16,1.,1.1E-16));
#88 = ADVANCED_FACE('',(#89),#114,.T.);
#89 = FACE_BOUND('',#90,.T.);
#90 = EDGE_LOOP('',(#91,#92,#100,#108));
#91 = ORIENTED_EDGE('',*,*,#39,.T.);
#92 = ORIENTED_EDGE('',*,*,#93,.T.);
#93 = EDGE_CURVE('',#32,#94,#96,.T.);
#94 = VERTEX_POINT('',#95);
#95 = CARTESIAN_POINT('',(-26.,7.257106781187,14.4));
#96 = LINE('',#97,#98);
#97 = CARTESIAN_POINT('',(-26.,5.05,16.607106781187));
#98 = VECTOR('',#99,1.);
#99 = DIRECTION('',(8.E-17,0.707106781187,-0.707106781187));
#100 = ORIENTED_EDGE('',*,*,#101,.F.);
#101 = EDGE_CURVE('',#102,#94,#104,.T.);
#102 = VERTEX_POINT('',#103);
#103 = CARTESIAN_POINT('',(-1.4E-14,7.257106781187,14.4));
#104 = LINE('',#105,#106);
#105 = CARTESIAN_POINT('',(-1.922E-14,7.257106781187,14.4));
#106 = VECTOR('',#107,1.);
#107 = DIRECTION('',(-1.,4.4E-16,1.1E-16));
#108 = ORIENTED_EDGE('',*,*,#109,.F.);
#109 = EDGE_CURVE('',#40,#102,#110,.T.);
#110 = LINE('',#111,#112);
#111 = CARTESIAN_POINT('',(-2.108E-14,5.05,16.607106781187));
#112 = VECTOR('',#113,1.);
#113 = DIRECTION('',(8.E-17,0.707106781187,-0.707106781187));
#114 = PLANE('',#115);
#115 = AXIS2_PLACEMENT_3D('',#116,#117,#118);
#116 = CARTESIAN_POINT('',(-1.996E-14,5.05,16.607106781187));
#117 = DIRECTION('',(8.6E-16,-0.707106781187,-0.707106781187));
#118 = DIRECTION('',(2.4E-16,0.707106781187,-0.707106781187));
#119 = ADVANCED_FACE('',(#120,#179),#213,.T.);
#120 = FACE_BOUND('',#121,.T.);
#121 = EDGE_LOOP('',(#122,#123,#124,#132,#140,#148,#156,#164,#172,#178)
  );
#122 = ORIENTED_EDGE('',*,*,#47,.T.);
#123 = ORIENTED_EDGE('',*,*,#109,.T.);
#124 = ORIENTED_EDGE('',*,*,#125,.T.);
#125 = EDGE_CURVE('',#102,#126,#128,.T.);
#126 = VERTEX_POINT('',#127);
#127 = CARTESIAN_POINT('',(-1.3E-14,12.742893218813,14.4));
#128 = LINE('',#129,#130);
#129 = CARTESIAN_POINT('',(-2.083E-14,7.257106781187,14.4));
#130 = VECTOR('',#131,1.);
#131 = DIRECTION('',(-8.9E-16,1.,-7.8E-16));
#132 = ORIENTED_EDGE('',*,*,#133,.T.);
#133 = EDGE_CURVE('',#126,#134,#136,.T.);
#134 = VERTEX_POINT('',#135);
#135 = CARTESIAN_POINT('',(-1.5E-14,14.95,16.607106781187));
#136 = LINE('',#137,#138);
#137 = CARTESIAN_POINT('',(-2.571E-14,12.742893218813,14.4));
#138 = VECTOR('',#139,1.);
#139 = DIRECTION('',(-1.33E-15,0.707106781187,0.707106781187));
#140 = ORIENTED_EDGE('',*,*,#141,.T.);
#141 = EDGE_CURVE('',#134,#142,#144,.T.);
#142 = VERTEX_POINT('',#143);
#143 = CARTESIAN_POINT('',(-1.6E-14,14.95,17.7));
#144 = LINE('',#145,#146);
#145 = CARTESIAN_POINT('',(-2.987E-14,14.95,16.607106781187));
#146 = VECTOR('',#147,1.);
#147 = DIRECTION('',(-1.E-15,-5.6E-16,1.));
#148 = ORIENTED_EDGE('',*,*,#149,.F.);
#149 = EDGE_CURVE('',#150,#142,#152,.T.);
#150 = VERTEX_POINT('',#151);
#151 = CARTESIAN_POINT('',(-1.6E-14,13.,17.7));
#152 = LINE('',#153,#154);
#153 = CARTESIAN_POINT('',(-2.923E-14,13.,17.7));
#154 = VECTOR('',#155,1.);
#155 = DIRECTION('',(-8.9E-16,1.,-7.8E-16));
#156 = ORIENTED_EDGE('',*,*,#157,.F.);
#157 = EDGE_CURVE('',#158,#150,#160,.T.);
#158 = VERTEX_POINT('',#159);
#159 = CARTESIAN_POINT('',(-1.8E-14,13.,19.5));
#160 = LINE('',#161,#162);
#161 = CARTESIAN_POINT('',(-3.103E-14,13.,19.5));
#162 = VECTOR('',#163,1.);
#163 = DIRECTION('',(1.E-15,5.6E-16,-1.));
#164 = ORIENTED_EDGE('',*,*,#165,.F.);
#165 = EDGE_CURVE('',#166,#158,#168,.T.);
#166 = VERTEX_POINT('',#167);
#167 = CARTESIAN_POINT('',(-1.9E-14,7.,19.5));
#168 = LINE('',#169,#170);
#169 = CARTESIAN_POINT('',(-2.57E-14,7.,19.5));
#170 = VECTOR('',#171,1.);
#171 = DIRECTION('',(-8.9E-16,1.,-7.8E-16));
#172 = ORIENTED_EDGE('',*,*,#173,.F.);
#173 = EDGE_CURVE('',#71,#166,#174,.T.);
#174 = LINE('',#175,#176);
#175 = CARTESIAN_POINT('',(-2.39E-14,7.,17.7));
#176 = VECTOR('',#177,1.);
#177 = DIRECTION('',(-1.E-15,-5.6E-16,1.));
#178 = ORIENTED_EDGE('',*,*,#78,.F.);
#179 = FACE_BOUND('',#180,.T.);
#180 = EDGE_LOOP('',(#181,#191,#199,#207));
#181 = ORIENTED_EDGE('',*,*,#182,.F.);
#182 = EDGE_CURVE('',#183,#185,#187,.T.);
#183 = VERTEX_POINT('',#184);
#184 = CARTESIAN_POINT('',(-1.7E-14,7.350000000014,17.307106781187));
#185 = VERTEX_POINT('',#186);
#186 = CARTESIAN_POINT('',(-1.5E-14,7.350000000014,14.807106781187));
#187 = LINE('',#188,#189);
#188 = CARTESIAN_POINT('',(-2.019E-14,7.350000000014,17.307106781187));
#189 = VECTOR('',#190,1.);
#190 = DIRECTION('',(6.7E-16,1.1E-16,-1.));
#191 = ORIENTED_EDGE('',*,*,#192,.T.);
#192 = EDGE_CURVE('',#183,#193,#195,.T.);
#193 = VERTEX_POINT('',#194);
#194 = CARTESIAN_POINT('',(-1.6E-14,12.650000000014,17.307106781187));
#195 = LINE('',#196,#197);
#196 = CARTESIAN_POINT('',(-1.414E-14,7.350000000014,17.307106781187));
#197 = VECTOR('',#198,1.);
#198 = DIRECTION('',(-5.6E-16,1.,-5.6E-16));
#199 = ORIENTED_EDGE('',*,*,#200,.T.);
#200 = EDGE_CURVE('',#193,#201,#203,.T.);
#201 = VERTEX_POINT('',#202);
#202 = CARTESIAN_POINT('',(-1.5E-14,12.650000000014,14.807106781187));
#203 = LINE('',#204,#205);
#204 = CARTESIAN_POINT('',(-2.196E-14,12.650000000014,17.307106781187));
#205 = VECTOR('',#206,1.);
#206 = DIRECTION('',(6.7E-16,1.1E-16,-1.));
#207 = ORIENTED_EDGE('',*,*,#208,.F.);
#208 = EDGE_CURVE('',#185,#201,#209,.T.);
#209 = LINE('',#210,#211);
#210 = CARTESIAN_POINT('',(-1.359E-14,7.350000000014,14.807106781187));
#211 = VECTOR('',#212,1.);
#212 = DIRECTION('',(-5.6E-16,1.,-5.6E-16));
#213 = PLANE('',#214);
#214 = AXIS2_PLACEMENT_3D('',#215,#216,#217);
#215 = CARTESIAN_POINT('',(-2.588E-14,10.,17.008054642542));
#216 = DIRECTION('',(1.,-4.4E-16,-3.3E-16));
#217 = DIRECTION('',(3.3E-16,-5.6E-16,1.));
#218 = ADVANCED_FACE('',(#219,#278),#312,.F.);
#219 = FACE_BOUND('',#220,.F.);
#220 = EDGE_LOOP('',(#221,#222,#223,#231,#239,#247,#255,#263,#271,#277)
  );
#221 = ORIENTED_EDGE('',*,*,#31,.T.);
#222 = ORIENTED_EDGE('',*,*,#93,.T.);
#223 = ORIENTED_EDGE('',*,*,#224,.T.);
#224 = EDGE_CURVE('',#94,#225,#227,.T.);
#225 = VERTEX_POINT('',#226);
#226 = CARTESIAN_POINT('',(-26.,12.742893218813,14.4));
#227 = LINE('',#228,#229);
#228 = CARTESIAN_POINT('',(-26.,7.257106781187,14.4));
#229 = VECTOR('',#230,1.);
#230 = DIRECTION('',(-8.9E-16,1.,-7.8E-16));
#231 = ORIENTED_EDGE('',*,*,#232,.T.);
#232 = EDGE_CURVE('',#225,#233,#235,.T.);
#233 = VERTEX_POINT('',#234);
#234 = CARTESIAN_POINT('',(-26.,14.95,16.607106781187));
#235 = LINE('',#236,#237);
#236 = CARTESIAN_POINT('',(-26.,12.742893218813,14.4));
#237 = VECTOR('',#238,1.);
#238 = DIRECTION('',(-1.33E-15,0.707106781187,0.707106781187));
#239 = ORIENTED_EDGE('',*,*,#240,.T.);
#240 = EDGE_CURVE('',#233,#241,#243,.T.);
#241 = VERTEX_POINT('',#242);
#242 = CARTESIAN_POINT('',(-26.,14.95,17.7));
#243 = LINE('',#244,#245);
#244 = CARTESIAN_POINT('',(-26.,14.95,16.607106781187));
#245 = VECTOR('',#246,1.);
#246 = DIRECTION('',(-1.E-15,-5.6E-16,1.));
#247 = ORIENTED_EDGE('',*,*,#248,.F.);
#248 = EDGE_CURVE('',#249,#241,#251,.T.);
#249 = VERTEX_POINT('',#250);
#250 = CARTESIAN_POINT('',(-26.,13.,17.7));
#251 = LINE('',#252,#253);
#252 = CARTESIAN_POINT('',(-26.,13.,17.7));
#253 = VECTOR('',#254,1.);
#254 = DIRECTION('',(-8.9E-16,1.,-7.8E-16));
#255 = ORIENTED_EDGE('',*,*,#256,.F.);
#256 = EDGE_CURVE('',#257,#249,#259,.T.);
#257 = VERTEX_POINT('',#258);
#258 = CARTESIAN_POINT('',(-26.,13.,19.5));
#259 = LINE('',#260,#261);
#260 = CARTESIAN_POINT('',(-26.,13.,19.5));
#261 = VECTOR('',#262,1.);
#262 = DIRECTION('',(1.E-15,5.6E-16,-1.));
#263 = ORIENTED_EDGE('',*,*,#264,.F.);
#264 = EDGE_CURVE('',#265,#257,#267,.T.);
#265 = VERTEX_POINT('',#266);
#266 = CARTESIAN_POINT('',(-26.,7.,19.5));
#267 = LINE('',#268,#269);
#268 = CARTESIAN_POINT('',(-26.,7.,19.5));
#269 = VECTOR('',#270,1.);
#270 = DIRECTION('',(-8.9E-16,1.,-7.8E-16));
#271 = ORIENTED_EDGE('',*,*,#272,.F.);
#272 = EDGE_CURVE('',#63,#265,#273,.T.);
#273 = LINE('',#274,#275);
#274 = CARTESIAN_POINT('',(-26.,7.,17.7));
#275 = VECTOR('',#276,1.);
#276 = DIRECTION('',(-1.E-15,-5.6E-16,1.));
#277 = ORIENTED_EDGE('',*,*,#62,.F.);
#278 = FACE_BOUND('',#279,.F.);
#279 = EDGE_LOOP('',(#280,#290,#298,#306));
#280 = ORIENTED_EDGE('',*,*,#281,.F.);
#281 = EDGE_CURVE('',#282,#284,#286,.T.);
#282 = VERTEX_POINT('',#283);
#283 = CARTESIAN_POINT('',(-26.,12.650000000014,17.307106781187));
#284 = VERTEX_POINT('',#285);
#285 = CARTESIAN_POINT('',(-26.,7.350000000014,17.307106781187));
#286 = LINE('',#287,#288);
#287 = CARTESIAN_POINT('',(-26.,12.650000000014,17.307106781187));
#288 = VECTOR('',#289,1.);
#289 = DIRECTION('',(5.6E-16,-1.,5.6E-16));
#290 = ORIENTED_EDGE('',*,*,#291,.T.);
#291 = EDGE_CURVE('',#282,#292,#294,.T.);
#292 = VERTEX_POINT('',#293);
#293 = CARTESIAN_POINT('',(-26.,12.650000000014,14.807106781187));
#294 = LINE('',#295,#296);
#295 = CARTESIAN_POINT('',(-26.,12.650000000014,17.307106781187));
#296 = VECTOR('',#297,1.);
#297 = DIRECTION('',(6.7E-16,1.1E-16,-1.));
#298 = ORIENTED_EDGE('',*,*,#299,.T.);
#299 = EDGE_CURVE('',#292,#300,#302,.T.);
#300 = VERTEX_POINT('',#301);
#301 = CARTESIAN_POINT('',(-26.,7.350000000014,14.807106781187));
#302 = LINE('',#303,#304);
#303 = CARTESIAN_POINT('',(-26.,12.650000000014,14.807106781187));
#304 = VECTOR('',#305,1.);
#305 = DIRECTION('',(5.6E-16,-1.,5.6E-16));
#306 = ORIENTED_EDGE('',*,*,#307,.F.);
#307 = EDGE_CURVE('',#284,#300,#308,.T.);
#308 = LINE('',#309,#310);
#309 = CARTESIAN_POINT('',(-26.,7.350000000014,17.307106781187));
#310 = VECTOR('',#311,1.);
#311 = DIRECTION('',(6.7E-16,1.1E-16,-1.));
#312 = PLANE('',#313);
#313 = AXIS2_PLACEMENT_3D('',#314,#315,#316);
#314 = CARTESIAN_POINT('',(-26.,10.,17.008054642542));
#315 = DIRECTION('',(1.,-4.4E-16,-3.3E-16));
#316 = DIRECTION('',(3.3E-16,-5.6E-16,1.));
#317 = ADVANCED_FACE('',(#318),#329,.F.);
#318 = FACE_BOUND('',#319,.F.);
#319 = EDGE_LOOP('',(#320,#321,#322,#328));
#320 = ORIENTED_EDGE('',*,*,#70,.T.);
#321 = ORIENTED_EDGE('',*,*,#272,.T.);
#322 = ORIENTED_EDGE('',*,*,#323,.F.);
#323 = EDGE_CURVE('',#166,#265,#324,.T.);
#324 = LINE('',#325,#326);
#325 = CARTESIAN_POINT('',(-2.415E-14,7.,19.5));
#326 = VECTOR('',#327,1.);
#327 = DIRECTION('',(-1.,4.4E-16,1.1E-16));
#328 = ORIENTED_EDGE('',*,*,#173,.F.);
#329 = PLANE('',#330);
#330 = AXIS2_PLACEMENT_3D('',#331,#332,#333);
#331 = CARTESIAN_POINT('',(-2.235E-14,7.,17.7));
#332 = DIRECTION('',(-4.4E-16,1.,-5.6E-16));
#333 = DIRECTION('',(-1.E-15,5.6E-16,1.));
#334 = ADVANCED_FACE('',(#335,#346,#357),#368,.T.);
#335 = FACE_BOUND('',#336,.T.);
#336 = EDGE_LOOP('',(#337,#338,#339,#345));
#337 = ORIENTED_EDGE('',*,*,#101,.T.);
#338 = ORIENTED_EDGE('',*,*,#224,.T.);
#339 = ORIENTED_EDGE('',*,*,#340,.F.);
#340 = EDGE_CURVE('',#126,#225,#341,.T.);
#341 = LINE('',#342,#343);
#342 = CARTESIAN_POINT('',(-2.288E-14,12.742893218813,14.4));
#343 = VECTOR('',#344,1.);
#344 = DIRECTION('',(-1.,4.4E-16,1.1E-16));
#345 = ORIENTED_EDGE('',*,*,#125,.F.);
#346 = FACE_BOUND('',#347,.T.);
#347 = EDGE_LOOP('',(#348));
#348 = ORIENTED_EDGE('',*,*,#349,.F.);
#349 = EDGE_CURVE('',#350,#350,#352,.T.);
#350 = VERTEX_POINT('',#351);
#351 = CARTESIAN_POINT('',(-20.1,10.,14.4));
#352 = CIRCLE('',#353,1.4);
#353 = AXIS2_PLACEMENT_3D('',#354,#355,#356);
#354 = CARTESIAN_POINT('',(-21.5,10.,14.4));
#355 = DIRECTION('',(1.1E-16,-3.3E-16,-1.));
#356 = DIRECTION('',(1.,-2.2E-16,1.1E-16));
#357 = FACE_BOUND('',#358,.T.);
#358 = EDGE_LOOP('',(#359));
#359 = ORIENTED_EDGE('',*,*,#360,.F.);
#360 = EDGE_CURVE('',#361,#361,#363,.T.);
#361 = VERTEX_POINT('',#362);
#362 = CARTESIAN_POINT('',(-3.1,10.,14.4));
#363 = CIRCLE('',#364,1.4);
#364 = AXIS2_PLACEMENT_3D('',#365,#366,#367);
#365 = CARTESIAN_POINT('',(-4.5,10.,14.4));
#366 = DIRECTION('',(1.1E-16,-3.3E-16,-1.));
#367 = DIRECTION('',(1.,-2.2E-16,1.1E-16));
#368 = PLANE('',#369);
#369 = AXIS2_PLACEMENT_3D('',#370,#371,#372);
#370 = CARTESIAN_POINT('',(-1.922E-14,7.257106781187,14.4));
#371 = DIRECTION('',(7.8E-16,1.1E-16,-1.));
#372 = DIRECTION('',(-6.7E-16,1.,1.1E-16));
#373 = ADVANCED_FACE('',(#374,#385,#396),#407,.F.);
#374 = FACE_BOUND('',#375,.F.);
#375 = EDGE_LOOP('',(#376,#377,#378,#384));
#376 = ORIENTED_EDGE('',*,*,#323,.T.);
#377 = ORIENTED_EDGE('',*,*,#264,.T.);
#378 = ORIENTED_EDGE('',*,*,#379,.F.);
#379 = EDGE_CURVE('',#158,#257,#380,.T.);
#380 = LINE('',#381,#382);
#381 = CARTESIAN_POINT('',(-2.814E-14,13.,19.5));
#382 = VECTOR('',#383,1.);
#383 = DIRECTION('',(-1.,4.4E-16,1.1E-16));
#384 = ORIENTED_EDGE('',*,*,#165,.F.);
#385 = FACE_BOUND('',#386,.F.);
#386 = EDGE_LOOP('',(#387));
#387 = ORIENTED_EDGE('',*,*,#388,.F.);
#388 = EDGE_CURVE('',#389,#389,#391,.T.);
#389 = VERTEX_POINT('',#390);
#390 = CARTESIAN_POINT('',(-20.1,10.,19.5));
#391 = CIRCLE('',#392,1.4);
#392 = AXIS2_PLACEMENT_3D('',#393,#394,#395);
#393 = CARTESIAN_POINT('',(-21.5,10.,19.5));
#394 = DIRECTION('',(1.1E-16,-3.3E-16,-1.));
#395 = DIRECTION('',(1.,-2.2E-16,1.1E-16));
#396 = FACE_BOUND('',#397,.F.);
#397 = EDGE_LOOP('',(#398));
#398 = ORIENTED_EDGE('',*,*,#399,.F.);
#399 = EDGE_CURVE('',#400,#400,#402,.T.);
#400 = VERTEX_POINT('',#401);
#401 = CARTESIAN_POINT('',(-3.1,10.,19.5));
#402 = CIRCLE('',#403,1.4);
#403 = AXIS2_PLACEMENT_3D('',#404,#405,#406);
#404 = CARTESIAN_POINT('',(-4.5,10.,19.5));
#405 = DIRECTION('',(1.1E-16,-3.3E-16,-1.));
#406 = DIRECTION('',(1.,-2.2E-16,1.1E-16));
#407 = PLANE('',#408);
#408 = AXIS2_PLACEMENT_3D('',#409,#410,#411);
#409 = CARTESIAN_POINT('',(-2.415E-14,7.,19.5));
#410 = DIRECTION('',(7.8E-16,1.1E-16,-1.));
#411 = DIRECTION('',(-6.7E-16,1.,1.1E-16));
#412 = ADVANCED_FACE('',(#413),#424,.T.);
#413 = FACE_BOUND('',#414,.T.);
#414 = EDGE_LOOP('',(#415,#416,#417,#423));
#415 = ORIENTED_EDGE('',*,*,#340,.T.);
#416 = ORIENTED_EDGE('',*,*,#232,.T.);
#417 = ORIENTED_EDGE('',*,*,#418,.F.);
#418 = EDGE_CURVE('',#134,#233,#419,.T.);
#419 = LINE('',#420,#421);
#420 = CARTESIAN_POINT('',(-2.655E-14,14.95,16.607106781187));
#421 = VECTOR('',#422,1.);
#422 = DIRECTION('',(-1.,4.4E-16,1.1E-16));
#423 = ORIENTED_EDGE('',*,*,#133,.F.);
#424 = PLANE('',#425);
#425 = AXIS2_PLACEMENT_3D('',#426,#427,#428);
#426 = CARTESIAN_POINT('',(-2.288E-14,12.742893218813,14.4));
#427 = DIRECTION('',(2.4E-16,0.707106781187,-0.707106781187));
#428 = DIRECTION('',(-1.18E-15,0.707106781187,0.707106781187));
#429 = ADVANCED_FACE('',(#430),#441,.F.);
#430 = FACE_BOUND('',#431,.F.);
#431 = EDGE_LOOP('',(#432,#433,#434,#440));
#432 = ORIENTED_EDGE('',*,*,#379,.T.);
#433 = ORIENTED_EDGE('',*,*,#256,.T.);
#434 = ORIENTED_EDGE('',*,*,#435,.F.);
#435 = EDGE_CURVE('',#150,#249,#436,.T.);
#436 = LINE('',#437,#438);
#437 = CARTESIAN_POINT('',(-2.635E-14,13.,17.7));
#438 = VECTOR('',#439,1.);
#439 = DIRECTION('',(-1.,4.4E-16,1.1E-16));
#440 = ORIENTED_EDGE('',*,*,#157,.F.);
#441 = PLANE('',#442);
#442 = AXIS2_PLACEMENT_3D('',#443,#444,#445);
#443 = CARTESIAN_POINT('',(-2.814E-14,13.,19.5));
#444 = DIRECTION('',(4.4E-16,-1.,5.6E-16));
#445 = DIRECTION('',(1.E-15,-5.6E-16,-1.));
#446 = ADVANCED_FACE('',(#447),#458,.T.);
#447 = FACE_BOUND('',#448,.T.);
#448 = EDGE_LOOP('',(#449,#450,#451,#457));
#449 = ORIENTED_EDGE('',*,*,#418,.T.);
#450 = ORIENTED_EDGE('',*,*,#240,.T.);
#451 = ORIENTED_EDGE('',*,*,#452,.F.);
#452 = EDGE_CURVE('',#142,#241,#453,.T.);
#453 = LINE('',#454,#455);
#454 = CARTESIAN_POINT('',(-2.764E-14,14.95,17.7));
#455 = VECTOR('',#456,1.);
#456 = DIRECTION('',(-1.,4.4E-16,1.1E-16));
#457 = ORIENTED_EDGE('',*,*,#141,.F.);
#458 = PLANE('',#459);
#459 = AXIS2_PLACEMENT_3D('',#460,#461,#462);
#460 = CARTESIAN_POINT('',(-2.655E-14,14.95,16.607106781187));
#461 = DIRECTION('',(-4.4E-16,1.,-5.6E-16));
#462 = DIRECTION('',(-1.E-15,5.6E-16,1.));
#463 = ADVANCED_FACE('',(#464),#470,.F.);
#464 = FACE_BOUND('',#465,.F.);
#465 = EDGE_LOOP('',(#466,#467,#468,#469));
#466 = ORIENTED_EDGE('',*,*,#435,.T.);
#467 = ORIENTED_EDGE('',*,*,#248,.T.);
#468 = ORIENTED_EDGE('',*,*,#452,.F.);
#469 = ORIENTED_EDGE('',*,*,#149,.F.);
#470 = PLANE('',#471);
#471 = AXIS2_PLACEMENT_3D('',#472,#473,#474);
#472 = CARTESIAN_POINT('',(-2.635E-14,13.,17.7));
#473 = DIRECTION('',(7.8E-16,1.1E-16,-1.));
#474 = DIRECTION('',(-6.7E-16,1.,1.1E-16));
#475 = ADVANCED_FACE('',(#476),#501,.F.);
#476 = FACE_BOUND('',#477,.F.);
#477 = EDGE_LOOP('',(#478,#488,#494,#495));
#478 = ORIENTED_EDGE('',*,*,#479,.T.);
#479 = EDGE_CURVE('',#480,#482,#484,.T.);
#480 = VERTEX_POINT('',#481);
#481 = CARTESIAN_POINT('',(-6.029978213353,7.350000000014,
    17.307106781187));
#482 = VERTEX_POINT('',#483);
#483 = CARTESIAN_POINT('',(-6.029978213353,7.350000000014,
    14.807106781187));
#484 = LINE('',#485,#486);
#485 = CARTESIAN_POINT('',(-6.029978213353,7.350000000014,
    17.307106781187));
#486 = VECTOR('',#487,1.);
#487 = DIRECTION('',(6.7E-16,1.1E-16,-1.));
#488 = ORIENTED_EDGE('',*,*,#489,.T.);
#489 = EDGE_CURVE('',#482,#185,#490,.T.);
#490 = LINE('',#491,#492);
#491 = CARTESIAN_POINT('',(-6.029978213353,7.350000000014,
    14.807106781187));
#492 = VECTOR('',#493,1.);
#493 = DIRECTION('',(1.,-3.3E-16,-2.2E-16));
#494 = ORIENTED_EDGE('',*,*,#182,.F.);
#495 = ORIENTED_EDGE('',*,*,#496,.F.);
#496 = EDGE_CURVE('',#480,#183,#497,.T.);
#497 = LINE('',#498,#499);
#498 = CARTESIAN_POINT('',(-6.029978213353,7.350000000014,
    17.307106781187));
#499 = VECTOR('',#500,1.);
#500 = DIRECTION('',(1.,-3.3E-16,-2.2E-16));
#501 = PLANE('',#502);
#502 = AXIS2_PLACEMENT_3D('',#503,#504,#505);
#503 = CARTESIAN_POINT('',(-6.029978213353,7.350000000014,
    17.307106781187));
#504 = DIRECTION('',(1.1E-16,-1.,3.3E-16));
#505 = DIRECTION('',(1.,1.1E-16,-1.452E-31));
#506 = ADVANCED_FACE('',(#507,#533),#544,.T.);
#507 = FACE_BOUND('',#508,.T.);
#508 = EDGE_LOOP('',(#509,#510,#511,#519,#527));
#509 = ORIENTED_EDGE('',*,*,#489,.T.);
#510 = ORIENTED_EDGE('',*,*,#208,.T.);
#511 = ORIENTED_EDGE('',*,*,#512,.T.);
#512 = EDGE_CURVE('',#201,#513,#515,.T.);
#513 = VERTEX_POINT('',#514);
#514 = CARTESIAN_POINT('',(-6.029978213353,12.650000000014,
    14.807106781187));
#515 = LINE('',#516,#517);
#516 = CARTESIAN_POINT('',(-1.653E-14,12.650000000014,14.807106781187));
#517 = VECTOR('',#518,1.);
#518 = DIRECTION('',(-1.,3.3E-16,2.2E-16));
#519 = ORIENTED_EDGE('',*,*,#520,.T.);
#520 = EDGE_CURVE('',#513,#521,#523,.T.);
#521 = VERTEX_POINT('',#522);
#522 = CARTESIAN_POINT('',(-7.559956426705,10.000000000014,
    14.807106781187));
#523 = LINE('',#524,#525);
#524 = CARTESIAN_POINT('',(-6.029978213353,12.650000000014,
    14.807106781187));
#525 = VECTOR('',#526,1.);
#526 = DIRECTION('',(-0.5,-0.866025403784,5.9E-16));
#527 = ORIENTED_EDGE('',*,*,#528,.T.);
#528 = EDGE_CURVE('',#521,#482,#529,.T.);
#529 = LINE('',#530,#531);
#530 = CARTESIAN_POINT('',(-7.559956426705,10.000000000014,
    14.807106781187));
#531 = VECTOR('',#532,1.);
#532 = DIRECTION('',(0.5,-0.866025403784,3.7E-16));
#533 = FACE_BOUND('',#534,.T.);
#534 = EDGE_LOOP('',(#535));
#535 = ORIENTED_EDGE('',*,*,#536,.T.);
#536 = EDGE_CURVE('',#537,#537,#539,.T.);
#537 = VERTEX_POINT('',#538);
#538 = CARTESIAN_POINT('',(-3.1,10.,14.807106781187));
#539 = CIRCLE('',#540,1.4);
#540 = AXIS2_PLACEMENT_3D('',#541,#542,#543);
#541 = CARTESIAN_POINT('',(-4.5,10.,14.807106781187));
#542 = DIRECTION('',(1.1E-16,-3.3E-16,-1.));
#543 = DIRECTION('',(1.,-2.2E-16,1.1E-16));
#544 = PLANE('',#545);
#545 = AXIS2_PLACEMENT_3D('',#546,#547,#548);
#546 = CARTESIAN_POINT('',(-13.,10.000000000014,14.807106781187));
#547 = DIRECTION('',(-6.7E-16,-3.3E-16,1.));
#548 = DIRECTION('',(1.,-3.3E-16,6.7E-16));
#549 = ADVANCED_FACE('',(#550),#568,.F.);
#550 = FACE_BOUND('',#551,.F.);
#551 = EDGE_LOOP('',(#552,#553,#554,#562));
#552 = ORIENTED_EDGE('',*,*,#200,.T.);
#553 = ORIENTED_EDGE('',*,*,#512,.T.);
#554 = ORIENTED_EDGE('',*,*,#555,.F.);
#555 = EDGE_CURVE('',#556,#513,#558,.T.);
#556 = VERTEX_POINT('',#557);
#557 = CARTESIAN_POINT('',(-6.029978213353,12.650000000014,
    17.307106781187));
#558 = LINE('',#559,#560);
#559 = CARTESIAN_POINT('',(-6.029978213353,12.650000000014,
    17.307106781187));
#560 = VECTOR('',#561,1.);
#561 = DIRECTION('',(6.7E-16,1.1E-16,-1.));
#562 = ORIENTED_EDGE('',*,*,#563,.F.);
#563 = EDGE_CURVE('',#193,#556,#564,.T.);
#564 = LINE('',#565,#566);
#565 = CARTESIAN_POINT('',(-1.708E-14,12.650000000014,17.307106781187));
#566 = VECTOR('',#567,1.);
#567 = DIRECTION('',(-1.,3.3E-16,2.2E-16));
#568 = PLANE('',#569);
#569 = AXIS2_PLACEMENT_3D('',#570,#571,#572);
#570 = CARTESIAN_POINT('',(-2.196E-14,12.650000000014,17.307106781187));
#571 = DIRECTION('',(-1.1E-16,1.,-3.3E-16));
#572 = DIRECTION('',(-1.,-1.1E-16,1.452E-31));
#573 = ADVANCED_FACE('',(#574,#593),#604,.F.);
#574 = FACE_BOUND('',#575,.F.);
#575 = EDGE_LOOP('',(#576,#577,#578,#579,#587));
#576 = ORIENTED_EDGE('',*,*,#496,.T.);
#577 = ORIENTED_EDGE('',*,*,#192,.T.);
#578 = ORIENTED_EDGE('',*,*,#563,.T.);
#579 = ORIENTED_EDGE('',*,*,#580,.T.);
#580 = EDGE_CURVE('',#556,#581,#583,.T.);
#581 = VERTEX_POINT('',#582);
#582 = CARTESIAN_POINT('',(-7.559956426705,10.000000000014,
    17.307106781187));
#583 = LINE('',#584,#585);
#584 = CARTESIAN_POINT('',(-6.029978213353,12.650000000014,
    17.307106781187));
#585 = VECTOR('',#586,1.);
#586 = DIRECTION('',(-0.5,-0.866025403784,5.9E-16));
#587 = ORIENTED_EDGE('',*,*,#588,.T.);
#588 = EDGE_CURVE('',#581,#480,#589,.T.);
#589 = LINE('',#590,#591);
#590 = CARTESIAN_POINT('',(-7.559956426705,10.000000000014,
    17.307106781187));
#591 = VECTOR('',#592,1.);
#592 = DIRECTION('',(0.5,-0.866025403784,3.7E-16));
#593 = FACE_BOUND('',#594,.F.);
#594 = EDGE_LOOP('',(#595));
#595 = ORIENTED_EDGE('',*,*,#596,.T.);
#596 = EDGE_CURVE('',#597,#597,#599,.T.);
#597 = VERTEX_POINT('',#598);
#598 = CARTESIAN_POINT('',(-3.1,10.,17.307106781187));
#599 = CIRCLE('',#600,1.4);
#600 = AXIS2_PLACEMENT_3D('',#601,#602,#603);
#601 = CARTESIAN_POINT('',(-4.5,10.,17.307106781187));
#602 = DIRECTION('',(1.1E-16,-3.3E-16,-1.));
#603 = DIRECTION('',(1.,-2.2E-16,1.1E-16));
#604 = PLANE('',#605);
#605 = AXIS2_PLACEMENT_3D('',#606,#607,#608);
#606 = CARTESIAN_POINT('',(-13.,10.000000000014,17.307106781187));
#607 = DIRECTION('',(-6.7E-16,-3.3E-16,1.));
#608 = DIRECTION('',(1.,-3.3E-16,6.7E-16));
#609 = ADVANCED_FACE('',(#610,#643),#654,.F.);
#610 = FACE_BOUND('',#611,.F.);
#611 = EDGE_LOOP('',(#612,#622,#628,#629,#637));
#612 = ORIENTED_EDGE('',*,*,#613,.F.);
#613 = EDGE_CURVE('',#614,#616,#618,.T.);
#614 = VERTEX_POINT('',#615);
#615 = CARTESIAN_POINT('',(-19.97002178664,12.650000000014,
    17.307106781187));
#616 = VERTEX_POINT('',#617);
#617 = CARTESIAN_POINT('',(-18.44004357329,10.000000000014,
    17.307106781187));
#618 = LINE('',#619,#620);
#619 = CARTESIAN_POINT('',(-19.97002178664,12.650000000014,
    17.307106781187));
#620 = VECTOR('',#621,1.);
#621 = DIRECTION('',(0.5,-0.866025403784,3.7E-16));
#622 = ORIENTED_EDGE('',*,*,#623,.T.);
#623 = EDGE_CURVE('',#614,#282,#624,.T.);
#624 = LINE('',#625,#626);
#625 = CARTESIAN_POINT('',(-19.97002178664,12.650000000014,
    17.307106781187));
#626 = VECTOR('',#627,1.);
#627 = DIRECTION('',(-1.,3.3E-16,2.2E-16));
#628 = ORIENTED_EDGE('',*,*,#281,.T.);
#629 = ORIENTED_EDGE('',*,*,#630,.T.);
#630 = EDGE_CURVE('',#284,#631,#633,.T.);
#631 = VERTEX_POINT('',#632);
#632 = CARTESIAN_POINT('',(-19.97002178664,7.350000000014,
    17.307106781187));
#633 = LINE('',#634,#635);
#634 = CARTESIAN_POINT('',(-26.,7.350000000014,17.307106781187));
#635 = VECTOR('',#636,1.);
#636 = DIRECTION('',(1.,-3.3E-16,-2.2E-16));
#637 = ORIENTED_EDGE('',*,*,#638,.F.);
#638 = EDGE_CURVE('',#616,#631,#639,.T.);
#639 = LINE('',#640,#641);
#640 = CARTESIAN_POINT('',(-18.44004357329,10.000000000014,
    17.307106781187));
#641 = VECTOR('',#642,1.);
#642 = DIRECTION('',(-0.5,-0.866025403784,5.9E-16));
#643 = FACE_BOUND('',#644,.F.);
#644 = EDGE_LOOP('',(#645));
#645 = ORIENTED_EDGE('',*,*,#646,.T.);
#646 = EDGE_CURVE('',#647,#647,#649,.T.);
#647 = VERTEX_POINT('',#648);
#648 = CARTESIAN_POINT('',(-20.1,10.,17.307106781187));
#649 = CIRCLE('',#650,1.4);
#650 = AXIS2_PLACEMENT_3D('',#651,#652,#653);
#651 = CARTESIAN_POINT('',(-21.5,10.,17.307106781187));
#652 = DIRECTION('',(1.1E-16,-3.3E-16,-1.));
#653 = DIRECTION('',(1.,-2.2E-16,1.1E-16));
#654 = PLANE('',#655);
#655 = AXIS2_PLACEMENT_3D('',#656,#657,#658);
#656 = CARTESIAN_POINT('',(-13.,10.000000000014,17.307106781187));
#657 = DIRECTION('',(-6.7E-16,-3.3E-16,1.));
#658 = DIRECTION('',(1.,-3.3E-16,6.7E-16));
#659 = ADVANCED_FACE('',(#660),#678,.F.);
#660 = FACE_BOUND('',#661,.F.);
#661 = EDGE_LOOP('',(#662,#663,#671,#677));
#662 = ORIENTED_EDGE('',*,*,#307,.T.);
#663 = ORIENTED_EDGE('',*,*,#664,.T.);
#664 = EDGE_CURVE('',#300,#665,#667,.T.);
#665 = VERTEX_POINT('',#666);
#666 = CARTESIAN_POINT('',(-19.97002178664,7.350000000014,
    14.807106781187));
#667 = LINE('',#668,#669);
#668 = CARTESIAN_POINT('',(-26.,7.350000000014,14.807106781187));
#669 = VECTOR('',#670,1.);
#670 = DIRECTION('',(1.,-3.3E-16,-2.2E-16));
#671 = ORIENTED_EDGE('',*,*,#672,.F.);
#672 = EDGE_CURVE('',#631,#665,#673,.T.);
#673 = LINE('',#674,#675);
#674 = CARTESIAN_POINT('',(-19.97002178664,7.350000000014,
    17.307106781187));
#675 = VECTOR('',#676,1.);
#676 = DIRECTION('',(6.7E-16,1.1E-16,-1.));
#677 = ORIENTED_EDGE('',*,*,#630,.F.);
#678 = PLANE('',#679);
#679 = AXIS2_PLACEMENT_3D('',#680,#681,#682);
#680 = CARTESIAN_POINT('',(-26.,7.350000000014,17.307106781187));
#681 = DIRECTION('',(1.1E-16,-1.,3.3E-16));
#682 = DIRECTION('',(1.,1.1E-16,-1.452E-31));
#683 = ADVANCED_FACE('',(#684,#710),#721,.T.);
#684 = FACE_BOUND('',#685,.T.);
#685 = EDGE_LOOP('',(#686,#696,#702,#703,#704));
#686 = ORIENTED_EDGE('',*,*,#687,.F.);
#687 = EDGE_CURVE('',#688,#690,#692,.T.);
#688 = VERTEX_POINT('',#689);
#689 = CARTESIAN_POINT('',(-19.97002178664,12.650000000014,
    14.807106781187));
#690 = VERTEX_POINT('',#691);
#691 = CARTESIAN_POINT('',(-18.44004357329,10.000000000014,
    14.807106781187));
#692 = LINE('',#693,#694);
#693 = CARTESIAN_POINT('',(-19.97002178664,12.650000000014,
    14.807106781187));
#694 = VECTOR('',#695,1.);
#695 = DIRECTION('',(0.5,-0.866025403784,3.7E-16));
#696 = ORIENTED_EDGE('',*,*,#697,.T.);
#697 = EDGE_CURVE('',#688,#292,#698,.T.);
#698 = LINE('',#699,#700);
#699 = CARTESIAN_POINT('',(-19.97002178664,12.650000000014,
    14.807106781187));
#700 = VECTOR('',#701,1.);
#701 = DIRECTION('',(-1.,3.3E-16,2.2E-16));
#702 = ORIENTED_EDGE('',*,*,#299,.T.);
#703 = ORIENTED_EDGE('',*,*,#664,.T.);
#704 = ORIENTED_EDGE('',*,*,#705,.F.);
#705 = EDGE_CURVE('',#690,#665,#706,.T.);
#706 = LINE('',#707,#708);
#707 = CARTESIAN_POINT('',(-18.44004357329,10.000000000014,
    14.807106781187));
#708 = VECTOR('',#709,1.);
#709 = DIRECTION('',(-0.5,-0.866025403784,5.9E-16));
#710 = FACE_BOUND('',#711,.T.);
#711 = EDGE_LOOP('',(#712));
#712 = ORIENTED_EDGE('',*,*,#713,.T.);
#713 = EDGE_CURVE('',#714,#714,#716,.T.);
#714 = VERTEX_POINT('',#715);
#715 = CARTESIAN_POINT('',(-20.1,10.,14.807106781187));
#716 = CIRCLE('',#717,1.4);
#717 = AXIS2_PLACEMENT_3D('',#718,#719,#720);
#718 = CARTESIAN_POINT('',(-21.5,10.,14.807106781187));
#719 = DIRECTION('',(1.1E-16,-3.3E-16,-1.));
#720 = DIRECTION('',(1.,-2.2E-16,1.1E-16));
#721 = PLANE('',#722);
#722 = AXIS2_PLACEMENT_3D('',#723,#724,#725);
#723 = CARTESIAN_POINT('',(-13.,10.000000000014,14.807106781187));
#724 = DIRECTION('',(-6.7E-16,-3.3E-16,1.));
#725 = DIRECTION('',(1.,-3.3E-16,6.7E-16));
#726 = ADVANCED_FACE('',(#727),#738,.F.);
#727 = FACE_BOUND('',#728,.F.);
#728 = EDGE_LOOP('',(#729,#735,#736,#737));
#729 = ORIENTED_EDGE('',*,*,#730,.T.);
#730 = EDGE_CURVE('',#614,#688,#731,.T.);
#731 = LINE('',#732,#733);
#732 = CARTESIAN_POINT('',(-19.97002178664,12.650000000014,
    17.307106781187));
#733 = VECTOR('',#734,1.);
#734 = DIRECTION('',(6.7E-16,1.1E-16,-1.));
#735 = ORIENTED_EDGE('',*,*,#697,.T.);
#736 = ORIENTED_EDGE('',*,*,#291,.F.);
#737 = ORIENTED_EDGE('',*,*,#623,.F.);
#738 = PLANE('',#739);
#739 = AXIS2_PLACEMENT_3D('',#740,#741,#742);
#740 = CARTESIAN_POINT('',(-19.97002178664,12.650000000014,
    17.307106781187));
#741 = DIRECTION('',(-1.1E-16,1.,-3.3E-16));
#742 = DIRECTION('',(-1.,-1.1E-16,1.452E-31));
#743 = ADVANCED_FACE('',(#744),#755,.F.);
#744 = FACE_BOUND('',#745,.T.);
#745 = EDGE_LOOP('',(#746,#747,#753,#754));
#746 = ORIENTED_EDGE('',*,*,#349,.T.);
#747 = ORIENTED_EDGE('',*,*,#748,.T.);
#748 = EDGE_CURVE('',#350,#714,#749,.T.);
#749 = LINE('',#750,#751);
#750 = CARTESIAN_POINT('',(-20.1,10.,-5.56E-15));
#751 = VECTOR('',#752,1.);
#752 = DIRECTION('',(-3.3E-16,1.1E-16,1.));
#753 = ORIENTED_EDGE('',*,*,#713,.F.);
#754 = ORIENTED_EDGE('',*,*,#748,.F.);
#755 = CYLINDRICAL_SURFACE('',#756,1.4);
#756 = AXIS2_PLACEMENT_3D('',#757,#758,#759);
#757 = CARTESIAN_POINT('',(-21.5,10.,-5.72E-15));
#758 = DIRECTION('',(1.1E-16,-3.3E-16,-1.));
#759 = DIRECTION('',(1.,-2.2E-16,1.1E-16));
#760 = ADVANCED_FACE('',(#761),#772,.F.);
#761 = FACE_BOUND('',#762,.T.);
#762 = EDGE_LOOP('',(#763,#764,#770,#771));
#763 = ORIENTED_EDGE('',*,*,#360,.T.);
#764 = ORIENTED_EDGE('',*,*,#765,.T.);
#765 = EDGE_CURVE('',#361,#537,#766,.T.);
#766 = LINE('',#767,#768);
#767 = CARTESIAN_POINT('',(-3.1,10.,-3.67E-15));
#768 = VECTOR('',#769,1.);
#769 = DIRECTION('',(-3.3E-16,1.1E-16,1.));
#770 = ORIENTED_EDGE('',*,*,#536,.F.);
#771 = ORIENTED_EDGE('',*,*,#765,.F.);
#772 = CYLINDRICAL_SURFACE('',#773,1.4);
#773 = AXIS2_PLACEMENT_3D('',#774,#775,#776);
#774 = CARTESIAN_POINT('',(-4.5,10.,-3.83E-15));
#775 = DIRECTION('',(1.1E-16,-3.3E-16,-1.));
#776 = DIRECTION('',(1.,-2.2E-16,1.1E-16));
#777 = ADVANCED_FACE('',(#778),#789,.F.);
#778 = FACE_BOUND('',#779,.T.);
#779 = EDGE_LOOP('',(#780,#781,#787,#788));
#780 = ORIENTED_EDGE('',*,*,#646,.T.);
#781 = ORIENTED_EDGE('',*,*,#782,.T.);
#782 = EDGE_CURVE('',#647,#389,#783,.T.);
#783 = LINE('',#784,#785);
#784 = CARTESIAN_POINT('',(-20.1,10.,-5.56E-15));
#785 = VECTOR('',#786,1.);
#786 = DIRECTION('',(-3.3E-16,1.1E-16,1.));
#787 = ORIENTED_EDGE('',*,*,#388,.F.);
#788 = ORIENTED_EDGE('',*,*,#782,.F.);
#789 = CYLINDRICAL_SURFACE('',#790,1.4);
#790 = AXIS2_PLACEMENT_3D('',#791,#792,#793);
#791 = CARTESIAN_POINT('',(-21.5,10.,-5.72E-15));
#792 = DIRECTION('',(1.1E-16,-3.3E-16,-1.));
#793 = DIRECTION('',(1.,-2.2E-16,1.1E-16));
#794 = ADVANCED_FACE('',(#795),#806,.F.);
#795 = FACE_BOUND('',#796,.T.);
#796 = EDGE_LOOP('',(#797,#798,#804,#805));
#797 = ORIENTED_EDGE('',*,*,#596,.T.);
#798 = ORIENTED_EDGE('',*,*,#799,.T.);
#799 = EDGE_CURVE('',#597,#400,#800,.T.);
#800 = LINE('',#801,#802);
#801 = CARTESIAN_POINT('',(-3.1,10.,-3.67E-15));
#802 = VECTOR('',#803,1.);
#803 = DIRECTION('',(-3.3E-16,1.1E-16,1.));
#804 = ORIENTED_EDGE('',*,*,#399,.F.);
#805 = ORIENTED_EDGE('',*,*,#799,.F.);
#806 = CYLINDRICAL_SURFACE('',#807,1.4);
#807 = AXIS2_PLACEMENT_3D('',#808,#809,#810);
#808 = CARTESIAN_POINT('',(-4.5,10.,-3.83E-15));
#809 = DIRECTION('',(1.1E-16,-3.3E-16,-1.));
#810 = DIRECTION('',(1.,-2.2E-16,1.1E-16));
#811 = ADVANCED_FACE('',(#812),#823,.F.);
#812 = FACE_BOUND('',#813,.F.);
#813 = EDGE_LOOP('',(#814,#820,#821,#822));
#814 = ORIENTED_EDGE('',*,*,#815,.T.);
#815 = EDGE_CURVE('',#581,#521,#816,.T.);
#816 = LINE('',#817,#818);
#817 = CARTESIAN_POINT('',(-7.559956426705,10.000000000014,
    17.307106781187));
#818 = VECTOR('',#819,1.);
#819 = DIRECTION('',(6.7E-16,1.1E-16,-1.));
#820 = ORIENTED_EDGE('',*,*,#528,.T.);
#821 = ORIENTED_EDGE('',*,*,#479,.F.);
#822 = ORIENTED_EDGE('',*,*,#588,.F.);
#823 = PLANE('',#824);
#824 = AXIS2_PLACEMENT_3D('',#825,#826,#827);
#825 = CARTESIAN_POINT('',(-7.559956426705,10.000000000014,
    17.307106781187));
#826 = DIRECTION('',(-0.866025403784,-0.5,-3.E-17));
#827 = DIRECTION('',(0.5,-0.866025403784,4.8E-16));
#828 = ADVANCED_FACE('',(#829),#835,.F.);
#829 = FACE_BOUND('',#830,.F.);
#830 = EDGE_LOOP('',(#831,#832,#833,#834));
#831 = ORIENTED_EDGE('',*,*,#555,.T.);
#832 = ORIENTED_EDGE('',*,*,#520,.T.);
#833 = ORIENTED_EDGE('',*,*,#815,.F.);
#834 = ORIENTED_EDGE('',*,*,#580,.F.);
#835 = PLANE('',#836);
#836 = AXIS2_PLACEMENT_3D('',#837,#838,#839);
#837 = CARTESIAN_POINT('',(-6.029978213353,12.650000000014,
    17.307106781187));
#838 = DIRECTION('',(-0.866025403784,0.5,-3.6E-16));
#839 = DIRECTION('',(-0.5,-0.866025403784,4.8E-16));
#840 = ADVANCED_FACE('',(#841),#852,.T.);
#841 = FACE_BOUND('',#842,.T.);
#842 = EDGE_LOOP('',(#843,#844,#845,#851));
#843 = ORIENTED_EDGE('',*,*,#730,.T.);
#844 = ORIENTED_EDGE('',*,*,#687,.T.);
#845 = ORIENTED_EDGE('',*,*,#846,.F.);
#846 = EDGE_CURVE('',#616,#690,#847,.T.);
#847 = LINE('',#848,#849);
#848 = CARTESIAN_POINT('',(-18.44004357329,10.000000000014,
    17.307106781187));
#849 = VECTOR('',#850,1.);
#850 = DIRECTION('',(6.7E-16,1.1E-16,-1.));
#851 = ORIENTED_EDGE('',*,*,#613,.F.);
#852 = PLANE('',#853);
#853 = AXIS2_PLACEMENT_3D('',#854,#855,#856);
#854 = CARTESIAN_POINT('',(-19.97002178664,12.650000000014,
    17.307106781187));
#855 = DIRECTION('',(-0.866025403784,-0.5,-3.E-17));
#856 = DIRECTION('',(0.5,-0.866025403784,4.8E-16));
#857 = ADVANCED_FACE('',(#858),#864,.T.);
#858 = FACE_BOUND('',#859,.T.);
#859 = EDGE_LOOP('',(#860,#861,#862,#863));
#860 = ORIENTED_EDGE('',*,*,#846,.T.);
#861 = ORIENTED_EDGE('',*,*,#705,.T.);
#862 = ORIENTED_EDGE('',*,*,#672,.F.);
#863 = ORIENTED_EDGE('',*,*,#638,.F.);
#864 = PLANE('',#865);
#865 = AXIS2_PLACEMENT_3D('',#866,#867,#868);
#866 = CARTESIAN_POINT('',(-18.44004357329,10.000000000014,
    17.307106781187));
#867 = DIRECTION('',(-0.866025403784,0.5,-3.6E-16));
#868 = DIRECTION('',(-0.5,-0.866025403784,4.8E-16));
#869 = ( GEOMETRIC_REPRESENTATION_CONTEXT(3) 
GLOBAL_UNCERTAINTY_ASSIGNED_CONTEXT((#873)) GLOBAL_UNIT_ASSIGNED_CONTEXT
((#870,#871,#872)) REPRESENTATION_CONTEXT('Context #1',
  '3D Context with UNIT and UNCERTAINTY') );
#870 = ( LENGTH_UNIT() NAMED_UNIT(*) SI_UNIT(.MILLI.,.METRE.) );
#871 = ( NAMED_UNIT(*) PLANE_ANGLE_UNIT() SI_UNIT($,.RADIAN.) );
#872 = ( NAMED_UNIT(*) SI_UNIT($,.STERADIAN.) SOLID_ANGLE_UNIT() );
#873 = UNCERTAINTY_MEASURE_WITH_UNIT(LENGTH_MEASURE(1.E-07),#870,
  'distance_accuracy_value','confusion accuracy');
#874 = PRODUCT_RELATED_PRODUCT_CATEGORY('part',$,(#7));
#875 = MECHANICAL_DESIGN_GEOMETRIC_PRESENTATION_REPRESENTATION('',(#876)
  ,#869);
#876 = STYLED_ITEM('color',(#877),#15);
#877 = PRESENTATION_STYLE_ASSIGNMENT((#878,#884));
#878 = SURFACE_STYLE_USAGE(.BOTH.,#879);
#879 = SURFACE_SIDE_STYLE('',(#880));
#880 = SURFACE_STYLE_FILL_AREA(#881);
#881 = FILL_AREA_STYLE('',(#882));
#882 = FILL_AREA_STYLE_COLOUR('',#883);
#883 = COLOUR_RGB('',0.447058818107,0.474509808674,0.501960817233);
#884 = CURVE_STYLE('',#885,POSITIVE_LENGTH_MEASURE(0.1),#886);
#885 = DRAUGHTING_PRE_DEFINED_CURVE_FONT('continuous');
#886 = COLOUR_RGB('',9.803921802644E-02,9.803921802644E-02,
  9.803921802644E-02);
ENDSEC;
END-ISO-10303-21;
