ISO-10303-21;
HEADER;
FILE_DESCRIPTION(('FreeCAD Model'),'2;1');
FILE_NAME('Open CASCADE Shape Model','2026-08-13T15:47:36',(''),(''),
  'Open CASCADE STEP processor 7.8','FreeCAD','Unknown');
FILE_SCHEMA(('AUTOMOTIVE_DESIGN { 1 0 10303 214 1 1 1 1 }'));
ENDSEC;
DATA;
#1 = APPLICATION_PROTOCOL_DEFINITION('international standard',
  'automotive_design',2000,#2);
#2 = APPLICATION_CONTEXT(
  'core data for automotive mechanical design processes');
#3 = SHAPE_DEFINITION_REPRESENTATION(#4,#10);
#4 = PRODUCT_DEFINITION_SHAPE('','',#5);
#5 = PRODUCT_DEFINITION('design','',#6,#9);
#6 = PRODUCT_DEFINITION_FORMATION('','',#7);
#7 = PRODUCT('8031_adapter','8031_adapter','',(#8));
#8 = PRODUCT_CONTEXT('',#2,'mechanical');
#9 = PRODUCT_DEFINITION_CONTEXT('part definition',#2,'design');
#10 = ADVANCED_BREP_SHAPE_REPRESENTATION('',(#11,#15),#1071);
#11 = AXIS2_PLACEMENT_3D('',#12,#13,#14);
#12 = CARTESIAN_POINT('',(0.,0.,0.));
#13 = DIRECTION('',(0.,0.,1.));
#14 = DIRECTION('',(1.,0.,-0.));
#15 = MANIFOLD_SOLID_BREP('',#16);
#16 = CLOSED_SHELL('',(#17,#68,#110,#216,#322,#350,#375,#392,#417,#472,
    #487,#504,#558,#593,#605,#636,#679,#703,#739,#770,#813,#837,#873,
    #890,#910,#927,#944,#961,#986,#1003,#1013,#1030,#1042,#1059));
#17 = ADVANCED_FACE('',(#18,#52),#63,.T.);
#18 = FACE_BOUND('',#19,.T.);
#19 = EDGE_LOOP('',(#20,#30,#38,#46));
#20 = ORIENTED_EDGE('',*,*,#21,.F.);
#21 = EDGE_CURVE('',#22,#24,#26,.T.);
#22 = VERTEX_POINT('',#23);
#23 = CARTESIAN_POINT('',(-13.93188055628,27.,19.));
#24 = VERTEX_POINT('',#25);
#25 = CARTESIAN_POINT('',(13.810505786634,27.,19.));
#26 = LINE('',#27,#28);
#27 = CARTESIAN_POINT('',(-13.93188055628,27.,19.));
#28 = VECTOR('',#29,1.);
#29 = DIRECTION('',(1.,0.,0.));
#30 = ORIENTED_EDGE('',*,*,#31,.T.);
#31 = EDGE_CURVE('',#22,#32,#34,.T.);
#32 = VERTEX_POINT('',#33);
#33 = CARTESIAN_POINT('',(-13.93188055628,6.8,19.));
#34 = LINE('',#35,#36);
#35 = CARTESIAN_POINT('',(-13.93188055628,16.4,19.));
#36 = VECTOR('',#37,1.);
#37 = DIRECTION('',(0.,-1.,0.));
#38 = ORIENTED_EDGE('',*,*,#39,.F.);
#39 = EDGE_CURVE('',#40,#32,#42,.T.);
#40 = VERTEX_POINT('',#41);
#41 = CARTESIAN_POINT('',(13.810505786634,6.8,19.));
#42 = LINE('',#43,#44);
#43 = CARTESIAN_POINT('',(13.810505786634,6.8,19.));
#44 = VECTOR('',#45,1.);
#45 = DIRECTION('',(-1.,0.,0.));
#46 = ORIENTED_EDGE('',*,*,#47,.T.);
#47 = EDGE_CURVE('',#40,#24,#48,.T.);
#48 = LINE('',#49,#50);
#49 = CARTESIAN_POINT('',(13.810505786634,-16.86290138325,19.));
#50 = VECTOR('',#51,1.);
#51 = DIRECTION('',(0.,1.,0.));
#52 = FACE_BOUND('',#53,.T.);
#53 = EDGE_LOOP('',(#54));
#54 = ORIENTED_EDGE('',*,*,#55,.T.);
#55 = EDGE_CURVE('',#56,#56,#58,.T.);
#56 = VERTEX_POINT('',#57);
#57 = CARTESIAN_POINT('',(2.6,16.851776695297,19.));
#58 = CIRCLE('',#59,2.6);
#59 = AXIS2_PLACEMENT_3D('',#60,#61,#62);
#60 = CARTESIAN_POINT('',(0.,16.851776695297,19.));
#61 = DIRECTION('',(0.,0.,-1.));
#62 = DIRECTION('',(1.,0.,0.));
#63 = PLANE('',#64);
#64 = AXIS2_PLACEMENT_3D('',#65,#66,#67);
#65 = CARTESIAN_POINT('',(0.,0.,19.));
#66 = DIRECTION('',(0.,0.,1.));
#67 = DIRECTION('',(1.,0.,0.));
#68 = ADVANCED_FACE('',(#69,#94),#105,.F.);
#69 = FACE_BOUND('',#70,.F.);
#70 = EDGE_LOOP('',(#71,#72,#80,#88));
#71 = ORIENTED_EDGE('',*,*,#21,.F.);
#72 = ORIENTED_EDGE('',*,*,#73,.T.);
#73 = EDGE_CURVE('',#22,#74,#76,.T.);
#74 = VERTEX_POINT('',#75);
#75 = CARTESIAN_POINT('',(-13.93188055628,27.,39.));
#76 = LINE('',#77,#78);
#77 = CARTESIAN_POINT('',(-13.93188055628,27.,19.));
#78 = VECTOR('',#79,1.);
#79 = DIRECTION('',(0.,0.,1.));
#80 = ORIENTED_EDGE('',*,*,#81,.T.);
#81 = EDGE_CURVE('',#74,#82,#84,.T.);
#82 = VERTEX_POINT('',#83);
#83 = CARTESIAN_POINT('',(13.810505786634,27.,39.));
#84 = LINE('',#85,#86);
#85 = CARTESIAN_POINT('',(-6.965940278142,27.,39.));
#86 = VECTOR('',#87,1.);
#87 = DIRECTION('',(1.,0.,0.));
#88 = ORIENTED_EDGE('',*,*,#89,.F.);
#89 = EDGE_CURVE('',#24,#82,#90,.T.);
#90 = LINE('',#91,#92);
#91 = CARTESIAN_POINT('',(13.810505786634,27.,19.));
#92 = VECTOR('',#93,1.);
#93 = DIRECTION('',(0.,0.,1.));
#94 = FACE_BOUND('',#95,.F.);
#95 = EDGE_LOOP('',(#96));
#96 = ORIENTED_EDGE('',*,*,#97,.T.);
#97 = EDGE_CURVE('',#98,#98,#100,.T.);
#98 = VERTEX_POINT('',#99);
#99 = CARTESIAN_POINT('',(2.6,27.,29.2));
#100 = CIRCLE('',#101,2.6);
#101 = AXIS2_PLACEMENT_3D('',#102,#103,#104);
#102 = CARTESIAN_POINT('',(0.,27.,29.2));
#103 = DIRECTION('',(0.,-1.,2.2E-16));
#104 = DIRECTION('',(1.,0.,0.));
#105 = PLANE('',#106);
#106 = AXIS2_PLACEMENT_3D('',#107,#108,#109);
#107 = CARTESIAN_POINT('',(-13.93188055628,27.,19.));
#108 = DIRECTION('',(0.,1.,0.));
#109 = DIRECTION('',(1.,0.,0.));
#110 = ADVANCED_FACE('',(#111,#177),#211,.T.);
#111 = FACE_BOUND('',#112,.T.);
#112 = EDGE_LOOP('',(#113,#123,#131,#139,#147,#155,#161,#162,#163,#171)
  );
#113 = ORIENTED_EDGE('',*,*,#114,.T.);
#114 = EDGE_CURVE('',#115,#117,#119,.T.);
#115 = VERTEX_POINT('',#116);
#116 = CARTESIAN_POINT('',(-13.93188055628,32.8,0.));
#117 = VERTEX_POINT('',#118);
#118 = CARTESIAN_POINT('',(-13.93188055628,-33.7258027665,0.));
#119 = LINE('',#120,#121);
#120 = CARTESIAN_POINT('',(-13.93188055628,32.8,0.));
#121 = VECTOR('',#122,1.);
#122 = DIRECTION('',(0.,-1.,0.));
#123 = ORIENTED_EDGE('',*,*,#124,.T.);
#124 = EDGE_CURVE('',#117,#125,#127,.T.);
#125 = VERTEX_POINT('',#126);
#126 = CARTESIAN_POINT('',(-13.93188055628,-33.7258027665,19.));
#127 = LINE('',#128,#129);
#128 = CARTESIAN_POINT('',(-13.93188055628,-33.7258027665,0.));
#129 = VECTOR('',#130,1.);
#130 = DIRECTION('',(0.,0.,1.));
#131 = ORIENTED_EDGE('',*,*,#132,.F.);
#132 = EDGE_CURVE('',#133,#125,#135,.T.);
#133 = VERTEX_POINT('',#134);
#134 = CARTESIAN_POINT('',(-13.93188055628,0.8,19.));
#135 = LINE('',#136,#137);
#136 = CARTESIAN_POINT('',(-13.93188055628,16.4,19.));
#137 = VECTOR('',#138,1.);
#138 = DIRECTION('',(0.,-1.,0.));
#139 = ORIENTED_EDGE('',*,*,#140,.T.);
#140 = EDGE_CURVE('',#133,#141,#143,.T.);
#141 = VERTEX_POINT('',#142);
#142 = CARTESIAN_POINT('',(-13.93188055628,0.8,39.));
#143 = LINE('',#144,#145);
#144 = CARTESIAN_POINT('',(-13.93188055628,0.8,19.));
#145 = VECTOR('',#146,1.);
#146 = DIRECTION('',(0.,0.,1.));
#147 = ORIENTED_EDGE('',*,*,#148,.F.);
#148 = EDGE_CURVE('',#149,#141,#151,.T.);
#149 = VERTEX_POINT('',#150);
#150 = CARTESIAN_POINT('',(-13.93188055628,6.8,39.));
#151 = LINE('',#152,#153);
#152 = CARTESIAN_POINT('',(-13.93188055628,3.4,39.));
#153 = VECTOR('',#154,1.);
#154 = DIRECTION('',(0.,-1.,0.));
#155 = ORIENTED_EDGE('',*,*,#156,.F.);
#156 = EDGE_CURVE('',#32,#149,#157,.T.);
#157 = LINE('',#158,#159);
#158 = CARTESIAN_POINT('',(-13.93188055628,6.8,19.));
#159 = VECTOR('',#160,1.);
#160 = DIRECTION('',(0.,0.,1.));
#161 = ORIENTED_EDGE('',*,*,#31,.F.);
#162 = ORIENTED_EDGE('',*,*,#73,.T.);
#163 = ORIENTED_EDGE('',*,*,#164,.F.);
#164 = EDGE_CURVE('',#165,#74,#167,.T.);
#165 = VERTEX_POINT('',#166);
#166 = CARTESIAN_POINT('',(-13.93188055628,32.8,39.));
#167 = LINE('',#168,#169);
#168 = CARTESIAN_POINT('',(-13.93188055628,16.4,39.));
#169 = VECTOR('',#170,1.);
#170 = DIRECTION('',(0.,-1.,0.));
#171 = ORIENTED_EDGE('',*,*,#172,.F.);
#172 = EDGE_CURVE('',#115,#165,#173,.T.);
#173 = LINE('',#174,#175);
#174 = CARTESIAN_POINT('',(-13.93188055628,32.8,19.));
#175 = VECTOR('',#176,1.);
#176 = DIRECTION('',(0.,0.,1.));
#177 = FACE_BOUND('',#178,.T.);
#178 = EDGE_LOOP('',(#179,#189,#197,#205));
#179 = ORIENTED_EDGE('',*,*,#180,.F.);
#180 = EDGE_CURVE('',#181,#183,#185,.T.);
#181 = VERTEX_POINT('',#182);
#182 = CARTESIAN_POINT('',(-13.93188055628,-13.23061223812,14.85));
#183 = VERTEX_POINT('',#184);
#184 = CARTESIAN_POINT('',(-13.93188055628,-13.23061223812,8.15));
#185 = LINE('',#186,#187);
#186 = CARTESIAN_POINT('',(-13.93188055628,-13.23061223812,
    15.751953822277));
#187 = VECTOR('',#188,1.);
#188 = DIRECTION('',(0.,0.,-1.));
#189 = ORIENTED_EDGE('',*,*,#190,.F.);
#190 = EDGE_CURVE('',#191,#181,#193,.T.);
#191 = VERTEX_POINT('',#192);
#192 = CARTESIAN_POINT('',(-13.93188055628,-26.22099329488,14.85));
#193 = LINE('',#194,#195);
#194 = CARTESIAN_POINT('',(-13.93188055628,-2.835891104832,14.85));
#195 = VECTOR('',#196,1.);
#196 = DIRECTION('',(0.,1.,0.));
#197 = ORIENTED_EDGE('',*,*,#198,.F.);
#198 = EDGE_CURVE('',#199,#191,#201,.T.);
#199 = VERTEX_POINT('',#200);
#200 = CARTESIAN_POINT('',(-13.93188055628,-26.22099329488,8.15));
#201 = LINE('',#202,#203);
#202 = CARTESIAN_POINT('',(-13.93188055628,-26.22099329488,
    15.751953822277));
#203 = VECTOR('',#204,1.);
#204 = DIRECTION('',(0.,0.,1.));
#205 = ORIENTED_EDGE('',*,*,#206,.T.);
#206 = EDGE_CURVE('',#199,#183,#207,.T.);
#207 = LINE('',#208,#209);
#208 = CARTESIAN_POINT('',(-13.93188055628,-2.835891104832,8.15));
#209 = VECTOR('',#210,1.);
#210 = DIRECTION('',(0.,1.,0.));
#211 = PLANE('',#212);
#212 = AXIS2_PLACEMENT_3D('',#213,#214,#215);
#213 = CARTESIAN_POINT('',(-13.93188055628,5.054020556839,
    16.653907644553));
#214 = DIRECTION('',(-1.,-0.,-0.));
#215 = DIRECTION('',(0.,0.,-1.));
#216 = ADVANCED_FACE('',(#217,#283),#317,.T.);
#217 = FACE_BOUND('',#218,.T.);
#218 = EDGE_LOOP('',(#219,#229,#237,#243,#244,#245,#253,#261,#269,#277)
  );
#219 = ORIENTED_EDGE('',*,*,#220,.T.);
#220 = EDGE_CURVE('',#221,#223,#225,.T.);
#221 = VERTEX_POINT('',#222);
#222 = CARTESIAN_POINT('',(13.810505786634,-33.7258027665,0.));
#223 = VERTEX_POINT('',#224);
#224 = CARTESIAN_POINT('',(13.810505786634,32.8,0.));
#225 = LINE('',#226,#227);
#226 = CARTESIAN_POINT('',(13.810505786634,-33.7258027665,0.));
#227 = VECTOR('',#228,1.);
#228 = DIRECTION('',(0.,1.,0.));
#229 = ORIENTED_EDGE('',*,*,#230,.T.);
#230 = EDGE_CURVE('',#223,#231,#233,.T.);
#231 = VERTEX_POINT('',#232);
#232 = CARTESIAN_POINT('',(13.810505786634,32.8,39.));
#233 = LINE('',#234,#235);
#234 = CARTESIAN_POINT('',(13.810505786634,32.8,0.));
#235 = VECTOR('',#236,1.);
#236 = DIRECTION('',(0.,0.,1.));
#237 = ORIENTED_EDGE('',*,*,#238,.F.);
#238 = EDGE_CURVE('',#82,#231,#239,.T.);
#239 = LINE('',#240,#241);
#240 = CARTESIAN_POINT('',(13.810505786634,13.5,39.));
#241 = VECTOR('',#242,1.);
#242 = DIRECTION('',(0.,1.,0.));
#243 = ORIENTED_EDGE('',*,*,#89,.F.);
#244 = ORIENTED_EDGE('',*,*,#47,.F.);
#245 = ORIENTED_EDGE('',*,*,#246,.T.);
#246 = EDGE_CURVE('',#40,#247,#249,.T.);
#247 = VERTEX_POINT('',#248);
#248 = CARTESIAN_POINT('',(13.810505786634,6.8,39.));
#249 = LINE('',#250,#251);
#250 = CARTESIAN_POINT('',(13.810505786634,6.8,19.));
#251 = VECTOR('',#252,1.);
#252 = DIRECTION('',(0.,0.,1.));
#253 = ORIENTED_EDGE('',*,*,#254,.F.);
#254 = EDGE_CURVE('',#255,#247,#257,.T.);
#255 = VERTEX_POINT('',#256);
#256 = CARTESIAN_POINT('',(13.810505786634,0.8,39.));
#257 = LINE('',#258,#259);
#258 = CARTESIAN_POINT('',(13.810505786634,0.4,39.));
#259 = VECTOR('',#260,1.);
#260 = DIRECTION('',(0.,1.,0.));
#261 = ORIENTED_EDGE('',*,*,#262,.F.);
#262 = EDGE_CURVE('',#263,#255,#265,.T.);
#263 = VERTEX_POINT('',#264);
#264 = CARTESIAN_POINT('',(13.810505786634,0.8,19.));
#265 = LINE('',#266,#267);
#266 = CARTESIAN_POINT('',(13.810505786634,0.8,19.));
#267 = VECTOR('',#268,1.);
#268 = DIRECTION('',(0.,0.,1.));
#269 = ORIENTED_EDGE('',*,*,#270,.F.);
#270 = EDGE_CURVE('',#271,#263,#273,.T.);
#271 = VERTEX_POINT('',#272);
#272 = CARTESIAN_POINT('',(13.810505786634,-33.7258027665,19.));
#273 = LINE('',#274,#275);
#274 = CARTESIAN_POINT('',(13.810505786634,-16.86290138325,19.));
#275 = VECTOR('',#276,1.);
#276 = DIRECTION('',(0.,1.,0.));
#277 = ORIENTED_EDGE('',*,*,#278,.F.);
#278 = EDGE_CURVE('',#221,#271,#279,.T.);
#279 = LINE('',#280,#281);
#280 = CARTESIAN_POINT('',(13.810505786634,-33.7258027665,0.));
#281 = VECTOR('',#282,1.);
#282 = DIRECTION('',(0.,0.,1.));
#283 = FACE_BOUND('',#284,.T.);
#284 = EDGE_LOOP('',(#285,#295,#303,#311));
#285 = ORIENTED_EDGE('',*,*,#286,.F.);
#286 = EDGE_CURVE('',#287,#289,#291,.T.);
#287 = VERTEX_POINT('',#288);
#288 = CARTESIAN_POINT('',(13.810505786634,4.76938776188,8.15));
#289 = VERTEX_POINT('',#290);
#290 = CARTESIAN_POINT('',(13.810505786634,4.76938776188,14.85));
#291 = LINE('',#292,#293);
#292 = CARTESIAN_POINT('',(13.810505786634,4.76938776188,15.751953822277
    ));
#293 = VECTOR('',#294,1.);
#294 = DIRECTION('',(0.,0.,1.));
#295 = ORIENTED_EDGE('',*,*,#296,.T.);
#296 = EDGE_CURVE('',#287,#297,#299,.T.);
#297 = VERTEX_POINT('',#298);
#298 = CARTESIAN_POINT('',(13.810505786634,-8.220993294887,8.15));
#299 = LINE('',#300,#301);
#300 = CARTESIAN_POINT('',(13.810505786634,-2.835891104832,8.15));
#301 = VECTOR('',#302,1.);
#302 = DIRECTION('',(0.,-1.,0.));
#303 = ORIENTED_EDGE('',*,*,#304,.F.);
#304 = EDGE_CURVE('',#305,#297,#307,.T.);
#305 = VERTEX_POINT('',#306);
#306 = CARTESIAN_POINT('',(13.810505786634,-8.220993294887,14.85));
#307 = LINE('',#308,#309);
#308 = CARTESIAN_POINT('',(13.810505786634,-8.220993294887,
    15.751953822277));
#309 = VECTOR('',#310,1.);
#310 = DIRECTION('',(0.,0.,-1.));
#311 = ORIENTED_EDGE('',*,*,#312,.F.);
#312 = EDGE_CURVE('',#289,#305,#313,.T.);
#313 = LINE('',#314,#315);
#314 = CARTESIAN_POINT('',(13.810505786634,-2.835891104832,14.85));
#315 = VECTOR('',#316,1.);
#316 = DIRECTION('',(0.,-1.,0.));
#317 = PLANE('',#318);
#318 = AXIS2_PLACEMENT_3D('',#319,#320,#321);
#319 = CARTESIAN_POINT('',(13.810505786634,5.054020556839,
    16.653907644553));
#320 = DIRECTION('',(1.,0.,0.));
#321 = DIRECTION('',(0.,0.,1.));
#322 = ADVANCED_FACE('',(#323,#334),#345,.F.);
#323 = FACE_BOUND('',#324,.F.);
#324 = EDGE_LOOP('',(#325,#326,#327,#333));
#325 = ORIENTED_EDGE('',*,*,#39,.F.);
#326 = ORIENTED_EDGE('',*,*,#246,.T.);
#327 = ORIENTED_EDGE('',*,*,#328,.T.);
#328 = EDGE_CURVE('',#247,#149,#329,.T.);
#329 = LINE('',#330,#331);
#330 = CARTESIAN_POINT('',(6.905252893317,6.8,39.));
#331 = VECTOR('',#332,1.);
#332 = DIRECTION('',(-1.,0.,0.));
#333 = ORIENTED_EDGE('',*,*,#156,.F.);
#334 = FACE_BOUND('',#335,.F.);
#335 = EDGE_LOOP('',(#336));
#336 = ORIENTED_EDGE('',*,*,#337,.F.);
#337 = EDGE_CURVE('',#338,#338,#340,.T.);
#338 = VERTEX_POINT('',#339);
#339 = CARTESIAN_POINT('',(2.6,6.8,29.2));
#340 = CIRCLE('',#341,2.6);
#341 = AXIS2_PLACEMENT_3D('',#342,#343,#344);
#342 = CARTESIAN_POINT('',(0.,6.8,29.2));
#343 = DIRECTION('',(0.,-1.,2.2E-16));
#344 = DIRECTION('',(1.,0.,0.));
#345 = PLANE('',#346);
#346 = AXIS2_PLACEMENT_3D('',#347,#348,#349);
#347 = CARTESIAN_POINT('',(13.810505786634,6.8,19.));
#348 = DIRECTION('',(0.,-1.,0.));
#349 = DIRECTION('',(-1.,0.,0.));
#350 = ADVANCED_FACE('',(#351),#370,.F.);
#351 = FACE_BOUND('',#352,.T.);
#352 = EDGE_LOOP('',(#353,#362,#368,#369));
#353 = ORIENTED_EDGE('',*,*,#354,.T.);
#354 = EDGE_CURVE('',#355,#355,#357,.T.);
#355 = VERTEX_POINT('',#356);
#356 = CARTESIAN_POINT('',(2.6,16.851776695297,14.));
#357 = CIRCLE('',#358,2.6);
#358 = AXIS2_PLACEMENT_3D('',#359,#360,#361);
#359 = CARTESIAN_POINT('',(0.,16.851776695297,14.));
#360 = DIRECTION('',(0.,0.,-1.));
#361 = DIRECTION('',(1.,0.,0.));
#362 = ORIENTED_EDGE('',*,*,#363,.T.);
#363 = EDGE_CURVE('',#355,#56,#364,.T.);
#364 = LINE('',#365,#366);
#365 = CARTESIAN_POINT('',(2.6,16.851776695297,0.));
#366 = VECTOR('',#367,1.);
#367 = DIRECTION('',(0.,0.,1.));
#368 = ORIENTED_EDGE('',*,*,#55,.F.);
#369 = ORIENTED_EDGE('',*,*,#363,.F.);
#370 = CYLINDRICAL_SURFACE('',#371,2.6);
#371 = AXIS2_PLACEMENT_3D('',#372,#373,#374);
#372 = CARTESIAN_POINT('',(0.,16.851776695297,0.));
#373 = DIRECTION('',(-0.,-0.,-1.));
#374 = DIRECTION('',(1.,0.,0.));
#375 = ADVANCED_FACE('',(#376),#387,.T.);
#376 = FACE_BOUND('',#377,.T.);
#377 = EDGE_LOOP('',(#378,#384,#385,#386));
#378 = ORIENTED_EDGE('',*,*,#379,.T.);
#379 = EDGE_CURVE('',#231,#165,#380,.T.);
#380 = LINE('',#381,#382);
#381 = CARTESIAN_POINT('',(6.905252893317,32.8,39.));
#382 = VECTOR('',#383,1.);
#383 = DIRECTION('',(-1.,0.,0.));
#384 = ORIENTED_EDGE('',*,*,#164,.T.);
#385 = ORIENTED_EDGE('',*,*,#81,.T.);
#386 = ORIENTED_EDGE('',*,*,#238,.T.);
#387 = PLANE('',#388);
#388 = AXIS2_PLACEMENT_3D('',#389,#390,#391);
#389 = CARTESIAN_POINT('',(0.,0.,39.));
#390 = DIRECTION('',(0.,0.,1.));
#391 = DIRECTION('',(1.,0.,0.));
#392 = ADVANCED_FACE('',(#393),#412,.F.);
#393 = FACE_BOUND('',#394,.F.);
#394 = EDGE_LOOP('',(#395,#396,#404,#411));
#395 = ORIENTED_EDGE('',*,*,#97,.F.);
#396 = ORIENTED_EDGE('',*,*,#397,.T.);
#397 = EDGE_CURVE('',#98,#398,#400,.T.);
#398 = VERTEX_POINT('',#399);
#399 = CARTESIAN_POINT('',(2.6,32.8,29.2));
#400 = LINE('',#401,#402);
#401 = CARTESIAN_POINT('',(2.6,6.48E-15,29.2));
#402 = VECTOR('',#403,1.);
#403 = DIRECTION('',(0.,1.,-2.2E-16));
#404 = ORIENTED_EDGE('',*,*,#405,.T.);
#405 = EDGE_CURVE('',#398,#398,#406,.T.);
#406 = CIRCLE('',#407,2.6);
#407 = AXIS2_PLACEMENT_3D('',#408,#409,#410);
#408 = CARTESIAN_POINT('',(0.,32.8,29.2));
#409 = DIRECTION('',(0.,-1.,2.2E-16));
#410 = DIRECTION('',(1.,0.,0.));
#411 = ORIENTED_EDGE('',*,*,#397,.F.);
#412 = CYLINDRICAL_SURFACE('',#413,2.6);
#413 = AXIS2_PLACEMENT_3D('',#414,#415,#416);
#414 = CARTESIAN_POINT('',(0.,6.48E-15,29.2));
#415 = DIRECTION('',(0.,-1.,2.2E-16));
#416 = DIRECTION('',(1.,0.,0.));
#417 = ADVANCED_FACE('',(#418,#434,#445,#456),#467,.F.);
#418 = FACE_BOUND('',#419,.F.);
#419 = EDGE_LOOP('',(#420,#426,#427,#433));
#420 = ORIENTED_EDGE('',*,*,#421,.T.);
#421 = EDGE_CURVE('',#117,#221,#422,.T.);
#422 = LINE('',#423,#424);
#423 = CARTESIAN_POINT('',(-13.93188055628,-33.7258027665,0.));
#424 = VECTOR('',#425,1.);
#425 = DIRECTION('',(1.,0.,0.));
#426 = ORIENTED_EDGE('',*,*,#220,.T.);
#427 = ORIENTED_EDGE('',*,*,#428,.T.);
#428 = EDGE_CURVE('',#223,#115,#429,.T.);
#429 = LINE('',#430,#431);
#430 = CARTESIAN_POINT('',(13.810505786634,32.8,0.));
#431 = VECTOR('',#432,1.);
#432 = DIRECTION('',(-1.,0.,0.));
#433 = ORIENTED_EDGE('',*,*,#114,.T.);
#434 = FACE_BOUND('',#435,.F.);
#435 = EDGE_LOOP('',(#436));
#436 = ORIENTED_EDGE('',*,*,#437,.F.);
#437 = EDGE_CURVE('',#438,#438,#440,.T.);
#438 = VERTEX_POINT('',#439);
#439 = CARTESIAN_POINT('',(4.089312615175,-19.7258027665,0.));
#440 = CIRCLE('',#441,4.15);
#441 = AXIS2_PLACEMENT_3D('',#442,#443,#444);
#442 = CARTESIAN_POINT('',(-6.068738482503E-02,-19.7258027665,0.));
#443 = DIRECTION('',(0.,0.,1.));
#444 = DIRECTION('',(1.,0.,0.));
#445 = FACE_BOUND('',#446,.F.);
#446 = EDGE_LOOP('',(#447));
#447 = ORIENTED_EDGE('',*,*,#448,.F.);
#448 = EDGE_CURVE('',#449,#449,#451,.T.);
#449 = VERTEX_POINT('',#450);
#450 = CARTESIAN_POINT('',(4.089312615175,-1.725802766503,0.));
#451 = CIRCLE('',#452,4.15);
#452 = AXIS2_PLACEMENT_3D('',#453,#454,#455);
#453 = CARTESIAN_POINT('',(-6.068738482514E-02,-1.725802766503,0.));
#454 = DIRECTION('',(0.,0.,1.));
#455 = DIRECTION('',(1.,0.,0.));
#456 = FACE_BOUND('',#457,.F.);
#457 = EDGE_LOOP('',(#458));
#458 = ORIENTED_EDGE('',*,*,#459,.F.);
#459 = EDGE_CURVE('',#460,#460,#462,.T.);
#460 = VERTEX_POINT('',#461);
#461 = CARTESIAN_POINT('',(5.1,16.851776695297,0.));
#462 = CIRCLE('',#463,5.1);
#463 = AXIS2_PLACEMENT_3D('',#464,#465,#466);
#464 = CARTESIAN_POINT('',(0.,16.851776695297,0.));
#465 = DIRECTION('',(0.,0.,1.));
#466 = DIRECTION('',(1.,0.,0.));
#467 = PLANE('',#468);
#468 = AXIS2_PLACEMENT_3D('',#469,#470,#471);
#469 = CARTESIAN_POINT('',(-6.068738482528E-02,-2.373505672375,0.));
#470 = DIRECTION('',(0.,0.,1.));
#471 = DIRECTION('',(1.,0.,0.));
#472 = ADVANCED_FACE('',(#473,#479),#482,.T.);
#473 = FACE_BOUND('',#474,.T.);
#474 = EDGE_LOOP('',(#475,#476,#477,#478));
#475 = ORIENTED_EDGE('',*,*,#428,.T.);
#476 = ORIENTED_EDGE('',*,*,#172,.T.);
#477 = ORIENTED_EDGE('',*,*,#379,.F.);
#478 = ORIENTED_EDGE('',*,*,#230,.F.);
#479 = FACE_BOUND('',#480,.T.);
#480 = EDGE_LOOP('',(#481));
#481 = ORIENTED_EDGE('',*,*,#405,.T.);
#482 = PLANE('',#483);
#483 = AXIS2_PLACEMENT_3D('',#484,#485,#486);
#484 = CARTESIAN_POINT('',(-6.068738482533E-02,32.8,19.5));
#485 = DIRECTION('',(0.,1.,0.));
#486 = DIRECTION('',(0.,0.,1.));
#487 = ADVANCED_FACE('',(#488),#499,.F.);
#488 = FACE_BOUND('',#489,.F.);
#489 = EDGE_LOOP('',(#490,#491,#492,#498));
#490 = ORIENTED_EDGE('',*,*,#421,.F.);
#491 = ORIENTED_EDGE('',*,*,#124,.T.);
#492 = ORIENTED_EDGE('',*,*,#493,.T.);
#493 = EDGE_CURVE('',#125,#271,#494,.T.);
#494 = LINE('',#495,#496);
#495 = CARTESIAN_POINT('',(-6.965940278142,-33.7258027665,19.));
#496 = VECTOR('',#497,1.);
#497 = DIRECTION('',(1.,0.,0.));
#498 = ORIENTED_EDGE('',*,*,#278,.F.);
#499 = PLANE('',#500);
#500 = AXIS2_PLACEMENT_3D('',#501,#502,#503);
#501 = CARTESIAN_POINT('',(-13.93188055628,-33.7258027665,0.));
#502 = DIRECTION('',(0.,1.,0.));
#503 = DIRECTION('',(1.,0.,0.));
#504 = ADVANCED_FACE('',(#505,#542),#553,.T.);
#505 = FACE_BOUND('',#506,.T.);
#506 = EDGE_LOOP('',(#507,#515,#516,#517,#518,#526,#535));
#507 = ORIENTED_EDGE('',*,*,#508,.F.);
#508 = EDGE_CURVE('',#133,#509,#511,.T.);
#509 = VERTEX_POINT('',#510);
#510 = CARTESIAN_POINT('',(-3.353531199026,0.8,19.));
#511 = LINE('',#512,#513);
#512 = CARTESIAN_POINT('',(-13.93188055628,0.8,19.));
#513 = VECTOR('',#514,1.);
#514 = DIRECTION('',(1.,0.,0.));
#515 = ORIENTED_EDGE('',*,*,#132,.T.);
#516 = ORIENTED_EDGE('',*,*,#493,.T.);
#517 = ORIENTED_EDGE('',*,*,#270,.T.);
#518 = ORIENTED_EDGE('',*,*,#519,.F.);
#519 = EDGE_CURVE('',#520,#263,#522,.T.);
#520 = VERTEX_POINT('',#521);
#521 = CARTESIAN_POINT('',(3.232156429376,0.8,19.));
#522 = LINE('',#523,#524);
#523 = CARTESIAN_POINT('',(-13.93188055628,0.8,19.));
#524 = VECTOR('',#525,1.);
#525 = DIRECTION('',(1.,0.,0.));
#526 = ORIENTED_EDGE('',*,*,#527,.T.);
#527 = EDGE_CURVE('',#520,#528,#530,.T.);
#528 = VERTEX_POINT('',#529);
#529 = CARTESIAN_POINT('',(4.089312615175,-1.725802766503,19.));
#530 = CIRCLE('',#531,4.15);
#531 = AXIS2_PLACEMENT_3D('',#532,#533,#534);
#532 = CARTESIAN_POINT('',(-6.068738482514E-02,-1.725802766503,19.));
#533 = DIRECTION('',(0.,0.,-1.));
#534 = DIRECTION('',(1.,0.,0.));
#535 = ORIENTED_EDGE('',*,*,#536,.T.);
#536 = EDGE_CURVE('',#528,#509,#537,.T.);
#537 = CIRCLE('',#538,4.15);
#538 = AXIS2_PLACEMENT_3D('',#539,#540,#541);
#539 = CARTESIAN_POINT('',(-6.068738482514E-02,-1.725802766503,19.));
#540 = DIRECTION('',(0.,0.,-1.));
#541 = DIRECTION('',(1.,0.,0.));
#542 = FACE_BOUND('',#543,.T.);
#543 = EDGE_LOOP('',(#544));
#544 = ORIENTED_EDGE('',*,*,#545,.T.);
#545 = EDGE_CURVE('',#546,#546,#548,.T.);
#546 = VERTEX_POINT('',#547);
#547 = CARTESIAN_POINT('',(4.089312615175,-19.7258027665,19.));
#548 = CIRCLE('',#549,4.15);
#549 = AXIS2_PLACEMENT_3D('',#550,#551,#552);
#550 = CARTESIAN_POINT('',(-6.068738482503E-02,-19.7258027665,19.));
#551 = DIRECTION('',(0.,0.,-1.));
#552 = DIRECTION('',(1.,0.,0.));
#553 = PLANE('',#554);
#554 = AXIS2_PLACEMENT_3D('',#555,#556,#557);
#555 = CARTESIAN_POINT('',(0.,0.,19.));
#556 = DIRECTION('',(0.,0.,1.));
#557 = DIRECTION('',(1.,0.,0.));
#558 = ADVANCED_FACE('',(#559,#577),#588,.F.);
#559 = FACE_BOUND('',#560,.F.);
#560 = EDGE_LOOP('',(#561,#562,#563,#569,#570,#571));
#561 = ORIENTED_EDGE('',*,*,#508,.F.);
#562 = ORIENTED_EDGE('',*,*,#140,.T.);
#563 = ORIENTED_EDGE('',*,*,#564,.T.);
#564 = EDGE_CURVE('',#141,#255,#565,.T.);
#565 = LINE('',#566,#567);
#566 = CARTESIAN_POINT('',(-6.965940278142,0.8,39.));
#567 = VECTOR('',#568,1.);
#568 = DIRECTION('',(1.,0.,0.));
#569 = ORIENTED_EDGE('',*,*,#262,.F.);
#570 = ORIENTED_EDGE('',*,*,#519,.F.);
#571 = ORIENTED_EDGE('',*,*,#572,.F.);
#572 = EDGE_CURVE('',#509,#520,#573,.T.);
#573 = LINE('',#574,#575);
#574 = CARTESIAN_POINT('',(-13.93188055628,0.8,19.));
#575 = VECTOR('',#576,1.);
#576 = DIRECTION('',(1.,0.,0.));
#577 = FACE_BOUND('',#578,.F.);
#578 = EDGE_LOOP('',(#579));
#579 = ORIENTED_EDGE('',*,*,#580,.T.);
#580 = EDGE_CURVE('',#581,#581,#583,.T.);
#581 = VERTEX_POINT('',#582);
#582 = CARTESIAN_POINT('',(2.6,0.8,29.2));
#583 = CIRCLE('',#584,2.6);
#584 = AXIS2_PLACEMENT_3D('',#585,#586,#587);
#585 = CARTESIAN_POINT('',(0.,0.8,29.2));
#586 = DIRECTION('',(0.,-1.,2.2E-16));
#587 = DIRECTION('',(1.,0.,0.));
#588 = PLANE('',#589);
#589 = AXIS2_PLACEMENT_3D('',#590,#591,#592);
#590 = CARTESIAN_POINT('',(-13.93188055628,0.8,19.));
#591 = DIRECTION('',(0.,1.,0.));
#592 = DIRECTION('',(1.,0.,0.));
#593 = ADVANCED_FACE('',(#594),#600,.T.);
#594 = FACE_BOUND('',#595,.T.);
#595 = EDGE_LOOP('',(#596,#597,#598,#599));
#596 = ORIENTED_EDGE('',*,*,#148,.T.);
#597 = ORIENTED_EDGE('',*,*,#564,.T.);
#598 = ORIENTED_EDGE('',*,*,#254,.T.);
#599 = ORIENTED_EDGE('',*,*,#328,.T.);
#600 = PLANE('',#601);
#601 = AXIS2_PLACEMENT_3D('',#602,#603,#604);
#602 = CARTESIAN_POINT('',(0.,0.,39.));
#603 = DIRECTION('',(0.,0.,1.));
#604 = DIRECTION('',(1.,0.,0.));
#605 = ADVANCED_FACE('',(#606),#631,.F.);
#606 = FACE_BOUND('',#607,.F.);
#607 = EDGE_LOOP('',(#608,#616,#624,#630));
#608 = ORIENTED_EDGE('',*,*,#609,.F.);
#609 = EDGE_CURVE('',#610,#181,#612,.T.);
#610 = VERTEX_POINT('',#611);
#611 = CARTESIAN_POINT('',(3.689312615175,-13.23061223812,14.85));
#612 = LINE('',#613,#614);
#613 = CARTESIAN_POINT('',(3.689312615175,-13.23061223812,14.85));
#614 = VECTOR('',#615,1.);
#615 = DIRECTION('',(-1.,0.,0.));
#616 = ORIENTED_EDGE('',*,*,#617,.T.);
#617 = EDGE_CURVE('',#610,#618,#620,.T.);
#618 = VERTEX_POINT('',#619);
#619 = CARTESIAN_POINT('',(3.689312615175,-13.23061223812,8.15));
#620 = LINE('',#621,#622);
#621 = CARTESIAN_POINT('',(3.689312615175,-13.23061223812,14.85));
#622 = VECTOR('',#623,1.);
#623 = DIRECTION('',(-0.,-0.,-1.));
#624 = ORIENTED_EDGE('',*,*,#625,.T.);
#625 = EDGE_CURVE('',#618,#183,#626,.T.);
#626 = LINE('',#627,#628);
#627 = CARTESIAN_POINT('',(3.689312615175,-13.23061223812,8.15));
#628 = VECTOR('',#629,1.);
#629 = DIRECTION('',(-1.,0.,0.));
#630 = ORIENTED_EDGE('',*,*,#180,.F.);
#631 = PLANE('',#632);
#632 = AXIS2_PLACEMENT_3D('',#633,#634,#635);
#633 = CARTESIAN_POINT('',(3.689312615175,-13.23061223812,14.85));
#634 = DIRECTION('',(0.,1.,0.));
#635 = DIRECTION('',(-1.,0.,0.));
#636 = ADVANCED_FACE('',(#637,#663),#674,.T.);
#637 = FACE_BOUND('',#638,.T.);
#638 = EDGE_LOOP('',(#639,#649,#655,#656,#657));
#639 = ORIENTED_EDGE('',*,*,#640,.T.);
#640 = EDGE_CURVE('',#641,#643,#645,.T.);
#641 = VERTEX_POINT('',#642);
#642 = CARTESIAN_POINT('',(3.689312615175,-26.22099329488,8.15));
#643 = VERTEX_POINT('',#644);
#644 = CARTESIAN_POINT('',(7.439312615175,-19.7258027665,8.15));
#645 = LINE('',#646,#647);
#646 = CARTESIAN_POINT('',(3.689312615175,-26.22099329488,8.15));
#647 = VECTOR('',#648,1.);
#648 = DIRECTION('',(0.5,0.866025403784,0.));
#649 = ORIENTED_EDGE('',*,*,#650,.T.);
#650 = EDGE_CURVE('',#643,#618,#651,.T.);
#651 = LINE('',#652,#653);
#652 = CARTESIAN_POINT('',(7.439312615175,-19.7258027665,8.15));
#653 = VECTOR('',#654,1.);
#654 = DIRECTION('',(-0.5,0.866025403784,0.));
#655 = ORIENTED_EDGE('',*,*,#625,.T.);
#656 = ORIENTED_EDGE('',*,*,#206,.F.);
#657 = ORIENTED_EDGE('',*,*,#658,.T.);
#658 = EDGE_CURVE('',#199,#641,#659,.T.);
#659 = LINE('',#660,#661);
#660 = CARTESIAN_POINT('',(-16.31068738482,-26.22099329488,8.15));
#661 = VECTOR('',#662,1.);
#662 = DIRECTION('',(1.,0.,0.));
#663 = FACE_BOUND('',#664,.T.);
#664 = EDGE_LOOP('',(#665));
#665 = ORIENTED_EDGE('',*,*,#666,.T.);
#666 = EDGE_CURVE('',#667,#667,#669,.T.);
#667 = VERTEX_POINT('',#668);
#668 = CARTESIAN_POINT('',(4.089312615175,-19.7258027665,8.15));
#669 = CIRCLE('',#670,4.15);
#670 = AXIS2_PLACEMENT_3D('',#671,#672,#673);
#671 = CARTESIAN_POINT('',(-6.068738482503E-02,-19.7258027665,8.15));
#672 = DIRECTION('',(0.,0.,-1.));
#673 = DIRECTION('',(1.,0.,0.));
#674 = PLANE('',#675);
#675 = AXIS2_PLACEMENT_3D('',#676,#677,#678);
#676 = CARTESIAN_POINT('',(-6.068738482509E-02,-10.7258027665,8.15));
#677 = DIRECTION('',(0.,0.,1.));
#678 = DIRECTION('',(1.,0.,0.));
#679 = ADVANCED_FACE('',(#680),#698,.F.);
#680 = FACE_BOUND('',#681,.F.);
#681 = EDGE_LOOP('',(#682,#690,#691,#692));
#682 = ORIENTED_EDGE('',*,*,#683,.F.);
#683 = EDGE_CURVE('',#191,#684,#686,.T.);
#684 = VERTEX_POINT('',#685);
#685 = CARTESIAN_POINT('',(3.689312615175,-26.22099329488,14.85));
#686 = LINE('',#687,#688);
#687 = CARTESIAN_POINT('',(-16.31068738482,-26.22099329488,14.85));
#688 = VECTOR('',#689,1.);
#689 = DIRECTION('',(1.,0.,0.));
#690 = ORIENTED_EDGE('',*,*,#198,.F.);
#691 = ORIENTED_EDGE('',*,*,#658,.T.);
#692 = ORIENTED_EDGE('',*,*,#693,.F.);
#693 = EDGE_CURVE('',#684,#641,#694,.T.);
#694 = LINE('',#695,#696);
#695 = CARTESIAN_POINT('',(3.689312615175,-26.22099329488,14.85));
#696 = VECTOR('',#697,1.);
#697 = DIRECTION('',(-0.,-0.,-1.));
#698 = PLANE('',#699);
#699 = AXIS2_PLACEMENT_3D('',#700,#701,#702);
#700 = CARTESIAN_POINT('',(-16.31068738482,-26.22099329488,14.85));
#701 = DIRECTION('',(0.,-1.,0.));
#702 = DIRECTION('',(1.,0.,0.));
#703 = ADVANCED_FACE('',(#704,#723),#734,.F.);
#704 = FACE_BOUND('',#705,.F.);
#705 = EDGE_LOOP('',(#706,#714,#720,#721,#722));
#706 = ORIENTED_EDGE('',*,*,#707,.T.);
#707 = EDGE_CURVE('',#684,#708,#710,.T.);
#708 = VERTEX_POINT('',#709);
#709 = CARTESIAN_POINT('',(7.439312615175,-19.7258027665,14.85));
#710 = LINE('',#711,#712);
#711 = CARTESIAN_POINT('',(3.689312615175,-26.22099329488,14.85));
#712 = VECTOR('',#713,1.);
#713 = DIRECTION('',(0.5,0.866025403784,0.));
#714 = ORIENTED_EDGE('',*,*,#715,.T.);
#715 = EDGE_CURVE('',#708,#610,#716,.T.);
#716 = LINE('',#717,#718);
#717 = CARTESIAN_POINT('',(7.439312615175,-19.7258027665,14.85));
#718 = VECTOR('',#719,1.);
#719 = DIRECTION('',(-0.5,0.866025403784,0.));
#720 = ORIENTED_EDGE('',*,*,#609,.T.);
#721 = ORIENTED_EDGE('',*,*,#190,.F.);
#722 = ORIENTED_EDGE('',*,*,#683,.T.);
#723 = FACE_BOUND('',#724,.F.);
#724 = EDGE_LOOP('',(#725));
#725 = ORIENTED_EDGE('',*,*,#726,.T.);
#726 = EDGE_CURVE('',#727,#727,#729,.T.);
#727 = VERTEX_POINT('',#728);
#728 = CARTESIAN_POINT('',(4.089312615175,-19.7258027665,14.85));
#729 = CIRCLE('',#730,4.15);
#730 = AXIS2_PLACEMENT_3D('',#731,#732,#733);
#731 = CARTESIAN_POINT('',(-6.068738482503E-02,-19.7258027665,14.85));
#732 = DIRECTION('',(0.,0.,-1.));
#733 = DIRECTION('',(1.,0.,0.));
#734 = PLANE('',#735);
#735 = AXIS2_PLACEMENT_3D('',#736,#737,#738);
#736 = CARTESIAN_POINT('',(-6.068738482509E-02,-10.7258027665,14.85));
#737 = DIRECTION('',(0.,0.,1.));
#738 = DIRECTION('',(1.,0.,0.));
#739 = ADVANCED_FACE('',(#740),#765,.F.);
#740 = FACE_BOUND('',#741,.F.);
#741 = EDGE_LOOP('',(#742,#750,#751,#759));
#742 = ORIENTED_EDGE('',*,*,#743,.F.);
#743 = EDGE_CURVE('',#289,#744,#746,.T.);
#744 = VERTEX_POINT('',#745);
#745 = CARTESIAN_POINT('',(-3.810687384825,4.76938776188,14.85));
#746 = LINE('',#747,#748);
#747 = CARTESIAN_POINT('',(16.189312615175,4.76938776188,14.85));
#748 = VECTOR('',#749,1.);
#749 = DIRECTION('',(-1.,0.,0.));
#750 = ORIENTED_EDGE('',*,*,#286,.F.);
#751 = ORIENTED_EDGE('',*,*,#752,.T.);
#752 = EDGE_CURVE('',#287,#753,#755,.T.);
#753 = VERTEX_POINT('',#754);
#754 = CARTESIAN_POINT('',(-3.810687384825,4.76938776188,8.15));
#755 = LINE('',#756,#757);
#756 = CARTESIAN_POINT('',(16.189312615175,4.76938776188,8.15));
#757 = VECTOR('',#758,1.);
#758 = DIRECTION('',(-1.,0.,0.));
#759 = ORIENTED_EDGE('',*,*,#760,.F.);
#760 = EDGE_CURVE('',#744,#753,#761,.T.);
#761 = LINE('',#762,#763);
#762 = CARTESIAN_POINT('',(-3.810687384825,4.76938776188,14.85));
#763 = VECTOR('',#764,1.);
#764 = DIRECTION('',(-0.,-0.,-1.));
#765 = PLANE('',#766);
#766 = AXIS2_PLACEMENT_3D('',#767,#768,#769);
#767 = CARTESIAN_POINT('',(16.189312615175,4.76938776188,14.85));
#768 = DIRECTION('',(0.,1.,0.));
#769 = DIRECTION('',(-1.,0.,0.));
#770 = ADVANCED_FACE('',(#771,#797),#808,.F.);
#771 = FACE_BOUND('',#772,.F.);
#772 = EDGE_LOOP('',(#773,#774,#775,#783,#791));
#773 = ORIENTED_EDGE('',*,*,#312,.F.);
#774 = ORIENTED_EDGE('',*,*,#743,.T.);
#775 = ORIENTED_EDGE('',*,*,#776,.T.);
#776 = EDGE_CURVE('',#744,#777,#779,.T.);
#777 = VERTEX_POINT('',#778);
#778 = CARTESIAN_POINT('',(-7.560687384825,-1.725802766503,14.85));
#779 = LINE('',#780,#781);
#780 = CARTESIAN_POINT('',(-3.810687384825,4.76938776188,14.85));
#781 = VECTOR('',#782,1.);
#782 = DIRECTION('',(-0.5,-0.866025403784,0.));
#783 = ORIENTED_EDGE('',*,*,#784,.T.);
#784 = EDGE_CURVE('',#777,#785,#787,.T.);
#785 = VERTEX_POINT('',#786);
#786 = CARTESIAN_POINT('',(-3.810687384825,-8.220993294887,14.85));
#787 = LINE('',#788,#789);
#788 = CARTESIAN_POINT('',(-7.560687384825,-1.725802766503,14.85));
#789 = VECTOR('',#790,1.);
#790 = DIRECTION('',(0.5,-0.866025403784,0.));
#791 = ORIENTED_EDGE('',*,*,#792,.T.);
#792 = EDGE_CURVE('',#785,#305,#793,.T.);
#793 = LINE('',#794,#795);
#794 = CARTESIAN_POINT('',(-3.810687384825,-8.220993294887,14.85));
#795 = VECTOR('',#796,1.);
#796 = DIRECTION('',(1.,0.,0.));
#797 = FACE_BOUND('',#798,.F.);
#798 = EDGE_LOOP('',(#799));
#799 = ORIENTED_EDGE('',*,*,#800,.T.);
#800 = EDGE_CURVE('',#801,#801,#803,.T.);
#801 = VERTEX_POINT('',#802);
#802 = CARTESIAN_POINT('',(4.089312615175,-1.725802766503,14.85));
#803 = CIRCLE('',#804,4.15);
#804 = AXIS2_PLACEMENT_3D('',#805,#806,#807);
#805 = CARTESIAN_POINT('',(-6.068738482514E-02,-1.725802766503,14.85));
#806 = DIRECTION('',(0.,0.,-1.));
#807 = DIRECTION('',(1.,0.,0.));
#808 = PLANE('',#809);
#809 = AXIS2_PLACEMENT_3D('',#810,#811,#812);
#810 = CARTESIAN_POINT('',(-6.068738482509E-02,-10.7258027665,14.85));
#811 = DIRECTION('',(0.,0.,1.));
#812 = DIRECTION('',(1.,0.,0.));
#813 = ADVANCED_FACE('',(#814),#832,.F.);
#814 = FACE_BOUND('',#815,.F.);
#815 = EDGE_LOOP('',(#816,#817,#825,#831));
#816 = ORIENTED_EDGE('',*,*,#792,.F.);
#817 = ORIENTED_EDGE('',*,*,#818,.T.);
#818 = EDGE_CURVE('',#785,#819,#821,.T.);
#819 = VERTEX_POINT('',#820);
#820 = CARTESIAN_POINT('',(-3.810687384825,-8.220993294887,8.15));
#821 = LINE('',#822,#823);
#822 = CARTESIAN_POINT('',(-3.810687384825,-8.220993294887,14.85));
#823 = VECTOR('',#824,1.);
#824 = DIRECTION('',(-0.,-0.,-1.));
#825 = ORIENTED_EDGE('',*,*,#826,.T.);
#826 = EDGE_CURVE('',#819,#297,#827,.T.);
#827 = LINE('',#828,#829);
#828 = CARTESIAN_POINT('',(-3.810687384825,-8.220993294887,8.15));
#829 = VECTOR('',#830,1.);
#830 = DIRECTION('',(1.,0.,0.));
#831 = ORIENTED_EDGE('',*,*,#304,.F.);
#832 = PLANE('',#833);
#833 = AXIS2_PLACEMENT_3D('',#834,#835,#836);
#834 = CARTESIAN_POINT('',(-3.810687384825,-8.220993294887,14.85));
#835 = DIRECTION('',(0.,-1.,0.));
#836 = DIRECTION('',(1.,0.,0.));
#837 = ADVANCED_FACE('',(#838,#857),#868,.T.);
#838 = FACE_BOUND('',#839,.T.);
#839 = EDGE_LOOP('',(#840,#841,#842,#850,#856));
#840 = ORIENTED_EDGE('',*,*,#296,.F.);
#841 = ORIENTED_EDGE('',*,*,#752,.T.);
#842 = ORIENTED_EDGE('',*,*,#843,.T.);
#843 = EDGE_CURVE('',#753,#844,#846,.T.);
#844 = VERTEX_POINT('',#845);
#845 = CARTESIAN_POINT('',(-7.560687384825,-1.725802766503,8.15));
#846 = LINE('',#847,#848);
#847 = CARTESIAN_POINT('',(-3.810687384825,4.76938776188,8.15));
#848 = VECTOR('',#849,1.);
#849 = DIRECTION('',(-0.5,-0.866025403784,0.));
#850 = ORIENTED_EDGE('',*,*,#851,.T.);
#851 = EDGE_CURVE('',#844,#819,#852,.T.);
#852 = LINE('',#853,#854);
#853 = CARTESIAN_POINT('',(-7.560687384825,-1.725802766503,8.15));
#854 = VECTOR('',#855,1.);
#855 = DIRECTION('',(0.5,-0.866025403784,0.));
#856 = ORIENTED_EDGE('',*,*,#826,.T.);
#857 = FACE_BOUND('',#858,.T.);
#858 = EDGE_LOOP('',(#859));
#859 = ORIENTED_EDGE('',*,*,#860,.T.);
#860 = EDGE_CURVE('',#861,#861,#863,.T.);
#861 = VERTEX_POINT('',#862);
#862 = CARTESIAN_POINT('',(4.089312615175,-1.725802766503,8.15));
#863 = CIRCLE('',#864,4.15);
#864 = AXIS2_PLACEMENT_3D('',#865,#866,#867);
#865 = CARTESIAN_POINT('',(-6.068738482514E-02,-1.725802766503,8.15));
#866 = DIRECTION('',(0.,0.,-1.));
#867 = DIRECTION('',(1.,0.,0.));
#868 = PLANE('',#869);
#869 = AXIS2_PLACEMENT_3D('',#870,#871,#872);
#870 = CARTESIAN_POINT('',(-6.068738482509E-02,-10.7258027665,8.15));
#871 = DIRECTION('',(0.,0.,1.));
#872 = DIRECTION('',(1.,0.,0.));
#873 = ADVANCED_FACE('',(#874),#885,.F.);
#874 = FACE_BOUND('',#875,.F.);
#875 = EDGE_LOOP('',(#876,#877,#883,#884));
#876 = ORIENTED_EDGE('',*,*,#580,.F.);
#877 = ORIENTED_EDGE('',*,*,#878,.T.);
#878 = EDGE_CURVE('',#581,#338,#879,.T.);
#879 = LINE('',#880,#881);
#880 = CARTESIAN_POINT('',(2.6,6.48E-15,29.2));
#881 = VECTOR('',#882,1.);
#882 = DIRECTION('',(0.,1.,-2.2E-16));
#883 = ORIENTED_EDGE('',*,*,#337,.T.);
#884 = ORIENTED_EDGE('',*,*,#878,.F.);
#885 = CYLINDRICAL_SURFACE('',#886,2.6);
#886 = AXIS2_PLACEMENT_3D('',#887,#888,#889);
#887 = CARTESIAN_POINT('',(0.,6.48E-15,29.2));
#888 = DIRECTION('',(0.,-1.,2.2E-16));
#889 = DIRECTION('',(1.,0.,0.));
#890 = ADVANCED_FACE('',(#891,#902),#905,.F.);
#891 = FACE_BOUND('',#892,.F.);
#892 = EDGE_LOOP('',(#893));
#893 = ORIENTED_EDGE('',*,*,#894,.F.);
#894 = EDGE_CURVE('',#895,#895,#897,.T.);
#895 = VERTEX_POINT('',#896);
#896 = CARTESIAN_POINT('',(5.1,16.851776695297,14.));
#897 = CIRCLE('',#898,5.1);
#898 = AXIS2_PLACEMENT_3D('',#899,#900,#901);
#899 = CARTESIAN_POINT('',(0.,16.851776695297,14.));
#900 = DIRECTION('',(0.,0.,-1.));
#901 = DIRECTION('',(1.,0.,0.));
#902 = FACE_BOUND('',#903,.F.);
#903 = EDGE_LOOP('',(#904));
#904 = ORIENTED_EDGE('',*,*,#354,.T.);
#905 = PLANE('',#906);
#906 = AXIS2_PLACEMENT_3D('',#907,#908,#909);
#907 = CARTESIAN_POINT('',(0.,0.,14.));
#908 = DIRECTION('',(0.,0.,1.));
#909 = DIRECTION('',(1.,0.,-0.));
#910 = ADVANCED_FACE('',(#911),#922,.F.);
#911 = FACE_BOUND('',#912,.T.);
#912 = EDGE_LOOP('',(#913,#919,#920,#921));
#913 = ORIENTED_EDGE('',*,*,#914,.F.);
#914 = EDGE_CURVE('',#438,#667,#915,.T.);
#915 = LINE('',#916,#917);
#916 = CARTESIAN_POINT('',(4.089312615175,-19.7258027665,0.));
#917 = VECTOR('',#918,1.);
#918 = DIRECTION('',(0.,0.,1.));
#919 = ORIENTED_EDGE('',*,*,#437,.F.);
#920 = ORIENTED_EDGE('',*,*,#914,.T.);
#921 = ORIENTED_EDGE('',*,*,#666,.F.);
#922 = CYLINDRICAL_SURFACE('',#923,4.15);
#923 = AXIS2_PLACEMENT_3D('',#924,#925,#926);
#924 = CARTESIAN_POINT('',(-6.068738482503E-02,-19.7258027665,0.));
#925 = DIRECTION('',(-0.,-0.,-1.));
#926 = DIRECTION('',(1.,0.,0.));
#927 = ADVANCED_FACE('',(#928),#939,.F.);
#928 = FACE_BOUND('',#929,.T.);
#929 = EDGE_LOOP('',(#930,#931,#937,#938));
#930 = ORIENTED_EDGE('',*,*,#448,.F.);
#931 = ORIENTED_EDGE('',*,*,#932,.T.);
#932 = EDGE_CURVE('',#449,#861,#933,.T.);
#933 = LINE('',#934,#935);
#934 = CARTESIAN_POINT('',(4.089312615175,-1.725802766503,0.));
#935 = VECTOR('',#936,1.);
#936 = DIRECTION('',(0.,0.,1.));
#937 = ORIENTED_EDGE('',*,*,#860,.F.);
#938 = ORIENTED_EDGE('',*,*,#932,.F.);
#939 = CYLINDRICAL_SURFACE('',#940,4.15);
#940 = AXIS2_PLACEMENT_3D('',#941,#942,#943);
#941 = CARTESIAN_POINT('',(-6.068738482514E-02,-1.725802766503,0.));
#942 = DIRECTION('',(-0.,-0.,-1.));
#943 = DIRECTION('',(1.,0.,0.));
#944 = ADVANCED_FACE('',(#945),#956,.F.);
#945 = FACE_BOUND('',#946,.T.);
#946 = EDGE_LOOP('',(#947,#953,#954,#955));
#947 = ORIENTED_EDGE('',*,*,#948,.F.);
#948 = EDGE_CURVE('',#460,#895,#949,.T.);
#949 = LINE('',#950,#951);
#950 = CARTESIAN_POINT('',(5.1,16.851776695297,0.));
#951 = VECTOR('',#952,1.);
#952 = DIRECTION('',(0.,0.,1.));
#953 = ORIENTED_EDGE('',*,*,#459,.F.);
#954 = ORIENTED_EDGE('',*,*,#948,.T.);
#955 = ORIENTED_EDGE('',*,*,#894,.F.);
#956 = CYLINDRICAL_SURFACE('',#957,5.1);
#957 = AXIS2_PLACEMENT_3D('',#958,#959,#960);
#958 = CARTESIAN_POINT('',(0.,16.851776695297,0.));
#959 = DIRECTION('',(-0.,-0.,-1.));
#960 = DIRECTION('',(1.,0.,0.));
#961 = ADVANCED_FACE('',(#962),#981,.F.);
#962 = FACE_BOUND('',#963,.T.);
#963 = EDGE_LOOP('',(#964,#965,#971,#972,#979,#980));
#964 = ORIENTED_EDGE('',*,*,#800,.T.);
#965 = ORIENTED_EDGE('',*,*,#966,.T.);
#966 = EDGE_CURVE('',#801,#528,#967,.T.);
#967 = LINE('',#968,#969);
#968 = CARTESIAN_POINT('',(4.089312615175,-1.725802766503,0.));
#969 = VECTOR('',#970,1.);
#970 = DIRECTION('',(0.,0.,1.));
#971 = ORIENTED_EDGE('',*,*,#527,.F.);
#972 = ORIENTED_EDGE('',*,*,#973,.F.);
#973 = EDGE_CURVE('',#509,#520,#974,.T.);
#974 = CIRCLE('',#975,4.15);
#975 = AXIS2_PLACEMENT_3D('',#976,#977,#978);
#976 = CARTESIAN_POINT('',(-6.068738482514E-02,-1.725802766503,19.));
#977 = DIRECTION('',(0.,0.,-1.));
#978 = DIRECTION('',(1.,0.,0.));
#979 = ORIENTED_EDGE('',*,*,#536,.F.);
#980 = ORIENTED_EDGE('',*,*,#966,.F.);
#981 = CYLINDRICAL_SURFACE('',#982,4.15);
#982 = AXIS2_PLACEMENT_3D('',#983,#984,#985);
#983 = CARTESIAN_POINT('',(-6.068738482514E-02,-1.725802766503,0.));
#984 = DIRECTION('',(-0.,-0.,-1.));
#985 = DIRECTION('',(1.,0.,0.));
#986 = ADVANCED_FACE('',(#987),#998,.F.);
#987 = FACE_BOUND('',#988,.T.);
#988 = EDGE_LOOP('',(#989,#990,#996,#997));
#989 = ORIENTED_EDGE('',*,*,#726,.T.);
#990 = ORIENTED_EDGE('',*,*,#991,.T.);
#991 = EDGE_CURVE('',#727,#546,#992,.T.);
#992 = LINE('',#993,#994);
#993 = CARTESIAN_POINT('',(4.089312615175,-19.7258027665,0.));
#994 = VECTOR('',#995,1.);
#995 = DIRECTION('',(0.,0.,1.));
#996 = ORIENTED_EDGE('',*,*,#545,.F.);
#997 = ORIENTED_EDGE('',*,*,#991,.F.);
#998 = CYLINDRICAL_SURFACE('',#999,4.15);
#999 = AXIS2_PLACEMENT_3D('',#1000,#1001,#1002);
#1000 = CARTESIAN_POINT('',(-6.068738482503E-02,-19.7258027665,0.));
#1001 = DIRECTION('',(-0.,-0.,-1.));
#1002 = DIRECTION('',(1.,0.,0.));
#1003 = ADVANCED_FACE('',(#1004),#1008,.F.);
#1004 = FACE_BOUND('',#1005,.F.);
#1005 = EDGE_LOOP('',(#1006,#1007));
#1006 = ORIENTED_EDGE('',*,*,#973,.F.);
#1007 = ORIENTED_EDGE('',*,*,#572,.T.);
#1008 = PLANE('',#1009);
#1009 = AXIS2_PLACEMENT_3D('',#1010,#1011,#1012);
#1010 = CARTESIAN_POINT('',(-6.068738482533E-02,16.811209648249,19.));
#1011 = DIRECTION('',(0.,0.,1.));
#1012 = DIRECTION('',(1.,0.,0.));
#1013 = ADVANCED_FACE('',(#1014),#1025,.F.);
#1014 = FACE_BOUND('',#1015,.F.);
#1015 = EDGE_LOOP('',(#1016,#1022,#1023,#1024));
#1016 = ORIENTED_EDGE('',*,*,#1017,.T.);
#1017 = EDGE_CURVE('',#708,#643,#1018,.T.);
#1018 = LINE('',#1019,#1020);
#1019 = CARTESIAN_POINT('',(7.439312615175,-19.7258027665,14.85));
#1020 = VECTOR('',#1021,1.);
#1021 = DIRECTION('',(-0.,-0.,-1.));
#1022 = ORIENTED_EDGE('',*,*,#650,.T.);
#1023 = ORIENTED_EDGE('',*,*,#617,.F.);
#1024 = ORIENTED_EDGE('',*,*,#715,.F.);
#1025 = PLANE('',#1026);
#1026 = AXIS2_PLACEMENT_3D('',#1027,#1028,#1029);
#1027 = CARTESIAN_POINT('',(7.439312615175,-19.7258027665,14.85));
#1028 = DIRECTION('',(0.866025403784,0.5,0.));
#1029 = DIRECTION('',(-0.5,0.866025403784,0.));
#1030 = ADVANCED_FACE('',(#1031),#1037,.F.);
#1031 = FACE_BOUND('',#1032,.F.);
#1032 = EDGE_LOOP('',(#1033,#1034,#1035,#1036));
#1033 = ORIENTED_EDGE('',*,*,#693,.T.);
#1034 = ORIENTED_EDGE('',*,*,#640,.T.);
#1035 = ORIENTED_EDGE('',*,*,#1017,.F.);
#1036 = ORIENTED_EDGE('',*,*,#707,.F.);
#1037 = PLANE('',#1038);
#1038 = AXIS2_PLACEMENT_3D('',#1039,#1040,#1041);
#1039 = CARTESIAN_POINT('',(3.689312615175,-26.22099329488,14.85));
#1040 = DIRECTION('',(0.866025403784,-0.5,0.));
#1041 = DIRECTION('',(0.5,0.866025403784,0.));
#1042 = ADVANCED_FACE('',(#1043),#1054,.F.);
#1043 = FACE_BOUND('',#1044,.F.);
#1044 = EDGE_LOOP('',(#1045,#1046,#1047,#1053));
#1045 = ORIENTED_EDGE('',*,*,#760,.T.);
#1046 = ORIENTED_EDGE('',*,*,#843,.T.);
#1047 = ORIENTED_EDGE('',*,*,#1048,.F.);
#1048 = EDGE_CURVE('',#777,#844,#1049,.T.);
#1049 = LINE('',#1050,#1051);
#1050 = CARTESIAN_POINT('',(-7.560687384825,-1.725802766503,14.85));
#1051 = VECTOR('',#1052,1.);
#1052 = DIRECTION('',(-0.,-0.,-1.));
#1053 = ORIENTED_EDGE('',*,*,#776,.F.);
#1054 = PLANE('',#1055);
#1055 = AXIS2_PLACEMENT_3D('',#1056,#1057,#1058);
#1056 = CARTESIAN_POINT('',(-3.810687384825,4.76938776188,14.85));
#1057 = DIRECTION('',(-0.866025403784,0.5,0.));
#1058 = DIRECTION('',(-0.5,-0.866025403784,0.));
#1059 = ADVANCED_FACE('',(#1060),#1066,.F.);
#1060 = FACE_BOUND('',#1061,.F.);
#1061 = EDGE_LOOP('',(#1062,#1063,#1064,#1065));
#1062 = ORIENTED_EDGE('',*,*,#1048,.T.);
#1063 = ORIENTED_EDGE('',*,*,#851,.T.);
#1064 = ORIENTED_EDGE('',*,*,#818,.F.);
#1065 = ORIENTED_EDGE('',*,*,#784,.F.);
#1066 = PLANE('',#1067);
#1067 = AXIS2_PLACEMENT_3D('',#1068,#1069,#1070);
#1068 = CARTESIAN_POINT('',(-7.560687384825,-1.725802766503,14.85));
#1069 = DIRECTION('',(-0.866025403784,-0.5,0.));
#1070 = DIRECTION('',(0.5,-0.866025403784,0.));
#1071 = ( GEOMETRIC_REPRESENTATION_CONTEXT(3) 
GLOBAL_UNCERTAINTY_ASSIGNED_CONTEXT((#1075)) 
GLOBAL_UNIT_ASSIGNED_CONTEXT((#1072,#1073,#1074)) REPRESENTATION_CONTEXT
('Context #1','3D Context with UNIT and UNCERTAINTY') );
#1072 = ( LENGTH_UNIT() NAMED_UNIT(*) SI_UNIT(.MILLI.,.METRE.) );
#1073 = ( NAMED_UNIT(*) PLANE_ANGLE_UNIT() SI_UNIT($,.RADIAN.) );
#1074 = ( NAMED_UNIT(*) SI_UNIT($,.STERADIAN.) SOLID_ANGLE_UNIT() );
#1075 = UNCERTAINTY_MEASURE_WITH_UNIT(LENGTH_MEASURE(5.E-06),#1072,
  'distance_accuracy_value','confusion accuracy');
#1076 = PRODUCT_RELATED_PRODUCT_CATEGORY('part',$,(#7));
#1077 = MECHANICAL_DESIGN_GEOMETRIC_PRESENTATION_REPRESENTATION('',(
    #1078),#1071);
#1078 = STYLED_ITEM('color',(#1079),#15);
#1079 = PRESENTATION_STYLE_ASSIGNMENT((#1080,#1088));
#1080 = SURFACE_STYLE_USAGE(.BOTH.,#1081);
#1081 = SURFACE_SIDE_STYLE('',(#1082,#1086));
#1082 = SURFACE_STYLE_FILL_AREA(#1083);
#1083 = FILL_AREA_STYLE('',(#1084));
#1084 = FILL_AREA_STYLE_COLOUR('',#1085);
#1085 = COLOUR_RGB('',0.447058818107,0.474509808674,0.501960817233);
#1086 = SURFACE_STYLE_RENDERING_WITH_PROPERTIES(.NORMAL_SHADING.,#1085,(
    #1087));
#1087 = SURFACE_STYLE_TRANSPARENT(0.699999988079);
#1088 = CURVE_STYLE('',#1089,POSITIVE_LENGTH_MEASURE(0.1),#1090);
#1089 = DRAUGHTING_PRE_DEFINED_CURVE_FONT('continuous');
#1090 = COLOUR_RGB('',9.803921802644E-02,9.803921802644E-02,
  9.803921802644E-02);
ENDSEC;
END-ISO-10303-21;
