ISO-10303-21;
HEADER;
FILE_DESCRIPTION(('FreeCAD Model'),'2;1');
FILE_NAME('Open CASCADE Shape Model','2026-08-13T14:27:42',(''),(''),
  'Open CASCADE STEP processor 7.8','FreeCAD','Unknown');
FILE_SCHEMA(('AUTOMOTIVE_DESIGN { 1 0 10303 214 1 1 1 1 }'));
ENDSEC;
DATA;
#1 = APPLICATION_PROTOCOL_DEFINITION('international standard',
  'automotive_design',2000,#2);
#2 = APPLICATION_CONTEXT(
  'core data for automotive mechanical design processes');
#3 = SHAPE_DEFINITION_REPRESENTATION(#4,#10);
#4 = PRODUCT_DEFINITION_SHAPE('','',#5);
#5 = PRODUCT_DEFINITION('design','',#6,#9);
#6 = PRODUCT_DEFINITION_FORMATION('','',#7);
#7 = PRODUCT('left','left','',(#8));
#8 = PRODUCT_CONTEXT('',#2,'mechanical');
#9 = PRODUCT_DEFINITION_CONTEXT('part definition',#2,'design');
#10 = ADVANCED_BREP_SHAPE_REPRESENTATION('',(#11,#15),#449);
#11 = AXIS2_PLACEMENT_3D('',#12,#13,#14);
#12 = CARTESIAN_POINT('',(0.,0.,0.));
#13 = DIRECTION('',(0.,0.,1.));
#14 = DIRECTION('',(1.,0.,-0.));
#15 = MANIFOLD_SOLID_BREP('',#16);
#16 = CLOSED_SHELL('',(#17,#57,#99,#166,#199,#248,#265,#290,#321,#345,
    #369,#387,#412,#424,#437));
#17 = ADVANCED_FACE('',(#18),#52,.T.);
#18 = FACE_BOUND('',#19,.T.);
#19 = EDGE_LOOP('',(#20,#30,#38,#46));
#20 = ORIENTED_EDGE('',*,*,#21,.T.);
#21 = EDGE_CURVE('',#22,#24,#26,.T.);
#22 = VERTEX_POINT('',#23);
#23 = CARTESIAN_POINT('',(10.219554,-3.2E-14,8.171241461241E-14));
#24 = VERTEX_POINT('',#25);
#25 = CARTESIAN_POINT('',(30.219554,-3.2E-14,7.638334409421E-14));
#26 = LINE('',#27,#28);
#27 = CARTESIAN_POINT('',(10.219554,-3.329E-14,8.09E-14));
#28 = VECTOR('',#29,1.);
#29 = DIRECTION('',(1.,-1.7E-16,-2.2E-16));
#30 = ORIENTED_EDGE('',*,*,#31,.T.);
#31 = EDGE_CURVE('',#24,#32,#34,.T.);
#32 = VERTEX_POINT('',#33);
#33 = CARTESIAN_POINT('',(30.219554,-3.1E-14,5.));
#34 = LINE('',#35,#36);
#35 = CARTESIAN_POINT('',(30.219554,-3.597E-14,7.460698725481E-14));
#36 = VECTOR('',#37,1.);
#37 = DIRECTION('',(-2.2E-16,2.2E-16,1.));
#38 = ORIENTED_EDGE('',*,*,#39,.F.);
#39 = EDGE_CURVE('',#40,#32,#42,.T.);
#40 = VERTEX_POINT('',#41);
#41 = CARTESIAN_POINT('',(10.219554,-3.1E-14,5.));
#42 = LINE('',#43,#44);
#43 = CARTESIAN_POINT('',(10.219554,-3.218E-14,5.));
#44 = VECTOR('',#45,1.);
#45 = DIRECTION('',(1.,-1.7E-16,-2.2E-16));
#46 = ORIENTED_EDGE('',*,*,#47,.F.);
#47 = EDGE_CURVE('',#22,#40,#48,.T.);
#48 = LINE('',#49,#50);
#49 = CARTESIAN_POINT('',(10.219554,-3.497E-14,8.082423619271E-14));
#50 = VECTOR('',#51,1.);
#51 = DIRECTION('',(-2.2E-16,2.2E-16,1.));
#52 = PLANE('',#53);
#53 = AXIS2_PLACEMENT_3D('',#54,#55,#56);
#54 = CARTESIAN_POINT('',(10.219554,-3.329E-14,8.09E-14));
#55 = DIRECTION('',(1.7E-16,-1.,-1.1E-16));
#56 = DIRECTION('',(-1.7E-16,-1.1E-16,1.));
#57 = ADVANCED_FACE('',(#58,#83),#94,.F.);
#58 = FACE_BOUND('',#59,.F.);
#59 = EDGE_LOOP('',(#60,#61,#69,#77));
#60 = ORIENTED_EDGE('',*,*,#21,.T.);
#61 = ORIENTED_EDGE('',*,*,#62,.T.);
#62 = EDGE_CURVE('',#24,#63,#65,.T.);
#63 = VERTEX_POINT('',#64);
#64 = CARTESIAN_POINT('',(30.219554,20.,7.638334409421E-14));
#65 = LINE('',#66,#67);
#66 = CARTESIAN_POINT('',(30.219554,-3.597E-14,7.460698725481E-14));
#67 = VECTOR('',#68,1.);
#68 = DIRECTION('',(-2.2E-16,1.,2.2E-16));
#69 = ORIENTED_EDGE('',*,*,#70,.F.);
#70 = EDGE_CURVE('',#71,#63,#73,.T.);
#71 = VERTEX_POINT('',#72);
#72 = CARTESIAN_POINT('',(10.219554,20.,8.171241461241E-14));
#73 = LINE('',#74,#75);
#74 = CARTESIAN_POINT('',(10.219554,20.,8.423E-14));
#75 = VECTOR('',#76,1.);
#76 = DIRECTION('',(1.,-1.7E-16,-2.2E-16));
#77 = ORIENTED_EDGE('',*,*,#78,.F.);
#78 = EDGE_CURVE('',#22,#71,#79,.T.);
#79 = LINE('',#80,#81);
#80 = CARTESIAN_POINT('',(10.219554,-3.497E-14,8.082423619271E-14));
#81 = VECTOR('',#82,1.);
#82 = DIRECTION('',(-2.2E-16,1.,2.2E-16));
#83 = FACE_BOUND('',#84,.F.);
#84 = EDGE_LOOP('',(#85));
#85 = ORIENTED_EDGE('',*,*,#86,.F.);
#86 = EDGE_CURVE('',#87,#87,#89,.T.);
#87 = VERTEX_POINT('',#88);
#88 = CARTESIAN_POINT('',(22.819554,10.,-1.7763568394E-15));
#89 = CIRCLE('',#90,2.6);
#90 = AXIS2_PLACEMENT_3D('',#91,#92,#93);
#91 = CARTESIAN_POINT('',(20.219554,10.,0.));
#92 = DIRECTION('',(1.7E-16,-1.7E-16,1.));
#93 = DIRECTION('',(1.,-1.7E-16,-1.7E-16));
#94 = PLANE('',#95);
#95 = AXIS2_PLACEMENT_3D('',#96,#97,#98);
#96 = CARTESIAN_POINT('',(10.219554,-3.329E-14,8.09E-14));
#97 = DIRECTION('',(-1.1E-16,1.7E-16,1.));
#98 = DIRECTION('',(-2.2E-16,1.,-1.7E-16));
#99 = ADVANCED_FACE('',(#100,#150),#161,.T.);
#100 = FACE_BOUND('',#101,.T.);
#101 = EDGE_LOOP('',(#102,#110,#111,#119,#127,#136,#144));
#102 = ORIENTED_EDGE('',*,*,#103,.F.);
#103 = EDGE_CURVE('',#40,#104,#106,.T.);
#104 = VERTEX_POINT('',#105);
#105 = CARTESIAN_POINT('',(10.219554,40.,5.));
#106 = LINE('',#107,#108);
#107 = CARTESIAN_POINT('',(10.219554,-3.386E-14,5.));
#108 = VECTOR('',#109,1.);
#109 = DIRECTION('',(-2.2E-16,1.,2.2E-16));
#110 = ORIENTED_EDGE('',*,*,#39,.T.);
#111 = ORIENTED_EDGE('',*,*,#112,.T.);
#112 = EDGE_CURVE('',#32,#113,#115,.T.);
#113 = VERTEX_POINT('',#114);
#114 = CARTESIAN_POINT('',(30.219554,25.2,5.));
#115 = LINE('',#116,#117);
#116 = CARTESIAN_POINT('',(30.219554,-3.486E-14,5.));
#117 = VECTOR('',#118,1.);
#118 = DIRECTION('',(-2.2E-16,1.,2.2E-16));
#119 = ORIENTED_EDGE('',*,*,#120,.F.);
#120 = EDGE_CURVE('',#121,#113,#123,.T.);
#121 = VERTEX_POINT('',#122);
#122 = CARTESIAN_POINT('',(22.719585737962,25.200000000034,5.));
#123 = LINE('',#124,#125);
#124 = CARTESIAN_POINT('',(22.719585737962,25.2,5.));
#125 = VECTOR('',#126,1.);
#126 = DIRECTION('',(1.,-1.1E-16,-1.1E-16));
#127 = ORIENTED_EDGE('',*,*,#128,.F.);
#128 = EDGE_CURVE('',#129,#121,#131,.T.);
#129 = VERTEX_POINT('',#130);
#130 = CARTESIAN_POINT('',(15.219554,32.7,5.));
#131 = CIRCLE('',#132,7.5);
#132 = AXIS2_PLACEMENT_3D('',#133,#134,#135);
#133 = CARTESIAN_POINT('',(22.719554,32.7,5.));
#134 = DIRECTION('',(1.1E-16,-1.1E-16,1.));
#135 = DIRECTION('',(1.,-1.1E-16,-1.1E-16));
#136 = ORIENTED_EDGE('',*,*,#137,.F.);
#137 = EDGE_CURVE('',#138,#129,#140,.T.);
#138 = VERTEX_POINT('',#139);
#139 = CARTESIAN_POINT('',(15.219554,40.,5.));
#140 = LINE('',#141,#142);
#141 = CARTESIAN_POINT('',(15.219554,45.2,5.));
#142 = VECTOR('',#143,1.);
#143 = DIRECTION('',(1.1E-16,-1.,-1.1E-16));
#144 = ORIENTED_EDGE('',*,*,#145,.F.);
#145 = EDGE_CURVE('',#104,#138,#146,.T.);
#146 = LINE('',#147,#148);
#147 = CARTESIAN_POINT('',(10.219554,40.,5.));
#148 = VECTOR('',#149,1.);
#149 = DIRECTION('',(1.,-1.7E-16,-2.2E-16));
#150 = FACE_BOUND('',#151,.T.);
#151 = EDGE_LOOP('',(#152));
#152 = ORIENTED_EDGE('',*,*,#153,.F.);
#153 = EDGE_CURVE('',#154,#154,#156,.T.);
#154 = VERTEX_POINT('',#155);
#155 = CARTESIAN_POINT('',(25.719554,10.,5.));
#156 = CIRCLE('',#157,5.5);
#157 = AXIS2_PLACEMENT_3D('',#158,#159,#160);
#158 = CARTESIAN_POINT('',(20.219554,10.,5.));
#159 = DIRECTION('',(6.E-17,-6.E-17,1.));
#160 = DIRECTION('',(1.,-6.E-17,-6.E-17));
#161 = PLANE('',#162);
#162 = AXIS2_PLACEMENT_3D('',#163,#164,#165);
#163 = CARTESIAN_POINT('',(10.219554,-3.218E-14,5.));
#164 = DIRECTION('',(-1.1E-16,1.7E-16,1.));
#165 = DIRECTION('',(-2.2E-16,1.,-1.7E-16));
#166 = ADVANCED_FACE('',(#167),#194,.F.);
#167 = FACE_BOUND('',#168,.T.);
#168 = EDGE_LOOP('',(#169,#170,#171,#179,#187,#193));
#169 = ORIENTED_EDGE('',*,*,#47,.T.);
#170 = ORIENTED_EDGE('',*,*,#103,.T.);
#171 = ORIENTED_EDGE('',*,*,#172,.T.);
#172 = EDGE_CURVE('',#104,#173,#175,.T.);
#173 = VERTEX_POINT('',#174);
#174 = CARTESIAN_POINT('',(10.219554,40.,-20.));
#175 = LINE('',#176,#177);
#176 = CARTESIAN_POINT('',(10.219554,40.,5.));
#177 = VECTOR('',#178,1.);
#178 = DIRECTION('',(2.2E-16,-2.2E-16,-1.));
#179 = ORIENTED_EDGE('',*,*,#180,.F.);
#180 = EDGE_CURVE('',#181,#173,#183,.T.);
#181 = VERTEX_POINT('',#182);
#182 = CARTESIAN_POINT('',(10.219554,20.,-20.));
#183 = LINE('',#184,#185);
#184 = CARTESIAN_POINT('',(10.219554,20.,-20.));
#185 = VECTOR('',#186,1.);
#186 = DIRECTION('',(-2.2E-16,1.,2.2E-16));
#187 = ORIENTED_EDGE('',*,*,#188,.F.);
#188 = EDGE_CURVE('',#71,#181,#189,.T.);
#189 = LINE('',#190,#191);
#190 = CARTESIAN_POINT('',(10.219554,20.,8.526512829121E-14));
#191 = VECTOR('',#192,1.);
#192 = DIRECTION('',(2.2E-16,-2.2E-16,-1.));
#193 = ORIENTED_EDGE('',*,*,#78,.F.);
#194 = PLANE('',#195);
#195 = AXIS2_PLACEMENT_3D('',#196,#197,#198);
#196 = CARTESIAN_POINT('',(10.219554,23.076923076923,-4.423076923077));
#197 = DIRECTION('',(1.,-2.2E-16,-2.2E-16));
#198 = DIRECTION('',(2.2E-16,2.2E-16,1.));
#199 = ADVANCED_FACE('',(#200),#243,.T.);
#200 = FACE_BOUND('',#201,.T.);
#201 = EDGE_LOOP('',(#202,#203,#204,#212,#220,#228,#236,#242));
#202 = ORIENTED_EDGE('',*,*,#31,.F.);
#203 = ORIENTED_EDGE('',*,*,#62,.T.);
#204 = ORIENTED_EDGE('',*,*,#205,.T.);
#205 = EDGE_CURVE('',#63,#206,#208,.T.);
#206 = VERTEX_POINT('',#207);
#207 = CARTESIAN_POINT('',(30.219554,20.,-20.));
#208 = LINE('',#209,#210);
#209 = CARTESIAN_POINT('',(30.219554,20.,7.815970093361E-14));
#210 = VECTOR('',#211,1.);
#211 = DIRECTION('',(2.2E-16,-2.2E-16,-1.));
#212 = ORIENTED_EDGE('',*,*,#213,.T.);
#213 = EDGE_CURVE('',#206,#214,#216,.T.);
#214 = VERTEX_POINT('',#215);
#215 = CARTESIAN_POINT('',(30.219554,40.,-20.));
#216 = LINE('',#217,#218);
#217 = CARTESIAN_POINT('',(30.219554,20.,-20.));
#218 = VECTOR('',#219,1.);
#219 = DIRECTION('',(-2.2E-16,1.,2.2E-16));
#220 = ORIENTED_EDGE('',*,*,#221,.F.);
#221 = EDGE_CURVE('',#222,#214,#224,.T.);
#222 = VERTEX_POINT('',#223);
#223 = CARTESIAN_POINT('',(30.219554,40.,-12.5));
#224 = LINE('',#225,#226);
#225 = CARTESIAN_POINT('',(30.219554,40.,5.));
#226 = VECTOR('',#227,1.);
#227 = DIRECTION('',(2.2E-16,-2.2E-16,-1.));
#228 = ORIENTED_EDGE('',*,*,#229,.T.);
#229 = EDGE_CURVE('',#222,#230,#232,.T.);
#230 = VERTEX_POINT('',#231);
#231 = CARTESIAN_POINT('',(30.219554,25.2,-12.5));
#232 = LINE('',#233,#234);
#233 = CARTESIAN_POINT('',(30.219554,11.538461538462,-12.5));
#234 = VECTOR('',#235,1.);
#235 = DIRECTION('',(6.E-17,-1.,0.));
#236 = ORIENTED_EDGE('',*,*,#237,.F.);
#237 = EDGE_CURVE('',#113,#230,#238,.T.);
#238 = LINE('',#239,#240);
#239 = CARTESIAN_POINT('',(30.219554,25.2,0.288461538462));
#240 = VECTOR('',#241,1.);
#241 = DIRECTION('',(-1.1E-16,-1.1E-16,-1.));
#242 = ORIENTED_EDGE('',*,*,#112,.F.);
#243 = PLANE('',#244);
#244 = AXIS2_PLACEMENT_3D('',#245,#246,#247);
#245 = CARTESIAN_POINT('',(30.219554,23.076923076923,-4.423076923077));
#246 = DIRECTION('',(1.,-2.2E-16,-2.2E-16));
#247 = DIRECTION('',(2.2E-16,2.2E-16,1.));
#248 = ADVANCED_FACE('',(#249),#260,.F.);
#249 = FACE_BOUND('',#250,.F.);
#250 = EDGE_LOOP('',(#251,#252,#253,#259));
#251 = ORIENTED_EDGE('',*,*,#70,.T.);
#252 = ORIENTED_EDGE('',*,*,#205,.T.);
#253 = ORIENTED_EDGE('',*,*,#254,.F.);
#254 = EDGE_CURVE('',#181,#206,#255,.T.);
#255 = LINE('',#256,#257);
#256 = CARTESIAN_POINT('',(10.219554,20.,-20.));
#257 = VECTOR('',#258,1.);
#258 = DIRECTION('',(1.,-1.7E-16,-2.2E-16));
#259 = ORIENTED_EDGE('',*,*,#188,.F.);
#260 = PLANE('',#261);
#261 = AXIS2_PLACEMENT_3D('',#262,#263,#264);
#262 = CARTESIAN_POINT('',(10.219554,20.,8.423E-14));
#263 = DIRECTION('',(-1.7E-16,1.,1.1E-16));
#264 = DIRECTION('',(1.7E-16,1.1E-16,-1.));
#265 = ADVANCED_FACE('',(#266),#285,.F.);
#266 = FACE_BOUND('',#267,.T.);
#267 = EDGE_LOOP('',(#268,#276,#277,#278));
#268 = ORIENTED_EDGE('',*,*,#269,.F.);
#269 = EDGE_CURVE('',#87,#270,#272,.T.);
#270 = VERTEX_POINT('',#271);
#271 = CARTESIAN_POINT('',(22.819554,10.,3.));
#272 = LINE('',#273,#274);
#273 = CARTESIAN_POINT('',(22.819554,10.,-1.6E-16));
#274 = VECTOR('',#275,1.);
#275 = DIRECTION('',(-1.1E-16,1.7E-16,1.));
#276 = ORIENTED_EDGE('',*,*,#86,.F.);
#277 = ORIENTED_EDGE('',*,*,#269,.T.);
#278 = ORIENTED_EDGE('',*,*,#279,.F.);
#279 = EDGE_CURVE('',#270,#270,#280,.T.);
#280 = CIRCLE('',#281,2.6);
#281 = AXIS2_PLACEMENT_3D('',#282,#283,#284);
#282 = CARTESIAN_POINT('',(20.219554,10.,3.));
#283 = DIRECTION('',(-6.E-17,-1.1E-16,-1.));
#284 = DIRECTION('',(1.,0.,-6.E-17));
#285 = CYLINDRICAL_SURFACE('',#286,2.6);
#286 = AXIS2_PLACEMENT_3D('',#287,#288,#289);
#287 = CARTESIAN_POINT('',(20.219554,10.,2.8E-16));
#288 = DIRECTION('',(6.E-17,-1.1E-16,-1.));
#289 = DIRECTION('',(1.,-1.1E-16,6.E-17));
#290 = ADVANCED_FACE('',(#291),#316,.T.);
#291 = FACE_BOUND('',#292,.T.);
#292 = EDGE_LOOP('',(#293,#294,#295,#303,#309,#310));
#293 = ORIENTED_EDGE('',*,*,#172,.F.);
#294 = ORIENTED_EDGE('',*,*,#145,.T.);
#295 = ORIENTED_EDGE('',*,*,#296,.F.);
#296 = EDGE_CURVE('',#297,#138,#299,.T.);
#297 = VERTEX_POINT('',#298);
#298 = CARTESIAN_POINT('',(15.219554,40.,-12.5));
#299 = LINE('',#300,#301);
#300 = CARTESIAN_POINT('',(15.219554,40.,5.));
#301 = VECTOR('',#302,1.);
#302 = DIRECTION('',(-6.E-17,1.1E-16,1.));
#303 = ORIENTED_EDGE('',*,*,#304,.T.);
#304 = EDGE_CURVE('',#297,#222,#305,.T.);
#305 = LINE('',#306,#307);
#306 = CARTESIAN_POINT('',(5.109777,40.,-12.5));
#307 = VECTOR('',#308,1.);
#308 = DIRECTION('',(1.,6.E-17,-6.E-17));
#309 = ORIENTED_EDGE('',*,*,#221,.T.);
#310 = ORIENTED_EDGE('',*,*,#311,.F.);
#311 = EDGE_CURVE('',#173,#214,#312,.T.);
#312 = LINE('',#313,#314);
#313 = CARTESIAN_POINT('',(10.219554,40.,-20.));
#314 = VECTOR('',#315,1.);
#315 = DIRECTION('',(1.,-1.7E-16,-2.2E-16));
#316 = PLANE('',#317);
#317 = AXIS2_PLACEMENT_3D('',#318,#319,#320);
#318 = CARTESIAN_POINT('',(10.219554,40.,5.));
#319 = DIRECTION('',(-1.7E-16,1.,1.1E-16));
#320 = DIRECTION('',(1.7E-16,1.1E-16,-1.));
#321 = ADVANCED_FACE('',(#322),#340,.F.);
#322 = FACE_BOUND('',#323,.F.);
#323 = EDGE_LOOP('',(#324,#325,#326,#334));
#324 = ORIENTED_EDGE('',*,*,#137,.F.);
#325 = ORIENTED_EDGE('',*,*,#296,.F.);
#326 = ORIENTED_EDGE('',*,*,#327,.F.);
#327 = EDGE_CURVE('',#328,#297,#330,.T.);
#328 = VERTEX_POINT('',#329);
#329 = CARTESIAN_POINT('',(15.219554,32.7,-12.5));
#330 = LINE('',#331,#332);
#331 = CARTESIAN_POINT('',(15.219554,22.6,-12.5));
#332 = VECTOR('',#333,1.);
#333 = DIRECTION('',(-1.1E-16,1.,0.));
#334 = ORIENTED_EDGE('',*,*,#335,.F.);
#335 = EDGE_CURVE('',#129,#328,#336,.T.);
#336 = LINE('',#337,#338);
#337 = CARTESIAN_POINT('',(15.219554,32.7,5.));
#338 = VECTOR('',#339,1.);
#339 = DIRECTION('',(6.E-17,-1.1E-16,-1.));
#340 = PLANE('',#341);
#341 = AXIS2_PLACEMENT_3D('',#342,#343,#344);
#342 = CARTESIAN_POINT('',(15.219554,45.2,5.));
#343 = DIRECTION('',(-1.,0.,6.E-17));
#344 = DIRECTION('',(-3.6E-33,-1.,-6.E-17));
#345 = ADVANCED_FACE('',(#346),#364,.F.);
#346 = FACE_BOUND('',#347,.F.);
#347 = EDGE_LOOP('',(#348,#349,#357,#363));
#348 = ORIENTED_EDGE('',*,*,#120,.F.);
#349 = ORIENTED_EDGE('',*,*,#350,.T.);
#350 = EDGE_CURVE('',#121,#351,#353,.T.);
#351 = VERTEX_POINT('',#352);
#352 = CARTESIAN_POINT('',(22.719585737962,25.200000000034,-12.5));
#353 = LINE('',#354,#355);
#354 = CARTESIAN_POINT('',(22.719585737962,25.200000000034,5.));
#355 = VECTOR('',#356,1.);
#356 = DIRECTION('',(6.E-17,-1.1E-16,-1.));
#357 = ORIENTED_EDGE('',*,*,#358,.F.);
#358 = EDGE_CURVE('',#230,#351,#359,.T.);
#359 = LINE('',#360,#361);
#360 = CARTESIAN_POINT('',(11.359792868981,25.2,-12.5));
#361 = VECTOR('',#362,1.);
#362 = DIRECTION('',(-1.,6.E-17,6.E-17));
#363 = ORIENTED_EDGE('',*,*,#237,.F.);
#364 = PLANE('',#365);
#365 = AXIS2_PLACEMENT_3D('',#366,#367,#368);
#366 = CARTESIAN_POINT('',(22.719585737962,25.2,5.));
#367 = DIRECTION('',(6.E-17,-1.,0.));
#368 = DIRECTION('',(1.,6.E-17,-1.1E-16));
#369 = ADVANCED_FACE('',(#370),#382,.F.);
#370 = FACE_BOUND('',#371,.F.);
#371 = EDGE_LOOP('',(#372,#373,#374,#381));
#372 = ORIENTED_EDGE('',*,*,#128,.F.);
#373 = ORIENTED_EDGE('',*,*,#335,.T.);
#374 = ORIENTED_EDGE('',*,*,#375,.T.);
#375 = EDGE_CURVE('',#328,#351,#376,.T.);
#376 = CIRCLE('',#377,7.5);
#377 = AXIS2_PLACEMENT_3D('',#378,#379,#380);
#378 = CARTESIAN_POINT('',(22.719554,32.7,-12.5));
#379 = DIRECTION('',(1.1E-16,-6.E-17,1.));
#380 = DIRECTION('',(1.,-6.E-17,-1.1E-16));
#381 = ORIENTED_EDGE('',*,*,#350,.F.);
#382 = CYLINDRICAL_SURFACE('',#383,7.5);
#383 = AXIS2_PLACEMENT_3D('',#384,#385,#386);
#384 = CARTESIAN_POINT('',(22.719554,32.7,5.));
#385 = DIRECTION('',(0.,6.E-17,1.));
#386 = DIRECTION('',(1.,-6.E-17,3.6E-33));
#387 = ADVANCED_FACE('',(#388),#407,.F.);
#388 = FACE_BOUND('',#389,.F.);
#389 = EDGE_LOOP('',(#390,#398,#405,#406));
#390 = ORIENTED_EDGE('',*,*,#391,.T.);
#391 = EDGE_CURVE('',#154,#392,#394,.T.);
#392 = VERTEX_POINT('',#393);
#393 = CARTESIAN_POINT('',(25.719554,10.,3.));
#394 = LINE('',#395,#396);
#395 = CARTESIAN_POINT('',(25.719554,10.,5.));
#396 = VECTOR('',#397,1.);
#397 = DIRECTION('',(0.,-6.E-17,-1.));
#398 = ORIENTED_EDGE('',*,*,#399,.T.);
#399 = EDGE_CURVE('',#392,#392,#400,.T.);
#400 = CIRCLE('',#401,5.5);
#401 = AXIS2_PLACEMENT_3D('',#402,#403,#404);
#402 = CARTESIAN_POINT('',(20.219554,10.,3.));
#403 = DIRECTION('',(6.E-17,-6.E-17,1.));
#404 = DIRECTION('',(1.,-6.E-17,-6.E-17));
#405 = ORIENTED_EDGE('',*,*,#391,.F.);
#406 = ORIENTED_EDGE('',*,*,#153,.F.);
#407 = CYLINDRICAL_SURFACE('',#408,5.5);
#408 = AXIS2_PLACEMENT_3D('',#409,#410,#411);
#409 = CARTESIAN_POINT('',(20.219554,10.,5.));
#410 = DIRECTION('',(6.E-17,0.,1.));
#411 = DIRECTION('',(1.,0.,-6.E-17));
#412 = ADVANCED_FACE('',(#413),#419,.F.);
#413 = FACE_BOUND('',#414,.F.);
#414 = EDGE_LOOP('',(#415,#416,#417,#418));
#415 = ORIENTED_EDGE('',*,*,#254,.T.);
#416 = ORIENTED_EDGE('',*,*,#213,.T.);
#417 = ORIENTED_EDGE('',*,*,#311,.F.);
#418 = ORIENTED_EDGE('',*,*,#180,.F.);
#419 = PLANE('',#420);
#420 = AXIS2_PLACEMENT_3D('',#421,#422,#423);
#421 = CARTESIAN_POINT('',(10.219554,20.,-20.));
#422 = DIRECTION('',(-1.1E-16,1.7E-16,1.));
#423 = DIRECTION('',(-2.2E-16,1.,-1.7E-16));
#424 = ADVANCED_FACE('',(#425),#432,.T.);
#425 = FACE_BOUND('',#426,.T.);
#426 = EDGE_LOOP('',(#427,#428,#429,#430,#431));
#427 = ORIENTED_EDGE('',*,*,#327,.F.);
#428 = ORIENTED_EDGE('',*,*,#375,.T.);
#429 = ORIENTED_EDGE('',*,*,#358,.F.);
#430 = ORIENTED_EDGE('',*,*,#229,.F.);
#431 = ORIENTED_EDGE('',*,*,#304,.F.);
#432 = PLANE('',#433);
#433 = AXIS2_PLACEMENT_3D('',#434,#435,#436);
#434 = CARTESIAN_POINT('',(0.,-1.39E-15,-12.5));
#435 = DIRECTION('',(-6.E-17,1.1E-16,1.));
#436 = DIRECTION('',(1.,-6.E-17,6.E-17));
#437 = ADVANCED_FACE('',(#438,#441),#444,.T.);
#438 = FACE_BOUND('',#439,.T.);
#439 = EDGE_LOOP('',(#440));
#440 = ORIENTED_EDGE('',*,*,#399,.T.);
#441 = FACE_BOUND('',#442,.T.);
#442 = EDGE_LOOP('',(#443));
#443 = ORIENTED_EDGE('',*,*,#279,.T.);
#444 = PLANE('',#445);
#445 = AXIS2_PLACEMENT_3D('',#446,#447,#448);
#446 = CARTESIAN_POINT('',(20.219554,10.,3.));
#447 = DIRECTION('',(-6.E-17,6.E-17,1.));
#448 = DIRECTION('',(1.,-6.E-17,6.E-17));
#449 = ( GEOMETRIC_REPRESENTATION_CONTEXT(3) 
GLOBAL_UNCERTAINTY_ASSIGNED_CONTEXT((#453)) GLOBAL_UNIT_ASSIGNED_CONTEXT
((#450,#451,#452)) REPRESENTATION_CONTEXT('Context #1',
  '3D Context with UNIT and UNCERTAINTY') );
#450 = ( LENGTH_UNIT() NAMED_UNIT(*) SI_UNIT(.MILLI.,.METRE.) );
#451 = ( NAMED_UNIT(*) PLANE_ANGLE_UNIT() SI_UNIT($,.RADIAN.) );
#452 = ( NAMED_UNIT(*) SI_UNIT($,.STERADIAN.) SOLID_ANGLE_UNIT() );
#453 = UNCERTAINTY_MEASURE_WITH_UNIT(LENGTH_MEASURE(5.E-06),#450,
  'distance_accuracy_value','confusion accuracy');
#454 = PRODUCT_RELATED_PRODUCT_CATEGORY('part',$,(#7));
#455 = MECHANICAL_DESIGN_GEOMETRIC_PRESENTATION_REPRESENTATION('',(#456)
  ,#449);
#456 = STYLED_ITEM('color',(#457),#15);
#457 = PRESENTATION_STYLE_ASSIGNMENT((#458,#464));
#458 = SURFACE_STYLE_USAGE(.BOTH.,#459);
#459 = SURFACE_SIDE_STYLE('',(#460));
#460 = SURFACE_STYLE_FILL_AREA(#461);
#461 = FILL_AREA_STYLE('',(#462));
#462 = FILL_AREA_STYLE_COLOUR('',#463);
#463 = COLOUR_RGB('',0.447058818107,0.474509808674,0.501960817233);
#464 = CURVE_STYLE('',#465,POSITIVE_LENGTH_MEASURE(0.1),#466);
#465 = DRAUGHTING_PRE_DEFINED_CURVE_FONT('continuous');
#466 = COLOUR_RGB('',9.803921802644E-02,9.803921802644E-02,
  9.803921802644E-02);
ENDSEC;
END-ISO-10303-21;
