ISO-10303-21;
HEADER;
FILE_DESCRIPTION(('FreeCAD Model'),'2;1');
FILE_NAME('Open CASCADE Shape Model','2026-08-13T16:44:16',(''),(''),
  'Open CASCADE STEP processor 7.8','FreeCAD','Unknown');
FILE_SCHEMA(('AUTOMOTIVE_DESIGN { 1 0 10303 214 1 1 1 1 }'));
ENDSEC;
DATA;
#1 = APPLICATION_PROTOCOL_DEFINITION('international standard',
  'automotive_design',2000,#2);
#2 = APPLICATION_CONTEXT(
  'core data for automotive mechanical design processes');
#3 = SHAPE_DEFINITION_REPRESENTATION(#4,#10);
#4 = PRODUCT_DEFINITION_SHAPE('','',#5);
#5 = PRODUCT_DEFINITION('design','',#6,#9);
#6 = PRODUCT_DEFINITION_FORMATION('','',#7);
#7 = PRODUCT('holder','holder','',(#8));
#8 = PRODUCT_CONTEXT('',#2,'mechanical');
#9 = PRODUCT_DEFINITION_CONTEXT('part definition',#2,'design');
#10 = ADVANCED_BREP_SHAPE_REPRESENTATION('',(#11,#15),#1262);
#11 = AXIS2_PLACEMENT_3D('',#12,#13,#14);
#12 = CARTESIAN_POINT('',(0.,0.,0.));
#13 = DIRECTION('',(0.,0.,1.));
#14 = DIRECTION('',(1.,0.,-0.));
#15 = MANIFOLD_SOLID_BREP('',#16);
#16 = CLOSED_SHELL('',(#17,#172,#197,#228,#253,#278,#351,#424,#468,#512,
    #536,#560,#588,#616,#659,#684,#709,#734,#826,#851,#905,#962,#979,
    #996,#1013,#1027,#1044,#1061,#1078,#1095,#1112,#1129,#1149,#1161,
    #1186,#1203,#1220,#1245));
#17 = ADVANCED_FACE('',(#18,#29,#145,#156),#167,.T.);
#18 = FACE_BOUND('',#19,.T.);
#19 = EDGE_LOOP('',(#20));
#20 = ORIENTED_EDGE('',*,*,#21,.F.);
#21 = EDGE_CURVE('',#22,#22,#24,.T.);
#22 = VERTEX_POINT('',#23);
#23 = CARTESIAN_POINT('',(9.686377686349,-42.41326994812,
    -2.22044604925E-16));
#24 = CIRCLE('',#25,3.35);
#25 = AXIS2_PLACEMENT_3D('',#26,#27,#28);
#26 = CARTESIAN_POINT('',(6.336377686349,-42.41326994812,-2.3E-16));
#27 = DIRECTION('',(0.,0.,1.));
#28 = DIRECTION('',(1.,0.,0.));
#29 = FACE_BOUND('',#30,.T.);
#30 = EDGE_LOOP('',(#31,#41,#50,#58,#66,#74,#82,#90,#98,#106,#114,#122,
    #130,#138));
#31 = ORIENTED_EDGE('',*,*,#32,.T.);
#32 = EDGE_CURVE('',#33,#35,#37,.T.);
#33 = VERTEX_POINT('',#34);
#34 = CARTESIAN_POINT('',(-32.,-54.41326994812,0.));
#35 = VERTEX_POINT('',#36);
#36 = CARTESIAN_POINT('',(32.,-54.41326994812,0.));
#37 = LINE('',#38,#39);
#38 = CARTESIAN_POINT('',(-35.,-54.41326994812,0.));
#39 = VECTOR('',#40,1.);
#40 = DIRECTION('',(1.,0.,0.));
#41 = ORIENTED_EDGE('',*,*,#42,.T.);
#42 = EDGE_CURVE('',#35,#43,#45,.T.);
#43 = VERTEX_POINT('',#44);
#44 = CARTESIAN_POINT('',(35.,-51.41326994812,0.));
#45 = CIRCLE('',#46,3.);
#46 = AXIS2_PLACEMENT_3D('',#47,#48,#49);
#47 = CARTESIAN_POINT('',(32.,-51.41326994812,-2.3E-16));
#48 = DIRECTION('',(0.,-0.,1.));
#49 = DIRECTION('',(0.,1.,0.));
#50 = ORIENTED_EDGE('',*,*,#51,.T.);
#51 = EDGE_CURVE('',#43,#52,#54,.T.);
#52 = VERTEX_POINT('',#53);
#53 = CARTESIAN_POINT('',(35.,-23.8,-1.E-15));
#54 = LINE('',#55,#56);
#55 = CARTESIAN_POINT('',(35.,-54.41326994812,0.));
#56 = VECTOR('',#57,1.);
#57 = DIRECTION('',(0.,1.,0.));
#58 = ORIENTED_EDGE('',*,*,#59,.F.);
#59 = EDGE_CURVE('',#60,#52,#62,.T.);
#60 = VERTEX_POINT('',#61);
#61 = CARTESIAN_POINT('',(20.,-23.8,-4.E-15));
#62 = LINE('',#63,#64);
#63 = CARTESIAN_POINT('',(-35.,-23.8,-5.E-16));
#64 = VECTOR('',#65,1.);
#65 = DIRECTION('',(1.,0.,0.));
#66 = ORIENTED_EDGE('',*,*,#67,.F.);
#67 = EDGE_CURVE('',#68,#60,#70,.T.);
#68 = VERTEX_POINT('',#69);
#69 = CARTESIAN_POINT('',(20.,-18.8,-4.E-15));
#70 = LINE('',#71,#72);
#71 = CARTESIAN_POINT('',(20.,-4.,-1.155E-14));
#72 = VECTOR('',#73,1.);
#73 = DIRECTION('',(0.,-1.,2.2E-16));
#74 = ORIENTED_EDGE('',*,*,#75,.T.);
#75 = EDGE_CURVE('',#68,#76,#78,.T.);
#76 = VERTEX_POINT('',#77);
#77 = CARTESIAN_POINT('',(35.,-18.8,0.));
#78 = LINE('',#79,#80);
#79 = CARTESIAN_POINT('',(-35.,-18.8,0.));
#80 = VECTOR('',#81,1.);
#81 = DIRECTION('',(1.,0.,0.));
#82 = ORIENTED_EDGE('',*,*,#83,.T.);
#83 = EDGE_CURVE('',#76,#84,#86,.T.);
#84 = VERTEX_POINT('',#85);
#85 = CARTESIAN_POINT('',(35.,-4.,0.));
#86 = LINE('',#87,#88);
#87 = CARTESIAN_POINT('',(35.,-54.41326994812,0.));
#88 = VECTOR('',#89,1.);
#89 = DIRECTION('',(0.,1.,0.));
#90 = ORIENTED_EDGE('',*,*,#91,.T.);
#91 = EDGE_CURVE('',#84,#92,#94,.T.);
#92 = VERTEX_POINT('',#93);
#93 = CARTESIAN_POINT('',(-35.,-4.,0.));
#94 = LINE('',#95,#96);
#95 = CARTESIAN_POINT('',(35.,-4.,3.3E-16));
#96 = VECTOR('',#97,1.);
#97 = DIRECTION('',(-1.,-0.,-0.));
#98 = ORIENTED_EDGE('',*,*,#99,.T.);
#99 = EDGE_CURVE('',#92,#100,#102,.T.);
#100 = VERTEX_POINT('',#101);
#101 = CARTESIAN_POINT('',(-35.,-18.8,0.));
#102 = LINE('',#103,#104);
#103 = CARTESIAN_POINT('',(-35.,20.,0.));
#104 = VECTOR('',#105,1.);
#105 = DIRECTION('',(0.,-1.,0.));
#106 = ORIENTED_EDGE('',*,*,#107,.T.);
#107 = EDGE_CURVE('',#100,#108,#110,.T.);
#108 = VERTEX_POINT('',#109);
#109 = CARTESIAN_POINT('',(-20.,-18.8,-4.E-15));
#110 = LINE('',#111,#112);
#111 = CARTESIAN_POINT('',(-35.,-18.8,0.));
#112 = VECTOR('',#113,1.);
#113 = DIRECTION('',(1.,0.,0.));
#114 = ORIENTED_EDGE('',*,*,#115,.T.);
#115 = EDGE_CURVE('',#108,#116,#118,.T.);
#116 = VERTEX_POINT('',#117);
#117 = CARTESIAN_POINT('',(-20.,-23.8,-4.E-15));
#118 = LINE('',#119,#120);
#119 = CARTESIAN_POINT('',(-20.,-4.,-1.155E-14));
#120 = VECTOR('',#121,1.);
#121 = DIRECTION('',(0.,-1.,2.2E-16));
#122 = ORIENTED_EDGE('',*,*,#123,.F.);
#123 = EDGE_CURVE('',#124,#116,#126,.T.);
#124 = VERTEX_POINT('',#125);
#125 = CARTESIAN_POINT('',(-35.,-23.8,-1.E-15));
#126 = LINE('',#127,#128);
#127 = CARTESIAN_POINT('',(-35.,-23.8,-5.E-16));
#128 = VECTOR('',#129,1.);
#129 = DIRECTION('',(1.,0.,0.));
#130 = ORIENTED_EDGE('',*,*,#131,.T.);
#131 = EDGE_CURVE('',#124,#132,#134,.T.);
#132 = VERTEX_POINT('',#133);
#133 = CARTESIAN_POINT('',(-35.,-51.41326994812,0.));
#134 = LINE('',#135,#136);
#135 = CARTESIAN_POINT('',(-35.,20.,0.));
#136 = VECTOR('',#137,1.);
#137 = DIRECTION('',(0.,-1.,0.));
#138 = ORIENTED_EDGE('',*,*,#139,.T.);
#139 = EDGE_CURVE('',#132,#33,#140,.T.);
#140 = CIRCLE('',#141,3.);
#141 = AXIS2_PLACEMENT_3D('',#142,#143,#144);
#142 = CARTESIAN_POINT('',(-32.,-51.41326994812,-2.3E-16));
#143 = DIRECTION('',(0.,-0.,1.));
#144 = DIRECTION('',(0.,1.,0.));
#145 = FACE_BOUND('',#146,.T.);
#146 = EDGE_LOOP('',(#147));
#147 = ORIENTED_EDGE('',*,*,#148,.F.);
#148 = EDGE_CURVE('',#149,#149,#151,.T.);
#149 = VERTEX_POINT('',#150);
#150 = CARTESIAN_POINT('',(-11.25730298884,-42.4,0.));
#151 = CIRCLE('',#152,1.9);
#152 = AXIS2_PLACEMENT_3D('',#153,#154,#155);
#153 = CARTESIAN_POINT('',(-13.15730298884,-42.4,-2.3E-16));
#154 = DIRECTION('',(0.,0.,1.));
#155 = DIRECTION('',(1.,0.,0.));
#156 = FACE_BOUND('',#157,.T.);
#157 = EDGE_LOOP('',(#158));
#158 = ORIENTED_EDGE('',*,*,#159,.F.);
#159 = EDGE_CURVE('',#160,#160,#162,.T.);
#160 = VERTEX_POINT('',#161);
#161 = CARTESIAN_POINT('',(25.742696944426,-42.4,0.));
#162 = CIRCLE('',#163,1.9);
#163 = AXIS2_PLACEMENT_3D('',#164,#165,#166);
#164 = CARTESIAN_POINT('',(23.842696944426,-42.4,-2.3E-16));
#165 = DIRECTION('',(0.,0.,1.));
#166 = DIRECTION('',(1.,0.,0.));
#167 = PLANE('',#168);
#168 = AXIS2_PLACEMENT_3D('',#169,#170,#171);
#169 = CARTESIAN_POINT('',(7.6E-16,-27.62965277492,-2.3E-16));
#170 = DIRECTION('',(0.,0.,1.));
#171 = DIRECTION('',(1.,0.,0.));
#172 = ADVANCED_FACE('',(#173),#192,.F.);
#173 = FACE_BOUND('',#174,.T.);
#174 = EDGE_LOOP('',(#175,#183,#184,#185));
#175 = ORIENTED_EDGE('',*,*,#176,.F.);
#176 = EDGE_CURVE('',#22,#177,#179,.T.);
#177 = VERTEX_POINT('',#178);
#178 = CARTESIAN_POINT('',(8.686377686349,-42.41326994812,-1.));
#179 = LINE('',#180,#181);
#180 = CARTESIAN_POINT('',(8.686377686349,-42.41326994812,-1.));
#181 = VECTOR('',#182,1.);
#182 = DIRECTION('',(-0.707106781187,-0.,-0.707106781187));
#183 = ORIENTED_EDGE('',*,*,#21,.T.);
#184 = ORIENTED_EDGE('',*,*,#176,.T.);
#185 = ORIENTED_EDGE('',*,*,#186,.F.);
#186 = EDGE_CURVE('',#177,#177,#187,.T.);
#187 = CIRCLE('',#188,2.35);
#188 = AXIS2_PLACEMENT_3D('',#189,#190,#191);
#189 = CARTESIAN_POINT('',(6.336377686349,-42.41326994812,-1.));
#190 = DIRECTION('',(0.,0.,1.));
#191 = DIRECTION('',(1.,0.,0.));
#192 = CONICAL_SURFACE('',#193,2.35,0.785398163397);
#193 = AXIS2_PLACEMENT_3D('',#194,#195,#196);
#194 = CARTESIAN_POINT('',(6.336377686349,-42.41326994812,-1.));
#195 = DIRECTION('',(0.,0.,1.));
#196 = DIRECTION('',(1.,0.,0.));
#197 = ADVANCED_FACE('',(#198),#223,.T.);
#198 = FACE_BOUND('',#199,.T.);
#199 = EDGE_LOOP('',(#200,#201,#209,#217));
#200 = ORIENTED_EDGE('',*,*,#32,.F.);
#201 = ORIENTED_EDGE('',*,*,#202,.T.);
#202 = EDGE_CURVE('',#33,#203,#205,.T.);
#203 = VERTEX_POINT('',#204);
#204 = CARTESIAN_POINT('',(-32.,-54.41326994812,-6.));
#205 = LINE('',#206,#207);
#206 = CARTESIAN_POINT('',(-32.,-54.41326994812,0.));
#207 = VECTOR('',#208,1.);
#208 = DIRECTION('',(-0.,-0.,-1.));
#209 = ORIENTED_EDGE('',*,*,#210,.T.);
#210 = EDGE_CURVE('',#203,#211,#213,.T.);
#211 = VERTEX_POINT('',#212);
#212 = CARTESIAN_POINT('',(32.,-54.41326994812,-6.));
#213 = LINE('',#214,#215);
#214 = CARTESIAN_POINT('',(-35.,-54.41326994812,-6.));
#215 = VECTOR('',#216,1.);
#216 = DIRECTION('',(1.,0.,0.));
#217 = ORIENTED_EDGE('',*,*,#218,.F.);
#218 = EDGE_CURVE('',#35,#211,#219,.T.);
#219 = LINE('',#220,#221);
#220 = CARTESIAN_POINT('',(32.,-54.41326994812,0.));
#221 = VECTOR('',#222,1.);
#222 = DIRECTION('',(-0.,-0.,-1.));
#223 = PLANE('',#224);
#224 = AXIS2_PLACEMENT_3D('',#225,#226,#227);
#225 = CARTESIAN_POINT('',(-35.,-54.41326994812,0.));
#226 = DIRECTION('',(0.,-1.,0.));
#227 = DIRECTION('',(1.,0.,0.));
#228 = ADVANCED_FACE('',(#229),#248,.T.);
#229 = FACE_BOUND('',#230,.F.);
#230 = EDGE_LOOP('',(#231,#232,#233,#242));
#231 = ORIENTED_EDGE('',*,*,#139,.T.);
#232 = ORIENTED_EDGE('',*,*,#202,.T.);
#233 = ORIENTED_EDGE('',*,*,#234,.F.);
#234 = EDGE_CURVE('',#235,#203,#237,.T.);
#235 = VERTEX_POINT('',#236);
#236 = CARTESIAN_POINT('',(-35.,-51.41326994812,-6.));
#237 = CIRCLE('',#238,3.);
#238 = AXIS2_PLACEMENT_3D('',#239,#240,#241);
#239 = CARTESIAN_POINT('',(-32.,-51.41326994812,-6.));
#240 = DIRECTION('',(0.,-0.,1.));
#241 = DIRECTION('',(0.,1.,0.));
#242 = ORIENTED_EDGE('',*,*,#243,.F.);
#243 = EDGE_CURVE('',#132,#235,#244,.T.);
#244 = LINE('',#245,#246);
#245 = CARTESIAN_POINT('',(-35.,-51.41326994812,0.));
#246 = VECTOR('',#247,1.);
#247 = DIRECTION('',(-0.,-0.,-1.));
#248 = CYLINDRICAL_SURFACE('',#249,3.);
#249 = AXIS2_PLACEMENT_3D('',#250,#251,#252);
#250 = CARTESIAN_POINT('',(-32.,-51.41326994812,0.));
#251 = DIRECTION('',(-0.,-0.,-1.));
#252 = DIRECTION('',(-1.,0.,0.));
#253 = ADVANCED_FACE('',(#254),#273,.T.);
#254 = FACE_BOUND('',#255,.F.);
#255 = EDGE_LOOP('',(#256,#257,#265,#272));
#256 = ORIENTED_EDGE('',*,*,#42,.T.);
#257 = ORIENTED_EDGE('',*,*,#258,.T.);
#258 = EDGE_CURVE('',#43,#259,#261,.T.);
#259 = VERTEX_POINT('',#260);
#260 = CARTESIAN_POINT('',(35.,-51.41326994812,-6.));
#261 = LINE('',#262,#263);
#262 = CARTESIAN_POINT('',(35.,-51.41326994812,0.));
#263 = VECTOR('',#264,1.);
#264 = DIRECTION('',(-0.,-0.,-1.));
#265 = ORIENTED_EDGE('',*,*,#266,.F.);
#266 = EDGE_CURVE('',#211,#259,#267,.T.);
#267 = CIRCLE('',#268,3.);
#268 = AXIS2_PLACEMENT_3D('',#269,#270,#271);
#269 = CARTESIAN_POINT('',(32.,-51.41326994812,-6.));
#270 = DIRECTION('',(0.,-0.,1.));
#271 = DIRECTION('',(0.,1.,0.));
#272 = ORIENTED_EDGE('',*,*,#218,.F.);
#273 = CYLINDRICAL_SURFACE('',#274,3.);
#274 = AXIS2_PLACEMENT_3D('',#275,#276,#277);
#275 = CARTESIAN_POINT('',(32.,-51.41326994812,0.));
#276 = DIRECTION('',(-0.,-0.,-1.));
#277 = DIRECTION('',(0.,-1.,0.));
#278 = ADVANCED_FACE('',(#279,#329),#346,.T.);
#279 = FACE_BOUND('',#280,.T.);
#280 = EDGE_LOOP('',(#281,#289,#290,#291,#299,#307,#315,#323));
#281 = ORIENTED_EDGE('',*,*,#282,.T.);
#282 = EDGE_CURVE('',#283,#235,#285,.T.);
#283 = VERTEX_POINT('',#284);
#284 = CARTESIAN_POINT('',(-35.,17.,-6.));
#285 = LINE('',#286,#287);
#286 = CARTESIAN_POINT('',(-35.,20.,-6.));
#287 = VECTOR('',#288,1.);
#288 = DIRECTION('',(0.,-1.,0.));
#289 = ORIENTED_EDGE('',*,*,#243,.F.);
#290 = ORIENTED_EDGE('',*,*,#131,.F.);
#291 = ORIENTED_EDGE('',*,*,#292,.F.);
#292 = EDGE_CURVE('',#293,#124,#295,.T.);
#293 = VERTEX_POINT('',#294);
#294 = CARTESIAN_POINT('',(-35.,-7.,16.8));
#295 = LINE('',#296,#297);
#296 = CARTESIAN_POINT('',(-35.,-4.,19.8));
#297 = VECTOR('',#298,1.);
#298 = DIRECTION('',(0.,-0.707106781187,-0.707106781187));
#299 = ORIENTED_EDGE('',*,*,#300,.F.);
#300 = EDGE_CURVE('',#301,#293,#303,.T.);
#301 = VERTEX_POINT('',#302);
#302 = CARTESIAN_POINT('',(-35.,-2.17E-13,16.8));
#303 = LINE('',#304,#305);
#304 = CARTESIAN_POINT('',(-35.,-2.1494E-13,16.8));
#305 = VECTOR('',#306,1.);
#306 = DIRECTION('',(0.,-1.,0.));
#307 = ORIENTED_EDGE('',*,*,#308,.F.);
#308 = EDGE_CURVE('',#309,#301,#311,.T.);
#309 = VERTEX_POINT('',#310);
#310 = CARTESIAN_POINT('',(-35.,-2.15E-13,0.));
#311 = LINE('',#312,#313);
#312 = CARTESIAN_POINT('',(-35.,-2.1599E-13,1.7E-16));
#313 = VECTOR('',#314,1.);
#314 = DIRECTION('',(0.,0.,1.));
#315 = ORIENTED_EDGE('',*,*,#316,.F.);
#316 = EDGE_CURVE('',#317,#309,#319,.T.);
#317 = VERTEX_POINT('',#318);
#318 = CARTESIAN_POINT('',(-35.,17.,0.));
#319 = LINE('',#320,#321);
#320 = CARTESIAN_POINT('',(-35.,20.,0.));
#321 = VECTOR('',#322,1.);
#322 = DIRECTION('',(0.,-1.,0.));
#323 = ORIENTED_EDGE('',*,*,#324,.T.);
#324 = EDGE_CURVE('',#317,#283,#325,.T.);
#325 = LINE('',#326,#327);
#326 = CARTESIAN_POINT('',(-35.,17.,0.));
#327 = VECTOR('',#328,1.);
#328 = DIRECTION('',(-0.,-0.,-1.));
#329 = FACE_BOUND('',#330,.T.);
#330 = EDGE_LOOP('',(#331,#332,#340));
#331 = ORIENTED_EDGE('',*,*,#99,.F.);
#332 = ORIENTED_EDGE('',*,*,#333,.F.);
#333 = EDGE_CURVE('',#334,#92,#336,.T.);
#334 = VERTEX_POINT('',#335);
#335 = CARTESIAN_POINT('',(-35.,-4.,14.8));
#336 = LINE('',#337,#338);
#337 = CARTESIAN_POINT('',(-35.,-4.,9.9));
#338 = VECTOR('',#339,1.);
#339 = DIRECTION('',(-0.,-0.,-1.));
#340 = ORIENTED_EDGE('',*,*,#341,.F.);
#341 = EDGE_CURVE('',#100,#334,#342,.T.);
#342 = LINE('',#343,#344);
#343 = CARTESIAN_POINT('',(-35.,-18.8,0.));
#344 = VECTOR('',#345,1.);
#345 = DIRECTION('',(0.,0.707106781187,0.707106781187));
#346 = PLANE('',#347);
#347 = AXIS2_PLACEMENT_3D('',#348,#349,#350);
#348 = CARTESIAN_POINT('',(-35.,-15.25877467575,0.370466956716));
#349 = DIRECTION('',(-1.,-0.,-0.));
#350 = DIRECTION('',(0.,0.,-1.));
#351 = ADVANCED_FACE('',(#352,#402),#419,.T.);
#352 = FACE_BOUND('',#353,.T.);
#353 = EDGE_LOOP('',(#354,#362,#370,#378,#386,#394,#400,#401));
#354 = ORIENTED_EDGE('',*,*,#355,.T.);
#355 = EDGE_CURVE('',#259,#356,#358,.T.);
#356 = VERTEX_POINT('',#357);
#357 = CARTESIAN_POINT('',(35.,17.,-6.));
#358 = LINE('',#359,#360);
#359 = CARTESIAN_POINT('',(35.,-54.41326994812,-6.));
#360 = VECTOR('',#361,1.);
#361 = DIRECTION('',(0.,1.,0.));
#362 = ORIENTED_EDGE('',*,*,#363,.F.);
#363 = EDGE_CURVE('',#364,#356,#366,.T.);
#364 = VERTEX_POINT('',#365);
#365 = CARTESIAN_POINT('',(35.,17.,0.));
#366 = LINE('',#367,#368);
#367 = CARTESIAN_POINT('',(35.,17.,0.));
#368 = VECTOR('',#369,1.);
#369 = DIRECTION('',(-0.,-0.,-1.));
#370 = ORIENTED_EDGE('',*,*,#371,.F.);
#371 = EDGE_CURVE('',#372,#364,#374,.T.);
#372 = VERTEX_POINT('',#373);
#373 = CARTESIAN_POINT('',(35.,-2.15E-13,0.));
#374 = LINE('',#375,#376);
#375 = CARTESIAN_POINT('',(35.,-54.41326994812,0.));
#376 = VECTOR('',#377,1.);
#377 = DIRECTION('',(0.,1.,0.));
#378 = ORIENTED_EDGE('',*,*,#379,.T.);
#379 = EDGE_CURVE('',#372,#380,#382,.T.);
#380 = VERTEX_POINT('',#381);
#381 = CARTESIAN_POINT('',(35.,-2.15E-13,16.8));
#382 = LINE('',#383,#384);
#383 = CARTESIAN_POINT('',(35.,-2.1539E-13,4.5E-16));
#384 = VECTOR('',#385,1.);
#385 = DIRECTION('',(0.,0.,1.));
#386 = ORIENTED_EDGE('',*,*,#387,.T.);
#387 = EDGE_CURVE('',#380,#388,#390,.T.);
#388 = VERTEX_POINT('',#389);
#389 = CARTESIAN_POINT('',(35.,-7.,16.8));
#390 = LINE('',#391,#392);
#391 = CARTESIAN_POINT('',(35.,-2.1494E-13,16.8));
#392 = VECTOR('',#393,1.);
#393 = DIRECTION('',(0.,-1.,0.));
#394 = ORIENTED_EDGE('',*,*,#395,.T.);
#395 = EDGE_CURVE('',#388,#52,#396,.T.);
#396 = LINE('',#397,#398);
#397 = CARTESIAN_POINT('',(35.,-4.,19.8));
#398 = VECTOR('',#399,1.);
#399 = DIRECTION('',(0.,-0.707106781187,-0.707106781187));
#400 = ORIENTED_EDGE('',*,*,#51,.F.);
#401 = ORIENTED_EDGE('',*,*,#258,.T.);
#402 = FACE_BOUND('',#403,.T.);
#403 = EDGE_LOOP('',(#404,#412,#413));
#404 = ORIENTED_EDGE('',*,*,#405,.T.);
#405 = EDGE_CURVE('',#406,#84,#408,.T.);
#406 = VERTEX_POINT('',#407);
#407 = CARTESIAN_POINT('',(35.,-4.,14.8));
#408 = LINE('',#409,#410);
#409 = CARTESIAN_POINT('',(35.,-4.,19.8));
#410 = VECTOR('',#411,1.);
#411 = DIRECTION('',(0.,0.,-1.));
#412 = ORIENTED_EDGE('',*,*,#83,.F.);
#413 = ORIENTED_EDGE('',*,*,#414,.T.);
#414 = EDGE_CURVE('',#76,#406,#415,.T.);
#415 = LINE('',#416,#417);
#416 = CARTESIAN_POINT('',(35.,-18.8,0.));
#417 = VECTOR('',#418,1.);
#418 = DIRECTION('',(0.,0.707106781187,0.707106781187));
#419 = PLANE('',#420);
#420 = AXIS2_PLACEMENT_3D('',#421,#422,#423);
#421 = CARTESIAN_POINT('',(35.,-15.25877467575,0.370466956716));
#422 = DIRECTION('',(1.,0.,0.));
#423 = DIRECTION('',(0.,0.,1.));
#424 = ADVANCED_FACE('',(#425,#452),#463,.F.);
#425 = FACE_BOUND('',#426,.F.);
#426 = EDGE_LOOP('',(#427,#437,#443,#444,#445));
#427 = ORIENTED_EDGE('',*,*,#428,.F.);
#428 = EDGE_CURVE('',#429,#431,#433,.T.);
#429 = VERTEX_POINT('',#430);
#430 = CARTESIAN_POINT('',(-20.,-4.,19.8));
#431 = VERTEX_POINT('',#432);
#432 = CARTESIAN_POINT('',(-32.,-4.,19.8));
#433 = LINE('',#434,#435);
#434 = CARTESIAN_POINT('',(35.,-4.,19.8));
#435 = VECTOR('',#436,1.);
#436 = DIRECTION('',(-1.,-0.,-0.));
#437 = ORIENTED_EDGE('',*,*,#438,.T.);
#438 = EDGE_CURVE('',#429,#116,#439,.T.);
#439 = LINE('',#440,#441);
#440 = CARTESIAN_POINT('',(-20.,-4.,19.8));
#441 = VECTOR('',#442,1.);
#442 = DIRECTION('',(0.,-0.707106781187,-0.707106781187));
#443 = ORIENTED_EDGE('',*,*,#123,.F.);
#444 = ORIENTED_EDGE('',*,*,#292,.F.);
#445 = ORIENTED_EDGE('',*,*,#446,.T.);
#446 = EDGE_CURVE('',#293,#431,#447,.T.);
#447 = ELLIPSE('',#448,4.242640687119,3.);
#448 = AXIS2_PLACEMENT_3D('',#449,#450,#451);
#449 = CARTESIAN_POINT('',(-32.,-7.,16.8));
#450 = DIRECTION('',(0.,0.707106781187,-0.707106781187));
#451 = DIRECTION('',(0.,-0.707106781187,-0.707106781187));
#452 = FACE_BOUND('',#453,.F.);
#453 = EDGE_LOOP('',(#454));
#454 = ORIENTED_EDGE('',*,*,#455,.F.);
#455 = EDGE_CURVE('',#456,#456,#458,.T.);
#456 = VERTEX_POINT('',#457);
#457 = CARTESIAN_POINT('',(-22.75,-14.,9.8));
#458 = ELLIPSE('',#459,6.010407640086,4.25);
#459 = AXIS2_PLACEMENT_3D('',#460,#461,#462);
#460 = CARTESIAN_POINT('',(-27.,-14.,9.8));
#461 = DIRECTION('',(0.,0.707106781187,-0.707106781187));
#462 = DIRECTION('',(0.,0.707106781187,0.707106781187));
#463 = PLANE('',#464);
#464 = AXIS2_PLACEMENT_3D('',#465,#466,#467);
#465 = CARTESIAN_POINT('',(-35.,-4.,19.8));
#466 = DIRECTION('',(0.,0.707106781187,-0.707106781187));
#467 = DIRECTION('',(0.,-0.707106781187,-0.707106781187));
#468 = ADVANCED_FACE('',(#469,#496),#507,.F.);
#469 = FACE_BOUND('',#470,.F.);
#470 = EDGE_LOOP('',(#471,#481,#488,#489,#490));
#471 = ORIENTED_EDGE('',*,*,#472,.F.);
#472 = EDGE_CURVE('',#473,#475,#477,.T.);
#473 = VERTEX_POINT('',#474);
#474 = CARTESIAN_POINT('',(32.,-4.,19.8));
#475 = VERTEX_POINT('',#476);
#476 = CARTESIAN_POINT('',(20.,-4.,19.8));
#477 = LINE('',#478,#479);
#478 = CARTESIAN_POINT('',(35.,-4.,19.8));
#479 = VECTOR('',#480,1.);
#480 = DIRECTION('',(-1.,-0.,-0.));
#481 = ORIENTED_EDGE('',*,*,#482,.F.);
#482 = EDGE_CURVE('',#388,#473,#483,.T.);
#483 = ELLIPSE('',#484,4.242640687119,3.);
#484 = AXIS2_PLACEMENT_3D('',#485,#486,#487);
#485 = CARTESIAN_POINT('',(32.,-7.,16.8));
#486 = DIRECTION('',(0.,-0.707106781187,0.707106781187));
#487 = DIRECTION('',(0.,-0.707106781187,-0.707106781187));
#488 = ORIENTED_EDGE('',*,*,#395,.T.);
#489 = ORIENTED_EDGE('',*,*,#59,.F.);
#490 = ORIENTED_EDGE('',*,*,#491,.T.);
#491 = EDGE_CURVE('',#60,#475,#492,.T.);
#492 = LINE('',#493,#494);
#493 = CARTESIAN_POINT('',(20.,-8.95,14.85));
#494 = VECTOR('',#495,1.);
#495 = DIRECTION('',(0.,0.707106781187,0.707106781187));
#496 = FACE_BOUND('',#497,.F.);
#497 = EDGE_LOOP('',(#498));
#498 = ORIENTED_EDGE('',*,*,#499,.F.);
#499 = EDGE_CURVE('',#500,#500,#502,.T.);
#500 = VERTEX_POINT('',#501);
#501 = CARTESIAN_POINT('',(31.25,-14.,9.8));
#502 = ELLIPSE('',#503,6.010407640086,4.25);
#503 = AXIS2_PLACEMENT_3D('',#504,#505,#506);
#504 = CARTESIAN_POINT('',(27.,-14.,9.8));
#505 = DIRECTION('',(0.,0.707106781187,-0.707106781187));
#506 = DIRECTION('',(0.,0.707106781187,0.707106781187));
#507 = PLANE('',#508);
#508 = AXIS2_PLACEMENT_3D('',#509,#510,#511);
#509 = CARTESIAN_POINT('',(-35.,-4.,19.8));
#510 = DIRECTION('',(0.,0.707106781187,-0.707106781187));
#511 = DIRECTION('',(0.,-0.707106781187,-0.707106781187));
#512 = ADVANCED_FACE('',(#513),#531,.T.);
#513 = FACE_BOUND('',#514,.T.);
#514 = EDGE_LOOP('',(#515,#523,#524,#525));
#515 = ORIENTED_EDGE('',*,*,#516,.F.);
#516 = EDGE_CURVE('',#429,#517,#519,.T.);
#517 = VERTEX_POINT('',#518);
#518 = CARTESIAN_POINT('',(-20.,-4.,14.8));
#519 = LINE('',#520,#521);
#520 = CARTESIAN_POINT('',(-20.,-4.,19.8));
#521 = VECTOR('',#522,1.);
#522 = DIRECTION('',(0.,0.,-1.));
#523 = ORIENTED_EDGE('',*,*,#438,.T.);
#524 = ORIENTED_EDGE('',*,*,#115,.F.);
#525 = ORIENTED_EDGE('',*,*,#526,.T.);
#526 = EDGE_CURVE('',#108,#517,#527,.T.);
#527 = LINE('',#528,#529);
#528 = CARTESIAN_POINT('',(-20.,-10.15,8.65));
#529 = VECTOR('',#530,1.);
#530 = DIRECTION('',(0.,0.707106781187,0.707106781187));
#531 = PLANE('',#532);
#532 = AXIS2_PLACEMENT_3D('',#533,#534,#535);
#533 = CARTESIAN_POINT('',(-20.,-4.,19.8));
#534 = DIRECTION('',(1.,0.,0.));
#535 = DIRECTION('',(0.,-2.2E-16,-1.));
#536 = ADVANCED_FACE('',(#537),#555,.T.);
#537 = FACE_BOUND('',#538,.T.);
#538 = EDGE_LOOP('',(#539,#547,#548,#549));
#539 = ORIENTED_EDGE('',*,*,#540,.T.);
#540 = EDGE_CURVE('',#541,#68,#543,.T.);
#541 = VERTEX_POINT('',#542);
#542 = CARTESIAN_POINT('',(20.,-4.,14.8));
#543 = LINE('',#544,#545);
#544 = CARTESIAN_POINT('',(20.,-15.1,3.7));
#545 = VECTOR('',#546,1.);
#546 = DIRECTION('',(-0.,-0.707106781187,-0.707106781187));
#547 = ORIENTED_EDGE('',*,*,#67,.T.);
#548 = ORIENTED_EDGE('',*,*,#491,.T.);
#549 = ORIENTED_EDGE('',*,*,#550,.F.);
#550 = EDGE_CURVE('',#541,#475,#551,.T.);
#551 = LINE('',#552,#553);
#552 = CARTESIAN_POINT('',(20.,-4.,-1.166E-14));
#553 = VECTOR('',#554,1.);
#554 = DIRECTION('',(0.,0.,1.));
#555 = PLANE('',#556);
#556 = AXIS2_PLACEMENT_3D('',#557,#558,#559);
#557 = CARTESIAN_POINT('',(20.,-4.,-1.155E-14));
#558 = DIRECTION('',(-1.,0.,0.));
#559 = DIRECTION('',(0.,2.2E-16,1.));
#560 = ADVANCED_FACE('',(#561,#572),#583,.F.);
#561 = FACE_BOUND('',#562,.F.);
#562 = EDGE_LOOP('',(#563,#564,#565,#566));
#563 = ORIENTED_EDGE('',*,*,#341,.F.);
#564 = ORIENTED_EDGE('',*,*,#107,.T.);
#565 = ORIENTED_EDGE('',*,*,#526,.T.);
#566 = ORIENTED_EDGE('',*,*,#567,.F.);
#567 = EDGE_CURVE('',#334,#517,#568,.T.);
#568 = LINE('',#569,#570);
#569 = CARTESIAN_POINT('',(-35.,-4.,14.8));
#570 = VECTOR('',#571,1.);
#571 = DIRECTION('',(1.,0.,0.));
#572 = FACE_BOUND('',#573,.F.);
#573 = EDGE_LOOP('',(#574));
#574 = ORIENTED_EDGE('',*,*,#575,.F.);
#575 = EDGE_CURVE('',#576,#576,#578,.T.);
#576 = VERTEX_POINT('',#577);
#577 = CARTESIAN_POINT('',(-22.75,-9.,9.8));
#578 = ELLIPSE('',#579,6.010407640086,4.25);
#579 = AXIS2_PLACEMENT_3D('',#580,#581,#582);
#580 = CARTESIAN_POINT('',(-27.,-9.,9.8));
#581 = DIRECTION('',(0.,-0.707106781187,0.707106781187));
#582 = DIRECTION('',(0.,0.707106781187,0.707106781187));
#583 = PLANE('',#584);
#584 = AXIS2_PLACEMENT_3D('',#585,#586,#587);
#585 = CARTESIAN_POINT('',(-35.,-18.8,0.));
#586 = DIRECTION('',(0.,-0.707106781187,0.707106781187));
#587 = DIRECTION('',(0.,0.707106781187,0.707106781187));
#588 = ADVANCED_FACE('',(#589,#600),#611,.F.);
#589 = FACE_BOUND('',#590,.F.);
#590 = EDGE_LOOP('',(#591,#592,#593,#594));
#591 = ORIENTED_EDGE('',*,*,#540,.T.);
#592 = ORIENTED_EDGE('',*,*,#75,.T.);
#593 = ORIENTED_EDGE('',*,*,#414,.T.);
#594 = ORIENTED_EDGE('',*,*,#595,.F.);
#595 = EDGE_CURVE('',#541,#406,#596,.T.);
#596 = LINE('',#597,#598);
#597 = CARTESIAN_POINT('',(-35.,-4.,14.8));
#598 = VECTOR('',#599,1.);
#599 = DIRECTION('',(1.,0.,0.));
#600 = FACE_BOUND('',#601,.F.);
#601 = EDGE_LOOP('',(#602));
#602 = ORIENTED_EDGE('',*,*,#603,.F.);
#603 = EDGE_CURVE('',#604,#604,#606,.T.);
#604 = VERTEX_POINT('',#605);
#605 = CARTESIAN_POINT('',(31.25,-9.,9.8));
#606 = ELLIPSE('',#607,6.010407640086,4.25);
#607 = AXIS2_PLACEMENT_3D('',#608,#609,#610);
#608 = CARTESIAN_POINT('',(27.,-9.,9.8));
#609 = DIRECTION('',(0.,-0.707106781187,0.707106781187));
#610 = DIRECTION('',(0.,0.707106781187,0.707106781187));
#611 = PLANE('',#612);
#612 = AXIS2_PLACEMENT_3D('',#613,#614,#615);
#613 = CARTESIAN_POINT('',(-35.,-18.8,0.));
#614 = DIRECTION('',(0.,-0.707106781187,0.707106781187));
#615 = DIRECTION('',(0.,0.707106781187,0.707106781187));
#616 = ADVANCED_FACE('',(#617,#632,#643),#654,.T.);
#617 = FACE_BOUND('',#618,.T.);
#618 = EDGE_LOOP('',(#619,#620,#621,#622,#623,#629,#630,#631));
#619 = ORIENTED_EDGE('',*,*,#91,.F.);
#620 = ORIENTED_EDGE('',*,*,#405,.F.);
#621 = ORIENTED_EDGE('',*,*,#595,.F.);
#622 = ORIENTED_EDGE('',*,*,#550,.T.);
#623 = ORIENTED_EDGE('',*,*,#624,.T.);
#624 = EDGE_CURVE('',#475,#429,#625,.T.);
#625 = LINE('',#626,#627);
#626 = CARTESIAN_POINT('',(35.,-4.,19.8));
#627 = VECTOR('',#628,1.);
#628 = DIRECTION('',(-1.,-0.,-0.));
#629 = ORIENTED_EDGE('',*,*,#516,.T.);
#630 = ORIENTED_EDGE('',*,*,#567,.F.);
#631 = ORIENTED_EDGE('',*,*,#333,.T.);
#632 = FACE_BOUND('',#633,.T.);
#633 = EDGE_LOOP('',(#634));
#634 = ORIENTED_EDGE('',*,*,#635,.T.);
#635 = EDGE_CURVE('',#636,#636,#638,.T.);
#636 = VERTEX_POINT('',#637);
#637 = CARTESIAN_POINT('',(29.6,-4.,9.8));
#638 = CIRCLE('',#639,2.6);
#639 = AXIS2_PLACEMENT_3D('',#640,#641,#642);
#640 = CARTESIAN_POINT('',(27.,-4.,9.8));
#641 = DIRECTION('',(0.,1.,-2.2E-16));
#642 = DIRECTION('',(1.,0.,0.));
#643 = FACE_BOUND('',#644,.T.);
#644 = EDGE_LOOP('',(#645));
#645 = ORIENTED_EDGE('',*,*,#646,.T.);
#646 = EDGE_CURVE('',#647,#647,#649,.T.);
#647 = VERTEX_POINT('',#648);
#648 = CARTESIAN_POINT('',(-24.4,-4.,9.8));
#649 = CIRCLE('',#650,2.6);
#650 = AXIS2_PLACEMENT_3D('',#651,#652,#653);
#651 = CARTESIAN_POINT('',(-27.,-4.,9.8));
#652 = DIRECTION('',(0.,1.,-2.2E-16));
#653 = DIRECTION('',(1.,0.,0.));
#654 = PLANE('',#655);
#655 = AXIS2_PLACEMENT_3D('',#656,#657,#658);
#656 = CARTESIAN_POINT('',(3.17E-15,-4.,9.064810690423));
#657 = DIRECTION('',(-0.,-1.,-0.));
#658 = DIRECTION('',(0.,0.,-1.));
#659 = ADVANCED_FACE('',(#660),#679,.F.);
#660 = FACE_BOUND('',#661,.F.);
#661 = EDGE_LOOP('',(#662,#670,#677,#678));
#662 = ORIENTED_EDGE('',*,*,#663,.F.);
#663 = EDGE_CURVE('',#664,#149,#666,.T.);
#664 = VERTEX_POINT('',#665);
#665 = CARTESIAN_POINT('',(-11.75730298884,-42.4,-0.5));
#666 = LINE('',#667,#668);
#667 = CARTESIAN_POINT('',(-11.75730298884,-42.4,-0.5));
#668 = VECTOR('',#669,1.);
#669 = DIRECTION('',(0.707106781187,0.,0.707106781187));
#670 = ORIENTED_EDGE('',*,*,#671,.T.);
#671 = EDGE_CURVE('',#664,#664,#672,.T.);
#672 = CIRCLE('',#673,1.4);
#673 = AXIS2_PLACEMENT_3D('',#674,#675,#676);
#674 = CARTESIAN_POINT('',(-13.15730298884,-42.4,-0.5));
#675 = DIRECTION('',(0.,0.,1.));
#676 = DIRECTION('',(1.,0.,0.));
#677 = ORIENTED_EDGE('',*,*,#663,.T.);
#678 = ORIENTED_EDGE('',*,*,#148,.F.);
#679 = CONICAL_SURFACE('',#680,1.4,0.785398163397);
#680 = AXIS2_PLACEMENT_3D('',#681,#682,#683);
#681 = CARTESIAN_POINT('',(-13.15730298884,-42.4,-0.5));
#682 = DIRECTION('',(0.,0.,1.));
#683 = DIRECTION('',(1.,0.,0.));
#684 = ADVANCED_FACE('',(#685),#704,.F.);
#685 = FACE_BOUND('',#686,.F.);
#686 = EDGE_LOOP('',(#687,#695,#702,#703));
#687 = ORIENTED_EDGE('',*,*,#688,.F.);
#688 = EDGE_CURVE('',#689,#160,#691,.T.);
#689 = VERTEX_POINT('',#690);
#690 = CARTESIAN_POINT('',(25.242696944426,-42.4,-0.5));
#691 = LINE('',#692,#693);
#692 = CARTESIAN_POINT('',(25.242696944426,-42.4,-0.5));
#693 = VECTOR('',#694,1.);
#694 = DIRECTION('',(0.707106781187,0.,0.707106781187));
#695 = ORIENTED_EDGE('',*,*,#696,.T.);
#696 = EDGE_CURVE('',#689,#689,#697,.T.);
#697 = CIRCLE('',#698,1.4);
#698 = AXIS2_PLACEMENT_3D('',#699,#700,#701);
#699 = CARTESIAN_POINT('',(23.842696944426,-42.4,-0.5));
#700 = DIRECTION('',(0.,0.,1.));
#701 = DIRECTION('',(1.,0.,0.));
#702 = ORIENTED_EDGE('',*,*,#688,.T.);
#703 = ORIENTED_EDGE('',*,*,#159,.F.);
#704 = CONICAL_SURFACE('',#705,1.4,0.785398163397);
#705 = AXIS2_PLACEMENT_3D('',#706,#707,#708);
#706 = CARTESIAN_POINT('',(23.842696944426,-42.4,-0.5));
#707 = DIRECTION('',(0.,0.,1.));
#708 = DIRECTION('',(1.,0.,0.));
#709 = ADVANCED_FACE('',(#710),#729,.F.);
#710 = FACE_BOUND('',#711,.F.);
#711 = EDGE_LOOP('',(#712,#720,#727,#728));
#712 = ORIENTED_EDGE('',*,*,#713,.T.);
#713 = EDGE_CURVE('',#177,#714,#716,.T.);
#714 = VERTEX_POINT('',#715);
#715 = CARTESIAN_POINT('',(8.686377686349,-42.41326994812,-2.5));
#716 = LINE('',#717,#718);
#717 = CARTESIAN_POINT('',(8.686377686349,-42.41326994812,0.));
#718 = VECTOR('',#719,1.);
#719 = DIRECTION('',(-0.,-0.,-1.));
#720 = ORIENTED_EDGE('',*,*,#721,.T.);
#721 = EDGE_CURVE('',#714,#714,#722,.T.);
#722 = CIRCLE('',#723,2.35);
#723 = AXIS2_PLACEMENT_3D('',#724,#725,#726);
#724 = CARTESIAN_POINT('',(6.336377686349,-42.41326994812,-2.5));
#725 = DIRECTION('',(0.,0.,1.));
#726 = DIRECTION('',(1.,0.,0.));
#727 = ORIENTED_EDGE('',*,*,#713,.F.);
#728 = ORIENTED_EDGE('',*,*,#186,.F.);
#729 = CYLINDRICAL_SURFACE('',#730,2.35);
#730 = AXIS2_PLACEMENT_3D('',#731,#732,#733);
#731 = CARTESIAN_POINT('',(6.336377686349,-42.41326994812,0.));
#732 = DIRECTION('',(0.,0.,1.));
#733 = DIRECTION('',(1.,0.,0.));
#734 = ADVANCED_FACE('',(#735,#766,#777,#788,#799,#810),#821,.F.);
#735 = FACE_BOUND('',#736,.F.);
#736 = EDGE_LOOP('',(#737,#738,#739,#740,#741,#742,#751,#759));
#737 = ORIENTED_EDGE('',*,*,#282,.T.);
#738 = ORIENTED_EDGE('',*,*,#234,.T.);
#739 = ORIENTED_EDGE('',*,*,#210,.T.);
#740 = ORIENTED_EDGE('',*,*,#266,.T.);
#741 = ORIENTED_EDGE('',*,*,#355,.T.);
#742 = ORIENTED_EDGE('',*,*,#743,.T.);
#743 = EDGE_CURVE('',#356,#744,#746,.T.);
#744 = VERTEX_POINT('',#745);
#745 = CARTESIAN_POINT('',(32.,20.,-6.));
#746 = CIRCLE('',#747,3.);
#747 = AXIS2_PLACEMENT_3D('',#748,#749,#750);
#748 = CARTESIAN_POINT('',(32.,17.,-6.));
#749 = DIRECTION('',(0.,-0.,1.));
#750 = DIRECTION('',(0.,1.,0.));
#751 = ORIENTED_EDGE('',*,*,#752,.T.);
#752 = EDGE_CURVE('',#744,#753,#755,.T.);
#753 = VERTEX_POINT('',#754);
#754 = CARTESIAN_POINT('',(-32.,20.,-6.));
#755 = LINE('',#756,#757);
#756 = CARTESIAN_POINT('',(35.,20.,-6.));
#757 = VECTOR('',#758,1.);
#758 = DIRECTION('',(-1.,0.,0.));
#759 = ORIENTED_EDGE('',*,*,#760,.F.);
#760 = EDGE_CURVE('',#283,#753,#761,.T.);
#761 = CIRCLE('',#762,3.);
#762 = AXIS2_PLACEMENT_3D('',#763,#764,#765);
#763 = CARTESIAN_POINT('',(-32.,17.,-6.));
#764 = DIRECTION('',(0.,0.,-1.));
#765 = DIRECTION('',(0.,1.,0.));
#766 = FACE_BOUND('',#767,.F.);
#767 = EDGE_LOOP('',(#768));
#768 = ORIENTED_EDGE('',*,*,#769,.F.);
#769 = EDGE_CURVE('',#770,#770,#772,.T.);
#770 = VERTEX_POINT('',#771);
#771 = CARTESIAN_POINT('',(8.136377686349,-42.41326994812,-6.));
#772 = CIRCLE('',#773,1.8);
#773 = AXIS2_PLACEMENT_3D('',#774,#775,#776);
#774 = CARTESIAN_POINT('',(6.336377686349,-42.41326994812,-6.));
#775 = DIRECTION('',(0.,0.,1.));
#776 = DIRECTION('',(1.,0.,0.));
#777 = FACE_BOUND('',#778,.T.);
#778 = EDGE_LOOP('',(#779));
#779 = ORIENTED_EDGE('',*,*,#780,.T.);
#780 = EDGE_CURVE('',#781,#781,#783,.T.);
#781 = VERTEX_POINT('',#782);
#782 = CARTESIAN_POINT('',(25.6,10.,-6.));
#783 = CIRCLE('',#784,2.6);
#784 = AXIS2_PLACEMENT_3D('',#785,#786,#787);
#785 = CARTESIAN_POINT('',(23.,10.,-6.));
#786 = DIRECTION('',(0.,0.,1.));
#787 = DIRECTION('',(1.,0.,0.));
#788 = FACE_BOUND('',#789,.T.);
#789 = EDGE_LOOP('',(#790));
#790 = ORIENTED_EDGE('',*,*,#791,.T.);
#791 = EDGE_CURVE('',#792,#792,#794,.T.);
#792 = VERTEX_POINT('',#793);
#793 = CARTESIAN_POINT('',(-20.4,10.,-6.));
#794 = CIRCLE('',#795,2.6);
#795 = AXIS2_PLACEMENT_3D('',#796,#797,#798);
#796 = CARTESIAN_POINT('',(-23.,10.,-6.));
#797 = DIRECTION('',(0.,0.,1.));
#798 = DIRECTION('',(1.,0.,0.));
#799 = FACE_BOUND('',#800,.T.);
#800 = EDGE_LOOP('',(#801));
#801 = ORIENTED_EDGE('',*,*,#802,.T.);
#802 = EDGE_CURVE('',#803,#803,#805,.T.);
#803 = VERTEX_POINT('',#804);
#804 = CARTESIAN_POINT('',(-11.75730298884,-42.4,-6.));
#805 = CIRCLE('',#806,1.4);
#806 = AXIS2_PLACEMENT_3D('',#807,#808,#809);
#807 = CARTESIAN_POINT('',(-13.15730298884,-42.4,-6.));
#808 = DIRECTION('',(0.,0.,1.));
#809 = DIRECTION('',(1.,0.,0.));
#810 = FACE_BOUND('',#811,.T.);
#811 = EDGE_LOOP('',(#812));
#812 = ORIENTED_EDGE('',*,*,#813,.T.);
#813 = EDGE_CURVE('',#814,#814,#816,.T.);
#814 = VERTEX_POINT('',#815);
#815 = CARTESIAN_POINT('',(25.242696944426,-42.4,-6.));
#816 = CIRCLE('',#817,1.4);
#817 = AXIS2_PLACEMENT_3D('',#818,#819,#820);
#818 = CARTESIAN_POINT('',(23.842696944426,-42.4,-6.));
#819 = DIRECTION('',(0.,0.,1.));
#820 = DIRECTION('',(1.,0.,0.));
#821 = PLANE('',#822);
#822 = AXIS2_PLACEMENT_3D('',#823,#824,#825);
#823 = CARTESIAN_POINT('',(0.357508701542,-16.61844610768,-6.));
#824 = DIRECTION('',(0.,0.,1.));
#825 = DIRECTION('',(1.,0.,0.));
#826 = ADVANCED_FACE('',(#827),#846,.T.);
#827 = FACE_BOUND('',#828,.T.);
#828 = EDGE_LOOP('',(#829,#838,#844,#845));
#829 = ORIENTED_EDGE('',*,*,#830,.T.);
#830 = EDGE_CURVE('',#317,#831,#833,.T.);
#831 = VERTEX_POINT('',#832);
#832 = CARTESIAN_POINT('',(-32.,20.,0.));
#833 = CIRCLE('',#834,3.);
#834 = AXIS2_PLACEMENT_3D('',#835,#836,#837);
#835 = CARTESIAN_POINT('',(-32.,17.,0.));
#836 = DIRECTION('',(0.,0.,-1.));
#837 = DIRECTION('',(0.,1.,0.));
#838 = ORIENTED_EDGE('',*,*,#839,.T.);
#839 = EDGE_CURVE('',#831,#753,#840,.T.);
#840 = LINE('',#841,#842);
#841 = CARTESIAN_POINT('',(-32.,20.,0.));
#842 = VECTOR('',#843,1.);
#843 = DIRECTION('',(-0.,-0.,-1.));
#844 = ORIENTED_EDGE('',*,*,#760,.F.);
#845 = ORIENTED_EDGE('',*,*,#324,.F.);
#846 = CYLINDRICAL_SURFACE('',#847,3.);
#847 = AXIS2_PLACEMENT_3D('',#848,#849,#850);
#848 = CARTESIAN_POINT('',(-32.,17.,0.));
#849 = DIRECTION('',(-0.,-0.,-1.));
#850 = DIRECTION('',(-1.,0.,0.));
#851 = ADVANCED_FACE('',(#852,#878,#889),#900,.T.);
#852 = FACE_BOUND('',#853,.T.);
#853 = EDGE_LOOP('',(#854,#862,#863,#864,#870,#871));
#854 = ORIENTED_EDGE('',*,*,#855,.T.);
#855 = EDGE_CURVE('',#856,#831,#858,.T.);
#856 = VERTEX_POINT('',#857);
#857 = CARTESIAN_POINT('',(32.,20.,0.));
#858 = LINE('',#859,#860);
#859 = CARTESIAN_POINT('',(35.,20.,0.));
#860 = VECTOR('',#861,1.);
#861 = DIRECTION('',(-1.,0.,0.));
#862 = ORIENTED_EDGE('',*,*,#830,.F.);
#863 = ORIENTED_EDGE('',*,*,#316,.T.);
#864 = ORIENTED_EDGE('',*,*,#865,.F.);
#865 = EDGE_CURVE('',#372,#309,#866,.T.);
#866 = LINE('',#867,#868);
#867 = CARTESIAN_POINT('',(35.,-2.1527E-13,3.3E-16));
#868 = VECTOR('',#869,1.);
#869 = DIRECTION('',(-1.,-0.,-0.));
#870 = ORIENTED_EDGE('',*,*,#371,.T.);
#871 = ORIENTED_EDGE('',*,*,#872,.T.);
#872 = EDGE_CURVE('',#364,#856,#873,.T.);
#873 = CIRCLE('',#874,3.);
#874 = AXIS2_PLACEMENT_3D('',#875,#876,#877);
#875 = CARTESIAN_POINT('',(32.,17.,0.));
#876 = DIRECTION('',(0.,-0.,1.));
#877 = DIRECTION('',(0.,1.,0.));
#878 = FACE_BOUND('',#879,.T.);
#879 = EDGE_LOOP('',(#880));
#880 = ORIENTED_EDGE('',*,*,#881,.F.);
#881 = EDGE_CURVE('',#882,#882,#884,.T.);
#882 = VERTEX_POINT('',#883);
#883 = CARTESIAN_POINT('',(-20.4,10.,0.));
#884 = CIRCLE('',#885,2.6);
#885 = AXIS2_PLACEMENT_3D('',#886,#887,#888);
#886 = CARTESIAN_POINT('',(-23.,10.,0.));
#887 = DIRECTION('',(0.,0.,1.));
#888 = DIRECTION('',(1.,0.,0.));
#889 = FACE_BOUND('',#890,.T.);
#890 = EDGE_LOOP('',(#891));
#891 = ORIENTED_EDGE('',*,*,#892,.F.);
#892 = EDGE_CURVE('',#893,#893,#895,.T.);
#893 = VERTEX_POINT('',#894);
#894 = CARTESIAN_POINT('',(25.6,10.,0.));
#895 = CIRCLE('',#896,2.6);
#896 = AXIS2_PLACEMENT_3D('',#897,#898,#899);
#897 = CARTESIAN_POINT('',(23.,10.,0.));
#898 = DIRECTION('',(0.,0.,1.));
#899 = DIRECTION('',(1.,0.,0.));
#900 = PLANE('',#901);
#901 = AXIS2_PLACEMENT_3D('',#902,#903,#904);
#902 = CARTESIAN_POINT('',(0.357508701542,-16.61844610768,0.));
#903 = DIRECTION('',(0.,0.,1.));
#904 = DIRECTION('',(1.,0.,0.));
#905 = ADVANCED_FACE('',(#906,#935,#946),#957,.T.);
#906 = FACE_BOUND('',#907,.T.);
#907 = EDGE_LOOP('',(#908,#909,#910,#911,#920,#928));
#908 = ORIENTED_EDGE('',*,*,#379,.F.);
#909 = ORIENTED_EDGE('',*,*,#865,.T.);
#910 = ORIENTED_EDGE('',*,*,#308,.T.);
#911 = ORIENTED_EDGE('',*,*,#912,.T.);
#912 = EDGE_CURVE('',#301,#913,#915,.T.);
#913 = VERTEX_POINT('',#914);
#914 = CARTESIAN_POINT('',(-32.,-2.15E-13,19.8));
#915 = CIRCLE('',#916,3.);
#916 = AXIS2_PLACEMENT_3D('',#917,#918,#919);
#917 = CARTESIAN_POINT('',(-32.,-2.1527E-13,16.8));
#918 = DIRECTION('',(-0.,1.,0.));
#919 = DIRECTION('',(0.,0.,-1.));
#920 = ORIENTED_EDGE('',*,*,#921,.F.);
#921 = EDGE_CURVE('',#922,#913,#924,.T.);
#922 = VERTEX_POINT('',#923);
#923 = CARTESIAN_POINT('',(32.,-2.15E-13,19.8));
#924 = LINE('',#925,#926);
#925 = CARTESIAN_POINT('',(35.,-2.1527E-13,19.8));
#926 = VECTOR('',#927,1.);
#927 = DIRECTION('',(-1.,-0.,-0.));
#928 = ORIENTED_EDGE('',*,*,#929,.F.);
#929 = EDGE_CURVE('',#380,#922,#930,.T.);
#930 = CIRCLE('',#931,3.);
#931 = AXIS2_PLACEMENT_3D('',#932,#933,#934);
#932 = CARTESIAN_POINT('',(32.,-2.1527E-13,16.8));
#933 = DIRECTION('',(0.,-1.,0.));
#934 = DIRECTION('',(0.,0.,-1.));
#935 = FACE_BOUND('',#936,.T.);
#936 = EDGE_LOOP('',(#937));
#937 = ORIENTED_EDGE('',*,*,#938,.T.);
#938 = EDGE_CURVE('',#939,#939,#941,.T.);
#939 = VERTEX_POINT('',#940);
#940 = CARTESIAN_POINT('',(-24.4,2.E-15,9.8));
#941 = CIRCLE('',#942,2.6);
#942 = AXIS2_PLACEMENT_3D('',#943,#944,#945);
#943 = CARTESIAN_POINT('',(-27.,0.,9.8));
#944 = DIRECTION('',(0.,-1.,0.));
#945 = DIRECTION('',(1.,0.,0.));
#946 = FACE_BOUND('',#947,.T.);
#947 = EDGE_LOOP('',(#948));
#948 = ORIENTED_EDGE('',*,*,#949,.T.);
#949 = EDGE_CURVE('',#950,#950,#952,.T.);
#950 = VERTEX_POINT('',#951);
#951 = CARTESIAN_POINT('',(29.6,2.E-15,9.8));
#952 = CIRCLE('',#953,2.6);
#953 = AXIS2_PLACEMENT_3D('',#954,#955,#956);
#954 = CARTESIAN_POINT('',(27.,0.,9.8));
#955 = DIRECTION('',(0.,-1.,0.));
#956 = DIRECTION('',(1.,0.,0.));
#957 = PLANE('',#958);
#958 = AXIS2_PLACEMENT_3D('',#959,#960,#961);
#959 = CARTESIAN_POINT('',(35.,-2.1527E-13,3.3E-16));
#960 = DIRECTION('',(0.,1.,0.));
#961 = DIRECTION('',(0.,0.,1.));
#962 = ADVANCED_FACE('',(#963),#974,.T.);
#963 = FACE_BOUND('',#964,.F.);
#964 = EDGE_LOOP('',(#965,#966,#972,#973));
#965 = ORIENTED_EDGE('',*,*,#912,.T.);
#966 = ORIENTED_EDGE('',*,*,#967,.T.);
#967 = EDGE_CURVE('',#913,#431,#968,.T.);
#968 = LINE('',#969,#970);
#969 = CARTESIAN_POINT('',(-32.,-2.1494E-13,19.8));
#970 = VECTOR('',#971,1.);
#971 = DIRECTION('',(0.,-1.,0.));
#972 = ORIENTED_EDGE('',*,*,#446,.F.);
#973 = ORIENTED_EDGE('',*,*,#300,.F.);
#974 = CYLINDRICAL_SURFACE('',#975,3.);
#975 = AXIS2_PLACEMENT_3D('',#976,#977,#978);
#976 = CARTESIAN_POINT('',(-32.,-2.1494E-13,16.8));
#977 = DIRECTION('',(0.,-1.,0.));
#978 = DIRECTION('',(-1.,0.,0.));
#979 = ADVANCED_FACE('',(#980),#991,.T.);
#980 = FACE_BOUND('',#981,.F.);
#981 = EDGE_LOOP('',(#982,#983,#989,#990));
#982 = ORIENTED_EDGE('',*,*,#872,.T.);
#983 = ORIENTED_EDGE('',*,*,#984,.T.);
#984 = EDGE_CURVE('',#856,#744,#985,.T.);
#985 = LINE('',#986,#987);
#986 = CARTESIAN_POINT('',(32.,20.,0.));
#987 = VECTOR('',#988,1.);
#988 = DIRECTION('',(-0.,-0.,-1.));
#989 = ORIENTED_EDGE('',*,*,#743,.F.);
#990 = ORIENTED_EDGE('',*,*,#363,.F.);
#991 = CYLINDRICAL_SURFACE('',#992,3.);
#992 = AXIS2_PLACEMENT_3D('',#993,#994,#995);
#993 = CARTESIAN_POINT('',(32.,17.,0.));
#994 = DIRECTION('',(-0.,-0.,-1.));
#995 = DIRECTION('',(1.,0.,0.));
#996 = ADVANCED_FACE('',(#997),#1008,.T.);
#997 = FACE_BOUND('',#998,.T.);
#998 = EDGE_LOOP('',(#999,#1000,#1006,#1007));
#999 = ORIENTED_EDGE('',*,*,#929,.T.);
#1000 = ORIENTED_EDGE('',*,*,#1001,.T.);
#1001 = EDGE_CURVE('',#922,#473,#1002,.T.);
#1002 = LINE('',#1003,#1004);
#1003 = CARTESIAN_POINT('',(32.,-2.1494E-13,19.8));
#1004 = VECTOR('',#1005,1.);
#1005 = DIRECTION('',(0.,-1.,0.));
#1006 = ORIENTED_EDGE('',*,*,#482,.F.);
#1007 = ORIENTED_EDGE('',*,*,#387,.F.);
#1008 = CYLINDRICAL_SURFACE('',#1009,3.);
#1009 = AXIS2_PLACEMENT_3D('',#1010,#1011,#1012);
#1010 = CARTESIAN_POINT('',(32.,-2.1494E-13,16.8));
#1011 = DIRECTION('',(0.,-1.,0.));
#1012 = DIRECTION('',(1.,0.,0.));
#1013 = ADVANCED_FACE('',(#1014),#1022,.T.);
#1014 = FACE_BOUND('',#1015,.T.);
#1015 = EDGE_LOOP('',(#1016,#1017,#1018,#1019,#1020,#1021));
#1016 = ORIENTED_EDGE('',*,*,#472,.F.);
#1017 = ORIENTED_EDGE('',*,*,#1001,.F.);
#1018 = ORIENTED_EDGE('',*,*,#921,.T.);
#1019 = ORIENTED_EDGE('',*,*,#967,.T.);
#1020 = ORIENTED_EDGE('',*,*,#428,.F.);
#1021 = ORIENTED_EDGE('',*,*,#624,.F.);
#1022 = PLANE('',#1023);
#1023 = AXIS2_PLACEMENT_3D('',#1024,#1025,#1026);
#1024 = CARTESIAN_POINT('',(35.,-2.1527E-13,19.8));
#1025 = DIRECTION('',(0.,0.,1.));
#1026 = DIRECTION('',(0.,-1.,0.));
#1027 = ADVANCED_FACE('',(#1028),#1039,.F.);
#1028 = FACE_BOUND('',#1029,.T.);
#1029 = EDGE_LOOP('',(#1030,#1031,#1037,#1038));
#1030 = ORIENTED_EDGE('',*,*,#575,.F.);
#1031 = ORIENTED_EDGE('',*,*,#1032,.T.);
#1032 = EDGE_CURVE('',#576,#456,#1033,.T.);
#1033 = LINE('',#1034,#1035);
#1034 = CARTESIAN_POINT('',(-22.75,-4.,9.8));
#1035 = VECTOR('',#1036,1.);
#1036 = DIRECTION('',(0.,-1.,2.2E-16));
#1037 = ORIENTED_EDGE('',*,*,#455,.F.);
#1038 = ORIENTED_EDGE('',*,*,#1032,.F.);
#1039 = CYLINDRICAL_SURFACE('',#1040,4.25);
#1040 = AXIS2_PLACEMENT_3D('',#1041,#1042,#1043);
#1041 = CARTESIAN_POINT('',(-27.,-4.,9.8));
#1042 = DIRECTION('',(0.,1.,-2.2E-16));
#1043 = DIRECTION('',(1.,0.,0.));
#1044 = ADVANCED_FACE('',(#1045),#1056,.F.);
#1045 = FACE_BOUND('',#1046,.T.);
#1046 = EDGE_LOOP('',(#1047,#1048,#1054,#1055));
#1047 = ORIENTED_EDGE('',*,*,#603,.F.);
#1048 = ORIENTED_EDGE('',*,*,#1049,.T.);
#1049 = EDGE_CURVE('',#604,#500,#1050,.T.);
#1050 = LINE('',#1051,#1052);
#1051 = CARTESIAN_POINT('',(31.25,-4.,9.8));
#1052 = VECTOR('',#1053,1.);
#1053 = DIRECTION('',(0.,-1.,2.2E-16));
#1054 = ORIENTED_EDGE('',*,*,#499,.F.);
#1055 = ORIENTED_EDGE('',*,*,#1049,.F.);
#1056 = CYLINDRICAL_SURFACE('',#1057,4.25);
#1057 = AXIS2_PLACEMENT_3D('',#1058,#1059,#1060);
#1058 = CARTESIAN_POINT('',(27.,-4.,9.8));
#1059 = DIRECTION('',(0.,1.,-2.2E-16));
#1060 = DIRECTION('',(1.,0.,0.));
#1061 = ADVANCED_FACE('',(#1062),#1073,.F.);
#1062 = FACE_BOUND('',#1063,.T.);
#1063 = EDGE_LOOP('',(#1064,#1070,#1071,#1072));
#1064 = ORIENTED_EDGE('',*,*,#1065,.F.);
#1065 = EDGE_CURVE('',#950,#636,#1066,.T.);
#1066 = LINE('',#1067,#1068);
#1067 = CARTESIAN_POINT('',(29.6,2.18E-15,9.8));
#1068 = VECTOR('',#1069,1.);
#1069 = DIRECTION('',(0.,-1.,2.2E-16));
#1070 = ORIENTED_EDGE('',*,*,#949,.F.);
#1071 = ORIENTED_EDGE('',*,*,#1065,.T.);
#1072 = ORIENTED_EDGE('',*,*,#635,.F.);
#1073 = CYLINDRICAL_SURFACE('',#1074,2.6);
#1074 = AXIS2_PLACEMENT_3D('',#1075,#1076,#1077);
#1075 = CARTESIAN_POINT('',(27.,2.18E-15,9.8));
#1076 = DIRECTION('',(0.,1.,-2.2E-16));
#1077 = DIRECTION('',(1.,0.,0.));
#1078 = ADVANCED_FACE('',(#1079),#1090,.F.);
#1079 = FACE_BOUND('',#1080,.T.);
#1080 = EDGE_LOOP('',(#1081,#1087,#1088,#1089));
#1081 = ORIENTED_EDGE('',*,*,#1082,.F.);
#1082 = EDGE_CURVE('',#939,#647,#1083,.T.);
#1083 = LINE('',#1084,#1085);
#1084 = CARTESIAN_POINT('',(-24.4,2.18E-15,9.8));
#1085 = VECTOR('',#1086,1.);
#1086 = DIRECTION('',(0.,-1.,2.2E-16));
#1087 = ORIENTED_EDGE('',*,*,#938,.F.);
#1088 = ORIENTED_EDGE('',*,*,#1082,.T.);
#1089 = ORIENTED_EDGE('',*,*,#646,.F.);
#1090 = CYLINDRICAL_SURFACE('',#1091,2.6);
#1091 = AXIS2_PLACEMENT_3D('',#1092,#1093,#1094);
#1092 = CARTESIAN_POINT('',(-27.,2.18E-15,9.8));
#1093 = DIRECTION('',(0.,1.,-2.2E-16));
#1094 = DIRECTION('',(1.,0.,0.));
#1095 = ADVANCED_FACE('',(#1096),#1107,.F.);
#1096 = FACE_BOUND('',#1097,.F.);
#1097 = EDGE_LOOP('',(#1098,#1104,#1105,#1106));
#1098 = ORIENTED_EDGE('',*,*,#1099,.T.);
#1099 = EDGE_CURVE('',#664,#803,#1100,.T.);
#1100 = LINE('',#1101,#1102);
#1101 = CARTESIAN_POINT('',(-11.75730298884,-42.4,0.));
#1102 = VECTOR('',#1103,1.);
#1103 = DIRECTION('',(-0.,-0.,-1.));
#1104 = ORIENTED_EDGE('',*,*,#802,.T.);
#1105 = ORIENTED_EDGE('',*,*,#1099,.F.);
#1106 = ORIENTED_EDGE('',*,*,#671,.F.);
#1107 = CYLINDRICAL_SURFACE('',#1108,1.4);
#1108 = AXIS2_PLACEMENT_3D('',#1109,#1110,#1111);
#1109 = CARTESIAN_POINT('',(-13.15730298884,-42.4,0.));
#1110 = DIRECTION('',(0.,0.,1.));
#1111 = DIRECTION('',(1.,0.,0.));
#1112 = ADVANCED_FACE('',(#1113),#1124,.F.);
#1113 = FACE_BOUND('',#1114,.F.);
#1114 = EDGE_LOOP('',(#1115,#1121,#1122,#1123));
#1115 = ORIENTED_EDGE('',*,*,#1116,.T.);
#1116 = EDGE_CURVE('',#689,#814,#1117,.T.);
#1117 = LINE('',#1118,#1119);
#1118 = CARTESIAN_POINT('',(25.242696944426,-42.4,0.));
#1119 = VECTOR('',#1120,1.);
#1120 = DIRECTION('',(-0.,-0.,-1.));
#1121 = ORIENTED_EDGE('',*,*,#813,.T.);
#1122 = ORIENTED_EDGE('',*,*,#1116,.F.);
#1123 = ORIENTED_EDGE('',*,*,#696,.F.);
#1124 = CYLINDRICAL_SURFACE('',#1125,1.4);
#1125 = AXIS2_PLACEMENT_3D('',#1126,#1127,#1128);
#1126 = CARTESIAN_POINT('',(23.842696944426,-42.4,0.));
#1127 = DIRECTION('',(0.,0.,1.));
#1128 = DIRECTION('',(1.,0.,0.));
#1129 = ADVANCED_FACE('',(#1130,#1141),#1144,.T.);
#1130 = FACE_BOUND('',#1131,.T.);
#1131 = EDGE_LOOP('',(#1132));
#1132 = ORIENTED_EDGE('',*,*,#1133,.F.);
#1133 = EDGE_CURVE('',#1134,#1134,#1136,.T.);
#1134 = VERTEX_POINT('',#1135);
#1135 = CARTESIAN_POINT('',(8.636377686349,-42.41326994812,-2.5));
#1136 = CIRCLE('',#1137,2.3);
#1137 = AXIS2_PLACEMENT_3D('',#1138,#1139,#1140);
#1138 = CARTESIAN_POINT('',(6.336377686349,-42.41326994812,-2.5));
#1139 = DIRECTION('',(0.,0.,1.));
#1140 = DIRECTION('',(1.,0.,0.));
#1141 = FACE_BOUND('',#1142,.T.);
#1142 = EDGE_LOOP('',(#1143));
#1143 = ORIENTED_EDGE('',*,*,#721,.T.);
#1144 = PLANE('',#1145);
#1145 = AXIS2_PLACEMENT_3D('',#1146,#1147,#1148);
#1146 = CARTESIAN_POINT('',(6.336377686349,-42.41326994812,-2.5));
#1147 = DIRECTION('',(0.,0.,1.));
#1148 = DIRECTION('',(1.,0.,0.));
#1149 = ADVANCED_FACE('',(#1150),#1156,.T.);
#1150 = FACE_BOUND('',#1151,.T.);
#1151 = EDGE_LOOP('',(#1152,#1153,#1154,#1155));
#1152 = ORIENTED_EDGE('',*,*,#855,.F.);
#1153 = ORIENTED_EDGE('',*,*,#984,.T.);
#1154 = ORIENTED_EDGE('',*,*,#752,.T.);
#1155 = ORIENTED_EDGE('',*,*,#839,.F.);
#1156 = PLANE('',#1157);
#1157 = AXIS2_PLACEMENT_3D('',#1158,#1159,#1160);
#1158 = CARTESIAN_POINT('',(35.,20.,0.));
#1159 = DIRECTION('',(0.,1.,0.));
#1160 = DIRECTION('',(-1.,0.,0.));
#1161 = ADVANCED_FACE('',(#1162),#1181,.F.);
#1162 = FACE_BOUND('',#1163,.F.);
#1163 = EDGE_LOOP('',(#1164,#1172,#1173,#1174));
#1164 = ORIENTED_EDGE('',*,*,#1165,.F.);
#1165 = EDGE_CURVE('',#770,#1166,#1168,.T.);
#1166 = VERTEX_POINT('',#1167);
#1167 = CARTESIAN_POINT('',(7.636377686349,-42.41326994812,-5.5));
#1168 = LINE('',#1169,#1170);
#1169 = CARTESIAN_POINT('',(7.636377686349,-42.41326994812,-5.5));
#1170 = VECTOR('',#1171,1.);
#1171 = DIRECTION('',(-0.707106781187,0.,0.707106781187));
#1172 = ORIENTED_EDGE('',*,*,#769,.T.);
#1173 = ORIENTED_EDGE('',*,*,#1165,.T.);
#1174 = ORIENTED_EDGE('',*,*,#1175,.F.);
#1175 = EDGE_CURVE('',#1166,#1166,#1176,.T.);
#1176 = CIRCLE('',#1177,1.3);
#1177 = AXIS2_PLACEMENT_3D('',#1178,#1179,#1180);
#1178 = CARTESIAN_POINT('',(6.336377686349,-42.41326994812,-5.5));
#1179 = DIRECTION('',(0.,0.,1.));
#1180 = DIRECTION('',(1.,0.,0.));
#1181 = CONICAL_SURFACE('',#1182,1.3,0.785398163397);
#1182 = AXIS2_PLACEMENT_3D('',#1183,#1184,#1185);
#1183 = CARTESIAN_POINT('',(6.336377686349,-42.41326994812,-5.5));
#1184 = DIRECTION('',(-0.,-0.,-1.));
#1185 = DIRECTION('',(1.,0.,0.));
#1186 = ADVANCED_FACE('',(#1187),#1198,.F.);
#1187 = FACE_BOUND('',#1188,.F.);
#1188 = EDGE_LOOP('',(#1189,#1195,#1196,#1197));
#1189 = ORIENTED_EDGE('',*,*,#1190,.T.);
#1190 = EDGE_CURVE('',#893,#781,#1191,.T.);
#1191 = LINE('',#1192,#1193);
#1192 = CARTESIAN_POINT('',(25.6,10.,0.));
#1193 = VECTOR('',#1194,1.);
#1194 = DIRECTION('',(-0.,-0.,-1.));
#1195 = ORIENTED_EDGE('',*,*,#780,.T.);
#1196 = ORIENTED_EDGE('',*,*,#1190,.F.);
#1197 = ORIENTED_EDGE('',*,*,#892,.F.);
#1198 = CYLINDRICAL_SURFACE('',#1199,2.6);
#1199 = AXIS2_PLACEMENT_3D('',#1200,#1201,#1202);
#1200 = CARTESIAN_POINT('',(23.,10.,0.));
#1201 = DIRECTION('',(0.,0.,1.));
#1202 = DIRECTION('',(1.,0.,0.));
#1203 = ADVANCED_FACE('',(#1204),#1215,.F.);
#1204 = FACE_BOUND('',#1205,.F.);
#1205 = EDGE_LOOP('',(#1206,#1212,#1213,#1214));
#1206 = ORIENTED_EDGE('',*,*,#1207,.T.);
#1207 = EDGE_CURVE('',#882,#792,#1208,.T.);
#1208 = LINE('',#1209,#1210);
#1209 = CARTESIAN_POINT('',(-20.4,10.,0.));
#1210 = VECTOR('',#1211,1.);
#1211 = DIRECTION('',(-0.,-0.,-1.));
#1212 = ORIENTED_EDGE('',*,*,#791,.T.);
#1213 = ORIENTED_EDGE('',*,*,#1207,.F.);
#1214 = ORIENTED_EDGE('',*,*,#881,.F.);
#1215 = CYLINDRICAL_SURFACE('',#1216,2.6);
#1216 = AXIS2_PLACEMENT_3D('',#1217,#1218,#1219);
#1217 = CARTESIAN_POINT('',(-23.,10.,0.));
#1218 = DIRECTION('',(0.,0.,1.));
#1219 = DIRECTION('',(1.,0.,0.));
#1220 = ADVANCED_FACE('',(#1221),#1240,.F.);
#1221 = FACE_BOUND('',#1222,.F.);
#1222 = EDGE_LOOP('',(#1223,#1231,#1238,#1239));
#1223 = ORIENTED_EDGE('',*,*,#1224,.F.);
#1224 = EDGE_CURVE('',#1225,#1134,#1227,.T.);
#1225 = VERTEX_POINT('',#1226);
#1226 = CARTESIAN_POINT('',(7.636377686349,-42.41326994812,-3.5));
#1227 = LINE('',#1228,#1229);
#1228 = CARTESIAN_POINT('',(7.636377686349,-42.41326994812,-3.5));
#1229 = VECTOR('',#1230,1.);
#1230 = DIRECTION('',(0.707106781187,0.,0.707106781187));
#1231 = ORIENTED_EDGE('',*,*,#1232,.T.);
#1232 = EDGE_CURVE('',#1225,#1225,#1233,.T.);
#1233 = CIRCLE('',#1234,1.3);
#1234 = AXIS2_PLACEMENT_3D('',#1235,#1236,#1237);
#1235 = CARTESIAN_POINT('',(6.336377686349,-42.41326994812,-3.5));
#1236 = DIRECTION('',(0.,0.,1.));
#1237 = DIRECTION('',(1.,0.,0.));
#1238 = ORIENTED_EDGE('',*,*,#1224,.T.);
#1239 = ORIENTED_EDGE('',*,*,#1133,.F.);
#1240 = CONICAL_SURFACE('',#1241,1.3,0.785398163397);
#1241 = AXIS2_PLACEMENT_3D('',#1242,#1243,#1244);
#1242 = CARTESIAN_POINT('',(6.336377686349,-42.41326994812,-3.5));
#1243 = DIRECTION('',(0.,0.,1.));
#1244 = DIRECTION('',(1.,0.,0.));
#1245 = ADVANCED_FACE('',(#1246),#1257,.F.);
#1246 = FACE_BOUND('',#1247,.F.);
#1247 = EDGE_LOOP('',(#1248,#1254,#1255,#1256));
#1248 = ORIENTED_EDGE('',*,*,#1249,.F.);
#1249 = EDGE_CURVE('',#1225,#1166,#1250,.T.);
#1250 = LINE('',#1251,#1252);
#1251 = CARTESIAN_POINT('',(7.636377686349,-42.41326994812,0.));
#1252 = VECTOR('',#1253,1.);
#1253 = DIRECTION('',(-0.,-0.,-1.));
#1254 = ORIENTED_EDGE('',*,*,#1232,.F.);
#1255 = ORIENTED_EDGE('',*,*,#1249,.T.);
#1256 = ORIENTED_EDGE('',*,*,#1175,.T.);
#1257 = CYLINDRICAL_SURFACE('',#1258,1.3);
#1258 = AXIS2_PLACEMENT_3D('',#1259,#1260,#1261);
#1259 = CARTESIAN_POINT('',(6.336377686349,-42.41326994812,0.));
#1260 = DIRECTION('',(0.,0.,1.));
#1261 = DIRECTION('',(1.,0.,0.));
#1262 = ( GEOMETRIC_REPRESENTATION_CONTEXT(3) 
GLOBAL_UNCERTAINTY_ASSIGNED_CONTEXT((#1266)) 
GLOBAL_UNIT_ASSIGNED_CONTEXT((#1263,#1264,#1265)) REPRESENTATION_CONTEXT
('Context #1','3D Context with UNIT and UNCERTAINTY') );
#1263 = ( LENGTH_UNIT() NAMED_UNIT(*) SI_UNIT(.MILLI.,.METRE.) );
#1264 = ( NAMED_UNIT(*) PLANE_ANGLE_UNIT() SI_UNIT($,.RADIAN.) );
#1265 = ( NAMED_UNIT(*) SI_UNIT($,.STERADIAN.) SOLID_ANGLE_UNIT() );
#1266 = UNCERTAINTY_MEASURE_WITH_UNIT(LENGTH_MEASURE(2.E-05),#1263,
  'distance_accuracy_value','confusion accuracy');
#1267 = PRODUCT_RELATED_PRODUCT_CATEGORY('part',$,(#7));
#1268 = MECHANICAL_DESIGN_GEOMETRIC_PRESENTATION_REPRESENTATION('',(
    #1269),#1262);
#1269 = STYLED_ITEM('color',(#1270),#15);
#1270 = PRESENTATION_STYLE_ASSIGNMENT((#1271,#1277));
#1271 = SURFACE_STYLE_USAGE(.BOTH.,#1272);
#1272 = SURFACE_SIDE_STYLE('',(#1273));
#1273 = SURFACE_STYLE_FILL_AREA(#1274);
#1274 = FILL_AREA_STYLE('',(#1275));
#1275 = FILL_AREA_STYLE_COLOUR('',#1276);
#1276 = COLOUR_RGB('',0.447058818107,0.474509808674,0.501960817233);
#1277 = CURVE_STYLE('',#1278,POSITIVE_LENGTH_MEASURE(0.1),#1279);
#1278 = DRAUGHTING_PRE_DEFINED_CURVE_FONT('continuous');
#1279 = COLOUR_RGB('',9.803921802644E-02,9.803921802644E-02,
  9.803921802644E-02);
ENDSEC;
END-ISO-10303-21;
