ISO-10303-21;
HEADER;
FILE_DESCRIPTION(('FreeCAD Model'),'2;1');
FILE_NAME('Open CASCADE Shape Model','2026-08-13T15:51:04',(''),(''),
  'Open CASCADE STEP processor 7.8','FreeCAD','Unknown');
FILE_SCHEMA(('AUTOMOTIVE_DESIGN { 1 0 10303 214 1 1 1 1 }'));
ENDSEC;
DATA;
#1 = APPLICATION_PROTOCOL_DEFINITION('international standard',
  'automotive_design',2000,#2);
#2 = APPLICATION_CONTEXT(
  'core data for automotive mechanical design processes');
#3 = SHAPE_DEFINITION_REPRESENTATION(#4,#10);
#4 = PRODUCT_DEFINITION_SHAPE('','',#5);
#5 = PRODUCT_DEFINITION('design','',#6,#9);
#6 = PRODUCT_DEFINITION_FORMATION('','',#7);
#7 = PRODUCT('整体方案','整体方案','',(#8));
#8 = PRODUCT_CONTEXT('',#2,'mechanical');
#9 = PRODUCT_DEFINITION_CONTEXT('part definition',#2,'design');
#10 = ADVANCED_BREP_SHAPE_REPRESENTATION('',(#11,#15),#662);
#11 = AXIS2_PLACEMENT_3D('',#12,#13,#14);
#12 = CARTESIAN_POINT('',(0.,0.,0.));
#13 = DIRECTION('',(0.,0.,1.));
#14 = DIRECTION('',(1.,0.,-0.));
#15 = MANIFOLD_SOLID_BREP('',#16);
#16 = CLOSED_SHELL('',(#17,#68,#93,#156,#180,#204,#237,#262,#293,#328,
    #375,#390,#436,#478,#495,#535,#563,#580,#597,#620,#645));
#17 = ADVANCED_FACE('',(#18,#29),#63,.F.);
#18 = FACE_BOUND('',#19,.F.);
#19 = EDGE_LOOP('',(#20));
#20 = ORIENTED_EDGE('',*,*,#21,.T.);
#21 = EDGE_CURVE('',#22,#22,#24,.T.);
#22 = VERTEX_POINT('',#23);
#23 = CARTESIAN_POINT('',(29.,173.82277356938,33.75));
#24 = CIRCLE('',#25,2.4);
#25 = AXIS2_PLACEMENT_3D('',#26,#27,#28);
#26 = CARTESIAN_POINT('',(29.,171.42277356938,33.75));
#27 = DIRECTION('',(1.,3.5E-16,-3.5E-16));
#28 = DIRECTION('',(-3.5E-16,1.,-2.2E-16));
#29 = FACE_BOUND('',#30,.F.);
#30 = EDGE_LOOP('',(#31,#41,#49,#57));
#31 = ORIENTED_EDGE('',*,*,#32,.F.);
#32 = EDGE_CURVE('',#33,#35,#37,.T.);
#33 = VERTEX_POINT('',#34);
#34 = CARTESIAN_POINT('',(29.,167.02277356938,40.));
#35 = VERTEX_POINT('',#36);
#36 = CARTESIAN_POINT('',(29.,167.02277356938,20.));
#37 = LINE('',#38,#39);
#38 = CARTESIAN_POINT('',(29.,167.02277356938,40.));
#39 = VECTOR('',#40,1.);
#40 = DIRECTION('',(0.,-2.2E-16,-1.));
#41 = ORIENTED_EDGE('',*,*,#42,.T.);
#42 = EDGE_CURVE('',#33,#43,#45,.T.);
#43 = VERTEX_POINT('',#44);
#44 = CARTESIAN_POINT('',(29.,175.82277356938,40.));
#45 = LINE('',#46,#47);
#46 = CARTESIAN_POINT('',(29.,167.02277356938,40.));
#47 = VECTOR('',#48,1.);
#48 = DIRECTION('',(-9.E-17,1.,-2.2E-16));
#49 = ORIENTED_EDGE('',*,*,#50,.T.);
#50 = EDGE_CURVE('',#43,#51,#53,.T.);
#51 = VERTEX_POINT('',#52);
#52 = CARTESIAN_POINT('',(29.,175.82277356938,20.));
#53 = LINE('',#54,#55);
#54 = CARTESIAN_POINT('',(29.,175.82277356938,32.5));
#55 = VECTOR('',#56,1.);
#56 = DIRECTION('',(-1.7E-16,0.,-1.));
#57 = ORIENTED_EDGE('',*,*,#58,.F.);
#58 = EDGE_CURVE('',#35,#51,#59,.T.);
#59 = LINE('',#60,#61);
#60 = CARTESIAN_POINT('',(29.,167.02277356938,20.));
#61 = VECTOR('',#62,1.);
#62 = DIRECTION('',(-9.E-17,1.,-2.2E-16));
#63 = PLANE('',#64);
#64 = AXIS2_PLACEMENT_3D('',#65,#66,#67);
#65 = CARTESIAN_POINT('',(29.,167.02277356938,40.));
#66 = DIRECTION('',(-1.,-9.E-17,9.E-17));
#67 = DIRECTION('',(-9.E-17,-2.2E-16,-1.));
#68 = ADVANCED_FACE('',(#69),#88,.F.);
#69 = FACE_BOUND('',#70,.T.);
#70 = EDGE_LOOP('',(#71,#79,#80,#81));
#71 = ORIENTED_EDGE('',*,*,#72,.F.);
#72 = EDGE_CURVE('',#22,#73,#75,.T.);
#73 = VERTEX_POINT('',#74);
#74 = CARTESIAN_POINT('',(28.,172.82277356938,33.75));
#75 = LINE('',#76,#77);
#76 = CARTESIAN_POINT('',(28.,172.82277356938,33.75));
#77 = VECTOR('',#78,1.);
#78 = DIRECTION('',(-0.707106781187,-0.707106781187,4.E-16));
#79 = ORIENTED_EDGE('',*,*,#21,.T.);
#80 = ORIENTED_EDGE('',*,*,#72,.T.);
#81 = ORIENTED_EDGE('',*,*,#82,.F.);
#82 = EDGE_CURVE('',#73,#73,#83,.T.);
#83 = CIRCLE('',#84,1.4);
#84 = AXIS2_PLACEMENT_3D('',#85,#86,#87);
#85 = CARTESIAN_POINT('',(28.,171.42277356938,33.75));
#86 = DIRECTION('',(1.,3.5E-16,-3.5E-16));
#87 = DIRECTION('',(-3.5E-16,1.,-2.2E-16));
#88 = CONICAL_SURFACE('',#89,1.4,0.785398163397);
#89 = AXIS2_PLACEMENT_3D('',#90,#91,#92);
#90 = CARTESIAN_POINT('',(28.,171.42277356938,33.75));
#91 = DIRECTION('',(1.,3.5E-16,-3.5E-16));
#92 = DIRECTION('',(-3.5E-16,1.,-2.2E-16));
#93 = ADVANCED_FACE('',(#94),#151,.F.);
#94 = FACE_BOUND('',#95,.F.);
#95 = EDGE_LOOP('',(#96,#106,#114,#122,#130,#136,#137,#145));
#96 = ORIENTED_EDGE('',*,*,#97,.T.);
#97 = EDGE_CURVE('',#98,#100,#102,.T.);
#98 = VERTEX_POINT('',#99);
#99 = CARTESIAN_POINT('',(1.1E-14,167.02277356938,5.684341886081E-14));
#100 = VERTEX_POINT('',#101);
#101 = CARTESIAN_POINT('',(-5.,167.02277356938,5.684341886081E-14));
#102 = LINE('',#103,#104);
#103 = CARTESIAN_POINT('',(6.622E-14,167.02277356938,7.105427357601E-15)
  );
#104 = VECTOR('',#105,1.);
#105 = DIRECTION('',(-1.,-0.,-0.));
#106 = ORIENTED_EDGE('',*,*,#107,.T.);
#107 = EDGE_CURVE('',#100,#108,#110,.T.);
#108 = VERTEX_POINT('',#109);
#109 = CARTESIAN_POINT('',(-5.,167.02277356938,25.));
#110 = LINE('',#111,#112);
#111 = CARTESIAN_POINT('',(-5.,167.02277356938,7.105427357601E-15));
#112 = VECTOR('',#113,1.);
#113 = DIRECTION('',(0.,2.2E-16,1.));
#114 = ORIENTED_EDGE('',*,*,#115,.T.);
#115 = EDGE_CURVE('',#108,#116,#118,.T.);
#116 = VERTEX_POINT('',#117);
#117 = CARTESIAN_POINT('',(21.,167.02277356938,25.));
#118 = LINE('',#119,#120);
#119 = CARTESIAN_POINT('',(-5.,167.02277356938,25.));
#120 = VECTOR('',#121,1.);
#121 = DIRECTION('',(1.,0.,0.));
#122 = ORIENTED_EDGE('',*,*,#123,.T.);
#123 = EDGE_CURVE('',#116,#124,#126,.T.);
#124 = VERTEX_POINT('',#125);
#125 = CARTESIAN_POINT('',(21.,167.02277356938,40.));
#126 = LINE('',#127,#128);
#127 = CARTESIAN_POINT('',(21.,167.02277356938,25.));
#128 = VECTOR('',#129,1.);
#129 = DIRECTION('',(0.,2.2E-16,1.));
#130 = ORIENTED_EDGE('',*,*,#131,.T.);
#131 = EDGE_CURVE('',#124,#33,#132,.T.);
#132 = LINE('',#133,#134);
#133 = CARTESIAN_POINT('',(21.,167.02277356938,40.));
#134 = VECTOR('',#135,1.);
#135 = DIRECTION('',(1.,0.,0.));
#136 = ORIENTED_EDGE('',*,*,#32,.T.);
#137 = ORIENTED_EDGE('',*,*,#138,.T.);
#138 = EDGE_CURVE('',#35,#139,#141,.T.);
#139 = VERTEX_POINT('',#140);
#140 = CARTESIAN_POINT('',(1.8E-14,167.02277356938,20.));
#141 = LINE('',#142,#143);
#142 = CARTESIAN_POINT('',(29.,167.02277356938,20.));
#143 = VECTOR('',#144,1.);
#144 = DIRECTION('',(-1.,-0.,-0.));
#145 = ORIENTED_EDGE('',*,*,#146,.T.);
#146 = EDGE_CURVE('',#139,#98,#147,.T.);
#147 = LINE('',#148,#149);
#148 = CARTESIAN_POINT('',(6.622E-14,167.02277356938,20.));
#149 = VECTOR('',#150,1.);
#150 = DIRECTION('',(0.,-2.2E-16,-1.));
#151 = PLANE('',#152);
#152 = AXIS2_PLACEMENT_3D('',#153,#154,#155);
#153 = CARTESIAN_POINT('',(10.716216216216,167.02277356938,
    21.283783783784));
#154 = DIRECTION('',(0.,1.,2.2E-16));
#155 = DIRECTION('',(0.,-2.2E-16,1.));
#156 = ADVANCED_FACE('',(#157),#175,.F.);
#157 = FACE_BOUND('',#158,.F.);
#158 = EDGE_LOOP('',(#159,#160,#168,#174));
#159 = ORIENTED_EDGE('',*,*,#131,.F.);
#160 = ORIENTED_EDGE('',*,*,#161,.T.);
#161 = EDGE_CURVE('',#124,#162,#164,.T.);
#162 = VERTEX_POINT('',#163);
#163 = CARTESIAN_POINT('',(21.,175.82277356938,40.));
#164 = LINE('',#165,#166);
#165 = CARTESIAN_POINT('',(21.,167.02277356938,40.));
#166 = VECTOR('',#167,1.);
#167 = DIRECTION('',(-9.E-17,1.,-2.2E-16));
#168 = ORIENTED_EDGE('',*,*,#169,.T.);
#169 = EDGE_CURVE('',#162,#43,#170,.T.);
#170 = LINE('',#171,#172);
#171 = CARTESIAN_POINT('',(23.,175.82277356938,40.));
#172 = VECTOR('',#173,1.);
#173 = DIRECTION('',(1.,9.E-17,-1.7E-16));
#174 = ORIENTED_EDGE('',*,*,#42,.F.);
#175 = PLANE('',#176);
#176 = AXIS2_PLACEMENT_3D('',#177,#178,#179);
#177 = CARTESIAN_POINT('',(21.,167.02277356938,40.));
#178 = DIRECTION('',(-9.E-17,-2.2E-16,-1.));
#179 = DIRECTION('',(1.,9.E-17,-9.E-17));
#180 = ADVANCED_FACE('',(#181),#199,.F.);
#181 = FACE_BOUND('',#182,.F.);
#182 = EDGE_LOOP('',(#183,#184,#185,#193));
#183 = ORIENTED_EDGE('',*,*,#138,.F.);
#184 = ORIENTED_EDGE('',*,*,#58,.T.);
#185 = ORIENTED_EDGE('',*,*,#186,.T.);
#186 = EDGE_CURVE('',#51,#187,#189,.T.);
#187 = VERTEX_POINT('',#188);
#188 = CARTESIAN_POINT('',(1.3E-14,175.82277356938,20.));
#189 = LINE('',#190,#191);
#190 = CARTESIAN_POINT('',(27.,175.82277356938,20.));
#191 = VECTOR('',#192,1.);
#192 = DIRECTION('',(-1.,-9.E-17,1.7E-16));
#193 = ORIENTED_EDGE('',*,*,#194,.F.);
#194 = EDGE_CURVE('',#139,#187,#195,.T.);
#195 = LINE('',#196,#197);
#196 = CARTESIAN_POINT('',(5.644E-14,167.02277356938,20.));
#197 = VECTOR('',#198,1.);
#198 = DIRECTION('',(-9.E-17,1.,-2.2E-16));
#199 = PLANE('',#200);
#200 = AXIS2_PLACEMENT_3D('',#201,#202,#203);
#201 = CARTESIAN_POINT('',(29.,167.02277356938,20.));
#202 = DIRECTION('',(9.E-17,2.2E-16,1.));
#203 = DIRECTION('',(-1.,-9.E-17,9.E-17));
#204 = ADVANCED_FACE('',(#205),#232,.T.);
#205 = FACE_BOUND('',#206,.T.);
#206 = EDGE_LOOP('',(#207,#208,#216,#224,#230,#231));
#207 = ORIENTED_EDGE('',*,*,#186,.T.);
#208 = ORIENTED_EDGE('',*,*,#209,.T.);
#209 = EDGE_CURVE('',#187,#210,#212,.T.);
#210 = VERTEX_POINT('',#211);
#211 = CARTESIAN_POINT('',(1.3E-14,175.82277356938,25.));
#212 = LINE('',#213,#214);
#213 = CARTESIAN_POINT('',(4.983E-14,175.82277356938,3.19744231092E-14)
  );
#214 = VECTOR('',#215,1.);
#215 = DIRECTION('',(0.,2.2E-16,1.));
#216 = ORIENTED_EDGE('',*,*,#217,.T.);
#217 = EDGE_CURVE('',#210,#218,#220,.T.);
#218 = VERTEX_POINT('',#219);
#219 = CARTESIAN_POINT('',(21.,175.82277356938,25.));
#220 = LINE('',#221,#222);
#221 = CARTESIAN_POINT('',(10.,175.82277356938,25.));
#222 = VECTOR('',#223,1.);
#223 = DIRECTION('',(1.,9.E-17,-1.7E-16));
#224 = ORIENTED_EDGE('',*,*,#225,.T.);
#225 = EDGE_CURVE('',#218,#162,#226,.T.);
#226 = LINE('',#227,#228);
#227 = CARTESIAN_POINT('',(21.,175.82277356938,25.));
#228 = VECTOR('',#229,1.);
#229 = DIRECTION('',(1.7E-16,0.,1.));
#230 = ORIENTED_EDGE('',*,*,#169,.T.);
#231 = ORIENTED_EDGE('',*,*,#50,.T.);
#232 = PLANE('',#233);
#233 = AXIS2_PLACEMENT_3D('',#234,#235,#236);
#234 = CARTESIAN_POINT('',(25.,175.82277356938,25.));
#235 = DIRECTION('',(0.,1.,2.2E-16));
#236 = DIRECTION('',(0.,-2.2E-16,1.));
#237 = ADVANCED_FACE('',(#238),#257,.F.);
#238 = FACE_BOUND('',#239,.F.);
#239 = EDGE_LOOP('',(#240,#248,#249,#250));
#240 = ORIENTED_EDGE('',*,*,#241,.F.);
#241 = EDGE_CURVE('',#73,#242,#244,.T.);
#242 = VERTEX_POINT('',#243);
#243 = CARTESIAN_POINT('',(21.,172.82277356938,33.75));
#244 = LINE('',#245,#246);
#245 = CARTESIAN_POINT('',(29.,172.82277356938,33.75));
#246 = VECTOR('',#247,1.);
#247 = DIRECTION('',(-1.,-9.E-17,9.E-17));
#248 = ORIENTED_EDGE('',*,*,#82,.F.);
#249 = ORIENTED_EDGE('',*,*,#241,.T.);
#250 = ORIENTED_EDGE('',*,*,#251,.T.);
#251 = EDGE_CURVE('',#242,#242,#252,.T.);
#252 = CIRCLE('',#253,1.4);
#253 = AXIS2_PLACEMENT_3D('',#254,#255,#256);
#254 = CARTESIAN_POINT('',(21.,171.42277356938,33.75));
#255 = DIRECTION('',(1.,9.E-17,-9.E-17));
#256 = DIRECTION('',(-9.E-17,1.,0.));
#257 = CYLINDRICAL_SURFACE('',#258,1.4);
#258 = AXIS2_PLACEMENT_3D('',#259,#260,#261);
#259 = CARTESIAN_POINT('',(29.,171.42277356938,33.75));
#260 = DIRECTION('',(1.,9.E-17,-9.E-17));
#261 = DIRECTION('',(-9.E-17,1.,0.));
#262 = ADVANCED_FACE('',(#263),#288,.F.);
#263 = FACE_BOUND('',#264,.F.);
#264 = EDGE_LOOP('',(#265,#273,#281,#287));
#265 = ORIENTED_EDGE('',*,*,#266,.T.);
#266 = EDGE_CURVE('',#98,#267,#269,.T.);
#267 = VERTEX_POINT('',#268);
#268 = CARTESIAN_POINT('',(-1.1E-14,232.02277356938,5.684341886081E-14)
  );
#269 = LINE('',#270,#271);
#270 = CARTESIAN_POINT('',(4.03E-14,167.02277356938,7.22E-15));
#271 = VECTOR('',#272,1.);
#272 = DIRECTION('',(-1.7E-16,1.,-2.2E-16));
#273 = ORIENTED_EDGE('',*,*,#274,.T.);
#274 = EDGE_CURVE('',#267,#275,#277,.T.);
#275 = VERTEX_POINT('',#276);
#276 = CARTESIAN_POINT('',(-5.,232.02277356938,5.684341886081E-14));
#277 = LINE('',#278,#279);
#278 = CARTESIAN_POINT('',(7.222E-14,232.02277356938,-7.105427357601E-15
    ));
#279 = VECTOR('',#280,1.);
#280 = DIRECTION('',(-1.,-0.,-0.));
#281 = ORIENTED_EDGE('',*,*,#282,.F.);
#282 = EDGE_CURVE('',#100,#275,#283,.T.);
#283 = LINE('',#284,#285);
#284 = CARTESIAN_POINT('',(-5.,167.02277356938,7.65E-15));
#285 = VECTOR('',#286,1.);
#286 = DIRECTION('',(-9.E-17,1.,-2.2E-16));
#287 = ORIENTED_EDGE('',*,*,#97,.F.);
#288 = PLANE('',#289);
#289 = AXIS2_PLACEMENT_3D('',#290,#291,#292);
#290 = CARTESIAN_POINT('',(5.476E-14,167.02277356938,7.22E-15));
#291 = DIRECTION('',(9.E-17,2.2E-16,1.));
#292 = DIRECTION('',(-1.,-9.E-17,9.E-17));
#293 = ADVANCED_FACE('',(#294,#312),#323,.F.);
#294 = FACE_BOUND('',#295,.F.);
#295 = EDGE_LOOP('',(#296,#297,#305,#311));
#296 = ORIENTED_EDGE('',*,*,#282,.T.);
#297 = ORIENTED_EDGE('',*,*,#298,.T.);
#298 = EDGE_CURVE('',#275,#299,#301,.T.);
#299 = VERTEX_POINT('',#300);
#300 = CARTESIAN_POINT('',(-5.,232.02277356938,25.));
#301 = LINE('',#302,#303);
#302 = CARTESIAN_POINT('',(-5.,232.02277356938,-7.105427357601E-15));
#303 = VECTOR('',#304,1.);
#304 = DIRECTION('',(0.,2.2E-16,1.));
#305 = ORIENTED_EDGE('',*,*,#306,.F.);
#306 = EDGE_CURVE('',#108,#299,#307,.T.);
#307 = LINE('',#308,#309);
#308 = CARTESIAN_POINT('',(-5.,167.02277356938,25.));
#309 = VECTOR('',#310,1.);
#310 = DIRECTION('',(-9.E-17,1.,-2.2E-16));
#311 = ORIENTED_EDGE('',*,*,#107,.F.);
#312 = FACE_BOUND('',#313,.F.);
#313 = EDGE_LOOP('',(#314));
#314 = ORIENTED_EDGE('',*,*,#315,.F.);
#315 = EDGE_CURVE('',#316,#316,#318,.T.);
#316 = VERTEX_POINT('',#317);
#317 = CARTESIAN_POINT('',(-5.,202.12277356938,10.));
#318 = CIRCLE('',#319,2.6);
#319 = AXIS2_PLACEMENT_3D('',#320,#321,#322);
#320 = CARTESIAN_POINT('',(-5.,199.52277356938,10.));
#321 = DIRECTION('',(1.,9.E-17,-9.E-17));
#322 = DIRECTION('',(-9.E-17,1.,0.));
#323 = PLANE('',#324);
#324 = AXIS2_PLACEMENT_3D('',#325,#326,#327);
#325 = CARTESIAN_POINT('',(-5.,167.02277356938,7.65E-15));
#326 = DIRECTION('',(1.,9.E-17,-9.E-17));
#327 = DIRECTION('',(9.E-17,2.2E-16,1.));
#328 = ADVANCED_FACE('',(#329),#370,.F.);
#329 = FACE_BOUND('',#330,.F.);
#330 = EDGE_LOOP('',(#331,#332,#333,#341,#349,#357,#363,#364));
#331 = ORIENTED_EDGE('',*,*,#115,.F.);
#332 = ORIENTED_EDGE('',*,*,#306,.T.);
#333 = ORIENTED_EDGE('',*,*,#334,.T.);
#334 = EDGE_CURVE('',#299,#335,#337,.T.);
#335 = VERTEX_POINT('',#336);
#336 = CARTESIAN_POINT('',(21.,232.02277356938,25.));
#337 = LINE('',#338,#339);
#338 = CARTESIAN_POINT('',(-5.,232.02277356938,25.));
#339 = VECTOR('',#340,1.);
#340 = DIRECTION('',(1.,0.,0.));
#341 = ORIENTED_EDGE('',*,*,#342,.F.);
#342 = EDGE_CURVE('',#343,#335,#345,.T.);
#343 = VERTEX_POINT('',#344);
#344 = CARTESIAN_POINT('',(21.,223.22277356938,25.));
#345 = LINE('',#346,#347);
#346 = CARTESIAN_POINT('',(21.,167.02277356938,25.));
#347 = VECTOR('',#348,1.);
#348 = DIRECTION('',(-9.E-17,1.,-2.2E-16));
#349 = ORIENTED_EDGE('',*,*,#350,.F.);
#350 = EDGE_CURVE('',#351,#343,#353,.T.);
#351 = VERTEX_POINT('',#352);
#352 = CARTESIAN_POINT('',(0.,223.22277356938,25.));
#353 = LINE('',#354,#355);
#354 = CARTESIAN_POINT('',(10.,223.22277356938,25.));
#355 = VECTOR('',#356,1.);
#356 = DIRECTION('',(1.,9.E-17,-1.7E-16));
#357 = ORIENTED_EDGE('',*,*,#358,.F.);
#358 = EDGE_CURVE('',#210,#351,#359,.T.);
#359 = LINE('',#360,#361);
#360 = CARTESIAN_POINT('',(3.683E-14,195.12277356938,25.));
#361 = VECTOR('',#362,1.);
#362 = DIRECTION('',(-9.E-17,1.,-2.2E-16));
#363 = ORIENTED_EDGE('',*,*,#217,.T.);
#364 = ORIENTED_EDGE('',*,*,#365,.F.);
#365 = EDGE_CURVE('',#116,#218,#366,.T.);
#366 = LINE('',#367,#368);
#367 = CARTESIAN_POINT('',(21.,167.02277356938,25.));
#368 = VECTOR('',#369,1.);
#369 = DIRECTION('',(-9.E-17,1.,-2.2E-16));
#370 = PLANE('',#371);
#371 = AXIS2_PLACEMENT_3D('',#372,#373,#374);
#372 = CARTESIAN_POINT('',(-5.,167.02277356938,25.));
#373 = DIRECTION('',(-9.E-17,-2.2E-16,-1.));
#374 = DIRECTION('',(1.,9.E-17,-9.E-17));
#375 = ADVANCED_FACE('',(#376,#382),#385,.F.);
#376 = FACE_BOUND('',#377,.F.);
#377 = EDGE_LOOP('',(#378,#379,#380,#381));
#378 = ORIENTED_EDGE('',*,*,#123,.F.);
#379 = ORIENTED_EDGE('',*,*,#365,.T.);
#380 = ORIENTED_EDGE('',*,*,#225,.T.);
#381 = ORIENTED_EDGE('',*,*,#161,.F.);
#382 = FACE_BOUND('',#383,.F.);
#383 = EDGE_LOOP('',(#384));
#384 = ORIENTED_EDGE('',*,*,#251,.F.);
#385 = PLANE('',#386);
#386 = AXIS2_PLACEMENT_3D('',#387,#388,#389);
#387 = CARTESIAN_POINT('',(21.,167.02277356938,25.));
#388 = DIRECTION('',(1.,9.E-17,-9.E-17));
#389 = DIRECTION('',(9.E-17,2.2E-16,1.));
#390 = ADVANCED_FACE('',(#391,#420),#431,.T.);
#391 = FACE_BOUND('',#392,.T.);
#392 = EDGE_LOOP('',(#393,#394,#395,#403,#411,#417,#418,#419));
#393 = ORIENTED_EDGE('',*,*,#146,.T.);
#394 = ORIENTED_EDGE('',*,*,#266,.T.);
#395 = ORIENTED_EDGE('',*,*,#396,.F.);
#396 = EDGE_CURVE('',#397,#267,#399,.T.);
#397 = VERTEX_POINT('',#398);
#398 = CARTESIAN_POINT('',(-4.E-15,232.02277356938,20.));
#399 = LINE('',#400,#401);
#400 = CARTESIAN_POINT('',(7.222E-14,232.02277356938,20.));
#401 = VECTOR('',#402,1.);
#402 = DIRECTION('',(0.,-2.2E-16,-1.));
#403 = ORIENTED_EDGE('',*,*,#404,.F.);
#404 = EDGE_CURVE('',#405,#397,#407,.T.);
#405 = VERTEX_POINT('',#406);
#406 = CARTESIAN_POINT('',(-1.E-15,223.22277356938,20.));
#407 = LINE('',#408,#409);
#408 = CARTESIAN_POINT('',(5.644E-14,167.02277356938,20.));
#409 = VECTOR('',#410,1.);
#410 = DIRECTION('',(-9.E-17,1.,-2.2E-16));
#411 = ORIENTED_EDGE('',*,*,#412,.T.);
#412 = EDGE_CURVE('',#405,#351,#413,.T.);
#413 = LINE('',#414,#415);
#414 = CARTESIAN_POINT('',(5.383E-14,223.22277356938,-3.552713678801E-15
    ));
#415 = VECTOR('',#416,1.);
#416 = DIRECTION('',(0.,2.2E-16,1.));
#417 = ORIENTED_EDGE('',*,*,#358,.F.);
#418 = ORIENTED_EDGE('',*,*,#209,.F.);
#419 = ORIENTED_EDGE('',*,*,#194,.F.);
#420 = FACE_BOUND('',#421,.T.);
#421 = EDGE_LOOP('',(#422));
#422 = ORIENTED_EDGE('',*,*,#423,.F.);
#423 = EDGE_CURVE('',#424,#424,#426,.T.);
#424 = VERTEX_POINT('',#425);
#425 = CARTESIAN_POINT('',(1.E-15,202.12277356938,10.));
#426 = CIRCLE('',#427,2.6);
#427 = AXIS2_PLACEMENT_3D('',#428,#429,#430);
#428 = CARTESIAN_POINT('',(1.728E-14,199.52277356938,10.));
#429 = DIRECTION('',(1.,0.,-0.));
#430 = DIRECTION('',(0.,1.,2.2E-16));
#431 = PLANE('',#432);
#432 = AXIS2_PLACEMENT_3D('',#433,#434,#435);
#433 = CARTESIAN_POINT('',(3.596E-14,199.52277356938,12.011111111111));
#434 = DIRECTION('',(1.,0.,0.));
#435 = DIRECTION('',(0.,-1.,2.2E-16));
#436 = ADVANCED_FACE('',(#437),#473,.T.);
#437 = FACE_BOUND('',#438,.T.);
#438 = EDGE_LOOP('',(#439,#440,#441,#442,#450,#458,#466,#472));
#439 = ORIENTED_EDGE('',*,*,#274,.T.);
#440 = ORIENTED_EDGE('',*,*,#298,.T.);
#441 = ORIENTED_EDGE('',*,*,#334,.T.);
#442 = ORIENTED_EDGE('',*,*,#443,.T.);
#443 = EDGE_CURVE('',#335,#444,#446,.T.);
#444 = VERTEX_POINT('',#445);
#445 = CARTESIAN_POINT('',(21.,232.02277356938,40.));
#446 = LINE('',#447,#448);
#447 = CARTESIAN_POINT('',(21.,232.02277356938,25.));
#448 = VECTOR('',#449,1.);
#449 = DIRECTION('',(0.,2.2E-16,1.));
#450 = ORIENTED_EDGE('',*,*,#451,.T.);
#451 = EDGE_CURVE('',#444,#452,#454,.T.);
#452 = VERTEX_POINT('',#453);
#453 = CARTESIAN_POINT('',(29.,232.02277356938,40.));
#454 = LINE('',#455,#456);
#455 = CARTESIAN_POINT('',(21.,232.02277356938,40.));
#456 = VECTOR('',#457,1.);
#457 = DIRECTION('',(1.,0.,0.));
#458 = ORIENTED_EDGE('',*,*,#459,.T.);
#459 = EDGE_CURVE('',#452,#460,#462,.T.);
#460 = VERTEX_POINT('',#461);
#461 = CARTESIAN_POINT('',(29.,232.02277356938,20.));
#462 = LINE('',#463,#464);
#463 = CARTESIAN_POINT('',(29.,232.02277356938,40.));
#464 = VECTOR('',#465,1.);
#465 = DIRECTION('',(0.,-2.2E-16,-1.));
#466 = ORIENTED_EDGE('',*,*,#467,.T.);
#467 = EDGE_CURVE('',#460,#397,#468,.T.);
#468 = LINE('',#469,#470);
#469 = CARTESIAN_POINT('',(29.,232.02277356938,20.));
#470 = VECTOR('',#471,1.);
#471 = DIRECTION('',(-1.,-0.,-0.));
#472 = ORIENTED_EDGE('',*,*,#396,.T.);
#473 = PLANE('',#474);
#474 = AXIS2_PLACEMENT_3D('',#475,#476,#477);
#475 = CARTESIAN_POINT('',(10.716216216216,232.02277356938,
    21.283783783784));
#476 = DIRECTION('',(0.,1.,2.2E-16));
#477 = DIRECTION('',(0.,-2.2E-16,1.));
#478 = ADVANCED_FACE('',(#479),#490,.F.);
#479 = FACE_BOUND('',#480,.F.);
#480 = EDGE_LOOP('',(#481,#482,#488,#489));
#481 = ORIENTED_EDGE('',*,*,#423,.F.);
#482 = ORIENTED_EDGE('',*,*,#483,.T.);
#483 = EDGE_CURVE('',#424,#316,#484,.T.);
#484 = LINE('',#485,#486);
#485 = CARTESIAN_POINT('',(6.4E-16,202.12277356938,10.));
#486 = VECTOR('',#487,1.);
#487 = DIRECTION('',(-1.,-9.E-17,9.E-17));
#488 = ORIENTED_EDGE('',*,*,#315,.T.);
#489 = ORIENTED_EDGE('',*,*,#483,.F.);
#490 = CYLINDRICAL_SURFACE('',#491,2.6);
#491 = AXIS2_PLACEMENT_3D('',#492,#493,#494);
#492 = CARTESIAN_POINT('',(8.7E-16,199.52277356938,10.));
#493 = DIRECTION('',(1.,9.E-17,-9.E-17));
#494 = DIRECTION('',(-9.E-17,1.,0.));
#495 = ADVANCED_FACE('',(#496),#530,.F.);
#496 = FACE_BOUND('',#497,.F.);
#497 = EDGE_LOOP('',(#498,#506,#507,#508,#516,#524));
#498 = ORIENTED_EDGE('',*,*,#499,.T.);
#499 = EDGE_CURVE('',#500,#405,#502,.T.);
#500 = VERTEX_POINT('',#501);
#501 = CARTESIAN_POINT('',(29.,223.22277356938,20.));
#502 = LINE('',#503,#504);
#503 = CARTESIAN_POINT('',(27.,223.22277356938,20.));
#504 = VECTOR('',#505,1.);
#505 = DIRECTION('',(-1.,-9.E-17,1.7E-16));
#506 = ORIENTED_EDGE('',*,*,#412,.T.);
#507 = ORIENTED_EDGE('',*,*,#350,.T.);
#508 = ORIENTED_EDGE('',*,*,#509,.T.);
#509 = EDGE_CURVE('',#343,#510,#512,.T.);
#510 = VERTEX_POINT('',#511);
#511 = CARTESIAN_POINT('',(21.,223.22277356938,40.));
#512 = LINE('',#513,#514);
#513 = CARTESIAN_POINT('',(21.,223.22277356938,25.));
#514 = VECTOR('',#515,1.);
#515 = DIRECTION('',(1.7E-16,0.,1.));
#516 = ORIENTED_EDGE('',*,*,#517,.T.);
#517 = EDGE_CURVE('',#510,#518,#520,.T.);
#518 = VERTEX_POINT('',#519);
#519 = CARTESIAN_POINT('',(29.,223.22277356938,40.));
#520 = LINE('',#521,#522);
#521 = CARTESIAN_POINT('',(23.,223.22277356938,40.));
#522 = VECTOR('',#523,1.);
#523 = DIRECTION('',(1.,9.E-17,-1.7E-16));
#524 = ORIENTED_EDGE('',*,*,#525,.T.);
#525 = EDGE_CURVE('',#518,#500,#526,.T.);
#526 = LINE('',#527,#528);
#527 = CARTESIAN_POINT('',(29.,223.22277356938,32.5));
#528 = VECTOR('',#529,1.);
#529 = DIRECTION('',(-1.7E-16,0.,-1.));
#530 = PLANE('',#531);
#531 = AXIS2_PLACEMENT_3D('',#532,#533,#534);
#532 = CARTESIAN_POINT('',(25.,223.22277356938,25.));
#533 = DIRECTION('',(0.,1.,2.2E-16));
#534 = DIRECTION('',(0.,-2.2E-16,1.));
#535 = ADVANCED_FACE('',(#536,#547),#558,.F.);
#536 = FACE_BOUND('',#537,.F.);
#537 = EDGE_LOOP('',(#538,#539,#540,#541));
#538 = ORIENTED_EDGE('',*,*,#509,.F.);
#539 = ORIENTED_EDGE('',*,*,#342,.T.);
#540 = ORIENTED_EDGE('',*,*,#443,.T.);
#541 = ORIENTED_EDGE('',*,*,#542,.F.);
#542 = EDGE_CURVE('',#510,#444,#543,.T.);
#543 = LINE('',#544,#545);
#544 = CARTESIAN_POINT('',(21.,167.02277356938,40.));
#545 = VECTOR('',#546,1.);
#546 = DIRECTION('',(-9.E-17,1.,-2.2E-16));
#547 = FACE_BOUND('',#548,.F.);
#548 = EDGE_LOOP('',(#549));
#549 = ORIENTED_EDGE('',*,*,#550,.F.);
#550 = EDGE_CURVE('',#551,#551,#553,.T.);
#551 = VERTEX_POINT('',#552);
#552 = CARTESIAN_POINT('',(21.,229.02277356938,33.75));
#553 = CIRCLE('',#554,1.4);
#554 = AXIS2_PLACEMENT_3D('',#555,#556,#557);
#555 = CARTESIAN_POINT('',(21.,227.62277356938,33.75));
#556 = DIRECTION('',(1.,9.E-17,-9.E-17));
#557 = DIRECTION('',(-9.E-17,1.,0.));
#558 = PLANE('',#559);
#559 = AXIS2_PLACEMENT_3D('',#560,#561,#562);
#560 = CARTESIAN_POINT('',(21.,167.02277356938,25.));
#561 = DIRECTION('',(1.,9.E-17,-9.E-17));
#562 = DIRECTION('',(9.E-17,2.2E-16,1.));
#563 = ADVANCED_FACE('',(#564),#575,.F.);
#564 = FACE_BOUND('',#565,.F.);
#565 = EDGE_LOOP('',(#566,#567,#573,#574));
#566 = ORIENTED_EDGE('',*,*,#499,.F.);
#567 = ORIENTED_EDGE('',*,*,#568,.T.);
#568 = EDGE_CURVE('',#500,#460,#569,.T.);
#569 = LINE('',#570,#571);
#570 = CARTESIAN_POINT('',(29.,167.02277356938,20.));
#571 = VECTOR('',#572,1.);
#572 = DIRECTION('',(-9.E-17,1.,-2.2E-16));
#573 = ORIENTED_EDGE('',*,*,#467,.T.);
#574 = ORIENTED_EDGE('',*,*,#404,.F.);
#575 = PLANE('',#576);
#576 = AXIS2_PLACEMENT_3D('',#577,#578,#579);
#577 = CARTESIAN_POINT('',(29.,167.02277356938,20.));
#578 = DIRECTION('',(9.E-17,2.2E-16,1.));
#579 = DIRECTION('',(-1.,-9.E-17,9.E-17));
#580 = ADVANCED_FACE('',(#581),#592,.F.);
#581 = FACE_BOUND('',#582,.F.);
#582 = EDGE_LOOP('',(#583,#584,#585,#586));
#583 = ORIENTED_EDGE('',*,*,#517,.F.);
#584 = ORIENTED_EDGE('',*,*,#542,.T.);
#585 = ORIENTED_EDGE('',*,*,#451,.T.);
#586 = ORIENTED_EDGE('',*,*,#587,.F.);
#587 = EDGE_CURVE('',#518,#452,#588,.T.);
#588 = LINE('',#589,#590);
#589 = CARTESIAN_POINT('',(29.,167.02277356938,40.));
#590 = VECTOR('',#591,1.);
#591 = DIRECTION('',(-9.E-17,1.,-2.2E-16));
#592 = PLANE('',#593);
#593 = AXIS2_PLACEMENT_3D('',#594,#595,#596);
#594 = CARTESIAN_POINT('',(21.,167.02277356938,40.));
#595 = DIRECTION('',(-9.E-17,-2.2E-16,-1.));
#596 = DIRECTION('',(1.,9.E-17,-9.E-17));
#597 = ADVANCED_FACE('',(#598,#609),#615,.F.);
#598 = FACE_BOUND('',#599,.F.);
#599 = EDGE_LOOP('',(#600));
#600 = ORIENTED_EDGE('',*,*,#601,.T.);
#601 = EDGE_CURVE('',#602,#602,#604,.T.);
#602 = VERTEX_POINT('',#603);
#603 = CARTESIAN_POINT('',(29.,230.02277356938,33.75));
#604 = CIRCLE('',#605,2.4);
#605 = AXIS2_PLACEMENT_3D('',#606,#607,#608);
#606 = CARTESIAN_POINT('',(29.,227.62277356938,33.75));
#607 = DIRECTION('',(1.,3.5E-16,-3.5E-16));
#608 = DIRECTION('',(-3.5E-16,1.,-2.2E-16));
#609 = FACE_BOUND('',#610,.F.);
#610 = EDGE_LOOP('',(#611,#612,#613,#614));
#611 = ORIENTED_EDGE('',*,*,#525,.F.);
#612 = ORIENTED_EDGE('',*,*,#587,.T.);
#613 = ORIENTED_EDGE('',*,*,#459,.T.);
#614 = ORIENTED_EDGE('',*,*,#568,.F.);
#615 = PLANE('',#616);
#616 = AXIS2_PLACEMENT_3D('',#617,#618,#619);
#617 = CARTESIAN_POINT('',(29.,167.02277356938,40.));
#618 = DIRECTION('',(-1.,-9.E-17,9.E-17));
#619 = DIRECTION('',(-9.E-17,-2.2E-16,-1.));
#620 = ADVANCED_FACE('',(#621),#640,.F.);
#621 = FACE_BOUND('',#622,.F.);
#622 = EDGE_LOOP('',(#623,#631,#638,#639));
#623 = ORIENTED_EDGE('',*,*,#624,.F.);
#624 = EDGE_CURVE('',#625,#551,#627,.T.);
#625 = VERTEX_POINT('',#626);
#626 = CARTESIAN_POINT('',(28.,229.02277356938,33.75));
#627 = LINE('',#628,#629);
#628 = CARTESIAN_POINT('',(29.,229.02277356938,33.75));
#629 = VECTOR('',#630,1.);
#630 = DIRECTION('',(-1.,-9.E-17,9.E-17));
#631 = ORIENTED_EDGE('',*,*,#632,.F.);
#632 = EDGE_CURVE('',#625,#625,#633,.T.);
#633 = CIRCLE('',#634,1.4);
#634 = AXIS2_PLACEMENT_3D('',#635,#636,#637);
#635 = CARTESIAN_POINT('',(28.,227.62277356938,33.75));
#636 = DIRECTION('',(1.,3.5E-16,-3.5E-16));
#637 = DIRECTION('',(-3.5E-16,1.,-2.2E-16));
#638 = ORIENTED_EDGE('',*,*,#624,.T.);
#639 = ORIENTED_EDGE('',*,*,#550,.T.);
#640 = CYLINDRICAL_SURFACE('',#641,1.4);
#641 = AXIS2_PLACEMENT_3D('',#642,#643,#644);
#642 = CARTESIAN_POINT('',(29.,227.62277356938,33.75));
#643 = DIRECTION('',(1.,9.E-17,-9.E-17));
#644 = DIRECTION('',(-9.E-17,1.,0.));
#645 = ADVANCED_FACE('',(#646),#657,.F.);
#646 = FACE_BOUND('',#647,.T.);
#647 = EDGE_LOOP('',(#648,#654,#655,#656));
#648 = ORIENTED_EDGE('',*,*,#649,.F.);
#649 = EDGE_CURVE('',#602,#625,#650,.T.);
#650 = LINE('',#651,#652);
#651 = CARTESIAN_POINT('',(28.,229.02277356938,33.75));
#652 = VECTOR('',#653,1.);
#653 = DIRECTION('',(-0.707106781187,-0.707106781187,4.E-16));
#654 = ORIENTED_EDGE('',*,*,#601,.T.);
#655 = ORIENTED_EDGE('',*,*,#649,.T.);
#656 = ORIENTED_EDGE('',*,*,#632,.F.);
#657 = CONICAL_SURFACE('',#658,1.4,0.785398163397);
#658 = AXIS2_PLACEMENT_3D('',#659,#660,#661);
#659 = CARTESIAN_POINT('',(28.,227.62277356938,33.75));
#660 = DIRECTION('',(1.,3.5E-16,-3.5E-16));
#661 = DIRECTION('',(-3.5E-16,1.,-2.2E-16));
#662 = ( GEOMETRIC_REPRESENTATION_CONTEXT(3) 
GLOBAL_UNCERTAINTY_ASSIGNED_CONTEXT((#666)) GLOBAL_UNIT_ASSIGNED_CONTEXT
((#663,#664,#665)) REPRESENTATION_CONTEXT('Context #1',
  '3D Context with UNIT and UNCERTAINTY') );
#663 = ( LENGTH_UNIT() NAMED_UNIT(*) SI_UNIT(.MILLI.,.METRE.) );
#664 = ( NAMED_UNIT(*) PLANE_ANGLE_UNIT() SI_UNIT($,.RADIAN.) );
#665 = ( NAMED_UNIT(*) SI_UNIT($,.STERADIAN.) SOLID_ANGLE_UNIT() );
#666 = UNCERTAINTY_MEASURE_WITH_UNIT(LENGTH_MEASURE(2.E-05),#663,
  'distance_accuracy_value','confusion accuracy');
#667 = PRODUCT_RELATED_PRODUCT_CATEGORY('part',$,(#7));
#668 = MECHANICAL_DESIGN_GEOMETRIC_PRESENTATION_REPRESENTATION('',(#669)
  ,#662);
#669 = STYLED_ITEM('color',(#670),#15);
#670 = PRESENTATION_STYLE_ASSIGNMENT((#671,#677));
#671 = SURFACE_STYLE_USAGE(.BOTH.,#672);
#672 = SURFACE_SIDE_STYLE('',(#673));
#673 = SURFACE_STYLE_FILL_AREA(#674);
#674 = FILL_AREA_STYLE('',(#675));
#675 = FILL_AREA_STYLE_COLOUR('',#676);
#676 = COLOUR_RGB('',0.447058818107,0.474509808674,0.501960817233);
#677 = CURVE_STYLE('',#678,POSITIVE_LENGTH_MEASURE(0.1),#679);
#678 = DRAUGHTING_PRE_DEFINED_CURVE_FONT('continuous');
#679 = COLOUR_RGB('',9.803921802644E-02,9.803921802644E-02,
  9.803921802644E-02);
ENDSEC;
END-ISO-10303-21;
