ISO-10303-21;
HEADER;
FILE_DESCRIPTION(('FreeCAD Model'),'2;1');
FILE_NAME('Open CASCADE Shape Model','2026-03-31T14:55:00',(''),(''),
  'Open CASCADE STEP processor 7.8','FreeCAD','Unknown');
FILE_SCHEMA(('AUTOMOTIVE_DESIGN { 1 0 10303 214 1 1 1 1 }'));
ENDSEC;
DATA;
#1 = APPLICATION_PROTOCOL_DEFINITION('international standard',
  'automotive_design',2000,#2);
#2 = APPLICATION_CONTEXT(
  'core data for automotive mechanical design processes');
#3 = SHAPE_DEFINITION_REPRESENTATION(#4,#10);
#4 = PRODUCT_DEFINITION_SHAPE('','',#5);
#5 = PRODUCT_DEFINITION('design','',#6,#9);
#6 = PRODUCT_DEFINITION_FORMATION('','',#7);
#7 = PRODUCT('Hemera 夹','Hemera 夹','',(#8));
#8 = PRODUCT_CONTEXT('',#2,'mechanical');
#9 = PRODUCT_DEFINITION_CONTEXT('part definition',#2,'design');
#10 = ADVANCED_BREP_SHAPE_REPRESENTATION('',(#11,#15),#1157);
#11 = AXIS2_PLACEMENT_3D('',#12,#13,#14);
#12 = CARTESIAN_POINT('',(0.,0.,0.));
#13 = DIRECTION('',(0.,0.,1.));
#14 = DIRECTION('',(1.,0.,-0.));
#15 = MANIFOLD_SOLID_BREP('',#16);
#16 = CLOSED_SHELL('',(#17,#57,#152,#198,#286,#325,#342,#381,#434,#451,
    #540,#557,#610,#649,#661,#678,#695,#712,#729,#761,#785,#810,#827,
    #858,#883,#907,#925,#956,#981,#1005,#1023,#1054,#1079,#1103,#1121,
    #1139));
#17 = ADVANCED_FACE('',(#18),#52,.F.);
#18 = FACE_BOUND('',#19,.F.);
#19 = EDGE_LOOP('',(#20,#30,#38,#46));
#20 = ORIENTED_EDGE('',*,*,#21,.F.);
#21 = EDGE_CURVE('',#22,#24,#26,.T.);
#22 = VERTEX_POINT('',#23);
#23 = CARTESIAN_POINT('',(-22.3228,41.050339499865,0.));
#24 = VERTEX_POINT('',#25);
#25 = CARTESIAN_POINT('',(22.277199999994,41.050339499865,0.));
#26 = LINE('',#27,#28);
#27 = CARTESIAN_POINT('',(-22.3228,41.050339499865,0.));
#28 = VECTOR('',#29,1.);
#29 = DIRECTION('',(1.,0.,0.));
#30 = ORIENTED_EDGE('',*,*,#31,.T.);
#31 = EDGE_CURVE('',#22,#32,#34,.T.);
#32 = VERTEX_POINT('',#33);
#33 = CARTESIAN_POINT('',(-22.3228,41.050339499865,41.566000107156));
#34 = LINE('',#35,#36);
#35 = CARTESIAN_POINT('',(-22.3228,41.050339499865,0.));
#36 = VECTOR('',#37,1.);
#37 = DIRECTION('',(0.,0.,1.));
#38 = ORIENTED_EDGE('',*,*,#39,.T.);
#39 = EDGE_CURVE('',#32,#40,#42,.T.);
#40 = VERTEX_POINT('',#41);
#41 = CARTESIAN_POINT('',(22.277199999994,41.050339499865,
    41.566000107156));
#42 = LINE('',#43,#44);
#43 = CARTESIAN_POINT('',(-11.1614,41.050339499865,41.566000107156));
#44 = VECTOR('',#45,1.);
#45 = DIRECTION('',(1.,0.,-1.44E-15));
#46 = ORIENTED_EDGE('',*,*,#47,.F.);
#47 = EDGE_CURVE('',#24,#40,#48,.T.);
#48 = LINE('',#49,#50);
#49 = CARTESIAN_POINT('',(22.277199999994,41.050339499865,0.));
#50 = VECTOR('',#51,1.);
#51 = DIRECTION('',(0.,0.,1.));
#52 = PLANE('',#53);
#53 = AXIS2_PLACEMENT_3D('',#54,#55,#56);
#54 = CARTESIAN_POINT('',(-22.3228,41.050339499865,0.));
#55 = DIRECTION('',(0.,1.,0.));
#56 = DIRECTION('',(1.,0.,0.));
#57 = ADVANCED_FACE('',(#58),#147,.F.);
#58 = FACE_BOUND('',#59,.F.);
#59 = EDGE_LOOP('',(#60,#61,#69,#77,#85,#93,#101,#109,#117,#125,#133,
    #141));
#60 = ORIENTED_EDGE('',*,*,#21,.T.);
#61 = ORIENTED_EDGE('',*,*,#62,.T.);
#62 = EDGE_CURVE('',#24,#63,#65,.T.);
#63 = VERTEX_POINT('',#64);
#64 = CARTESIAN_POINT('',(22.277199999994,5.033949986603E-02,0.));
#65 = LINE('',#66,#67);
#66 = CARTESIAN_POINT('',(22.277199999994,41.050339499865,0.));
#67 = VECTOR('',#68,1.);
#68 = DIRECTION('',(0.,-1.,0.));
#69 = ORIENTED_EDGE('',*,*,#70,.T.);
#70 = EDGE_CURVE('',#63,#71,#73,.T.);
#71 = VERTEX_POINT('',#72);
#72 = CARTESIAN_POINT('',(30.277199999994,5.033949986603E-02,0.));
#73 = LINE('',#74,#75);
#74 = CARTESIAN_POINT('',(22.277199999994,5.033949986603E-02,0.));
#75 = VECTOR('',#76,1.);
#76 = DIRECTION('',(1.,0.,0.));
#77 = ORIENTED_EDGE('',*,*,#78,.T.);
#78 = EDGE_CURVE('',#71,#79,#81,.T.);
#79 = VERTEX_POINT('',#80);
#80 = CARTESIAN_POINT('',(30.277199999994,41.050339499866,0.));
#81 = LINE('',#82,#83);
#82 = CARTESIAN_POINT('',(30.277199999994,5.033949986603E-02,0.));
#83 = VECTOR('',#84,1.);
#84 = DIRECTION('',(0.,1.,0.));
#85 = ORIENTED_EDGE('',*,*,#86,.T.);
#86 = EDGE_CURVE('',#79,#87,#89,.T.);
#87 = VERTEX_POINT('',#88);
#88 = CARTESIAN_POINT('',(45.277199999994,41.050339499866,0.));
#89 = LINE('',#90,#91);
#90 = CARTESIAN_POINT('',(30.277199999994,41.050339499866,0.));
#91 = VECTOR('',#92,1.);
#92 = DIRECTION('',(1.,0.,0.));
#93 = ORIENTED_EDGE('',*,*,#94,.T.);
#94 = EDGE_CURVE('',#87,#95,#97,.T.);
#95 = VERTEX_POINT('',#96);
#96 = CARTESIAN_POINT('',(45.277199999994,51.050339499866,0.));
#97 = LINE('',#98,#99);
#98 = CARTESIAN_POINT('',(45.277199999994,41.050339499866,0.));
#99 = VECTOR('',#100,1.);
#100 = DIRECTION('',(0.,1.,0.));
#101 = ORIENTED_EDGE('',*,*,#102,.F.);
#102 = EDGE_CURVE('',#103,#95,#105,.T.);
#103 = VERTEX_POINT('',#104);
#104 = CARTESIAN_POINT('',(-45.3228,51.050339499866,0.));
#105 = LINE('',#106,#107);
#106 = CARTESIAN_POINT('',(-45.3228,51.050339499866,0.));
#107 = VECTOR('',#108,1.);
#108 = DIRECTION('',(1.,0.,0.));
#109 = ORIENTED_EDGE('',*,*,#110,.F.);
#110 = EDGE_CURVE('',#111,#103,#113,.T.);
#111 = VERTEX_POINT('',#112);
#112 = CARTESIAN_POINT('',(-45.3228,41.050339499864,0.));
#113 = LINE('',#114,#115);
#114 = CARTESIAN_POINT('',(-45.3228,41.050339499864,0.));
#115 = VECTOR('',#116,1.);
#116 = DIRECTION('',(0.,1.,0.));
#117 = ORIENTED_EDGE('',*,*,#118,.F.);
#118 = EDGE_CURVE('',#119,#111,#121,.T.);
#119 = VERTEX_POINT('',#120);
#120 = CARTESIAN_POINT('',(-30.3228,41.050339499864,0.));
#121 = LINE('',#122,#123);
#122 = CARTESIAN_POINT('',(-30.3228,41.050339499864,0.));
#123 = VECTOR('',#124,1.);
#124 = DIRECTION('',(-1.,0.,0.));
#125 = ORIENTED_EDGE('',*,*,#126,.F.);
#126 = EDGE_CURVE('',#127,#119,#129,.T.);
#127 = VERTEX_POINT('',#128);
#128 = CARTESIAN_POINT('',(-30.3228,5.033949986469E-02,0.));
#129 = LINE('',#130,#131);
#130 = CARTESIAN_POINT('',(-30.3228,5.033949986469E-02,0.));
#131 = VECTOR('',#132,1.);
#132 = DIRECTION('',(0.,1.,0.));
#133 = ORIENTED_EDGE('',*,*,#134,.T.);
#134 = EDGE_CURVE('',#127,#135,#137,.T.);
#135 = VERTEX_POINT('',#136);
#136 = CARTESIAN_POINT('',(-22.3228,5.033949986469E-02,0.));
#137 = LINE('',#138,#139);
#138 = CARTESIAN_POINT('',(-30.3228,5.033949986469E-02,0.));
#139 = VECTOR('',#140,1.);
#140 = DIRECTION('',(1.,0.,0.));
#141 = ORIENTED_EDGE('',*,*,#142,.F.);
#142 = EDGE_CURVE('',#22,#135,#143,.T.);
#143 = LINE('',#144,#145);
#144 = CARTESIAN_POINT('',(-22.3228,41.050339499865,0.));
#145 = VECTOR('',#146,1.);
#146 = DIRECTION('',(0.,-1.,0.));
#147 = PLANE('',#148);
#148 = AXIS2_PLACEMENT_3D('',#149,#150,#151);
#149 = CARTESIAN_POINT('',(-2.280000000562E-02,32.802803902932,0.));
#150 = DIRECTION('',(0.,0.,1.));
#151 = DIRECTION('',(1.,0.,0.));
#152 = ADVANCED_FACE('',(#153,#171,#182),#193,.F.);
#153 = FACE_BOUND('',#154,.F.);
#154 = EDGE_LOOP('',(#155,#156,#157,#165));
#155 = ORIENTED_EDGE('',*,*,#62,.F.);
#156 = ORIENTED_EDGE('',*,*,#47,.T.);
#157 = ORIENTED_EDGE('',*,*,#158,.T.);
#158 = EDGE_CURVE('',#40,#159,#161,.T.);
#159 = VERTEX_POINT('',#160);
#160 = CARTESIAN_POINT('',(22.277199999994,5.033949986603E-02,
    41.566000107156));
#161 = LINE('',#162,#163);
#162 = CARTESIAN_POINT('',(22.277199999994,20.525169749932,
    41.566000107156));
#163 = VECTOR('',#164,1.);
#164 = DIRECTION('',(0.,-1.,0.));
#165 = ORIENTED_EDGE('',*,*,#166,.F.);
#166 = EDGE_CURVE('',#63,#159,#167,.T.);
#167 = LINE('',#168,#169);
#168 = CARTESIAN_POINT('',(22.277199999994,5.033949986603E-02,0.));
#169 = VECTOR('',#170,1.);
#170 = DIRECTION('',(0.,0.,1.));
#171 = FACE_BOUND('',#172,.F.);
#172 = EDGE_LOOP('',(#173));
#173 = ORIENTED_EDGE('',*,*,#174,.T.);
#174 = EDGE_CURVE('',#175,#175,#177,.T.);
#175 = VERTEX_POINT('',#176);
#176 = CARTESIAN_POINT('',(22.277199999994,1.350000894071,37.555));
#177 = CIRCLE('',#178,1.7);
#178 = AXIS2_PLACEMENT_3D('',#179,#180,#181);
#179 = CARTESIAN_POINT('',(22.277199999994,3.050000894071,37.555));
#180 = DIRECTION('',(-1.,-2.176E-14,0.));
#181 = DIRECTION('',(2.176E-14,-1.,0.));
#182 = FACE_BOUND('',#183,.F.);
#183 = EDGE_LOOP('',(#184));
#184 = ORIENTED_EDGE('',*,*,#185,.T.);
#185 = EDGE_CURVE('',#186,#186,#188,.T.);
#186 = VERTEX_POINT('',#187);
#187 = CARTESIAN_POINT('',(22.277199999994,1.350000894071,3.555));
#188 = CIRCLE('',#189,1.7);
#189 = AXIS2_PLACEMENT_3D('',#190,#191,#192);
#190 = CARTESIAN_POINT('',(22.277199999994,3.050000894071,3.555));
#191 = DIRECTION('',(-1.,-2.176E-14,0.));
#192 = DIRECTION('',(2.176E-14,-1.,0.));
#193 = PLANE('',#194);
#194 = AXIS2_PLACEMENT_3D('',#195,#196,#197);
#195 = CARTESIAN_POINT('',(22.277199999994,41.050339499865,0.));
#196 = DIRECTION('',(1.,0.,0.));
#197 = DIRECTION('',(0.,-1.,0.));
#198 = ADVANCED_FACE('',(#199),#281,.T.);
#199 = FACE_BOUND('',#200,.T.);
#200 = EDGE_LOOP('',(#201,#209,#210,#211,#219,#227,#235,#243,#251,#259,
    #267,#275));
#201 = ORIENTED_EDGE('',*,*,#202,.F.);
#202 = EDGE_CURVE('',#32,#203,#205,.T.);
#203 = VERTEX_POINT('',#204);
#204 = CARTESIAN_POINT('',(-22.3228,5.033949986469E-02,41.566000107156)
  );
#205 = LINE('',#206,#207);
#206 = CARTESIAN_POINT('',(-22.3228,20.525169749932,41.566000107156));
#207 = VECTOR('',#208,1.);
#208 = DIRECTION('',(0.,-1.,0.));
#209 = ORIENTED_EDGE('',*,*,#39,.T.);
#210 = ORIENTED_EDGE('',*,*,#158,.T.);
#211 = ORIENTED_EDGE('',*,*,#212,.T.);
#212 = EDGE_CURVE('',#159,#213,#215,.T.);
#213 = VERTEX_POINT('',#214);
#214 = CARTESIAN_POINT('',(30.277199999994,5.033949986603E-02,
    41.566000107156));
#215 = LINE('',#216,#217);
#216 = CARTESIAN_POINT('',(11.138599999997,5.033949986603E-02,
    41.566000107156));
#217 = VECTOR('',#218,1.);
#218 = DIRECTION('',(1.,0.,-1.44E-15));
#219 = ORIENTED_EDGE('',*,*,#220,.T.);
#220 = EDGE_CURVE('',#213,#221,#223,.T.);
#221 = VERTEX_POINT('',#222);
#222 = CARTESIAN_POINT('',(30.277199999994,41.050339499866,
    41.566000107156));
#223 = LINE('',#224,#225);
#224 = CARTESIAN_POINT('',(30.277199999994,2.516974993301E-02,
    41.566000107156));
#225 = VECTOR('',#226,1.);
#226 = DIRECTION('',(0.,1.,0.));
#227 = ORIENTED_EDGE('',*,*,#228,.T.);
#228 = EDGE_CURVE('',#221,#229,#231,.T.);
#229 = VERTEX_POINT('',#230);
#230 = CARTESIAN_POINT('',(45.277199999994,41.050339499866,
    41.566000107156));
#231 = LINE('',#232,#233);
#232 = CARTESIAN_POINT('',(15.138599999997,41.050339499866,
    41.566000107156));
#233 = VECTOR('',#234,1.);
#234 = DIRECTION('',(1.,0.,-1.44E-15));
#235 = ORIENTED_EDGE('',*,*,#236,.T.);
#236 = EDGE_CURVE('',#229,#237,#239,.T.);
#237 = VERTEX_POINT('',#238);
#238 = CARTESIAN_POINT('',(45.277199999994,51.050339499866,
    41.566000107156));
#239 = LINE('',#240,#241);
#240 = CARTESIAN_POINT('',(45.277199999994,20.525169749933,
    41.566000107156));
#241 = VECTOR('',#242,1.);
#242 = DIRECTION('',(0.,1.,0.));
#243 = ORIENTED_EDGE('',*,*,#244,.F.);
#244 = EDGE_CURVE('',#245,#237,#247,.T.);
#245 = VERTEX_POINT('',#246);
#246 = CARTESIAN_POINT('',(-45.3228,51.050339499866,41.566000107156));
#247 = LINE('',#248,#249);
#248 = CARTESIAN_POINT('',(-22.6614,51.050339499866,41.566000107156));
#249 = VECTOR('',#250,1.);
#250 = DIRECTION('',(1.,0.,-1.44E-15));
#251 = ORIENTED_EDGE('',*,*,#252,.F.);
#252 = EDGE_CURVE('',#253,#245,#255,.T.);
#253 = VERTEX_POINT('',#254);
#254 = CARTESIAN_POINT('',(-45.3228,41.050339499864,41.566000107156));
#255 = LINE('',#256,#257);
#256 = CARTESIAN_POINT('',(-45.3228,20.525169749932,41.566000107156));
#257 = VECTOR('',#258,1.);
#258 = DIRECTION('',(0.,1.,0.));
#259 = ORIENTED_EDGE('',*,*,#260,.F.);
#260 = EDGE_CURVE('',#261,#253,#263,.T.);
#261 = VERTEX_POINT('',#262);
#262 = CARTESIAN_POINT('',(-30.3228,41.050339499864,41.566000107156));
#263 = LINE('',#264,#265);
#264 = CARTESIAN_POINT('',(-15.1614,41.050339499864,41.566000107156));
#265 = VECTOR('',#266,1.);
#266 = DIRECTION('',(-1.,0.,1.44E-15));
#267 = ORIENTED_EDGE('',*,*,#268,.F.);
#268 = EDGE_CURVE('',#269,#261,#271,.T.);
#269 = VERTEX_POINT('',#270);
#270 = CARTESIAN_POINT('',(-30.3228,5.033949986469E-02,41.566000107156)
  );
#271 = LINE('',#272,#273);
#272 = CARTESIAN_POINT('',(-30.3228,2.516974993234E-02,41.566000107156)
  );
#273 = VECTOR('',#274,1.);
#274 = DIRECTION('',(0.,1.,0.));
#275 = ORIENTED_EDGE('',*,*,#276,.T.);
#276 = EDGE_CURVE('',#269,#203,#277,.T.);
#277 = LINE('',#278,#279);
#278 = CARTESIAN_POINT('',(-15.1614,5.033949986469E-02,41.566000107156)
  );
#279 = VECTOR('',#280,1.);
#280 = DIRECTION('',(1.,0.,-1.44E-15));
#281 = PLANE('',#282);
#282 = AXIS2_PLACEMENT_3D('',#283,#284,#285);
#283 = CARTESIAN_POINT('',(6.36E-14,-5.97E-15,41.566000107156));
#284 = DIRECTION('',(1.44E-15,0.,1.));
#285 = DIRECTION('',(1.,0.,-1.44E-15));
#286 = ADVANCED_FACE('',(#287,#298,#309),#320,.T.);
#287 = FACE_BOUND('',#288,.T.);
#288 = EDGE_LOOP('',(#289,#290,#291,#292));
#289 = ORIENTED_EDGE('',*,*,#142,.F.);
#290 = ORIENTED_EDGE('',*,*,#31,.T.);
#291 = ORIENTED_EDGE('',*,*,#202,.T.);
#292 = ORIENTED_EDGE('',*,*,#293,.F.);
#293 = EDGE_CURVE('',#135,#203,#294,.T.);
#294 = LINE('',#295,#296);
#295 = CARTESIAN_POINT('',(-22.3228,5.033949986469E-02,0.));
#296 = VECTOR('',#297,1.);
#297 = DIRECTION('',(0.,0.,1.));
#298 = FACE_BOUND('',#299,.T.);
#299 = EDGE_LOOP('',(#300));
#300 = ORIENTED_EDGE('',*,*,#301,.T.);
#301 = EDGE_CURVE('',#302,#302,#304,.T.);
#302 = VERTEX_POINT('',#303);
#303 = CARTESIAN_POINT('',(-22.3228,1.35000089407,37.555));
#304 = CIRCLE('',#305,1.7);
#305 = AXIS2_PLACEMENT_3D('',#306,#307,#308);
#306 = CARTESIAN_POINT('',(-22.3228,3.05000089407,37.555));
#307 = DIRECTION('',(-1.,-2.176E-14,0.));
#308 = DIRECTION('',(2.176E-14,-1.,0.));
#309 = FACE_BOUND('',#310,.T.);
#310 = EDGE_LOOP('',(#311));
#311 = ORIENTED_EDGE('',*,*,#312,.T.);
#312 = EDGE_CURVE('',#313,#313,#315,.T.);
#313 = VERTEX_POINT('',#314);
#314 = CARTESIAN_POINT('',(-22.3228,1.35000089407,3.555));
#315 = CIRCLE('',#316,1.7);
#316 = AXIS2_PLACEMENT_3D('',#317,#318,#319);
#317 = CARTESIAN_POINT('',(-22.3228,3.05000089407,3.555));
#318 = DIRECTION('',(-1.,-2.176E-14,0.));
#319 = DIRECTION('',(2.176E-14,-1.,0.));
#320 = PLANE('',#321);
#321 = AXIS2_PLACEMENT_3D('',#322,#323,#324);
#322 = CARTESIAN_POINT('',(-22.3228,41.050339499865,0.));
#323 = DIRECTION('',(1.,0.,0.));
#324 = DIRECTION('',(0.,-1.,0.));
#325 = ADVANCED_FACE('',(#326),#337,.F.);
#326 = FACE_BOUND('',#327,.F.);
#327 = EDGE_LOOP('',(#328,#329,#330,#331));
#328 = ORIENTED_EDGE('',*,*,#70,.F.);
#329 = ORIENTED_EDGE('',*,*,#166,.T.);
#330 = ORIENTED_EDGE('',*,*,#212,.T.);
#331 = ORIENTED_EDGE('',*,*,#332,.F.);
#332 = EDGE_CURVE('',#71,#213,#333,.T.);
#333 = LINE('',#334,#335);
#334 = CARTESIAN_POINT('',(30.277199999994,5.033949986603E-02,0.));
#335 = VECTOR('',#336,1.);
#336 = DIRECTION('',(0.,0.,1.));
#337 = PLANE('',#338);
#338 = AXIS2_PLACEMENT_3D('',#339,#340,#341);
#339 = CARTESIAN_POINT('',(22.277199999994,5.033949986603E-02,0.));
#340 = DIRECTION('',(0.,1.,0.));
#341 = DIRECTION('',(1.,0.,0.));
#342 = ADVANCED_FACE('',(#343,#354,#365),#376,.F.);
#343 = FACE_BOUND('',#344,.F.);
#344 = EDGE_LOOP('',(#345,#346,#347,#348));
#345 = ORIENTED_EDGE('',*,*,#78,.F.);
#346 = ORIENTED_EDGE('',*,*,#332,.T.);
#347 = ORIENTED_EDGE('',*,*,#220,.T.);
#348 = ORIENTED_EDGE('',*,*,#349,.F.);
#349 = EDGE_CURVE('',#79,#221,#350,.T.);
#350 = LINE('',#351,#352);
#351 = CARTESIAN_POINT('',(30.277199999994,41.050339499866,0.));
#352 = VECTOR('',#353,1.);
#353 = DIRECTION('',(0.,0.,1.));
#354 = FACE_BOUND('',#355,.F.);
#355 = EDGE_LOOP('',(#356));
#356 = ORIENTED_EDGE('',*,*,#357,.F.);
#357 = EDGE_CURVE('',#358,#358,#360,.T.);
#358 = VERTEX_POINT('',#359);
#359 = CARTESIAN_POINT('',(30.277199999994,1.350000894071,37.555));
#360 = CIRCLE('',#361,1.7);
#361 = AXIS2_PLACEMENT_3D('',#362,#363,#364);
#362 = CARTESIAN_POINT('',(30.277199999994,3.050000894071,37.555));
#363 = DIRECTION('',(-1.,-2.176E-14,0.));
#364 = DIRECTION('',(2.176E-14,-1.,0.));
#365 = FACE_BOUND('',#366,.F.);
#366 = EDGE_LOOP('',(#367));
#367 = ORIENTED_EDGE('',*,*,#368,.F.);
#368 = EDGE_CURVE('',#369,#369,#371,.T.);
#369 = VERTEX_POINT('',#370);
#370 = CARTESIAN_POINT('',(30.277199999994,1.350000894071,3.555));
#371 = CIRCLE('',#372,1.7);
#372 = AXIS2_PLACEMENT_3D('',#373,#374,#375);
#373 = CARTESIAN_POINT('',(30.277199999994,3.050000894071,3.555));
#374 = DIRECTION('',(-1.,-2.176E-14,0.));
#375 = DIRECTION('',(2.176E-14,-1.,0.));
#376 = PLANE('',#377);
#377 = AXIS2_PLACEMENT_3D('',#378,#379,#380);
#378 = CARTESIAN_POINT('',(30.277199999994,5.033949986603E-02,0.));
#379 = DIRECTION('',(-1.,0.,0.));
#380 = DIRECTION('',(0.,1.,0.));
#381 = ADVANCED_FACE('',(#382,#393),#429,.F.);
#382 = FACE_BOUND('',#383,.F.);
#383 = EDGE_LOOP('',(#384,#385,#386,#387));
#384 = ORIENTED_EDGE('',*,*,#86,.F.);
#385 = ORIENTED_EDGE('',*,*,#349,.T.);
#386 = ORIENTED_EDGE('',*,*,#228,.T.);
#387 = ORIENTED_EDGE('',*,*,#388,.F.);
#388 = EDGE_CURVE('',#87,#229,#389,.T.);
#389 = LINE('',#390,#391);
#390 = CARTESIAN_POINT('',(45.277199999994,41.050339499866,0.));
#391 = VECTOR('',#392,1.);
#392 = DIRECTION('',(0.,0.,1.));
#393 = FACE_BOUND('',#394,.F.);
#394 = EDGE_LOOP('',(#395,#406,#414,#423));
#395 = ORIENTED_EDGE('',*,*,#396,.F.);
#396 = EDGE_CURVE('',#397,#399,#401,.T.);
#397 = VERTEX_POINT('',#398);
#398 = CARTESIAN_POINT('',(33.577199999994,41.050339499866,
    34.566000107158));
#399 = VERTEX_POINT('',#400);
#400 = CARTESIAN_POINT('',(41.977199999994,41.050339499866,
    34.566000107158));
#401 = CIRCLE('',#402,4.2);
#402 = AXIS2_PLACEMENT_3D('',#403,#404,#405);
#403 = CARTESIAN_POINT('',(37.777199999994,41.050339499866,
    34.566000107156));
#404 = DIRECTION('',(-2.2E-14,1.,0.));
#405 = DIRECTION('',(-1.,-2.2E-14,0.));
#406 = ORIENTED_EDGE('',*,*,#407,.T.);
#407 = EDGE_CURVE('',#397,#408,#410,.T.);
#408 = VERTEX_POINT('',#409);
#409 = CARTESIAN_POINT('',(33.577199999994,41.050339499866,
    6.999999999999));
#410 = LINE('',#411,#412);
#411 = CARTESIAN_POINT('',(33.577199999994,41.050339499866,
    34.566000107158));
#412 = VECTOR('',#413,1.);
#413 = DIRECTION('',(-7.7E-16,-1.694E-29,-1.));
#414 = ORIENTED_EDGE('',*,*,#415,.F.);
#415 = EDGE_CURVE('',#416,#408,#418,.T.);
#416 = VERTEX_POINT('',#417);
#417 = CARTESIAN_POINT('',(41.977199999994,41.050339499866,
    6.999999999999));
#418 = CIRCLE('',#419,4.2);
#419 = AXIS2_PLACEMENT_3D('',#420,#421,#422);
#420 = CARTESIAN_POINT('',(37.777199999994,41.050339499866,7.));
#421 = DIRECTION('',(-2.2E-14,1.,0.));
#422 = DIRECTION('',(-1.,-2.2E-14,0.));
#423 = ORIENTED_EDGE('',*,*,#424,.F.);
#424 = EDGE_CURVE('',#399,#416,#425,.T.);
#425 = LINE('',#426,#427);
#426 = CARTESIAN_POINT('',(41.977199999994,41.050339499866,
    34.566000107158));
#427 = VECTOR('',#428,1.);
#428 = DIRECTION('',(7.7E-16,1.694E-29,-1.));
#429 = PLANE('',#430);
#430 = AXIS2_PLACEMENT_3D('',#431,#432,#433);
#431 = CARTESIAN_POINT('',(30.277199999994,41.050339499866,0.));
#432 = DIRECTION('',(0.,1.,0.));
#433 = DIRECTION('',(1.,0.,0.));
#434 = ADVANCED_FACE('',(#435),#446,.F.);
#435 = FACE_BOUND('',#436,.F.);
#436 = EDGE_LOOP('',(#437,#438,#439,#440));
#437 = ORIENTED_EDGE('',*,*,#94,.F.);
#438 = ORIENTED_EDGE('',*,*,#388,.T.);
#439 = ORIENTED_EDGE('',*,*,#236,.T.);
#440 = ORIENTED_EDGE('',*,*,#441,.F.);
#441 = EDGE_CURVE('',#95,#237,#442,.T.);
#442 = LINE('',#443,#444);
#443 = CARTESIAN_POINT('',(45.277199999994,51.050339499866,0.));
#444 = VECTOR('',#445,1.);
#445 = DIRECTION('',(0.,0.,1.));
#446 = PLANE('',#447);
#447 = AXIS2_PLACEMENT_3D('',#448,#449,#450);
#448 = CARTESIAN_POINT('',(45.277199999994,41.050339499866,0.));
#449 = DIRECTION('',(-1.,0.,0.));
#450 = DIRECTION('',(0.,1.,0.));
#451 = ADVANCED_FACE('',(#452,#463,#499),#535,.T.);
#452 = FACE_BOUND('',#453,.T.);
#453 = EDGE_LOOP('',(#454,#455,#461,#462));
#454 = ORIENTED_EDGE('',*,*,#102,.F.);
#455 = ORIENTED_EDGE('',*,*,#456,.T.);
#456 = EDGE_CURVE('',#103,#245,#457,.T.);
#457 = LINE('',#458,#459);
#458 = CARTESIAN_POINT('',(-45.3228,51.050339499866,0.));
#459 = VECTOR('',#460,1.);
#460 = DIRECTION('',(0.,0.,1.));
#461 = ORIENTED_EDGE('',*,*,#244,.T.);
#462 = ORIENTED_EDGE('',*,*,#441,.F.);
#463 = FACE_BOUND('',#464,.T.);
#464 = EDGE_LOOP('',(#465,#475,#484,#492));
#465 = ORIENTED_EDGE('',*,*,#466,.T.);
#466 = EDGE_CURVE('',#467,#469,#471,.T.);
#467 = VERTEX_POINT('',#468);
#468 = CARTESIAN_POINT('',(-35.6728,51.050339499866,7.));
#469 = VERTEX_POINT('',#470);
#470 = CARTESIAN_POINT('',(-35.6728,51.050339499866,34.566000107156));
#471 = LINE('',#472,#473);
#472 = CARTESIAN_POINT('',(-35.6728,51.050339499866,17.283000053578));
#473 = VECTOR('',#474,1.);
#474 = DIRECTION('',(0.,0.,1.));
#475 = ORIENTED_EDGE('',*,*,#476,.T.);
#476 = EDGE_CURVE('',#469,#477,#479,.T.);
#477 = VERTEX_POINT('',#478);
#478 = CARTESIAN_POINT('',(-39.9728,51.050339499866,34.566000107156));
#479 = CIRCLE('',#480,2.15);
#480 = AXIS2_PLACEMENT_3D('',#481,#482,#483);
#481 = CARTESIAN_POINT('',(-37.8228,51.050339499866,34.566000107156));
#482 = DIRECTION('',(2.199E-14,-1.,2.2E-16));
#483 = DIRECTION('',(-1.,-2.199E-14,-2.876075546515E-46));
#484 = ORIENTED_EDGE('',*,*,#485,.F.);
#485 = EDGE_CURVE('',#486,#477,#488,.T.);
#486 = VERTEX_POINT('',#487);
#487 = CARTESIAN_POINT('',(-39.9728,51.050339499866,7.));
#488 = LINE('',#489,#490);
#489 = CARTESIAN_POINT('',(-39.9728,51.050339499866,17.283000053578));
#490 = VECTOR('',#491,1.);
#491 = DIRECTION('',(0.,0.,1.));
#492 = ORIENTED_EDGE('',*,*,#493,.T.);
#493 = EDGE_CURVE('',#486,#467,#494,.T.);
#494 = CIRCLE('',#495,2.15);
#495 = AXIS2_PLACEMENT_3D('',#496,#497,#498);
#496 = CARTESIAN_POINT('',(-37.8228,51.050339499866,7.));
#497 = DIRECTION('',(2.199E-14,-1.,2.2E-16));
#498 = DIRECTION('',(-1.,-2.199E-14,-2.876075546515E-46));
#499 = FACE_BOUND('',#500,.T.);
#500 = EDGE_LOOP('',(#501,#511,#520,#528));
#501 = ORIENTED_EDGE('',*,*,#502,.T.);
#502 = EDGE_CURVE('',#503,#505,#507,.T.);
#503 = VERTEX_POINT('',#504);
#504 = CARTESIAN_POINT('',(35.627199999994,51.050339499866,
    34.566000107156));
#505 = VERTEX_POINT('',#506);
#506 = CARTESIAN_POINT('',(35.627199999994,51.050339499866,7.));
#507 = LINE('',#508,#509);
#508 = CARTESIAN_POINT('',(35.627199999994,51.050339499866,3.5));
#509 = VECTOR('',#510,1.);
#510 = DIRECTION('',(0.,0.,-1.));
#511 = ORIENTED_EDGE('',*,*,#512,.T.);
#512 = EDGE_CURVE('',#505,#513,#515,.T.);
#513 = VERTEX_POINT('',#514);
#514 = CARTESIAN_POINT('',(39.927199999994,51.050339499866,7.));
#515 = CIRCLE('',#516,2.15);
#516 = AXIS2_PLACEMENT_3D('',#517,#518,#519);
#517 = CARTESIAN_POINT('',(37.777199999994,51.050339499866,7.));
#518 = DIRECTION('',(2.199E-14,-1.,2.2E-16));
#519 = DIRECTION('',(-1.,-2.199E-14,-2.876075546515E-46));
#520 = ORIENTED_EDGE('',*,*,#521,.F.);
#521 = EDGE_CURVE('',#522,#513,#524,.T.);
#522 = VERTEX_POINT('',#523);
#523 = CARTESIAN_POINT('',(39.927199999994,51.050339499866,
    34.566000107156));
#524 = LINE('',#525,#526);
#525 = CARTESIAN_POINT('',(39.927199999994,51.050339499866,3.5));
#526 = VECTOR('',#527,1.);
#527 = DIRECTION('',(0.,0.,-1.));
#528 = ORIENTED_EDGE('',*,*,#529,.T.);
#529 = EDGE_CURVE('',#522,#503,#530,.T.);
#530 = CIRCLE('',#531,2.15);
#531 = AXIS2_PLACEMENT_3D('',#532,#533,#534);
#532 = CARTESIAN_POINT('',(37.777199999994,51.050339499866,
    34.566000107156));
#533 = DIRECTION('',(2.199E-14,-1.,2.2E-16));
#534 = DIRECTION('',(-1.,-2.199E-14,-2.876075546515E-46));
#535 = PLANE('',#536);
#536 = AXIS2_PLACEMENT_3D('',#537,#538,#539);
#537 = CARTESIAN_POINT('',(-45.3228,51.050339499866,0.));
#538 = DIRECTION('',(0.,1.,0.));
#539 = DIRECTION('',(1.,0.,0.));
#540 = ADVANCED_FACE('',(#541),#552,.T.);
#541 = FACE_BOUND('',#542,.T.);
#542 = EDGE_LOOP('',(#543,#544,#550,#551));
#543 = ORIENTED_EDGE('',*,*,#110,.F.);
#544 = ORIENTED_EDGE('',*,*,#545,.T.);
#545 = EDGE_CURVE('',#111,#253,#546,.T.);
#546 = LINE('',#547,#548);
#547 = CARTESIAN_POINT('',(-45.3228,41.050339499864,0.));
#548 = VECTOR('',#549,1.);
#549 = DIRECTION('',(0.,0.,1.));
#550 = ORIENTED_EDGE('',*,*,#252,.T.);
#551 = ORIENTED_EDGE('',*,*,#456,.F.);
#552 = PLANE('',#553);
#553 = AXIS2_PLACEMENT_3D('',#554,#555,#556);
#554 = CARTESIAN_POINT('',(-45.3228,41.050339499864,0.));
#555 = DIRECTION('',(-1.,0.,0.));
#556 = DIRECTION('',(0.,1.,0.));
#557 = ADVANCED_FACE('',(#558,#569),#605,.T.);
#558 = FACE_BOUND('',#559,.T.);
#559 = EDGE_LOOP('',(#560,#561,#567,#568));
#560 = ORIENTED_EDGE('',*,*,#118,.F.);
#561 = ORIENTED_EDGE('',*,*,#562,.T.);
#562 = EDGE_CURVE('',#119,#261,#563,.T.);
#563 = LINE('',#564,#565);
#564 = CARTESIAN_POINT('',(-30.3228,41.050339499864,0.));
#565 = VECTOR('',#566,1.);
#566 = DIRECTION('',(0.,0.,1.));
#567 = ORIENTED_EDGE('',*,*,#260,.T.);
#568 = ORIENTED_EDGE('',*,*,#545,.F.);
#569 = FACE_BOUND('',#570,.T.);
#570 = EDGE_LOOP('',(#571,#581,#590,#598));
#571 = ORIENTED_EDGE('',*,*,#572,.F.);
#572 = EDGE_CURVE('',#573,#575,#577,.T.);
#573 = VERTEX_POINT('',#574);
#574 = CARTESIAN_POINT('',(-42.0228,41.050339499864,34.566000107158));
#575 = VERTEX_POINT('',#576);
#576 = CARTESIAN_POINT('',(-42.0228,41.050339499864,6.999999999999));
#577 = LINE('',#578,#579);
#578 = CARTESIAN_POINT('',(-42.02280000001,41.050339499864,
    34.566000107158));
#579 = VECTOR('',#580,1.);
#580 = DIRECTION('',(1.7012E-13,3.74264E-27,-1.));
#581 = ORIENTED_EDGE('',*,*,#582,.T.);
#582 = EDGE_CURVE('',#573,#583,#585,.T.);
#583 = VERTEX_POINT('',#584);
#584 = CARTESIAN_POINT('',(-33.6228,41.050339499865,34.566000107158));
#585 = CIRCLE('',#586,4.2);
#586 = AXIS2_PLACEMENT_3D('',#587,#588,#589);
#587 = CARTESIAN_POINT('',(-37.8228,41.050339499865,34.566000107156));
#588 = DIRECTION('',(-2.2E-14,1.,0.));
#589 = DIRECTION('',(-1.,-2.2E-14,0.));
#590 = ORIENTED_EDGE('',*,*,#591,.T.);
#591 = EDGE_CURVE('',#583,#592,#594,.T.);
#592 = VERTEX_POINT('',#593);
#593 = CARTESIAN_POINT('',(-33.6228,41.050339499865,6.999999999999));
#594 = LINE('',#595,#596);
#595 = CARTESIAN_POINT('',(-33.6228,41.050339499865,34.566000107158));
#596 = VECTOR('',#597,1.);
#597 = DIRECTION('',(-1.7012E-13,-3.74264E-27,-1.));
#598 = ORIENTED_EDGE('',*,*,#599,.T.);
#599 = EDGE_CURVE('',#592,#575,#600,.T.);
#600 = CIRCLE('',#601,4.2);
#601 = AXIS2_PLACEMENT_3D('',#602,#603,#604);
#602 = CARTESIAN_POINT('',(-37.8228,41.050339499865,7.));
#603 = DIRECTION('',(-2.2E-14,1.,0.));
#604 = DIRECTION('',(-1.,-2.2E-14,0.));
#605 = PLANE('',#606);
#606 = AXIS2_PLACEMENT_3D('',#607,#608,#609);
#607 = CARTESIAN_POINT('',(-30.3228,41.050339499864,0.));
#608 = DIRECTION('',(0.,-1.,0.));
#609 = DIRECTION('',(-1.,0.,0.));
#610 = ADVANCED_FACE('',(#611,#622,#633),#644,.T.);
#611 = FACE_BOUND('',#612,.T.);
#612 = EDGE_LOOP('',(#613,#614,#620,#621));
#613 = ORIENTED_EDGE('',*,*,#126,.F.);
#614 = ORIENTED_EDGE('',*,*,#615,.T.);
#615 = EDGE_CURVE('',#127,#269,#616,.T.);
#616 = LINE('',#617,#618);
#617 = CARTESIAN_POINT('',(-30.3228,5.033949986469E-02,0.));
#618 = VECTOR('',#619,1.);
#619 = DIRECTION('',(0.,0.,1.));
#620 = ORIENTED_EDGE('',*,*,#268,.T.);
#621 = ORIENTED_EDGE('',*,*,#562,.F.);
#622 = FACE_BOUND('',#623,.T.);
#623 = EDGE_LOOP('',(#624));
#624 = ORIENTED_EDGE('',*,*,#625,.F.);
#625 = EDGE_CURVE('',#626,#626,#628,.T.);
#626 = VERTEX_POINT('',#627);
#627 = CARTESIAN_POINT('',(-30.3228,1.35000089407,37.555));
#628 = CIRCLE('',#629,1.7);
#629 = AXIS2_PLACEMENT_3D('',#630,#631,#632);
#630 = CARTESIAN_POINT('',(-30.3228,3.05000089407,37.555));
#631 = DIRECTION('',(-1.,-2.176E-14,0.));
#632 = DIRECTION('',(2.176E-14,-1.,0.));
#633 = FACE_BOUND('',#634,.T.);
#634 = EDGE_LOOP('',(#635));
#635 = ORIENTED_EDGE('',*,*,#636,.F.);
#636 = EDGE_CURVE('',#637,#637,#639,.T.);
#637 = VERTEX_POINT('',#638);
#638 = CARTESIAN_POINT('',(-30.3228,1.35000089407,3.555));
#639 = CIRCLE('',#640,1.7);
#640 = AXIS2_PLACEMENT_3D('',#641,#642,#643);
#641 = CARTESIAN_POINT('',(-30.3228,3.05000089407,3.555));
#642 = DIRECTION('',(-1.,-2.176E-14,0.));
#643 = DIRECTION('',(2.176E-14,-1.,0.));
#644 = PLANE('',#645);
#645 = AXIS2_PLACEMENT_3D('',#646,#647,#648);
#646 = CARTESIAN_POINT('',(-30.3228,5.033949986469E-02,0.));
#647 = DIRECTION('',(-1.,0.,0.));
#648 = DIRECTION('',(0.,1.,0.));
#649 = ADVANCED_FACE('',(#650),#656,.F.);
#650 = FACE_BOUND('',#651,.F.);
#651 = EDGE_LOOP('',(#652,#653,#654,#655));
#652 = ORIENTED_EDGE('',*,*,#134,.F.);
#653 = ORIENTED_EDGE('',*,*,#615,.T.);
#654 = ORIENTED_EDGE('',*,*,#276,.T.);
#655 = ORIENTED_EDGE('',*,*,#293,.F.);
#656 = PLANE('',#657);
#657 = AXIS2_PLACEMENT_3D('',#658,#659,#660);
#658 = CARTESIAN_POINT('',(-30.3228,5.033949986469E-02,0.));
#659 = DIRECTION('',(0.,1.,0.));
#660 = DIRECTION('',(1.,0.,0.));
#661 = ADVANCED_FACE('',(#662),#673,.F.);
#662 = FACE_BOUND('',#663,.F.);
#663 = EDGE_LOOP('',(#664,#665,#671,#672));
#664 = ORIENTED_EDGE('',*,*,#174,.F.);
#665 = ORIENTED_EDGE('',*,*,#666,.T.);
#666 = EDGE_CURVE('',#175,#358,#667,.T.);
#667 = LINE('',#668,#669);
#668 = CARTESIAN_POINT('',(-135.4116496777,1.350000894067,37.555));
#669 = VECTOR('',#670,1.);
#670 = DIRECTION('',(1.,2.176E-14,0.));
#671 = ORIENTED_EDGE('',*,*,#357,.T.);
#672 = ORIENTED_EDGE('',*,*,#666,.F.);
#673 = CYLINDRICAL_SURFACE('',#674,1.7);
#674 = AXIS2_PLACEMENT_3D('',#675,#676,#677);
#675 = CARTESIAN_POINT('',(-135.4116496777,3.050000894067,37.555));
#676 = DIRECTION('',(-1.,-2.176E-14,0.));
#677 = DIRECTION('',(2.176E-14,-1.,0.));
#678 = ADVANCED_FACE('',(#679),#690,.F.);
#679 = FACE_BOUND('',#680,.F.);
#680 = EDGE_LOOP('',(#681,#682,#688,#689));
#681 = ORIENTED_EDGE('',*,*,#185,.F.);
#682 = ORIENTED_EDGE('',*,*,#683,.T.);
#683 = EDGE_CURVE('',#186,#369,#684,.T.);
#684 = LINE('',#685,#686);
#685 = CARTESIAN_POINT('',(-135.4116496777,1.350000894067,3.555));
#686 = VECTOR('',#687,1.);
#687 = DIRECTION('',(1.,2.176E-14,0.));
#688 = ORIENTED_EDGE('',*,*,#368,.T.);
#689 = ORIENTED_EDGE('',*,*,#683,.F.);
#690 = CYLINDRICAL_SURFACE('',#691,1.7);
#691 = AXIS2_PLACEMENT_3D('',#692,#693,#694);
#692 = CARTESIAN_POINT('',(-135.4116496777,3.050000894067,3.555));
#693 = DIRECTION('',(-1.,-2.176E-14,0.));
#694 = DIRECTION('',(2.176E-14,-1.,0.));
#695 = ADVANCED_FACE('',(#696),#707,.F.);
#696 = FACE_BOUND('',#697,.F.);
#697 = EDGE_LOOP('',(#698,#699,#705,#706));
#698 = ORIENTED_EDGE('',*,*,#625,.F.);
#699 = ORIENTED_EDGE('',*,*,#700,.T.);
#700 = EDGE_CURVE('',#626,#302,#701,.T.);
#701 = LINE('',#702,#703);
#702 = CARTESIAN_POINT('',(-135.4116496777,1.350000894067,37.555));
#703 = VECTOR('',#704,1.);
#704 = DIRECTION('',(1.,2.176E-14,0.));
#705 = ORIENTED_EDGE('',*,*,#301,.T.);
#706 = ORIENTED_EDGE('',*,*,#700,.F.);
#707 = CYLINDRICAL_SURFACE('',#708,1.7);
#708 = AXIS2_PLACEMENT_3D('',#709,#710,#711);
#709 = CARTESIAN_POINT('',(-135.4116496777,3.050000894067,37.555));
#710 = DIRECTION('',(-1.,-2.176E-14,0.));
#711 = DIRECTION('',(2.176E-14,-1.,0.));
#712 = ADVANCED_FACE('',(#713),#724,.F.);
#713 = FACE_BOUND('',#714,.F.);
#714 = EDGE_LOOP('',(#715,#716,#722,#723));
#715 = ORIENTED_EDGE('',*,*,#636,.F.);
#716 = ORIENTED_EDGE('',*,*,#717,.T.);
#717 = EDGE_CURVE('',#637,#313,#718,.T.);
#718 = LINE('',#719,#720);
#719 = CARTESIAN_POINT('',(-135.4116496777,1.350000894067,3.555));
#720 = VECTOR('',#721,1.);
#721 = DIRECTION('',(1.,2.176E-14,0.));
#722 = ORIENTED_EDGE('',*,*,#312,.T.);
#723 = ORIENTED_EDGE('',*,*,#717,.F.);
#724 = CYLINDRICAL_SURFACE('',#725,1.7);
#725 = AXIS2_PLACEMENT_3D('',#726,#727,#728);
#726 = CARTESIAN_POINT('',(-135.4116496777,3.050000894067,3.555));
#727 = DIRECTION('',(-1.,-2.176E-14,0.));
#728 = DIRECTION('',(2.176E-14,-1.,0.));
#729 = ADVANCED_FACE('',(#730),#756,.F.);
#730 = FACE_BOUND('',#731,.T.);
#731 = EDGE_LOOP('',(#732,#740,#749,#755));
#732 = ORIENTED_EDGE('',*,*,#733,.T.);
#733 = EDGE_CURVE('',#397,#734,#736,.T.);
#734 = VERTEX_POINT('',#735);
#735 = CARTESIAN_POINT('',(33.577199999994,46.050339499866,
    34.566000107158));
#736 = LINE('',#737,#738);
#737 = CARTESIAN_POINT('',(33.577199999994,41.050339499866,
    34.566000107158));
#738 = VECTOR('',#739,1.);
#739 = DIRECTION('',(-2.199E-14,1.,-2.2E-16));
#740 = ORIENTED_EDGE('',*,*,#741,.T.);
#741 = EDGE_CURVE('',#734,#742,#744,.T.);
#742 = VERTEX_POINT('',#743);
#743 = CARTESIAN_POINT('',(41.977199999994,46.050339499866,
    34.566000107158));
#744 = CIRCLE('',#745,4.2);
#745 = AXIS2_PLACEMENT_3D('',#746,#747,#748);
#746 = CARTESIAN_POINT('',(37.777199999994,46.050339499866,
    34.566000107156));
#747 = DIRECTION('',(-2.2E-14,1.,0.));
#748 = DIRECTION('',(-1.,-2.2E-14,0.));
#749 = ORIENTED_EDGE('',*,*,#750,.F.);
#750 = EDGE_CURVE('',#399,#742,#751,.T.);
#751 = LINE('',#752,#753);
#752 = CARTESIAN_POINT('',(41.977199999994,41.050339499866,
    34.566000107158));
#753 = VECTOR('',#754,1.);
#754 = DIRECTION('',(-2.199E-14,1.,-2.2E-16));
#755 = ORIENTED_EDGE('',*,*,#396,.F.);
#756 = CYLINDRICAL_SURFACE('',#757,4.2);
#757 = AXIS2_PLACEMENT_3D('',#758,#759,#760);
#758 = CARTESIAN_POINT('',(37.777199999994,41.050339499866,
    34.566000107156));
#759 = DIRECTION('',(2.199E-14,-1.,2.2E-16));
#760 = DIRECTION('',(-1.,-2.199E-14,-2.876075546515E-46));
#761 = ADVANCED_FACE('',(#762),#780,.T.);
#762 = FACE_BOUND('',#763,.T.);
#763 = EDGE_LOOP('',(#764,#765,#773,#779));
#764 = ORIENTED_EDGE('',*,*,#750,.T.);
#765 = ORIENTED_EDGE('',*,*,#766,.T.);
#766 = EDGE_CURVE('',#742,#767,#769,.T.);
#767 = VERTEX_POINT('',#768);
#768 = CARTESIAN_POINT('',(41.977199999994,46.050339499866,
    6.999999999999));
#769 = LINE('',#770,#771);
#770 = CARTESIAN_POINT('',(41.977199999994,46.050339499866,
    34.566000107158));
#771 = VECTOR('',#772,1.);
#772 = DIRECTION('',(7.7E-16,1.694E-29,-1.));
#773 = ORIENTED_EDGE('',*,*,#774,.F.);
#774 = EDGE_CURVE('',#416,#767,#775,.T.);
#775 = LINE('',#776,#777);
#776 = CARTESIAN_POINT('',(41.977199999994,41.050339499866,
    6.999999999999));
#777 = VECTOR('',#778,1.);
#778 = DIRECTION('',(-2.199E-14,1.,-2.2E-16));
#779 = ORIENTED_EDGE('',*,*,#424,.F.);
#780 = PLANE('',#781);
#781 = AXIS2_PLACEMENT_3D('',#782,#783,#784);
#782 = CARTESIAN_POINT('',(41.977199999994,41.050339499866,
    34.566000107158));
#783 = DIRECTION('',(-1.,-2.199E-14,-7.7E-16));
#784 = DIRECTION('',(7.7E-16,-2.2E-16,-1.));
#785 = ADVANCED_FACE('',(#786),#805,.F.);
#786 = FACE_BOUND('',#787,.T.);
#787 = EDGE_LOOP('',(#788,#789,#798,#804));
#788 = ORIENTED_EDGE('',*,*,#774,.T.);
#789 = ORIENTED_EDGE('',*,*,#790,.T.);
#790 = EDGE_CURVE('',#767,#791,#793,.T.);
#791 = VERTEX_POINT('',#792);
#792 = CARTESIAN_POINT('',(33.577199999994,46.050339499866,
    6.999999999999));
#793 = CIRCLE('',#794,4.2);
#794 = AXIS2_PLACEMENT_3D('',#795,#796,#797);
#795 = CARTESIAN_POINT('',(37.777199999994,46.050339499866,7.));
#796 = DIRECTION('',(-2.2E-14,1.,0.));
#797 = DIRECTION('',(-1.,-2.2E-14,0.));
#798 = ORIENTED_EDGE('',*,*,#799,.F.);
#799 = EDGE_CURVE('',#408,#791,#800,.T.);
#800 = LINE('',#801,#802);
#801 = CARTESIAN_POINT('',(33.577199999994,41.050339499866,
    6.999999999999));
#802 = VECTOR('',#803,1.);
#803 = DIRECTION('',(-2.199E-14,1.,-2.2E-16));
#804 = ORIENTED_EDGE('',*,*,#415,.F.);
#805 = CYLINDRICAL_SURFACE('',#806,4.2);
#806 = AXIS2_PLACEMENT_3D('',#807,#808,#809);
#807 = CARTESIAN_POINT('',(37.777199999994,41.050339499866,7.));
#808 = DIRECTION('',(2.199E-14,-1.,2.2E-16));
#809 = DIRECTION('',(-1.,-2.199E-14,-2.876075546515E-46));
#810 = ADVANCED_FACE('',(#811),#822,.F.);
#811 = FACE_BOUND('',#812,.F.);
#812 = EDGE_LOOP('',(#813,#814,#820,#821));
#813 = ORIENTED_EDGE('',*,*,#733,.T.);
#814 = ORIENTED_EDGE('',*,*,#815,.T.);
#815 = EDGE_CURVE('',#734,#791,#816,.T.);
#816 = LINE('',#817,#818);
#817 = CARTESIAN_POINT('',(33.577199999994,46.050339499866,
    34.566000107158));
#818 = VECTOR('',#819,1.);
#819 = DIRECTION('',(-7.7E-16,-1.694E-29,-1.));
#820 = ORIENTED_EDGE('',*,*,#799,.F.);
#821 = ORIENTED_EDGE('',*,*,#407,.F.);
#822 = PLANE('',#823);
#823 = AXIS2_PLACEMENT_3D('',#824,#825,#826);
#824 = CARTESIAN_POINT('',(33.577199999994,41.050339499866,
    34.566000107158));
#825 = DIRECTION('',(-1.,-2.199E-14,7.7E-16));
#826 = DIRECTION('',(-7.7E-16,-2.2E-16,-1.));
#827 = ADVANCED_FACE('',(#828),#853,.T.);
#828 = FACE_BOUND('',#829,.T.);
#829 = EDGE_LOOP('',(#830,#840,#846,#847));
#830 = ORIENTED_EDGE('',*,*,#831,.F.);
#831 = EDGE_CURVE('',#832,#834,#836,.T.);
#832 = VERTEX_POINT('',#833);
#833 = CARTESIAN_POINT('',(-35.6728,46.050339499865,34.566000107156));
#834 = VERTEX_POINT('',#835);
#835 = CARTESIAN_POINT('',(-35.6728,46.050339499865,7.));
#836 = LINE('',#837,#838);
#837 = CARTESIAN_POINT('',(-35.6728,46.050339499865,27.674500080367));
#838 = VECTOR('',#839,1.);
#839 = DIRECTION('',(0.,-2.4E-16,-1.));
#840 = ORIENTED_EDGE('',*,*,#841,.T.);
#841 = EDGE_CURVE('',#832,#469,#842,.T.);
#842 = LINE('',#843,#844);
#843 = CARTESIAN_POINT('',(-35.6728,41.050339499865,34.566000107156));
#844 = VECTOR('',#845,1.);
#845 = DIRECTION('',(-2.199E-14,1.,-2.2E-16));
#846 = ORIENTED_EDGE('',*,*,#466,.F.);
#847 = ORIENTED_EDGE('',*,*,#848,.F.);
#848 = EDGE_CURVE('',#834,#467,#849,.T.);
#849 = LINE('',#850,#851);
#850 = CARTESIAN_POINT('',(-35.6728,41.050339499865,7.));
#851 = VECTOR('',#852,1.);
#852 = DIRECTION('',(-2.199E-14,1.,-2.2E-16));
#853 = PLANE('',#854);
#854 = AXIS2_PLACEMENT_3D('',#855,#856,#857);
#855 = CARTESIAN_POINT('',(-35.6728,41.050339499865,34.566000107156));
#856 = DIRECTION('',(-1.,-2.199E-14,0.));
#857 = DIRECTION('',(4.8378E-30,-2.2E-16,-1.));
#858 = ADVANCED_FACE('',(#859),#878,.F.);
#859 = FACE_BOUND('',#860,.T.);
#860 = EDGE_LOOP('',(#861,#870,#871,#872));
#861 = ORIENTED_EDGE('',*,*,#862,.T.);
#862 = EDGE_CURVE('',#863,#834,#865,.T.);
#863 = VERTEX_POINT('',#864);
#864 = CARTESIAN_POINT('',(-39.9728,46.050339499865,7.));
#865 = CIRCLE('',#866,2.15);
#866 = AXIS2_PLACEMENT_3D('',#867,#868,#869);
#867 = CARTESIAN_POINT('',(-37.8228,46.050339499865,7.));
#868 = DIRECTION('',(2.199E-14,-1.,2.2E-16));
#869 = DIRECTION('',(-1.,-2.199E-14,-2.876075546515E-46));
#870 = ORIENTED_EDGE('',*,*,#848,.T.);
#871 = ORIENTED_EDGE('',*,*,#493,.F.);
#872 = ORIENTED_EDGE('',*,*,#873,.F.);
#873 = EDGE_CURVE('',#863,#486,#874,.T.);
#874 = LINE('',#875,#876);
#875 = CARTESIAN_POINT('',(-39.9728,41.050339499865,7.));
#876 = VECTOR('',#877,1.);
#877 = DIRECTION('',(-2.199E-14,1.,-2.2E-16));
#878 = CYLINDRICAL_SURFACE('',#879,2.15);
#879 = AXIS2_PLACEMENT_3D('',#880,#881,#882);
#880 = CARTESIAN_POINT('',(-37.8228,41.050339499865,7.));
#881 = DIRECTION('',(2.199E-14,-1.,2.2E-16));
#882 = DIRECTION('',(-1.,-2.199E-14,-2.876075546515E-46));
#883 = ADVANCED_FACE('',(#884),#902,.F.);
#884 = FACE_BOUND('',#885,.F.);
#885 = EDGE_LOOP('',(#886,#894,#900,#901));
#886 = ORIENTED_EDGE('',*,*,#887,.F.);
#887 = EDGE_CURVE('',#888,#863,#890,.T.);
#888 = VERTEX_POINT('',#889);
#889 = CARTESIAN_POINT('',(-39.9728,46.050339499865,34.566000107156));
#890 = LINE('',#891,#892);
#891 = CARTESIAN_POINT('',(-39.9728,46.050339499865,27.674500080367));
#892 = VECTOR('',#893,1.);
#893 = DIRECTION('',(0.,-2.4E-16,-1.));
#894 = ORIENTED_EDGE('',*,*,#895,.T.);
#895 = EDGE_CURVE('',#888,#477,#896,.T.);
#896 = LINE('',#897,#898);
#897 = CARTESIAN_POINT('',(-39.9728,41.050339499865,34.566000107156));
#898 = VECTOR('',#899,1.);
#899 = DIRECTION('',(-2.199E-14,1.,-2.2E-16));
#900 = ORIENTED_EDGE('',*,*,#485,.F.);
#901 = ORIENTED_EDGE('',*,*,#873,.F.);
#902 = PLANE('',#903);
#903 = AXIS2_PLACEMENT_3D('',#904,#905,#906);
#904 = CARTESIAN_POINT('',(-39.9728,41.050339499865,34.566000107156));
#905 = DIRECTION('',(-1.,-2.199E-14,0.));
#906 = DIRECTION('',(4.8378E-30,-2.2E-16,-1.));
#907 = ADVANCED_FACE('',(#908),#920,.F.);
#908 = FACE_BOUND('',#909,.T.);
#909 = EDGE_LOOP('',(#910,#917,#918,#919));
#910 = ORIENTED_EDGE('',*,*,#911,.T.);
#911 = EDGE_CURVE('',#832,#888,#912,.T.);
#912 = CIRCLE('',#913,2.15);
#913 = AXIS2_PLACEMENT_3D('',#914,#915,#916);
#914 = CARTESIAN_POINT('',(-37.8228,46.050339499865,34.566000107156));
#915 = DIRECTION('',(2.199E-14,-1.,2.2E-16));
#916 = DIRECTION('',(-1.,-2.199E-14,-2.876075546515E-46));
#917 = ORIENTED_EDGE('',*,*,#895,.T.);
#918 = ORIENTED_EDGE('',*,*,#476,.F.);
#919 = ORIENTED_EDGE('',*,*,#841,.F.);
#920 = CYLINDRICAL_SURFACE('',#921,2.15);
#921 = AXIS2_PLACEMENT_3D('',#922,#923,#924);
#922 = CARTESIAN_POINT('',(-37.8228,41.050339499865,34.566000107156));
#923 = DIRECTION('',(2.199E-14,-1.,2.2E-16));
#924 = DIRECTION('',(-1.,-2.199E-14,-2.876075546515E-46));
#925 = ADVANCED_FACE('',(#926),#951,.T.);
#926 = FACE_BOUND('',#927,.T.);
#927 = EDGE_LOOP('',(#928,#938,#944,#945));
#928 = ORIENTED_EDGE('',*,*,#929,.F.);
#929 = EDGE_CURVE('',#930,#932,#934,.T.);
#930 = VERTEX_POINT('',#931);
#931 = CARTESIAN_POINT('',(35.627199999994,46.050339499866,7.));
#932 = VERTEX_POINT('',#933);
#933 = CARTESIAN_POINT('',(35.627199999994,46.050339499866,
    34.566000107156));
#934 = LINE('',#935,#936);
#935 = CARTESIAN_POINT('',(35.627199999994,46.050339499866,
    13.891500026789));
#936 = VECTOR('',#937,1.);
#937 = DIRECTION('',(0.,2.4E-16,1.));
#938 = ORIENTED_EDGE('',*,*,#939,.T.);
#939 = EDGE_CURVE('',#930,#505,#940,.T.);
#940 = LINE('',#941,#942);
#941 = CARTESIAN_POINT('',(35.627199999994,41.050339499866,7.));
#942 = VECTOR('',#943,1.);
#943 = DIRECTION('',(-2.199E-14,1.,-2.2E-16));
#944 = ORIENTED_EDGE('',*,*,#502,.F.);
#945 = ORIENTED_EDGE('',*,*,#946,.F.);
#946 = EDGE_CURVE('',#932,#503,#947,.T.);
#947 = LINE('',#948,#949);
#948 = CARTESIAN_POINT('',(35.627199999994,41.050339499866,
    34.566000107156));
#949 = VECTOR('',#950,1.);
#950 = DIRECTION('',(-2.199E-14,1.,-2.2E-16));
#951 = PLANE('',#952);
#952 = AXIS2_PLACEMENT_3D('',#953,#954,#955);
#953 = CARTESIAN_POINT('',(35.627199999994,41.050339499866,7.));
#954 = DIRECTION('',(1.,2.199E-14,0.));
#955 = DIRECTION('',(-4.8378E-30,2.2E-16,1.));
#956 = ADVANCED_FACE('',(#957),#976,.F.);
#957 = FACE_BOUND('',#958,.T.);
#958 = EDGE_LOOP('',(#959,#968,#969,#970));
#959 = ORIENTED_EDGE('',*,*,#960,.T.);
#960 = EDGE_CURVE('',#961,#932,#963,.T.);
#961 = VERTEX_POINT('',#962);
#962 = CARTESIAN_POINT('',(39.927199999994,46.050339499866,
    34.566000107156));
#963 = CIRCLE('',#964,2.15);
#964 = AXIS2_PLACEMENT_3D('',#965,#966,#967);
#965 = CARTESIAN_POINT('',(37.777199999994,46.050339499866,
    34.566000107156));
#966 = DIRECTION('',(2.199E-14,-1.,2.2E-16));
#967 = DIRECTION('',(-1.,-2.199E-14,-2.876075546515E-46));
#968 = ORIENTED_EDGE('',*,*,#946,.T.);
#969 = ORIENTED_EDGE('',*,*,#529,.F.);
#970 = ORIENTED_EDGE('',*,*,#971,.F.);
#971 = EDGE_CURVE('',#961,#522,#972,.T.);
#972 = LINE('',#973,#974);
#973 = CARTESIAN_POINT('',(39.927199999994,41.050339499866,
    34.566000107156));
#974 = VECTOR('',#975,1.);
#975 = DIRECTION('',(-2.199E-14,1.,-2.2E-16));
#976 = CYLINDRICAL_SURFACE('',#977,2.15);
#977 = AXIS2_PLACEMENT_3D('',#978,#979,#980);
#978 = CARTESIAN_POINT('',(37.777199999994,41.050339499866,
    34.566000107156));
#979 = DIRECTION('',(2.199E-14,-1.,2.2E-16));
#980 = DIRECTION('',(-1.,-2.199E-14,-2.876075546515E-46));
#981 = ADVANCED_FACE('',(#982),#1000,.F.);
#982 = FACE_BOUND('',#983,.F.);
#983 = EDGE_LOOP('',(#984,#992,#998,#999));
#984 = ORIENTED_EDGE('',*,*,#985,.F.);
#985 = EDGE_CURVE('',#986,#961,#988,.T.);
#986 = VERTEX_POINT('',#987);
#987 = CARTESIAN_POINT('',(39.927199999994,46.050339499866,7.));
#988 = LINE('',#989,#990);
#989 = CARTESIAN_POINT('',(39.927199999994,46.050339499866,
    13.891500026789));
#990 = VECTOR('',#991,1.);
#991 = DIRECTION('',(0.,2.4E-16,1.));
#992 = ORIENTED_EDGE('',*,*,#993,.T.);
#993 = EDGE_CURVE('',#986,#513,#994,.T.);
#994 = LINE('',#995,#996);
#995 = CARTESIAN_POINT('',(39.927199999994,41.050339499866,7.));
#996 = VECTOR('',#997,1.);
#997 = DIRECTION('',(-2.199E-14,1.,-2.2E-16));
#998 = ORIENTED_EDGE('',*,*,#521,.F.);
#999 = ORIENTED_EDGE('',*,*,#971,.F.);
#1000 = PLANE('',#1001);
#1001 = AXIS2_PLACEMENT_3D('',#1002,#1003,#1004);
#1002 = CARTESIAN_POINT('',(39.927199999994,41.050339499866,7.));
#1003 = DIRECTION('',(1.,2.199E-14,0.));
#1004 = DIRECTION('',(-4.8378E-30,2.2E-16,1.));
#1005 = ADVANCED_FACE('',(#1006),#1018,.F.);
#1006 = FACE_BOUND('',#1007,.T.);
#1007 = EDGE_LOOP('',(#1008,#1015,#1016,#1017));
#1008 = ORIENTED_EDGE('',*,*,#1009,.T.);
#1009 = EDGE_CURVE('',#930,#986,#1010,.T.);
#1010 = CIRCLE('',#1011,2.15);
#1011 = AXIS2_PLACEMENT_3D('',#1012,#1013,#1014);
#1012 = CARTESIAN_POINT('',(37.777199999994,46.050339499866,7.));
#1013 = DIRECTION('',(2.199E-14,-1.,2.2E-16));
#1014 = DIRECTION('',(-1.,-2.199E-14,-2.876075546515E-46));
#1015 = ORIENTED_EDGE('',*,*,#993,.T.);
#1016 = ORIENTED_EDGE('',*,*,#512,.F.);
#1017 = ORIENTED_EDGE('',*,*,#939,.F.);
#1018 = CYLINDRICAL_SURFACE('',#1019,2.15);
#1019 = AXIS2_PLACEMENT_3D('',#1020,#1021,#1022);
#1020 = CARTESIAN_POINT('',(37.777199999994,41.050339499866,7.));
#1021 = DIRECTION('',(2.199E-14,-1.,2.2E-16));
#1022 = DIRECTION('',(-1.,-2.199E-14,-2.876075546515E-46));
#1023 = ADVANCED_FACE('',(#1024),#1049,.F.);
#1024 = FACE_BOUND('',#1025,.F.);
#1025 = EDGE_LOOP('',(#1026,#1034,#1042,#1048));
#1026 = ORIENTED_EDGE('',*,*,#1027,.T.);
#1027 = EDGE_CURVE('',#573,#1028,#1030,.T.);
#1028 = VERTEX_POINT('',#1029);
#1029 = CARTESIAN_POINT('',(-42.0228,46.050339499864,34.566000107158));
#1030 = LINE('',#1031,#1032);
#1031 = CARTESIAN_POINT('',(-42.0228,41.050339499864,34.566000107158));
#1032 = VECTOR('',#1033,1.);
#1033 = DIRECTION('',(-2.199E-14,1.,-2.2E-16));
#1034 = ORIENTED_EDGE('',*,*,#1035,.T.);
#1035 = EDGE_CURVE('',#1028,#1036,#1038,.T.);
#1036 = VERTEX_POINT('',#1037);
#1037 = CARTESIAN_POINT('',(-42.0228,46.050339499864,6.999999999999));
#1038 = LINE('',#1039,#1040);
#1039 = CARTESIAN_POINT('',(-42.02280000001,46.050339499864,
    34.566000107158));
#1040 = VECTOR('',#1041,1.);
#1041 = DIRECTION('',(1.7012E-13,3.74264E-27,-1.));
#1042 = ORIENTED_EDGE('',*,*,#1043,.F.);
#1043 = EDGE_CURVE('',#575,#1036,#1044,.T.);
#1044 = LINE('',#1045,#1046);
#1045 = CARTESIAN_POINT('',(-42.0228,41.050339499864,6.999999999999));
#1046 = VECTOR('',#1047,1.);
#1047 = DIRECTION('',(-2.199E-14,1.,-2.2E-16));
#1048 = ORIENTED_EDGE('',*,*,#572,.F.);
#1049 = PLANE('',#1050);
#1050 = AXIS2_PLACEMENT_3D('',#1051,#1052,#1053);
#1051 = CARTESIAN_POINT('',(-42.02280000001,41.050339499864,
    34.566000107158));
#1052 = DIRECTION('',(-1.,-2.199E-14,-1.7012E-13));
#1053 = DIRECTION('',(1.7012E-13,-2.2E-16,-1.));
#1054 = ADVANCED_FACE('',(#1055),#1074,.F.);
#1055 = FACE_BOUND('',#1056,.T.);
#1056 = EDGE_LOOP('',(#1057,#1065,#1072,#1073));
#1057 = ORIENTED_EDGE('',*,*,#1058,.T.);
#1058 = EDGE_CURVE('',#592,#1059,#1061,.T.);
#1059 = VERTEX_POINT('',#1060);
#1060 = CARTESIAN_POINT('',(-33.6228,46.050339499865,6.999999999999));
#1061 = LINE('',#1062,#1063);
#1062 = CARTESIAN_POINT('',(-33.6228,41.050339499865,6.999999999999));
#1063 = VECTOR('',#1064,1.);
#1064 = DIRECTION('',(-2.199E-14,1.,-2.2E-16));
#1065 = ORIENTED_EDGE('',*,*,#1066,.T.);
#1066 = EDGE_CURVE('',#1059,#1036,#1067,.T.);
#1067 = CIRCLE('',#1068,4.2);
#1068 = AXIS2_PLACEMENT_3D('',#1069,#1070,#1071);
#1069 = CARTESIAN_POINT('',(-37.8228,46.050339499865,7.));
#1070 = DIRECTION('',(-2.2E-14,1.,0.));
#1071 = DIRECTION('',(-1.,-2.2E-14,0.));
#1072 = ORIENTED_EDGE('',*,*,#1043,.F.);
#1073 = ORIENTED_EDGE('',*,*,#599,.F.);
#1074 = CYLINDRICAL_SURFACE('',#1075,4.2);
#1075 = AXIS2_PLACEMENT_3D('',#1076,#1077,#1078);
#1076 = CARTESIAN_POINT('',(-37.8228,41.050339499865,7.));
#1077 = DIRECTION('',(2.199E-14,-1.,2.2E-16));
#1078 = DIRECTION('',(-1.,-2.199E-14,-2.876075546515E-46));
#1079 = ADVANCED_FACE('',(#1080),#1098,.T.);
#1080 = FACE_BOUND('',#1081,.T.);
#1081 = EDGE_LOOP('',(#1082,#1090,#1096,#1097));
#1082 = ORIENTED_EDGE('',*,*,#1083,.T.);
#1083 = EDGE_CURVE('',#583,#1084,#1086,.T.);
#1084 = VERTEX_POINT('',#1085);
#1085 = CARTESIAN_POINT('',(-33.6228,46.050339499865,34.566000107158));
#1086 = LINE('',#1087,#1088);
#1087 = CARTESIAN_POINT('',(-33.6228,41.050339499865,34.566000107158));
#1088 = VECTOR('',#1089,1.);
#1089 = DIRECTION('',(-2.199E-14,1.,-2.2E-16));
#1090 = ORIENTED_EDGE('',*,*,#1091,.T.);
#1091 = EDGE_CURVE('',#1084,#1059,#1092,.T.);
#1092 = LINE('',#1093,#1094);
#1093 = CARTESIAN_POINT('',(-33.6228,46.050339499865,34.566000107158));
#1094 = VECTOR('',#1095,1.);
#1095 = DIRECTION('',(-1.7012E-13,-3.74264E-27,-1.));
#1096 = ORIENTED_EDGE('',*,*,#1058,.F.);
#1097 = ORIENTED_EDGE('',*,*,#591,.F.);
#1098 = PLANE('',#1099);
#1099 = AXIS2_PLACEMENT_3D('',#1100,#1101,#1102);
#1100 = CARTESIAN_POINT('',(-33.6228,41.050339499865,34.566000107158));
#1101 = DIRECTION('',(-1.,-2.199E-14,1.7012E-13));
#1102 = DIRECTION('',(-1.7012E-13,-2.2E-16,-1.));
#1103 = ADVANCED_FACE('',(#1104),#1116,.F.);
#1104 = FACE_BOUND('',#1105,.T.);
#1105 = EDGE_LOOP('',(#1106,#1107,#1114,#1115));
#1106 = ORIENTED_EDGE('',*,*,#1027,.T.);
#1107 = ORIENTED_EDGE('',*,*,#1108,.T.);
#1108 = EDGE_CURVE('',#1028,#1084,#1109,.T.);
#1109 = CIRCLE('',#1110,4.2);
#1110 = AXIS2_PLACEMENT_3D('',#1111,#1112,#1113);
#1111 = CARTESIAN_POINT('',(-37.8228,46.050339499865,34.566000107156));
#1112 = DIRECTION('',(-2.2E-14,1.,0.));
#1113 = DIRECTION('',(-1.,-2.2E-14,0.));
#1114 = ORIENTED_EDGE('',*,*,#1083,.F.);
#1115 = ORIENTED_EDGE('',*,*,#582,.F.);
#1116 = CYLINDRICAL_SURFACE('',#1117,4.2);
#1117 = AXIS2_PLACEMENT_3D('',#1118,#1119,#1120);
#1118 = CARTESIAN_POINT('',(-37.8228,41.050339499865,34.566000107156));
#1119 = DIRECTION('',(2.199E-14,-1.,2.2E-16));
#1120 = DIRECTION('',(-1.,-2.199E-14,-2.876075546515E-46));
#1121 = ADVANCED_FACE('',(#1122,#1128),#1134,.F.);
#1122 = FACE_BOUND('',#1123,.F.);
#1123 = EDGE_LOOP('',(#1124,#1125,#1126,#1127));
#1124 = ORIENTED_EDGE('',*,*,#741,.T.);
#1125 = ORIENTED_EDGE('',*,*,#766,.T.);
#1126 = ORIENTED_EDGE('',*,*,#790,.T.);
#1127 = ORIENTED_EDGE('',*,*,#815,.F.);
#1128 = FACE_BOUND('',#1129,.F.);
#1129 = EDGE_LOOP('',(#1130,#1131,#1132,#1133));
#1130 = ORIENTED_EDGE('',*,*,#929,.F.);
#1131 = ORIENTED_EDGE('',*,*,#1009,.T.);
#1132 = ORIENTED_EDGE('',*,*,#985,.T.);
#1133 = ORIENTED_EDGE('',*,*,#960,.T.);
#1134 = PLANE('',#1135);
#1135 = AXIS2_PLACEMENT_3D('',#1136,#1137,#1138);
#1136 = CARTESIAN_POINT('',(-2.280000000545E-02,46.050339499865,
    20.783000053578));
#1137 = DIRECTION('',(-2.199E-14,1.,-2.4E-16));
#1138 = DIRECTION('',(1.,2.199E-14,8.780013498906E-47));
#1139 = ADVANCED_FACE('',(#1140,#1146),#1152,.F.);
#1140 = FACE_BOUND('',#1141,.F.);
#1141 = EDGE_LOOP('',(#1142,#1143,#1144,#1145));
#1142 = ORIENTED_EDGE('',*,*,#1108,.T.);
#1143 = ORIENTED_EDGE('',*,*,#1091,.T.);
#1144 = ORIENTED_EDGE('',*,*,#1066,.T.);
#1145 = ORIENTED_EDGE('',*,*,#1035,.F.);
#1146 = FACE_BOUND('',#1147,.F.);
#1147 = EDGE_LOOP('',(#1148,#1149,#1150,#1151));
#1148 = ORIENTED_EDGE('',*,*,#831,.F.);
#1149 = ORIENTED_EDGE('',*,*,#911,.T.);
#1150 = ORIENTED_EDGE('',*,*,#887,.T.);
#1151 = ORIENTED_EDGE('',*,*,#862,.T.);
#1152 = PLANE('',#1153);
#1153 = AXIS2_PLACEMENT_3D('',#1154,#1155,#1156);
#1154 = CARTESIAN_POINT('',(-2.280000000545E-02,46.050339499865,
    20.783000053578));
#1155 = DIRECTION('',(-2.199E-14,1.,-2.4E-16));
#1156 = DIRECTION('',(1.,2.199E-14,8.780013498906E-47));
#1157 = ( GEOMETRIC_REPRESENTATION_CONTEXT(3) 
GLOBAL_UNCERTAINTY_ASSIGNED_CONTEXT((#1161)) 
GLOBAL_UNIT_ASSIGNED_CONTEXT((#1158,#1159,#1160)) REPRESENTATION_CONTEXT
('Context #1','3D Context with UNIT and UNCERTAINTY') );
#1158 = ( LENGTH_UNIT() NAMED_UNIT(*) SI_UNIT(.MILLI.,.METRE.) );
#1159 = ( NAMED_UNIT(*) PLANE_ANGLE_UNIT() SI_UNIT($,.RADIAN.) );
#1160 = ( NAMED_UNIT(*) SI_UNIT($,.STERADIAN.) SOLID_ANGLE_UNIT() );
#1161 = UNCERTAINTY_MEASURE_WITH_UNIT(LENGTH_MEASURE(2.E-05),#1158,
  'distance_accuracy_value','confusion accuracy');
#1162 = PRODUCT_RELATED_PRODUCT_CATEGORY('part',$,(#7));
#1163 = MECHANICAL_DESIGN_GEOMETRIC_PRESENTATION_REPRESENTATION('',(
    #1164),#1157);
#1164 = STYLED_ITEM('color',(#1165),#15);
#1165 = PRESENTATION_STYLE_ASSIGNMENT((#1166,#1172));
#1166 = SURFACE_STYLE_USAGE(.BOTH.,#1167);
#1167 = SURFACE_SIDE_STYLE('',(#1168));
#1168 = SURFACE_STYLE_FILL_AREA(#1169);
#1169 = FILL_AREA_STYLE('',(#1170));
#1170 = FILL_AREA_STYLE_COLOUR('',#1171);
#1171 = COLOUR_RGB('',0.447058818107,0.474509808674,0.501960817233);
#1172 = CURVE_STYLE('',#1173,POSITIVE_LENGTH_MEASURE(0.1),#1174);
#1173 = DRAUGHTING_PRE_DEFINED_CURVE_FONT('continuous');
#1174 = COLOUR_RGB('',9.803921802644E-02,9.803921802644E-02,
  9.803921802644E-02);
ENDSEC;
END-ISO-10303-21;
