ISO-10303-21;
HEADER;
FILE_DESCRIPTION(('FreeCAD Model'),'2;1');
FILE_NAME('Open CASCADE Shape Model','2026-03-31T14:55:04',(''),(''),
  'Open CASCADE STEP processor 7.8','FreeCAD','Unknown');
FILE_SCHEMA(('AUTOMOTIVE_DESIGN { 1 0 10303 214 1 1 1 1 }'));
ENDSEC;
DATA;
#1 = APPLICATION_PROTOCOL_DEFINITION('international standard',
  'automotive_design',2000,#2);
#2 = APPLICATION_CONTEXT(
  'core data for automotive mechanical design processes');
#3 = SHAPE_DEFINITION_REPRESENTATION(#4,#10);
#4 = PRODUCT_DEFINITION_SHAPE('','',#5);
#5 = PRODUCT_DEFINITION('design','',#6,#9);
#6 = PRODUCT_DEFINITION_FORMATION('','',#7);
#7 = PRODUCT('连接件','连接件','',(#8));
#8 = PRODUCT_CONTEXT('',#2,'mechanical');
#9 = PRODUCT_DEFINITION_CONTEXT('part definition',#2,'design');
#10 = ADVANCED_BREP_SHAPE_REPRESENTATION('',(#11,#15),#877);
#11 = AXIS2_PLACEMENT_3D('',#12,#13,#14);
#12 = CARTESIAN_POINT('',(0.,0.,0.));
#13 = DIRECTION('',(0.,0.,1.));
#14 = DIRECTION('',(1.,0.,-0.));
#15 = MANIFOLD_SOLID_BREP('',#16);
#16 = CLOSED_SHELL('',(#17,#79,#104,#207,#231,#255,#344,#369,#394,#406,
    #438,#462,#487,#504,#536,#560,#585,#602,#634,#658,#683,#700,#732,
    #756,#781,#798,#823,#832,#850,#868));
#17 = ADVANCED_FACE('',(#18,#29,#63),#74,.F.);
#18 = FACE_BOUND('',#19,.F.);
#19 = EDGE_LOOP('',(#20));
#20 = ORIENTED_EDGE('',*,*,#21,.T.);
#21 = EDGE_CURVE('',#22,#22,#24,.T.);
#22 = VERTEX_POINT('',#23);
#23 = CARTESIAN_POINT('',(41.777199999994,-18.1,8.));
#24 = CIRCLE('',#25,4.);
#25 = AXIS2_PLACEMENT_3D('',#26,#27,#28);
#26 = CARTESIAN_POINT('',(37.777199999994,-18.1,8.));
#27 = DIRECTION('',(0.,-1.,0.));
#28 = DIRECTION('',(1.,0.,0.));
#29 = FACE_BOUND('',#30,.F.);
#30 = EDGE_LOOP('',(#31,#41,#49,#57));
#31 = ORIENTED_EDGE('',*,*,#32,.F.);
#32 = EDGE_CURVE('',#33,#35,#37,.T.);
#33 = VERTEX_POINT('',#34);
#34 = CARTESIAN_POINT('',(-45.3228,-18.1,0.));
#35 = VERTEX_POINT('',#36);
#36 = CARTESIAN_POINT('',(45.277199999994,-18.1,0.));
#37 = LINE('',#38,#39);
#38 = CARTESIAN_POINT('',(-45.3228,-18.1,0.));
#39 = VECTOR('',#40,1.);
#40 = DIRECTION('',(1.,0.,0.));
#41 = ORIENTED_EDGE('',*,*,#42,.T.);
#42 = EDGE_CURVE('',#33,#43,#45,.T.);
#43 = VERTEX_POINT('',#44);
#44 = CARTESIAN_POINT('',(-45.3228,-18.1,15.));
#45 = LINE('',#46,#47);
#46 = CARTESIAN_POINT('',(-45.3228,-18.1,0.));
#47 = VECTOR('',#48,1.);
#48 = DIRECTION('',(0.,0.,1.));
#49 = ORIENTED_EDGE('',*,*,#50,.T.);
#50 = EDGE_CURVE('',#43,#51,#53,.T.);
#51 = VERTEX_POINT('',#52);
#52 = CARTESIAN_POINT('',(45.277199999994,-18.1,15.));
#53 = LINE('',#54,#55);
#54 = CARTESIAN_POINT('',(-22.6614,-18.1,15.));
#55 = VECTOR('',#56,1.);
#56 = DIRECTION('',(1.,0.,0.));
#57 = ORIENTED_EDGE('',*,*,#58,.F.);
#58 = EDGE_CURVE('',#35,#51,#59,.T.);
#59 = LINE('',#60,#61);
#60 = CARTESIAN_POINT('',(45.277199999994,-18.1,0.));
#61 = VECTOR('',#62,1.);
#62 = DIRECTION('',(0.,0.,1.));
#63 = FACE_BOUND('',#64,.F.);
#64 = EDGE_LOOP('',(#65));
#65 = ORIENTED_EDGE('',*,*,#66,.T.);
#66 = EDGE_CURVE('',#67,#67,#69,.T.);
#67 = VERTEX_POINT('',#68);
#68 = CARTESIAN_POINT('',(-33.8228,-18.1,8.));
#69 = CIRCLE('',#70,4.);
#70 = AXIS2_PLACEMENT_3D('',#71,#72,#73);
#71 = CARTESIAN_POINT('',(-37.8228,-18.1,8.));
#72 = DIRECTION('',(0.,-1.,0.));
#73 = DIRECTION('',(1.,0.,0.));
#74 = PLANE('',#75);
#75 = AXIS2_PLACEMENT_3D('',#76,#77,#78);
#76 = CARTESIAN_POINT('',(-45.3228,-18.1,0.));
#77 = DIRECTION('',(0.,1.,0.));
#78 = DIRECTION('',(1.,0.,0.));
#79 = ADVANCED_FACE('',(#80),#99,.F.);
#80 = FACE_BOUND('',#81,.T.);
#81 = EDGE_LOOP('',(#82,#90,#91,#92));
#82 = ORIENTED_EDGE('',*,*,#83,.F.);
#83 = EDGE_CURVE('',#22,#84,#86,.T.);
#84 = VERTEX_POINT('',#85);
#85 = CARTESIAN_POINT('',(40.777199999994,-17.1,8.));
#86 = LINE('',#87,#88);
#87 = CARTESIAN_POINT('',(40.777199999994,-17.1,8.));
#88 = VECTOR('',#89,1.);
#89 = DIRECTION('',(-0.707106781187,0.707106781187,2.1E-16));
#90 = ORIENTED_EDGE('',*,*,#21,.T.);
#91 = ORIENTED_EDGE('',*,*,#83,.T.);
#92 = ORIENTED_EDGE('',*,*,#93,.F.);
#93 = EDGE_CURVE('',#84,#84,#94,.T.);
#94 = CIRCLE('',#95,3.);
#95 = AXIS2_PLACEMENT_3D('',#96,#97,#98);
#96 = CARTESIAN_POINT('',(37.777199999994,-17.1,8.));
#97 = DIRECTION('',(0.,-1.,0.));
#98 = DIRECTION('',(1.,0.,0.));
#99 = CONICAL_SURFACE('',#100,3.,0.785398163397);
#100 = AXIS2_PLACEMENT_3D('',#101,#102,#103);
#101 = CARTESIAN_POINT('',(37.777199999994,-17.1,8.));
#102 = DIRECTION('',(-0.,-1.,-0.));
#103 = DIRECTION('',(1.,0.,0.));
#104 = ADVANCED_FACE('',(#105,#130,#166),#202,.F.);
#105 = FACE_BOUND('',#106,.F.);
#106 = EDGE_LOOP('',(#107,#115,#116,#124));
#107 = ORIENTED_EDGE('',*,*,#108,.T.);
#108 = EDGE_CURVE('',#109,#33,#111,.T.);
#109 = VERTEX_POINT('',#110);
#110 = CARTESIAN_POINT('',(-45.3228,18.1,0.));
#111 = LINE('',#112,#113);
#112 = CARTESIAN_POINT('',(-45.3228,18.1,0.));
#113 = VECTOR('',#114,1.);
#114 = DIRECTION('',(0.,-1.,0.));
#115 = ORIENTED_EDGE('',*,*,#32,.T.);
#116 = ORIENTED_EDGE('',*,*,#117,.T.);
#117 = EDGE_CURVE('',#35,#118,#120,.T.);
#118 = VERTEX_POINT('',#119);
#119 = CARTESIAN_POINT('',(45.277199999994,18.1,0.));
#120 = LINE('',#121,#122);
#121 = CARTESIAN_POINT('',(45.277199999994,-18.1,0.));
#122 = VECTOR('',#123,1.);
#123 = DIRECTION('',(0.,1.,0.));
#124 = ORIENTED_EDGE('',*,*,#125,.T.);
#125 = EDGE_CURVE('',#118,#109,#126,.T.);
#126 = LINE('',#127,#128);
#127 = CARTESIAN_POINT('',(45.277199999994,18.1,0.));
#128 = VECTOR('',#129,1.);
#129 = DIRECTION('',(-1.,0.,0.));
#130 = FACE_BOUND('',#131,.T.);
#131 = EDGE_LOOP('',(#132,#143,#151,#160));
#132 = ORIENTED_EDGE('',*,*,#133,.T.);
#133 = EDGE_CURVE('',#134,#136,#138,.T.);
#134 = VERTEX_POINT('',#135);
#135 = CARTESIAN_POINT('',(8.,3.1,0.));
#136 = VERTEX_POINT('',#137);
#137 = CARTESIAN_POINT('',(8.,-3.1,0.));
#138 = CIRCLE('',#139,3.1);
#139 = AXIS2_PLACEMENT_3D('',#140,#141,#142);
#140 = CARTESIAN_POINT('',(8.,-3.E-16,0.));
#141 = DIRECTION('',(0.,0.,1.));
#142 = DIRECTION('',(1.,0.,0.));
#143 = ORIENTED_EDGE('',*,*,#144,.T.);
#144 = EDGE_CURVE('',#136,#145,#147,.T.);
#145 = VERTEX_POINT('',#146);
#146 = CARTESIAN_POINT('',(35.322800000005,-3.1,0.));
#147 = LINE('',#148,#149);
#148 = CARTESIAN_POINT('',(8.,-3.1,0.));
#149 = VECTOR('',#150,1.);
#150 = DIRECTION('',(1.,0.,0.));
#151 = ORIENTED_EDGE('',*,*,#152,.T.);
#152 = EDGE_CURVE('',#145,#153,#155,.T.);
#153 = VERTEX_POINT('',#154);
#154 = CARTESIAN_POINT('',(35.322800000005,3.1,0.));
#155 = CIRCLE('',#156,3.1);
#156 = AXIS2_PLACEMENT_3D('',#157,#158,#159);
#157 = CARTESIAN_POINT('',(35.322800000005,-2.E-16,0.));
#158 = DIRECTION('',(0.,0.,1.));
#159 = DIRECTION('',(1.,0.,0.));
#160 = ORIENTED_EDGE('',*,*,#161,.F.);
#161 = EDGE_CURVE('',#134,#153,#162,.T.);
#162 = LINE('',#163,#164);
#163 = CARTESIAN_POINT('',(8.,3.1,0.));
#164 = VECTOR('',#165,1.);
#165 = DIRECTION('',(1.,2.E-17,0.));
#166 = FACE_BOUND('',#167,.T.);
#167 = EDGE_LOOP('',(#168,#179,#187,#196));
#168 = ORIENTED_EDGE('',*,*,#169,.T.);
#169 = EDGE_CURVE('',#170,#172,#174,.T.);
#170 = VERTEX_POINT('',#171);
#171 = CARTESIAN_POINT('',(-35.3228,3.1,0.));
#172 = VERTEX_POINT('',#173);
#173 = CARTESIAN_POINT('',(-35.3228,-3.1,0.));
#174 = CIRCLE('',#175,3.1);
#175 = AXIS2_PLACEMENT_3D('',#176,#177,#178);
#176 = CARTESIAN_POINT('',(-35.3228,0.,0.));
#177 = DIRECTION('',(0.,0.,1.));
#178 = DIRECTION('',(1.,0.,0.));
#179 = ORIENTED_EDGE('',*,*,#180,.T.);
#180 = EDGE_CURVE('',#172,#181,#183,.T.);
#181 = VERTEX_POINT('',#182);
#182 = CARTESIAN_POINT('',(-8.,-3.1,0.));
#183 = LINE('',#184,#185);
#184 = CARTESIAN_POINT('',(-35.3228,-3.1,0.));
#185 = VECTOR('',#186,1.);
#186 = DIRECTION('',(1.,0.,0.));
#187 = ORIENTED_EDGE('',*,*,#188,.T.);
#188 = EDGE_CURVE('',#181,#189,#191,.T.);
#189 = VERTEX_POINT('',#190);
#190 = CARTESIAN_POINT('',(-8.,3.1,0.));
#191 = CIRCLE('',#192,3.1);
#192 = AXIS2_PLACEMENT_3D('',#193,#194,#195);
#193 = CARTESIAN_POINT('',(-8.,-3.E-16,0.));
#194 = DIRECTION('',(0.,0.,1.));
#195 = DIRECTION('',(1.,0.,0.));
#196 = ORIENTED_EDGE('',*,*,#197,.F.);
#197 = EDGE_CURVE('',#170,#189,#198,.T.);
#198 = LINE('',#199,#200);
#199 = CARTESIAN_POINT('',(-35.3228,3.1,0.));
#200 = VECTOR('',#201,1.);
#201 = DIRECTION('',(1.,-2.E-17,0.));
#202 = PLANE('',#203);
#203 = AXIS2_PLACEMENT_3D('',#204,#205,#206);
#204 = CARTESIAN_POINT('',(-1.445190496905E-02,-9.E-17,0.));
#205 = DIRECTION('',(0.,0.,1.));
#206 = DIRECTION('',(1.,0.,0.));
#207 = ADVANCED_FACE('',(#208),#226,.F.);
#208 = FACE_BOUND('',#209,.F.);
#209 = EDGE_LOOP('',(#210,#211,#219,#225));
#210 = ORIENTED_EDGE('',*,*,#108,.F.);
#211 = ORIENTED_EDGE('',*,*,#212,.T.);
#212 = EDGE_CURVE('',#109,#213,#215,.T.);
#213 = VERTEX_POINT('',#214);
#214 = CARTESIAN_POINT('',(-45.3228,18.1,15.));
#215 = LINE('',#216,#217);
#216 = CARTESIAN_POINT('',(-45.3228,18.1,0.));
#217 = VECTOR('',#218,1.);
#218 = DIRECTION('',(0.,0.,1.));
#219 = ORIENTED_EDGE('',*,*,#220,.T.);
#220 = EDGE_CURVE('',#213,#43,#221,.T.);
#221 = LINE('',#222,#223);
#222 = CARTESIAN_POINT('',(-45.3228,9.05,15.));
#223 = VECTOR('',#224,1.);
#224 = DIRECTION('',(0.,-1.,0.));
#225 = ORIENTED_EDGE('',*,*,#42,.F.);
#226 = PLANE('',#227);
#227 = AXIS2_PLACEMENT_3D('',#228,#229,#230);
#228 = CARTESIAN_POINT('',(-45.3228,18.1,0.));
#229 = DIRECTION('',(1.,0.,0.));
#230 = DIRECTION('',(0.,-1.,0.));
#231 = ADVANCED_FACE('',(#232),#250,.F.);
#232 = FACE_BOUND('',#233,.F.);
#233 = EDGE_LOOP('',(#234,#235,#236,#244));
#234 = ORIENTED_EDGE('',*,*,#117,.F.);
#235 = ORIENTED_EDGE('',*,*,#58,.T.);
#236 = ORIENTED_EDGE('',*,*,#237,.T.);
#237 = EDGE_CURVE('',#51,#238,#240,.T.);
#238 = VERTEX_POINT('',#239);
#239 = CARTESIAN_POINT('',(45.277199999994,18.1,15.));
#240 = LINE('',#241,#242);
#241 = CARTESIAN_POINT('',(45.277199999994,-9.05,15.));
#242 = VECTOR('',#243,1.);
#243 = DIRECTION('',(0.,1.,0.));
#244 = ORIENTED_EDGE('',*,*,#245,.F.);
#245 = EDGE_CURVE('',#118,#238,#246,.T.);
#246 = LINE('',#247,#248);
#247 = CARTESIAN_POINT('',(45.277199999994,18.1,0.));
#248 = VECTOR('',#249,1.);
#249 = DIRECTION('',(0.,0.,1.));
#250 = PLANE('',#251);
#251 = AXIS2_PLACEMENT_3D('',#252,#253,#254);
#252 = CARTESIAN_POINT('',(45.277199999994,-18.1,0.));
#253 = DIRECTION('',(-1.,0.,0.));
#254 = DIRECTION('',(0.,1.,0.));
#255 = ADVANCED_FACE('',(#256,#267,#303),#339,.T.);
#256 = FACE_BOUND('',#257,.T.);
#257 = EDGE_LOOP('',(#258,#264,#265,#266));
#258 = ORIENTED_EDGE('',*,*,#259,.T.);
#259 = EDGE_CURVE('',#238,#213,#260,.T.);
#260 = LINE('',#261,#262);
#261 = CARTESIAN_POINT('',(22.638599999997,18.1,15.));
#262 = VECTOR('',#263,1.);
#263 = DIRECTION('',(-1.,0.,0.));
#264 = ORIENTED_EDGE('',*,*,#220,.T.);
#265 = ORIENTED_EDGE('',*,*,#50,.T.);
#266 = ORIENTED_EDGE('',*,*,#237,.T.);
#267 = FACE_BOUND('',#268,.T.);
#268 = EDGE_LOOP('',(#269,#280,#288,#297));
#269 = ORIENTED_EDGE('',*,*,#270,.F.);
#270 = EDGE_CURVE('',#271,#273,#275,.T.);
#271 = VERTEX_POINT('',#272);
#272 = CARTESIAN_POINT('',(-35.3228,5.25,15.));
#273 = VERTEX_POINT('',#274);
#274 = CARTESIAN_POINT('',(-35.3228,-5.25,15.));
#275 = CIRCLE('',#276,5.25);
#276 = AXIS2_PLACEMENT_3D('',#277,#278,#279);
#277 = CARTESIAN_POINT('',(-35.3228,0.,15.));
#278 = DIRECTION('',(0.,0.,1.));
#279 = DIRECTION('',(1.,0.,0.));
#280 = ORIENTED_EDGE('',*,*,#281,.T.);
#281 = EDGE_CURVE('',#271,#282,#284,.T.);
#282 = VERTEX_POINT('',#283);
#283 = CARTESIAN_POINT('',(-8.,5.25,15.));
#284 = LINE('',#285,#286);
#285 = CARTESIAN_POINT('',(-35.3228,5.25,15.));
#286 = VECTOR('',#287,1.);
#287 = DIRECTION('',(1.,0.,0.));
#288 = ORIENTED_EDGE('',*,*,#289,.F.);
#289 = EDGE_CURVE('',#290,#282,#292,.T.);
#290 = VERTEX_POINT('',#291);
#291 = CARTESIAN_POINT('',(-8.,-5.25,15.));
#292 = CIRCLE('',#293,5.25);
#293 = AXIS2_PLACEMENT_3D('',#294,#295,#296);
#294 = CARTESIAN_POINT('',(-8.,0.,15.));
#295 = DIRECTION('',(0.,0.,1.));
#296 = DIRECTION('',(1.,0.,0.));
#297 = ORIENTED_EDGE('',*,*,#298,.F.);
#298 = EDGE_CURVE('',#273,#290,#299,.T.);
#299 = LINE('',#300,#301);
#300 = CARTESIAN_POINT('',(-35.3228,-5.25,15.));
#301 = VECTOR('',#302,1.);
#302 = DIRECTION('',(1.,0.,0.));
#303 = FACE_BOUND('',#304,.T.);
#304 = EDGE_LOOP('',(#305,#316,#324,#333));
#305 = ORIENTED_EDGE('',*,*,#306,.F.);
#306 = EDGE_CURVE('',#307,#309,#311,.T.);
#307 = VERTEX_POINT('',#308);
#308 = CARTESIAN_POINT('',(8.,5.25,15.));
#309 = VERTEX_POINT('',#310);
#310 = CARTESIAN_POINT('',(8.,-5.25,15.));
#311 = CIRCLE('',#312,5.25);
#312 = AXIS2_PLACEMENT_3D('',#313,#314,#315);
#313 = CARTESIAN_POINT('',(8.,0.,15.));
#314 = DIRECTION('',(0.,0.,1.));
#315 = DIRECTION('',(1.,0.,0.));
#316 = ORIENTED_EDGE('',*,*,#317,.T.);
#317 = EDGE_CURVE('',#307,#318,#320,.T.);
#318 = VERTEX_POINT('',#319);
#319 = CARTESIAN_POINT('',(35.322800000005,5.25,15.));
#320 = LINE('',#321,#322);
#321 = CARTESIAN_POINT('',(8.,5.25,15.));
#322 = VECTOR('',#323,1.);
#323 = DIRECTION('',(1.,0.,0.));
#324 = ORIENTED_EDGE('',*,*,#325,.F.);
#325 = EDGE_CURVE('',#326,#318,#328,.T.);
#326 = VERTEX_POINT('',#327);
#327 = CARTESIAN_POINT('',(35.322800000005,-5.25,15.));
#328 = CIRCLE('',#329,5.25);
#329 = AXIS2_PLACEMENT_3D('',#330,#331,#332);
#330 = CARTESIAN_POINT('',(35.322800000005,0.,15.));
#331 = DIRECTION('',(0.,0.,1.));
#332 = DIRECTION('',(1.,0.,0.));
#333 = ORIENTED_EDGE('',*,*,#334,.F.);
#334 = EDGE_CURVE('',#309,#326,#335,.T.);
#335 = LINE('',#336,#337);
#336 = CARTESIAN_POINT('',(8.,-5.25,15.));
#337 = VECTOR('',#338,1.);
#338 = DIRECTION('',(1.,0.,0.));
#339 = PLANE('',#340);
#340 = AXIS2_PLACEMENT_3D('',#341,#342,#343);
#341 = CARTESIAN_POINT('',(0.,0.,15.));
#342 = DIRECTION('',(0.,0.,1.));
#343 = DIRECTION('',(1.,0.,0.));
#344 = ADVANCED_FACE('',(#345),#364,.F.);
#345 = FACE_BOUND('',#346,.T.);
#346 = EDGE_LOOP('',(#347,#355,#356,#357));
#347 = ORIENTED_EDGE('',*,*,#348,.F.);
#348 = EDGE_CURVE('',#67,#349,#351,.T.);
#349 = VERTEX_POINT('',#350);
#350 = CARTESIAN_POINT('',(-34.8228,-17.1,8.));
#351 = LINE('',#352,#353);
#352 = CARTESIAN_POINT('',(-34.8228,-17.1,8.));
#353 = VECTOR('',#354,1.);
#354 = DIRECTION('',(-0.707106781187,0.707106781187,2.1E-16));
#355 = ORIENTED_EDGE('',*,*,#66,.T.);
#356 = ORIENTED_EDGE('',*,*,#348,.T.);
#357 = ORIENTED_EDGE('',*,*,#358,.F.);
#358 = EDGE_CURVE('',#349,#349,#359,.T.);
#359 = CIRCLE('',#360,3.);
#360 = AXIS2_PLACEMENT_3D('',#361,#362,#363);
#361 = CARTESIAN_POINT('',(-37.8228,-17.1,8.));
#362 = DIRECTION('',(0.,-1.,0.));
#363 = DIRECTION('',(1.,0.,0.));
#364 = CONICAL_SURFACE('',#365,3.,0.785398163397);
#365 = AXIS2_PLACEMENT_3D('',#366,#367,#368);
#366 = CARTESIAN_POINT('',(-37.8228,-17.1,8.));
#367 = DIRECTION('',(-0.,-1.,-0.));
#368 = DIRECTION('',(1.,0.,0.));
#369 = ADVANCED_FACE('',(#370),#389,.F.);
#370 = FACE_BOUND('',#371,.F.);
#371 = EDGE_LOOP('',(#372,#380,#387,#388));
#372 = ORIENTED_EDGE('',*,*,#373,.T.);
#373 = EDGE_CURVE('',#84,#374,#376,.T.);
#374 = VERTEX_POINT('',#375);
#375 = CARTESIAN_POINT('',(40.777199999994,-8.1,8.));
#376 = LINE('',#377,#378);
#377 = CARTESIAN_POINT('',(40.777199999994,-18.1,8.));
#378 = VECTOR('',#379,1.);
#379 = DIRECTION('',(0.,1.,-2.2E-16));
#380 = ORIENTED_EDGE('',*,*,#381,.T.);
#381 = EDGE_CURVE('',#374,#374,#382,.T.);
#382 = CIRCLE('',#383,3.);
#383 = AXIS2_PLACEMENT_3D('',#384,#385,#386);
#384 = CARTESIAN_POINT('',(37.777199999994,-8.1,8.));
#385 = DIRECTION('',(0.,-1.,0.));
#386 = DIRECTION('',(1.,0.,0.));
#387 = ORIENTED_EDGE('',*,*,#373,.F.);
#388 = ORIENTED_EDGE('',*,*,#93,.F.);
#389 = CYLINDRICAL_SURFACE('',#390,3.);
#390 = AXIS2_PLACEMENT_3D('',#391,#392,#393);
#391 = CARTESIAN_POINT('',(37.777199999994,-18.1,8.));
#392 = DIRECTION('',(0.,-1.,2.2E-16));
#393 = DIRECTION('',(1.,0.,0.));
#394 = ADVANCED_FACE('',(#395),#401,.F.);
#395 = FACE_BOUND('',#396,.F.);
#396 = EDGE_LOOP('',(#397,#398,#399,#400));
#397 = ORIENTED_EDGE('',*,*,#125,.F.);
#398 = ORIENTED_EDGE('',*,*,#245,.T.);
#399 = ORIENTED_EDGE('',*,*,#259,.T.);
#400 = ORIENTED_EDGE('',*,*,#212,.F.);
#401 = PLANE('',#402);
#402 = AXIS2_PLACEMENT_3D('',#403,#404,#405);
#403 = CARTESIAN_POINT('',(45.277199999994,18.1,0.));
#404 = DIRECTION('',(0.,-1.,0.));
#405 = DIRECTION('',(-1.,0.,0.));
#406 = ADVANCED_FACE('',(#407),#433,.F.);
#407 = FACE_BOUND('',#408,.T.);
#408 = EDGE_LOOP('',(#409,#410,#418,#427));
#409 = ORIENTED_EDGE('',*,*,#133,.F.);
#410 = ORIENTED_EDGE('',*,*,#411,.T.);
#411 = EDGE_CURVE('',#134,#412,#414,.T.);
#412 = VERTEX_POINT('',#413);
#413 = CARTESIAN_POINT('',(8.,3.1,7.));
#414 = LINE('',#415,#416);
#415 = CARTESIAN_POINT('',(8.,3.1,0.));
#416 = VECTOR('',#417,1.);
#417 = DIRECTION('',(0.,0.,1.));
#418 = ORIENTED_EDGE('',*,*,#419,.F.);
#419 = EDGE_CURVE('',#420,#412,#422,.T.);
#420 = VERTEX_POINT('',#421);
#421 = CARTESIAN_POINT('',(8.,-3.1,7.));
#422 = CIRCLE('',#423,3.1);
#423 = AXIS2_PLACEMENT_3D('',#424,#425,#426);
#424 = CARTESIAN_POINT('',(8.,-3.E-16,7.));
#425 = DIRECTION('',(0.,0.,-1.));
#426 = DIRECTION('',(1.,0.,0.));
#427 = ORIENTED_EDGE('',*,*,#428,.F.);
#428 = EDGE_CURVE('',#136,#420,#429,.T.);
#429 = LINE('',#430,#431);
#430 = CARTESIAN_POINT('',(8.,-3.1,0.));
#431 = VECTOR('',#432,1.);
#432 = DIRECTION('',(0.,0.,1.));
#433 = CYLINDRICAL_SURFACE('',#434,3.1);
#434 = AXIS2_PLACEMENT_3D('',#435,#436,#437);
#435 = CARTESIAN_POINT('',(8.,-3.E-16,0.));
#436 = DIRECTION('',(-0.,-0.,-1.));
#437 = DIRECTION('',(1.,0.,0.));
#438 = ADVANCED_FACE('',(#439),#457,.T.);
#439 = FACE_BOUND('',#440,.T.);
#440 = EDGE_LOOP('',(#441,#442,#443,#451));
#441 = ORIENTED_EDGE('',*,*,#144,.F.);
#442 = ORIENTED_EDGE('',*,*,#428,.T.);
#443 = ORIENTED_EDGE('',*,*,#444,.T.);
#444 = EDGE_CURVE('',#420,#445,#447,.T.);
#445 = VERTEX_POINT('',#446);
#446 = CARTESIAN_POINT('',(35.322800000005,-3.1,7.));
#447 = LINE('',#448,#449);
#448 = CARTESIAN_POINT('',(4.,-3.1,7.));
#449 = VECTOR('',#450,1.);
#450 = DIRECTION('',(1.,0.,0.));
#451 = ORIENTED_EDGE('',*,*,#452,.F.);
#452 = EDGE_CURVE('',#145,#445,#453,.T.);
#453 = LINE('',#454,#455);
#454 = CARTESIAN_POINT('',(35.322800000005,-3.1,0.));
#455 = VECTOR('',#456,1.);
#456 = DIRECTION('',(0.,0.,1.));
#457 = PLANE('',#458);
#458 = AXIS2_PLACEMENT_3D('',#459,#460,#461);
#459 = CARTESIAN_POINT('',(8.,-3.1,0.));
#460 = DIRECTION('',(0.,1.,0.));
#461 = DIRECTION('',(1.,0.,0.));
#462 = ADVANCED_FACE('',(#463),#482,.F.);
#463 = FACE_BOUND('',#464,.T.);
#464 = EDGE_LOOP('',(#465,#466,#467,#476));
#465 = ORIENTED_EDGE('',*,*,#152,.F.);
#466 = ORIENTED_EDGE('',*,*,#452,.T.);
#467 = ORIENTED_EDGE('',*,*,#468,.F.);
#468 = EDGE_CURVE('',#469,#445,#471,.T.);
#469 = VERTEX_POINT('',#470);
#470 = CARTESIAN_POINT('',(35.322800000005,3.1,7.));
#471 = CIRCLE('',#472,3.1);
#472 = AXIS2_PLACEMENT_3D('',#473,#474,#475);
#473 = CARTESIAN_POINT('',(35.322800000005,-2.E-16,7.));
#474 = DIRECTION('',(0.,0.,-1.));
#475 = DIRECTION('',(1.,0.,0.));
#476 = ORIENTED_EDGE('',*,*,#477,.F.);
#477 = EDGE_CURVE('',#153,#469,#478,.T.);
#478 = LINE('',#479,#480);
#479 = CARTESIAN_POINT('',(35.322800000005,3.1,0.));
#480 = VECTOR('',#481,1.);
#481 = DIRECTION('',(0.,0.,1.));
#482 = CYLINDRICAL_SURFACE('',#483,3.1);
#483 = AXIS2_PLACEMENT_3D('',#484,#485,#486);
#484 = CARTESIAN_POINT('',(35.322800000005,-2.E-16,0.));
#485 = DIRECTION('',(-0.,-0.,-1.));
#486 = DIRECTION('',(1.,0.,0.));
#487 = ADVANCED_FACE('',(#488),#499,.F.);
#488 = FACE_BOUND('',#489,.F.);
#489 = EDGE_LOOP('',(#490,#491,#492,#498));
#490 = ORIENTED_EDGE('',*,*,#161,.F.);
#491 = ORIENTED_EDGE('',*,*,#411,.T.);
#492 = ORIENTED_EDGE('',*,*,#493,.T.);
#493 = EDGE_CURVE('',#412,#469,#494,.T.);
#494 = LINE('',#495,#496);
#495 = CARTESIAN_POINT('',(4.,3.1,7.));
#496 = VECTOR('',#497,1.);
#497 = DIRECTION('',(1.,2.E-17,0.));
#498 = ORIENTED_EDGE('',*,*,#477,.F.);
#499 = PLANE('',#500);
#500 = AXIS2_PLACEMENT_3D('',#501,#502,#503);
#501 = CARTESIAN_POINT('',(8.,3.1,0.));
#502 = DIRECTION('',(-2.E-17,1.,0.));
#503 = DIRECTION('',(1.,2.E-17,0.));
#504 = ADVANCED_FACE('',(#505),#531,.F.);
#505 = FACE_BOUND('',#506,.T.);
#506 = EDGE_LOOP('',(#507,#508,#516,#525));
#507 = ORIENTED_EDGE('',*,*,#169,.F.);
#508 = ORIENTED_EDGE('',*,*,#509,.T.);
#509 = EDGE_CURVE('',#170,#510,#512,.T.);
#510 = VERTEX_POINT('',#511);
#511 = CARTESIAN_POINT('',(-35.3228,3.1,7.));
#512 = LINE('',#513,#514);
#513 = CARTESIAN_POINT('',(-35.3228,3.1,0.));
#514 = VECTOR('',#515,1.);
#515 = DIRECTION('',(0.,0.,1.));
#516 = ORIENTED_EDGE('',*,*,#517,.F.);
#517 = EDGE_CURVE('',#518,#510,#520,.T.);
#518 = VERTEX_POINT('',#519);
#519 = CARTESIAN_POINT('',(-35.3228,-3.1,7.));
#520 = CIRCLE('',#521,3.1);
#521 = AXIS2_PLACEMENT_3D('',#522,#523,#524);
#522 = CARTESIAN_POINT('',(-35.3228,0.,7.));
#523 = DIRECTION('',(0.,0.,-1.));
#524 = DIRECTION('',(1.,0.,0.));
#525 = ORIENTED_EDGE('',*,*,#526,.F.);
#526 = EDGE_CURVE('',#172,#518,#527,.T.);
#527 = LINE('',#528,#529);
#528 = CARTESIAN_POINT('',(-35.3228,-3.1,0.));
#529 = VECTOR('',#530,1.);
#530 = DIRECTION('',(0.,0.,1.));
#531 = CYLINDRICAL_SURFACE('',#532,3.1);
#532 = AXIS2_PLACEMENT_3D('',#533,#534,#535);
#533 = CARTESIAN_POINT('',(-35.3228,0.,0.));
#534 = DIRECTION('',(-0.,-0.,-1.));
#535 = DIRECTION('',(1.,0.,0.));
#536 = ADVANCED_FACE('',(#537),#555,.T.);
#537 = FACE_BOUND('',#538,.T.);
#538 = EDGE_LOOP('',(#539,#540,#541,#549));
#539 = ORIENTED_EDGE('',*,*,#180,.F.);
#540 = ORIENTED_EDGE('',*,*,#526,.T.);
#541 = ORIENTED_EDGE('',*,*,#542,.T.);
#542 = EDGE_CURVE('',#518,#543,#545,.T.);
#543 = VERTEX_POINT('',#544);
#544 = CARTESIAN_POINT('',(-8.,-3.1,7.));
#545 = LINE('',#546,#547);
#546 = CARTESIAN_POINT('',(-17.6614,-3.1,7.));
#547 = VECTOR('',#548,1.);
#548 = DIRECTION('',(1.,0.,0.));
#549 = ORIENTED_EDGE('',*,*,#550,.F.);
#550 = EDGE_CURVE('',#181,#543,#551,.T.);
#551 = LINE('',#552,#553);
#552 = CARTESIAN_POINT('',(-8.,-3.1,0.));
#553 = VECTOR('',#554,1.);
#554 = DIRECTION('',(0.,0.,1.));
#555 = PLANE('',#556);
#556 = AXIS2_PLACEMENT_3D('',#557,#558,#559);
#557 = CARTESIAN_POINT('',(-35.3228,-3.1,0.));
#558 = DIRECTION('',(0.,1.,0.));
#559 = DIRECTION('',(1.,0.,0.));
#560 = ADVANCED_FACE('',(#561),#580,.F.);
#561 = FACE_BOUND('',#562,.T.);
#562 = EDGE_LOOP('',(#563,#564,#565,#574));
#563 = ORIENTED_EDGE('',*,*,#188,.F.);
#564 = ORIENTED_EDGE('',*,*,#550,.T.);
#565 = ORIENTED_EDGE('',*,*,#566,.F.);
#566 = EDGE_CURVE('',#567,#543,#569,.T.);
#567 = VERTEX_POINT('',#568);
#568 = CARTESIAN_POINT('',(-8.,3.1,7.));
#569 = CIRCLE('',#570,3.1);
#570 = AXIS2_PLACEMENT_3D('',#571,#572,#573);
#571 = CARTESIAN_POINT('',(-8.,-3.E-16,7.));
#572 = DIRECTION('',(0.,0.,-1.));
#573 = DIRECTION('',(1.,0.,0.));
#574 = ORIENTED_EDGE('',*,*,#575,.F.);
#575 = EDGE_CURVE('',#189,#567,#576,.T.);
#576 = LINE('',#577,#578);
#577 = CARTESIAN_POINT('',(-8.,3.1,0.));
#578 = VECTOR('',#579,1.);
#579 = DIRECTION('',(0.,0.,1.));
#580 = CYLINDRICAL_SURFACE('',#581,3.1);
#581 = AXIS2_PLACEMENT_3D('',#582,#583,#584);
#582 = CARTESIAN_POINT('',(-8.,-3.E-16,0.));
#583 = DIRECTION('',(-0.,-0.,-1.));
#584 = DIRECTION('',(1.,0.,0.));
#585 = ADVANCED_FACE('',(#586),#597,.F.);
#586 = FACE_BOUND('',#587,.F.);
#587 = EDGE_LOOP('',(#588,#589,#590,#596));
#588 = ORIENTED_EDGE('',*,*,#197,.F.);
#589 = ORIENTED_EDGE('',*,*,#509,.T.);
#590 = ORIENTED_EDGE('',*,*,#591,.T.);
#591 = EDGE_CURVE('',#510,#567,#592,.T.);
#592 = LINE('',#593,#594);
#593 = CARTESIAN_POINT('',(-17.6614,3.1,7.));
#594 = VECTOR('',#595,1.);
#595 = DIRECTION('',(1.,-2.E-17,0.));
#596 = ORIENTED_EDGE('',*,*,#575,.F.);
#597 = PLANE('',#598);
#598 = AXIS2_PLACEMENT_3D('',#599,#600,#601);
#599 = CARTESIAN_POINT('',(-35.3228,3.1,0.));
#600 = DIRECTION('',(2.E-17,1.,0.));
#601 = DIRECTION('',(1.,-2.E-17,0.));
#602 = ADVANCED_FACE('',(#603),#629,.F.);
#603 = FACE_BOUND('',#604,.F.);
#604 = EDGE_LOOP('',(#605,#613,#622,#628));
#605 = ORIENTED_EDGE('',*,*,#606,.T.);
#606 = EDGE_CURVE('',#271,#607,#609,.T.);
#607 = VERTEX_POINT('',#608);
#608 = CARTESIAN_POINT('',(-35.3228,5.25,7.));
#609 = LINE('',#610,#611);
#610 = CARTESIAN_POINT('',(-35.3228,5.25,15.));
#611 = VECTOR('',#612,1.);
#612 = DIRECTION('',(-0.,-0.,-1.));
#613 = ORIENTED_EDGE('',*,*,#614,.T.);
#614 = EDGE_CURVE('',#607,#615,#617,.T.);
#615 = VERTEX_POINT('',#616);
#616 = CARTESIAN_POINT('',(-35.3228,-5.25,7.));
#617 = CIRCLE('',#618,5.25);
#618 = AXIS2_PLACEMENT_3D('',#619,#620,#621);
#619 = CARTESIAN_POINT('',(-35.3228,0.,7.));
#620 = DIRECTION('',(0.,0.,1.));
#621 = DIRECTION('',(1.,0.,0.));
#622 = ORIENTED_EDGE('',*,*,#623,.F.);
#623 = EDGE_CURVE('',#273,#615,#624,.T.);
#624 = LINE('',#625,#626);
#625 = CARTESIAN_POINT('',(-35.3228,-5.25,15.));
#626 = VECTOR('',#627,1.);
#627 = DIRECTION('',(-0.,-0.,-1.));
#628 = ORIENTED_EDGE('',*,*,#270,.F.);
#629 = CYLINDRICAL_SURFACE('',#630,5.25);
#630 = AXIS2_PLACEMENT_3D('',#631,#632,#633);
#631 = CARTESIAN_POINT('',(-35.3228,0.,15.));
#632 = DIRECTION('',(0.,0.,1.));
#633 = DIRECTION('',(1.,0.,-0.));
#634 = ADVANCED_FACE('',(#635),#653,.F.);
#635 = FACE_BOUND('',#636,.F.);
#636 = EDGE_LOOP('',(#637,#638,#646,#652));
#637 = ORIENTED_EDGE('',*,*,#623,.T.);
#638 = ORIENTED_EDGE('',*,*,#639,.T.);
#639 = EDGE_CURVE('',#615,#640,#642,.T.);
#640 = VERTEX_POINT('',#641);
#641 = CARTESIAN_POINT('',(-8.,-5.25,7.));
#642 = LINE('',#643,#644);
#643 = CARTESIAN_POINT('',(-35.3228,-5.25,7.));
#644 = VECTOR('',#645,1.);
#645 = DIRECTION('',(1.,0.,0.));
#646 = ORIENTED_EDGE('',*,*,#647,.F.);
#647 = EDGE_CURVE('',#290,#640,#648,.T.);
#648 = LINE('',#649,#650);
#649 = CARTESIAN_POINT('',(-8.,-5.25,15.));
#650 = VECTOR('',#651,1.);
#651 = DIRECTION('',(-0.,-0.,-1.));
#652 = ORIENTED_EDGE('',*,*,#298,.F.);
#653 = PLANE('',#654);
#654 = AXIS2_PLACEMENT_3D('',#655,#656,#657);
#655 = CARTESIAN_POINT('',(-35.3228,-5.25,15.));
#656 = DIRECTION('',(0.,-1.,0.));
#657 = DIRECTION('',(1.,0.,0.));
#658 = ADVANCED_FACE('',(#659),#678,.F.);
#659 = FACE_BOUND('',#660,.F.);
#660 = EDGE_LOOP('',(#661,#662,#671,#677));
#661 = ORIENTED_EDGE('',*,*,#647,.T.);
#662 = ORIENTED_EDGE('',*,*,#663,.T.);
#663 = EDGE_CURVE('',#640,#664,#666,.T.);
#664 = VERTEX_POINT('',#665);
#665 = CARTESIAN_POINT('',(-8.,5.25,7.));
#666 = CIRCLE('',#667,5.25);
#667 = AXIS2_PLACEMENT_3D('',#668,#669,#670);
#668 = CARTESIAN_POINT('',(-8.,0.,7.));
#669 = DIRECTION('',(0.,0.,1.));
#670 = DIRECTION('',(1.,0.,0.));
#671 = ORIENTED_EDGE('',*,*,#672,.F.);
#672 = EDGE_CURVE('',#282,#664,#673,.T.);
#673 = LINE('',#674,#675);
#674 = CARTESIAN_POINT('',(-8.,5.25,15.));
#675 = VECTOR('',#676,1.);
#676 = DIRECTION('',(-0.,-0.,-1.));
#677 = ORIENTED_EDGE('',*,*,#289,.F.);
#678 = CYLINDRICAL_SURFACE('',#679,5.25);
#679 = AXIS2_PLACEMENT_3D('',#680,#681,#682);
#680 = CARTESIAN_POINT('',(-8.,0.,15.));
#681 = DIRECTION('',(0.,0.,1.));
#682 = DIRECTION('',(1.,0.,-0.));
#683 = ADVANCED_FACE('',(#684),#695,.T.);
#684 = FACE_BOUND('',#685,.T.);
#685 = EDGE_LOOP('',(#686,#687,#693,#694));
#686 = ORIENTED_EDGE('',*,*,#606,.T.);
#687 = ORIENTED_EDGE('',*,*,#688,.T.);
#688 = EDGE_CURVE('',#607,#664,#689,.T.);
#689 = LINE('',#690,#691);
#690 = CARTESIAN_POINT('',(-35.3228,5.25,7.));
#691 = VECTOR('',#692,1.);
#692 = DIRECTION('',(1.,0.,0.));
#693 = ORIENTED_EDGE('',*,*,#672,.F.);
#694 = ORIENTED_EDGE('',*,*,#281,.F.);
#695 = PLANE('',#696);
#696 = AXIS2_PLACEMENT_3D('',#697,#698,#699);
#697 = CARTESIAN_POINT('',(-35.3228,5.25,15.));
#698 = DIRECTION('',(0.,-1.,0.));
#699 = DIRECTION('',(1.,0.,0.));
#700 = ADVANCED_FACE('',(#701),#727,.F.);
#701 = FACE_BOUND('',#702,.F.);
#702 = EDGE_LOOP('',(#703,#711,#720,#726));
#703 = ORIENTED_EDGE('',*,*,#704,.T.);
#704 = EDGE_CURVE('',#307,#705,#707,.T.);
#705 = VERTEX_POINT('',#706);
#706 = CARTESIAN_POINT('',(8.,5.25,7.));
#707 = LINE('',#708,#709);
#708 = CARTESIAN_POINT('',(8.,5.25,15.));
#709 = VECTOR('',#710,1.);
#710 = DIRECTION('',(-0.,-0.,-1.));
#711 = ORIENTED_EDGE('',*,*,#712,.T.);
#712 = EDGE_CURVE('',#705,#713,#715,.T.);
#713 = VERTEX_POINT('',#714);
#714 = CARTESIAN_POINT('',(8.,-5.25,7.));
#715 = CIRCLE('',#716,5.25);
#716 = AXIS2_PLACEMENT_3D('',#717,#718,#719);
#717 = CARTESIAN_POINT('',(8.,0.,7.));
#718 = DIRECTION('',(0.,0.,1.));
#719 = DIRECTION('',(1.,0.,0.));
#720 = ORIENTED_EDGE('',*,*,#721,.F.);
#721 = EDGE_CURVE('',#309,#713,#722,.T.);
#722 = LINE('',#723,#724);
#723 = CARTESIAN_POINT('',(8.,-5.25,15.));
#724 = VECTOR('',#725,1.);
#725 = DIRECTION('',(-0.,-0.,-1.));
#726 = ORIENTED_EDGE('',*,*,#306,.F.);
#727 = CYLINDRICAL_SURFACE('',#728,5.25);
#728 = AXIS2_PLACEMENT_3D('',#729,#730,#731);
#729 = CARTESIAN_POINT('',(8.,0.,15.));
#730 = DIRECTION('',(0.,0.,1.));
#731 = DIRECTION('',(1.,0.,-0.));
#732 = ADVANCED_FACE('',(#733),#751,.F.);
#733 = FACE_BOUND('',#734,.F.);
#734 = EDGE_LOOP('',(#735,#736,#744,#750));
#735 = ORIENTED_EDGE('',*,*,#721,.T.);
#736 = ORIENTED_EDGE('',*,*,#737,.T.);
#737 = EDGE_CURVE('',#713,#738,#740,.T.);
#738 = VERTEX_POINT('',#739);
#739 = CARTESIAN_POINT('',(35.322800000005,-5.25,7.));
#740 = LINE('',#741,#742);
#741 = CARTESIAN_POINT('',(8.,-5.25,7.));
#742 = VECTOR('',#743,1.);
#743 = DIRECTION('',(1.,0.,0.));
#744 = ORIENTED_EDGE('',*,*,#745,.F.);
#745 = EDGE_CURVE('',#326,#738,#746,.T.);
#746 = LINE('',#747,#748);
#747 = CARTESIAN_POINT('',(35.322800000005,-5.25,15.));
#748 = VECTOR('',#749,1.);
#749 = DIRECTION('',(-0.,-0.,-1.));
#750 = ORIENTED_EDGE('',*,*,#334,.F.);
#751 = PLANE('',#752);
#752 = AXIS2_PLACEMENT_3D('',#753,#754,#755);
#753 = CARTESIAN_POINT('',(8.,-5.25,15.));
#754 = DIRECTION('',(0.,-1.,0.));
#755 = DIRECTION('',(1.,0.,0.));
#756 = ADVANCED_FACE('',(#757),#776,.F.);
#757 = FACE_BOUND('',#758,.F.);
#758 = EDGE_LOOP('',(#759,#760,#769,#775));
#759 = ORIENTED_EDGE('',*,*,#745,.T.);
#760 = ORIENTED_EDGE('',*,*,#761,.T.);
#761 = EDGE_CURVE('',#738,#762,#764,.T.);
#762 = VERTEX_POINT('',#763);
#763 = CARTESIAN_POINT('',(35.322800000005,5.25,7.));
#764 = CIRCLE('',#765,5.25);
#765 = AXIS2_PLACEMENT_3D('',#766,#767,#768);
#766 = CARTESIAN_POINT('',(35.322800000005,0.,7.));
#767 = DIRECTION('',(0.,0.,1.));
#768 = DIRECTION('',(1.,0.,0.));
#769 = ORIENTED_EDGE('',*,*,#770,.F.);
#770 = EDGE_CURVE('',#318,#762,#771,.T.);
#771 = LINE('',#772,#773);
#772 = CARTESIAN_POINT('',(35.322800000005,5.25,15.));
#773 = VECTOR('',#774,1.);
#774 = DIRECTION('',(-0.,-0.,-1.));
#775 = ORIENTED_EDGE('',*,*,#325,.F.);
#776 = CYLINDRICAL_SURFACE('',#777,5.25);
#777 = AXIS2_PLACEMENT_3D('',#778,#779,#780);
#778 = CARTESIAN_POINT('',(35.322800000005,0.,15.));
#779 = DIRECTION('',(0.,0.,1.));
#780 = DIRECTION('',(1.,0.,-0.));
#781 = ADVANCED_FACE('',(#782),#793,.T.);
#782 = FACE_BOUND('',#783,.T.);
#783 = EDGE_LOOP('',(#784,#785,#791,#792));
#784 = ORIENTED_EDGE('',*,*,#704,.T.);
#785 = ORIENTED_EDGE('',*,*,#786,.T.);
#786 = EDGE_CURVE('',#705,#762,#787,.T.);
#787 = LINE('',#788,#789);
#788 = CARTESIAN_POINT('',(8.,5.25,7.));
#789 = VECTOR('',#790,1.);
#790 = DIRECTION('',(1.,0.,0.));
#791 = ORIENTED_EDGE('',*,*,#770,.F.);
#792 = ORIENTED_EDGE('',*,*,#317,.F.);
#793 = PLANE('',#794);
#794 = AXIS2_PLACEMENT_3D('',#795,#796,#797);
#795 = CARTESIAN_POINT('',(8.,5.25,15.));
#796 = DIRECTION('',(0.,-1.,0.));
#797 = DIRECTION('',(1.,0.,0.));
#798 = ADVANCED_FACE('',(#799),#818,.F.);
#799 = FACE_BOUND('',#800,.F.);
#800 = EDGE_LOOP('',(#801,#809,#816,#817));
#801 = ORIENTED_EDGE('',*,*,#802,.T.);
#802 = EDGE_CURVE('',#349,#803,#805,.T.);
#803 = VERTEX_POINT('',#804);
#804 = CARTESIAN_POINT('',(-34.8228,-8.1,8.));
#805 = LINE('',#806,#807);
#806 = CARTESIAN_POINT('',(-34.8228,-18.1,8.));
#807 = VECTOR('',#808,1.);
#808 = DIRECTION('',(0.,1.,-2.2E-16));
#809 = ORIENTED_EDGE('',*,*,#810,.T.);
#810 = EDGE_CURVE('',#803,#803,#811,.T.);
#811 = CIRCLE('',#812,3.);
#812 = AXIS2_PLACEMENT_3D('',#813,#814,#815);
#813 = CARTESIAN_POINT('',(-37.8228,-8.1,8.));
#814 = DIRECTION('',(0.,-1.,0.));
#815 = DIRECTION('',(1.,0.,0.));
#816 = ORIENTED_EDGE('',*,*,#802,.F.);
#817 = ORIENTED_EDGE('',*,*,#358,.F.);
#818 = CYLINDRICAL_SURFACE('',#819,3.);
#819 = AXIS2_PLACEMENT_3D('',#820,#821,#822);
#820 = CARTESIAN_POINT('',(-37.8228,-18.1,8.));
#821 = DIRECTION('',(0.,-1.,2.2E-16));
#822 = DIRECTION('',(1.,0.,0.));
#823 = ADVANCED_FACE('',(#824),#827,.F.);
#824 = FACE_BOUND('',#825,.T.);
#825 = EDGE_LOOP('',(#826));
#826 = ORIENTED_EDGE('',*,*,#381,.T.);
#827 = PLANE('',#828);
#828 = AXIS2_PLACEMENT_3D('',#829,#830,#831);
#829 = CARTESIAN_POINT('',(-2.280000000283E-02,-8.1,8.));
#830 = DIRECTION('',(0.,1.,-6.8E-16));
#831 = DIRECTION('',(0.,6.8E-16,1.));
#832 = ADVANCED_FACE('',(#833,#839),#845,.T.);
#833 = FACE_BOUND('',#834,.T.);
#834 = EDGE_LOOP('',(#835,#836,#837,#838));
#835 = ORIENTED_EDGE('',*,*,#712,.T.);
#836 = ORIENTED_EDGE('',*,*,#737,.T.);
#837 = ORIENTED_EDGE('',*,*,#761,.T.);
#838 = ORIENTED_EDGE('',*,*,#786,.F.);
#839 = FACE_BOUND('',#840,.T.);
#840 = EDGE_LOOP('',(#841,#842,#843,#844));
#841 = ORIENTED_EDGE('',*,*,#444,.F.);
#842 = ORIENTED_EDGE('',*,*,#419,.T.);
#843 = ORIENTED_EDGE('',*,*,#493,.T.);
#844 = ORIENTED_EDGE('',*,*,#468,.T.);
#845 = PLANE('',#846);
#846 = AXIS2_PLACEMENT_3D('',#847,#848,#849);
#847 = CARTESIAN_POINT('',(9.9E-16,-3.3E-16,7.));
#848 = DIRECTION('',(0.,0.,1.));
#849 = DIRECTION('',(1.,0.,0.));
#850 = ADVANCED_FACE('',(#851,#857),#863,.T.);
#851 = FACE_BOUND('',#852,.T.);
#852 = EDGE_LOOP('',(#853,#854,#855,#856));
#853 = ORIENTED_EDGE('',*,*,#614,.T.);
#854 = ORIENTED_EDGE('',*,*,#639,.T.);
#855 = ORIENTED_EDGE('',*,*,#663,.T.);
#856 = ORIENTED_EDGE('',*,*,#688,.F.);
#857 = FACE_BOUND('',#858,.T.);
#858 = EDGE_LOOP('',(#859,#860,#861,#862));
#859 = ORIENTED_EDGE('',*,*,#542,.F.);
#860 = ORIENTED_EDGE('',*,*,#517,.T.);
#861 = ORIENTED_EDGE('',*,*,#591,.T.);
#862 = ORIENTED_EDGE('',*,*,#566,.T.);
#863 = PLANE('',#864);
#864 = AXIS2_PLACEMENT_3D('',#865,#866,#867);
#865 = CARTESIAN_POINT('',(9.9E-16,-3.3E-16,7.));
#866 = DIRECTION('',(0.,0.,1.));
#867 = DIRECTION('',(1.,0.,0.));
#868 = ADVANCED_FACE('',(#869),#872,.F.);
#869 = FACE_BOUND('',#870,.T.);
#870 = EDGE_LOOP('',(#871));
#871 = ORIENTED_EDGE('',*,*,#810,.T.);
#872 = PLANE('',#873);
#873 = AXIS2_PLACEMENT_3D('',#874,#875,#876);
#874 = CARTESIAN_POINT('',(-2.280000000283E-02,-8.1,8.));
#875 = DIRECTION('',(0.,1.,-6.8E-16));
#876 = DIRECTION('',(0.,6.8E-16,1.));
#877 = ( GEOMETRIC_REPRESENTATION_CONTEXT(3) 
GLOBAL_UNCERTAINTY_ASSIGNED_CONTEXT((#881)) GLOBAL_UNIT_ASSIGNED_CONTEXT
((#878,#879,#880)) REPRESENTATION_CONTEXT('Context #1',
  '3D Context with UNIT and UNCERTAINTY') );
#878 = ( LENGTH_UNIT() NAMED_UNIT(*) SI_UNIT(.MILLI.,.METRE.) );
#879 = ( NAMED_UNIT(*) PLANE_ANGLE_UNIT() SI_UNIT($,.RADIAN.) );
#880 = ( NAMED_UNIT(*) SI_UNIT($,.STERADIAN.) SOLID_ANGLE_UNIT() );
#881 = UNCERTAINTY_MEASURE_WITH_UNIT(LENGTH_MEASURE(5.E-06),#878,
  'distance_accuracy_value','confusion accuracy');
#882 = PRODUCT_RELATED_PRODUCT_CATEGORY('part',$,(#7));
#883 = MECHANICAL_DESIGN_GEOMETRIC_PRESENTATION_REPRESENTATION('',(#884)
  ,#877);
#884 = STYLED_ITEM('color',(#885),#15);
#885 = PRESENTATION_STYLE_ASSIGNMENT((#886,#892));
#886 = SURFACE_STYLE_USAGE(.BOTH.,#887);
#887 = SURFACE_SIDE_STYLE('',(#888));
#888 = SURFACE_STYLE_FILL_AREA(#889);
#889 = FILL_AREA_STYLE('',(#890));
#890 = FILL_AREA_STYLE_COLOUR('',#891);
#891 = COLOUR_RGB('',0.447058818107,0.474509808674,0.501960817233);
#892 = CURVE_STYLE('',#893,POSITIVE_LENGTH_MEASURE(0.1),#894);
#893 = DRAUGHTING_PRE_DEFINED_CURVE_FONT('continuous');
#894 = COLOUR_RGB('',9.803921802644E-02,9.803921802644E-02,
  9.803921802644E-02);
ENDSEC;
END-ISO-10303-21;
