ISO-10303-21;
HEADER;
FILE_DESCRIPTION(('FreeCAD Model'),'2;1');
FILE_NAME('Open CASCADE Shape Model','2026-03-31T14:55:07',(''),(''),
  'Open CASCADE STEP processor 7.8','FreeCAD','Unknown');
FILE_SCHEMA(('AUTOMOTIVE_DESIGN { 1 0 10303 214 1 1 1 1 }'));
ENDSEC;
DATA;
#1 = APPLICATION_PROTOCOL_DEFINITION('international standard',
  'automotive_design',2000,#2);
#2 = APPLICATION_CONTEXT(
  'core data for automotive mechanical design processes');
#3 = SHAPE_DEFINITION_REPRESENTATION(#4,#10);
#4 = PRODUCT_DEFINITION_SHAPE('','',#5);
#5 = PRODUCT_DEFINITION('design','',#6,#9);
#6 = PRODUCT_DEFINITION_FORMATION('','',#7);
#7 = PRODUCT('LGX 夹','LGX 夹','',(#8));
#8 = PRODUCT_CONTEXT('',#2,'mechanical');
#9 = PRODUCT_DEFINITION_CONTEXT('part definition',#2,'design');
#10 = ADVANCED_BREP_SHAPE_REPRESENTATION('',(#11,#15),#1259);
#11 = AXIS2_PLACEMENT_3D('',#12,#13,#14);
#12 = CARTESIAN_POINT('',(0.,0.,0.));
#13 = DIRECTION('',(0.,0.,1.));
#14 = DIRECTION('',(1.,0.,-0.));
#15 = MANIFOLD_SOLID_BREP('',#16);
#16 = CLOSED_SHELL('',(#17,#84,#109,#204,#264,#288,#376,#400,#417,#442,
    #459,#481,#498,#537,#554,#593,#646,#663,#747,#778,#803,#827,#845,
    #870,#895,#912,#929,#960,#985,#1009,#1027,#1059,#1083,#1108,#1125,
    #1157,#1181,#1206,#1223,#1241));
#17 = ADVANCED_FACE('',(#18,#29),#79,.F.);
#18 = FACE_BOUND('',#19,.F.);
#19 = EDGE_LOOP('',(#20));
#20 = ORIENTED_EDGE('',*,*,#21,.F.);
#21 = EDGE_CURVE('',#22,#22,#24,.T.);
#22 = VERTEX_POINT('',#23);
#23 = CARTESIAN_POINT('',(-27.5,6.17,9.8));
#24 = CIRCLE('',#25,2.65);
#25 = AXIS2_PLACEMENT_3D('',#26,#27,#28);
#26 = CARTESIAN_POINT('',(-27.5,3.52,9.8));
#27 = DIRECTION('',(1.,0.,0.));
#28 = DIRECTION('',(0.,1.,0.));
#29 = FACE_BOUND('',#30,.F.);
#30 = EDGE_LOOP('',(#31,#41,#49,#57,#65,#73));
#31 = ORIENTED_EDGE('',*,*,#32,.F.);
#32 = EDGE_CURVE('',#33,#35,#37,.T.);
#33 = VERTEX_POINT('',#34);
#34 = CARTESIAN_POINT('',(-27.5,32.,0.));
#35 = VERTEX_POINT('',#36);
#36 = CARTESIAN_POINT('',(-27.5,0.,0.));
#37 = LINE('',#38,#39);
#38 = CARTESIAN_POINT('',(-27.5,32.,0.));
#39 = VECTOR('',#40,1.);
#40 = DIRECTION('',(0.,-1.,0.));
#41 = ORIENTED_EDGE('',*,*,#42,.T.);
#42 = EDGE_CURVE('',#33,#43,#45,.T.);
#43 = VERTEX_POINT('',#44);
#44 = CARTESIAN_POINT('',(-27.5,32.,33.));
#45 = LINE('',#46,#47);
#46 = CARTESIAN_POINT('',(-27.5,32.,0.));
#47 = VECTOR('',#48,1.);
#48 = DIRECTION('',(0.,0.,1.));
#49 = ORIENTED_EDGE('',*,*,#50,.T.);
#50 = EDGE_CURVE('',#43,#51,#53,.T.);
#51 = VERTEX_POINT('',#52);
#52 = CARTESIAN_POINT('',(-27.5,10.,33.));
#53 = LINE('',#54,#55);
#54 = CARTESIAN_POINT('',(-27.5,32.,33.));
#55 = VECTOR('',#56,1.);
#56 = DIRECTION('',(0.,-1.,0.));
#57 = ORIENTED_EDGE('',*,*,#58,.F.);
#58 = EDGE_CURVE('',#59,#51,#61,.T.);
#59 = VERTEX_POINT('',#60);
#60 = CARTESIAN_POINT('',(-27.5,10.,18.));
#61 = LINE('',#62,#63);
#62 = CARTESIAN_POINT('',(-27.5,10.,9.));
#63 = VECTOR('',#64,1.);
#64 = DIRECTION('',(0.,0.,1.));
#65 = ORIENTED_EDGE('',*,*,#66,.F.);
#66 = EDGE_CURVE('',#67,#59,#69,.T.);
#67 = VERTEX_POINT('',#68);
#68 = CARTESIAN_POINT('',(-27.5,0.,18.));
#69 = LINE('',#70,#71);
#70 = CARTESIAN_POINT('',(-27.5,16.,18.));
#71 = VECTOR('',#72,1.);
#72 = DIRECTION('',(0.,1.,0.));
#73 = ORIENTED_EDGE('',*,*,#74,.F.);
#74 = EDGE_CURVE('',#35,#67,#75,.T.);
#75 = LINE('',#76,#77);
#76 = CARTESIAN_POINT('',(-27.5,0.,0.));
#77 = VECTOR('',#78,1.);
#78 = DIRECTION('',(0.,0.,1.));
#79 = PLANE('',#80);
#80 = AXIS2_PLACEMENT_3D('',#81,#82,#83);
#81 = CARTESIAN_POINT('',(-27.5,32.,0.));
#82 = DIRECTION('',(1.,0.,0.));
#83 = DIRECTION('',(0.,-1.,0.));
#84 = ADVANCED_FACE('',(#85),#104,.F.);
#85 = FACE_BOUND('',#86,.F.);
#86 = EDGE_LOOP('',(#87,#95,#96,#97));
#87 = ORIENTED_EDGE('',*,*,#88,.F.);
#88 = EDGE_CURVE('',#22,#89,#91,.T.);
#89 = VERTEX_POINT('',#90);
#90 = CARTESIAN_POINT('',(-26.5,5.17,9.8));
#91 = LINE('',#92,#93);
#92 = CARTESIAN_POINT('',(-26.5,5.17,9.8));
#93 = VECTOR('',#94,1.);
#94 = DIRECTION('',(0.707106781187,-0.707106781187,0.));
#95 = ORIENTED_EDGE('',*,*,#21,.T.);
#96 = ORIENTED_EDGE('',*,*,#88,.T.);
#97 = ORIENTED_EDGE('',*,*,#98,.F.);
#98 = EDGE_CURVE('',#89,#89,#99,.T.);
#99 = CIRCLE('',#100,1.65);
#100 = AXIS2_PLACEMENT_3D('',#101,#102,#103);
#101 = CARTESIAN_POINT('',(-26.5,3.52,9.8));
#102 = DIRECTION('',(1.,0.,0.));
#103 = DIRECTION('',(0.,1.,0.));
#104 = CONICAL_SURFACE('',#105,1.65,0.785398163397);
#105 = AXIS2_PLACEMENT_3D('',#106,#107,#108);
#106 = CARTESIAN_POINT('',(-26.5,3.52,9.8));
#107 = DIRECTION('',(-1.,-0.,-0.));
#108 = DIRECTION('',(0.,1.,0.));
#109 = ADVANCED_FACE('',(#110),#199,.F.);
#110 = FACE_BOUND('',#111,.F.);
#111 = EDGE_LOOP('',(#112,#122,#128,#129,#137,#145,#153,#161,#169,#177,
    #185,#193));
#112 = ORIENTED_EDGE('',*,*,#113,.T.);
#113 = EDGE_CURVE('',#114,#116,#118,.T.);
#114 = VERTEX_POINT('',#115);
#115 = CARTESIAN_POINT('',(-45.3,40.,0.));
#116 = VERTEX_POINT('',#117);
#117 = CARTESIAN_POINT('',(-45.3,32.,0.));
#118 = LINE('',#119,#120);
#119 = CARTESIAN_POINT('',(-45.3,40.,0.));
#120 = VECTOR('',#121,1.);
#121 = DIRECTION('',(0.,-1.,0.));
#122 = ORIENTED_EDGE('',*,*,#123,.T.);
#123 = EDGE_CURVE('',#116,#33,#124,.T.);
#124 = LINE('',#125,#126);
#125 = CARTESIAN_POINT('',(-45.3,32.,0.));
#126 = VECTOR('',#127,1.);
#127 = DIRECTION('',(1.,0.,0.));
#128 = ORIENTED_EDGE('',*,*,#32,.T.);
#129 = ORIENTED_EDGE('',*,*,#130,.T.);
#130 = EDGE_CURVE('',#35,#131,#133,.T.);
#131 = VERTEX_POINT('',#132);
#132 = CARTESIAN_POINT('',(-19.5,0.,0.));
#133 = LINE('',#134,#135);
#134 = CARTESIAN_POINT('',(-27.5,0.,0.));
#135 = VECTOR('',#136,1.);
#136 = DIRECTION('',(1.,0.,0.));
#137 = ORIENTED_EDGE('',*,*,#138,.T.);
#138 = EDGE_CURVE('',#131,#139,#141,.T.);
#139 = VERTEX_POINT('',#140);
#140 = CARTESIAN_POINT('',(-19.5,32.,0.));
#141 = LINE('',#142,#143);
#142 = CARTESIAN_POINT('',(-19.5,0.,0.));
#143 = VECTOR('',#144,1.);
#144 = DIRECTION('',(0.,1.,0.));
#145 = ORIENTED_EDGE('',*,*,#146,.T.);
#146 = EDGE_CURVE('',#139,#147,#149,.T.);
#147 = VERTEX_POINT('',#148);
#148 = CARTESIAN_POINT('',(19.5,32.,0.));
#149 = LINE('',#150,#151);
#150 = CARTESIAN_POINT('',(-19.5,32.,0.));
#151 = VECTOR('',#152,1.);
#152 = DIRECTION('',(1.,0.,0.));
#153 = ORIENTED_EDGE('',*,*,#154,.T.);
#154 = EDGE_CURVE('',#147,#155,#157,.T.);
#155 = VERTEX_POINT('',#156);
#156 = CARTESIAN_POINT('',(19.5,0.,0.));
#157 = LINE('',#158,#159);
#158 = CARTESIAN_POINT('',(19.5,32.,0.));
#159 = VECTOR('',#160,1.);
#160 = DIRECTION('',(0.,-1.,0.));
#161 = ORIENTED_EDGE('',*,*,#162,.T.);
#162 = EDGE_CURVE('',#155,#163,#165,.T.);
#163 = VERTEX_POINT('',#164);
#164 = CARTESIAN_POINT('',(27.5,0.,0.));
#165 = LINE('',#166,#167);
#166 = CARTESIAN_POINT('',(19.5,0.,0.));
#167 = VECTOR('',#168,1.);
#168 = DIRECTION('',(1.,0.,0.));
#169 = ORIENTED_EDGE('',*,*,#170,.T.);
#170 = EDGE_CURVE('',#163,#171,#173,.T.);
#171 = VERTEX_POINT('',#172);
#172 = CARTESIAN_POINT('',(27.5,32.,0.));
#173 = LINE('',#174,#175);
#174 = CARTESIAN_POINT('',(27.5,0.,0.));
#175 = VECTOR('',#176,1.);
#176 = DIRECTION('',(0.,1.,0.));
#177 = ORIENTED_EDGE('',*,*,#178,.T.);
#178 = EDGE_CURVE('',#171,#179,#181,.T.);
#179 = VERTEX_POINT('',#180);
#180 = CARTESIAN_POINT('',(45.3,32.,0.));
#181 = LINE('',#182,#183);
#182 = CARTESIAN_POINT('',(27.5,32.,0.));
#183 = VECTOR('',#184,1.);
#184 = DIRECTION('',(1.,0.,0.));
#185 = ORIENTED_EDGE('',*,*,#186,.T.);
#186 = EDGE_CURVE('',#179,#187,#189,.T.);
#187 = VERTEX_POINT('',#188);
#188 = CARTESIAN_POINT('',(45.3,40.,0.));
#189 = LINE('',#190,#191);
#190 = CARTESIAN_POINT('',(45.3,32.,0.));
#191 = VECTOR('',#192,1.);
#192 = DIRECTION('',(0.,1.,0.));
#193 = ORIENTED_EDGE('',*,*,#194,.T.);
#194 = EDGE_CURVE('',#187,#114,#195,.T.);
#195 = LINE('',#196,#197);
#196 = CARTESIAN_POINT('',(45.3,40.,0.));
#197 = VECTOR('',#198,1.);
#198 = DIRECTION('',(-1.,0.,0.));
#199 = PLANE('',#200);
#200 = AXIS2_PLACEMENT_3D('',#201,#202,#203);
#201 = CARTESIAN_POINT('',(0.,26.553505535055,0.));
#202 = DIRECTION('',(0.,0.,1.));
#203 = DIRECTION('',(1.,0.,0.));
#204 = ADVANCED_FACE('',(#205,#223),#259,.F.);
#205 = FACE_BOUND('',#206,.F.);
#206 = EDGE_LOOP('',(#207,#215,#221,#222));
#207 = ORIENTED_EDGE('',*,*,#208,.T.);
#208 = EDGE_CURVE('',#116,#209,#211,.T.);
#209 = VERTEX_POINT('',#210);
#210 = CARTESIAN_POINT('',(-45.3,32.,33.));
#211 = LINE('',#212,#213);
#212 = CARTESIAN_POINT('',(-45.3,32.,0.));
#213 = VECTOR('',#214,1.);
#214 = DIRECTION('',(0.,0.,1.));
#215 = ORIENTED_EDGE('',*,*,#216,.T.);
#216 = EDGE_CURVE('',#209,#43,#217,.T.);
#217 = LINE('',#218,#219);
#218 = CARTESIAN_POINT('',(-45.3,32.,33.));
#219 = VECTOR('',#220,1.);
#220 = DIRECTION('',(1.,0.,0.));
#221 = ORIENTED_EDGE('',*,*,#42,.F.);
#222 = ORIENTED_EDGE('',*,*,#123,.F.);
#223 = FACE_BOUND('',#224,.F.);
#224 = EDGE_LOOP('',(#225,#235,#244,#252));
#225 = ORIENTED_EDGE('',*,*,#226,.T.);
#226 = EDGE_CURVE('',#227,#229,#231,.T.);
#227 = VERTEX_POINT('',#228);
#228 = CARTESIAN_POINT('',(-33.8228,32.,5.5));
#229 = VERTEX_POINT('',#230);
#230 = CARTESIAN_POINT('',(-33.8228,32.,27.5));
#231 = LINE('',#232,#233);
#232 = CARTESIAN_POINT('',(-33.8228,32.,13.75));
#233 = VECTOR('',#234,1.);
#234 = DIRECTION('',(0.,0.,1.));
#235 = ORIENTED_EDGE('',*,*,#236,.T.);
#236 = EDGE_CURVE('',#229,#237,#239,.T.);
#237 = VERTEX_POINT('',#238);
#238 = CARTESIAN_POINT('',(-41.8228,32.,27.5));
#239 = CIRCLE('',#240,4.);
#240 = AXIS2_PLACEMENT_3D('',#241,#242,#243);
#241 = CARTESIAN_POINT('',(-37.8228,32.,27.5));
#242 = DIRECTION('',(0.,-1.,2.2E-16));
#243 = DIRECTION('',(1.,0.,0.));
#244 = ORIENTED_EDGE('',*,*,#245,.F.);
#245 = EDGE_CURVE('',#246,#237,#248,.T.);
#246 = VERTEX_POINT('',#247);
#247 = CARTESIAN_POINT('',(-41.8228,32.,5.5));
#248 = LINE('',#249,#250);
#249 = CARTESIAN_POINT('',(-41.8228,32.,13.75));
#250 = VECTOR('',#251,1.);
#251 = DIRECTION('',(0.,0.,1.));
#252 = ORIENTED_EDGE('',*,*,#253,.T.);
#253 = EDGE_CURVE('',#246,#227,#254,.T.);
#254 = CIRCLE('',#255,4.);
#255 = AXIS2_PLACEMENT_3D('',#256,#257,#258);
#256 = CARTESIAN_POINT('',(-37.8228,32.,5.5));
#257 = DIRECTION('',(0.,-1.,2.2E-16));
#258 = DIRECTION('',(1.,0.,0.));
#259 = PLANE('',#260);
#260 = AXIS2_PLACEMENT_3D('',#261,#262,#263);
#261 = CARTESIAN_POINT('',(-45.3,32.,0.));
#262 = DIRECTION('',(0.,1.,0.));
#263 = DIRECTION('',(1.,0.,0.));
#264 = ADVANCED_FACE('',(#265),#283,.F.);
#265 = FACE_BOUND('',#266,.F.);
#266 = EDGE_LOOP('',(#267,#268,#269,#277));
#267 = ORIENTED_EDGE('',*,*,#130,.F.);
#268 = ORIENTED_EDGE('',*,*,#74,.T.);
#269 = ORIENTED_EDGE('',*,*,#270,.F.);
#270 = EDGE_CURVE('',#271,#67,#273,.T.);
#271 = VERTEX_POINT('',#272);
#272 = CARTESIAN_POINT('',(-19.5,0.,18.));
#273 = LINE('',#274,#275);
#274 = CARTESIAN_POINT('',(0.,0.,18.));
#275 = VECTOR('',#276,1.);
#276 = DIRECTION('',(-1.,-0.,-0.));
#277 = ORIENTED_EDGE('',*,*,#278,.F.);
#278 = EDGE_CURVE('',#131,#271,#279,.T.);
#279 = LINE('',#280,#281);
#280 = CARTESIAN_POINT('',(-19.5,0.,0.));
#281 = VECTOR('',#282,1.);
#282 = DIRECTION('',(0.,0.,1.));
#283 = PLANE('',#284);
#284 = AXIS2_PLACEMENT_3D('',#285,#286,#287);
#285 = CARTESIAN_POINT('',(-27.5,0.,0.));
#286 = DIRECTION('',(0.,1.,0.));
#287 = DIRECTION('',(1.,0.,0.));
#288 = ADVANCED_FACE('',(#289),#371,.T.);
#289 = FACE_BOUND('',#290,.T.);
#290 = EDGE_LOOP('',(#291,#301,#307,#308,#309,#317,#325,#333,#341,#349,
    #357,#365));
#291 = ORIENTED_EDGE('',*,*,#292,.T.);
#292 = EDGE_CURVE('',#293,#295,#297,.T.);
#293 = VERTEX_POINT('',#294);
#294 = CARTESIAN_POINT('',(45.3,40.,33.));
#295 = VERTEX_POINT('',#296);
#296 = CARTESIAN_POINT('',(-45.3,40.,33.));
#297 = LINE('',#298,#299);
#298 = CARTESIAN_POINT('',(45.3,40.,33.));
#299 = VECTOR('',#300,1.);
#300 = DIRECTION('',(-1.,0.,0.));
#301 = ORIENTED_EDGE('',*,*,#302,.T.);
#302 = EDGE_CURVE('',#295,#209,#303,.T.);
#303 = LINE('',#304,#305);
#304 = CARTESIAN_POINT('',(-45.3,40.,33.));
#305 = VECTOR('',#306,1.);
#306 = DIRECTION('',(0.,-1.,0.));
#307 = ORIENTED_EDGE('',*,*,#216,.T.);
#308 = ORIENTED_EDGE('',*,*,#50,.T.);
#309 = ORIENTED_EDGE('',*,*,#310,.F.);
#310 = EDGE_CURVE('',#311,#51,#313,.T.);
#311 = VERTEX_POINT('',#312);
#312 = CARTESIAN_POINT('',(-19.5,10.,33.));
#313 = LINE('',#314,#315);
#314 = CARTESIAN_POINT('',(0.,10.,33.));
#315 = VECTOR('',#316,1.);
#316 = DIRECTION('',(-1.,-0.,-0.));
#317 = ORIENTED_EDGE('',*,*,#318,.T.);
#318 = EDGE_CURVE('',#311,#319,#321,.T.);
#319 = VERTEX_POINT('',#320);
#320 = CARTESIAN_POINT('',(-19.5,32.,33.));
#321 = LINE('',#322,#323);
#322 = CARTESIAN_POINT('',(-19.5,0.,33.));
#323 = VECTOR('',#324,1.);
#324 = DIRECTION('',(0.,1.,0.));
#325 = ORIENTED_EDGE('',*,*,#326,.T.);
#326 = EDGE_CURVE('',#319,#327,#329,.T.);
#327 = VERTEX_POINT('',#328);
#328 = CARTESIAN_POINT('',(19.5,32.,33.));
#329 = LINE('',#330,#331);
#330 = CARTESIAN_POINT('',(-19.5,32.,33.));
#331 = VECTOR('',#332,1.);
#332 = DIRECTION('',(1.,0.,0.));
#333 = ORIENTED_EDGE('',*,*,#334,.T.);
#334 = EDGE_CURVE('',#327,#335,#337,.T.);
#335 = VERTEX_POINT('',#336);
#336 = CARTESIAN_POINT('',(19.5,0.,33.));
#337 = LINE('',#338,#339);
#338 = CARTESIAN_POINT('',(19.5,32.,33.));
#339 = VECTOR('',#340,1.);
#340 = DIRECTION('',(0.,-1.,0.));
#341 = ORIENTED_EDGE('',*,*,#342,.T.);
#342 = EDGE_CURVE('',#335,#343,#345,.T.);
#343 = VERTEX_POINT('',#344);
#344 = CARTESIAN_POINT('',(27.5,0.,33.));
#345 = LINE('',#346,#347);
#346 = CARTESIAN_POINT('',(19.5,0.,33.));
#347 = VECTOR('',#348,1.);
#348 = DIRECTION('',(1.,0.,0.));
#349 = ORIENTED_EDGE('',*,*,#350,.T.);
#350 = EDGE_CURVE('',#343,#351,#353,.T.);
#351 = VERTEX_POINT('',#352);
#352 = CARTESIAN_POINT('',(27.5,32.,33.));
#353 = LINE('',#354,#355);
#354 = CARTESIAN_POINT('',(27.5,0.,33.));
#355 = VECTOR('',#356,1.);
#356 = DIRECTION('',(0.,1.,0.));
#357 = ORIENTED_EDGE('',*,*,#358,.T.);
#358 = EDGE_CURVE('',#351,#359,#361,.T.);
#359 = VERTEX_POINT('',#360);
#360 = CARTESIAN_POINT('',(45.3,32.,33.));
#361 = LINE('',#362,#363);
#362 = CARTESIAN_POINT('',(27.5,32.,33.));
#363 = VECTOR('',#364,1.);
#364 = DIRECTION('',(1.,0.,0.));
#365 = ORIENTED_EDGE('',*,*,#366,.T.);
#366 = EDGE_CURVE('',#359,#293,#367,.T.);
#367 = LINE('',#368,#369);
#368 = CARTESIAN_POINT('',(45.3,32.,33.));
#369 = VECTOR('',#370,1.);
#370 = DIRECTION('',(0.,1.,0.));
#371 = PLANE('',#372);
#372 = AXIS2_PLACEMENT_3D('',#373,#374,#375);
#373 = CARTESIAN_POINT('',(0.,26.553505535055,33.));
#374 = DIRECTION('',(0.,0.,1.));
#375 = DIRECTION('',(1.,0.,0.));
#376 = ADVANCED_FACE('',(#377),#395,.F.);
#377 = FACE_BOUND('',#378,.F.);
#378 = EDGE_LOOP('',(#379,#387,#388,#389));
#379 = ORIENTED_EDGE('',*,*,#380,.T.);
#380 = EDGE_CURVE('',#381,#271,#383,.T.);
#381 = VERTEX_POINT('',#382);
#382 = CARTESIAN_POINT('',(-19.5,10.,18.));
#383 = LINE('',#384,#385);
#384 = CARTESIAN_POINT('',(-19.5,0.,18.));
#385 = VECTOR('',#386,1.);
#386 = DIRECTION('',(-0.,-1.,-0.));
#387 = ORIENTED_EDGE('',*,*,#270,.T.);
#388 = ORIENTED_EDGE('',*,*,#66,.T.);
#389 = ORIENTED_EDGE('',*,*,#390,.F.);
#390 = EDGE_CURVE('',#381,#59,#391,.T.);
#391 = LINE('',#392,#393);
#392 = CARTESIAN_POINT('',(0.,10.,18.));
#393 = VECTOR('',#394,1.);
#394 = DIRECTION('',(-1.,-0.,-0.));
#395 = PLANE('',#396);
#396 = AXIS2_PLACEMENT_3D('',#397,#398,#399);
#397 = CARTESIAN_POINT('',(0.,0.,18.));
#398 = DIRECTION('',(0.,0.,-1.));
#399 = DIRECTION('',(0.,1.,0.));
#400 = ADVANCED_FACE('',(#401),#412,.F.);
#401 = FACE_BOUND('',#402,.F.);
#402 = EDGE_LOOP('',(#403,#409,#410,#411));
#403 = ORIENTED_EDGE('',*,*,#404,.T.);
#404 = EDGE_CURVE('',#311,#381,#405,.T.);
#405 = LINE('',#406,#407);
#406 = CARTESIAN_POINT('',(-19.5,10.,9.));
#407 = VECTOR('',#408,1.);
#408 = DIRECTION('',(0.,0.,-1.));
#409 = ORIENTED_EDGE('',*,*,#390,.T.);
#410 = ORIENTED_EDGE('',*,*,#58,.T.);
#411 = ORIENTED_EDGE('',*,*,#310,.F.);
#412 = PLANE('',#413);
#413 = AXIS2_PLACEMENT_3D('',#414,#415,#416);
#414 = CARTESIAN_POINT('',(0.,10.,18.));
#415 = DIRECTION('',(0.,1.,0.));
#416 = DIRECTION('',(0.,0.,1.));
#417 = ADVANCED_FACE('',(#418),#437,.F.);
#418 = FACE_BOUND('',#419,.F.);
#419 = EDGE_LOOP('',(#420,#428,#435,#436));
#420 = ORIENTED_EDGE('',*,*,#421,.F.);
#421 = EDGE_CURVE('',#422,#89,#424,.T.);
#422 = VERTEX_POINT('',#423);
#423 = CARTESIAN_POINT('',(-19.5,5.17,9.8));
#424 = LINE('',#425,#426);
#425 = CARTESIAN_POINT('',(105.43432522665,5.17,9.8));
#426 = VECTOR('',#427,1.);
#427 = DIRECTION('',(-1.,-0.,-0.));
#428 = ORIENTED_EDGE('',*,*,#429,.F.);
#429 = EDGE_CURVE('',#422,#422,#430,.T.);
#430 = CIRCLE('',#431,1.65);
#431 = AXIS2_PLACEMENT_3D('',#432,#433,#434);
#432 = CARTESIAN_POINT('',(-19.5,3.52,9.8));
#433 = DIRECTION('',(1.,0.,0.));
#434 = DIRECTION('',(0.,1.,0.));
#435 = ORIENTED_EDGE('',*,*,#421,.T.);
#436 = ORIENTED_EDGE('',*,*,#98,.T.);
#437 = CYLINDRICAL_SURFACE('',#438,1.65);
#438 = AXIS2_PLACEMENT_3D('',#439,#440,#441);
#439 = CARTESIAN_POINT('',(105.43432522665,3.52,9.8));
#440 = DIRECTION('',(1.,0.,0.));
#441 = DIRECTION('',(0.,1.,0.));
#442 = ADVANCED_FACE('',(#443),#454,.F.);
#443 = FACE_BOUND('',#444,.F.);
#444 = EDGE_LOOP('',(#445,#451,#452,#453));
#445 = ORIENTED_EDGE('',*,*,#446,.T.);
#446 = EDGE_CURVE('',#114,#295,#447,.T.);
#447 = LINE('',#448,#449);
#448 = CARTESIAN_POINT('',(-45.3,40.,0.));
#449 = VECTOR('',#450,1.);
#450 = DIRECTION('',(0.,0.,1.));
#451 = ORIENTED_EDGE('',*,*,#302,.T.);
#452 = ORIENTED_EDGE('',*,*,#208,.F.);
#453 = ORIENTED_EDGE('',*,*,#113,.F.);
#454 = PLANE('',#455);
#455 = AXIS2_PLACEMENT_3D('',#456,#457,#458);
#456 = CARTESIAN_POINT('',(-45.3,40.,0.));
#457 = DIRECTION('',(1.,0.,0.));
#458 = DIRECTION('',(0.,-1.,0.));
#459 = ADVANCED_FACE('',(#460,#473),#476,.F.);
#460 = FACE_BOUND('',#461,.F.);
#461 = EDGE_LOOP('',(#462,#463,#464,#465,#466,#467));
#462 = ORIENTED_EDGE('',*,*,#138,.F.);
#463 = ORIENTED_EDGE('',*,*,#278,.T.);
#464 = ORIENTED_EDGE('',*,*,#380,.F.);
#465 = ORIENTED_EDGE('',*,*,#404,.F.);
#466 = ORIENTED_EDGE('',*,*,#318,.T.);
#467 = ORIENTED_EDGE('',*,*,#468,.F.);
#468 = EDGE_CURVE('',#139,#319,#469,.T.);
#469 = LINE('',#470,#471);
#470 = CARTESIAN_POINT('',(-19.5,32.,0.));
#471 = VECTOR('',#472,1.);
#472 = DIRECTION('',(0.,0.,1.));
#473 = FACE_BOUND('',#474,.F.);
#474 = EDGE_LOOP('',(#475));
#475 = ORIENTED_EDGE('',*,*,#429,.T.);
#476 = PLANE('',#477);
#477 = AXIS2_PLACEMENT_3D('',#478,#479,#480);
#478 = CARTESIAN_POINT('',(-19.5,0.,0.));
#479 = DIRECTION('',(-1.,0.,0.));
#480 = DIRECTION('',(0.,1.,0.));
#481 = ADVANCED_FACE('',(#482),#493,.F.);
#482 = FACE_BOUND('',#483,.F.);
#483 = EDGE_LOOP('',(#484,#485,#486,#492));
#484 = ORIENTED_EDGE('',*,*,#468,.T.);
#485 = ORIENTED_EDGE('',*,*,#326,.T.);
#486 = ORIENTED_EDGE('',*,*,#487,.F.);
#487 = EDGE_CURVE('',#147,#327,#488,.T.);
#488 = LINE('',#489,#490);
#489 = CARTESIAN_POINT('',(19.5,32.,0.));
#490 = VECTOR('',#491,1.);
#491 = DIRECTION('',(0.,0.,1.));
#492 = ORIENTED_EDGE('',*,*,#146,.F.);
#493 = PLANE('',#494);
#494 = AXIS2_PLACEMENT_3D('',#495,#496,#497);
#495 = CARTESIAN_POINT('',(-19.5,32.,0.));
#496 = DIRECTION('',(0.,1.,0.));
#497 = DIRECTION('',(1.,0.,0.));
#498 = ADVANCED_FACE('',(#499,#510,#521),#532,.F.);
#499 = FACE_BOUND('',#500,.F.);
#500 = EDGE_LOOP('',(#501,#502,#503,#509));
#501 = ORIENTED_EDGE('',*,*,#487,.T.);
#502 = ORIENTED_EDGE('',*,*,#334,.T.);
#503 = ORIENTED_EDGE('',*,*,#504,.F.);
#504 = EDGE_CURVE('',#155,#335,#505,.T.);
#505 = LINE('',#506,#507);
#506 = CARTESIAN_POINT('',(19.5,0.,0.));
#507 = VECTOR('',#508,1.);
#508 = DIRECTION('',(0.,0.,1.));
#509 = ORIENTED_EDGE('',*,*,#154,.F.);
#510 = FACE_BOUND('',#511,.F.);
#511 = EDGE_LOOP('',(#512));
#512 = ORIENTED_EDGE('',*,*,#513,.F.);
#513 = EDGE_CURVE('',#514,#514,#516,.T.);
#514 = VERTEX_POINT('',#515);
#515 = CARTESIAN_POINT('',(19.5,5.17,28.8));
#516 = CIRCLE('',#517,1.65);
#517 = AXIS2_PLACEMENT_3D('',#518,#519,#520);
#518 = CARTESIAN_POINT('',(19.5,3.52,28.8));
#519 = DIRECTION('',(1.,0.,0.));
#520 = DIRECTION('',(0.,1.,0.));
#521 = FACE_BOUND('',#522,.F.);
#522 = EDGE_LOOP('',(#523));
#523 = ORIENTED_EDGE('',*,*,#524,.F.);
#524 = EDGE_CURVE('',#525,#525,#527,.T.);
#525 = VERTEX_POINT('',#526);
#526 = CARTESIAN_POINT('',(19.5,5.17,9.8));
#527 = CIRCLE('',#528,1.65);
#528 = AXIS2_PLACEMENT_3D('',#529,#530,#531);
#529 = CARTESIAN_POINT('',(19.5,3.52,9.8));
#530 = DIRECTION('',(1.,0.,0.));
#531 = DIRECTION('',(0.,1.,0.));
#532 = PLANE('',#533);
#533 = AXIS2_PLACEMENT_3D('',#534,#535,#536);
#534 = CARTESIAN_POINT('',(19.5,32.,0.));
#535 = DIRECTION('',(1.,0.,0.));
#536 = DIRECTION('',(0.,-1.,0.));
#537 = ADVANCED_FACE('',(#538),#549,.F.);
#538 = FACE_BOUND('',#539,.F.);
#539 = EDGE_LOOP('',(#540,#541,#542,#548));
#540 = ORIENTED_EDGE('',*,*,#504,.T.);
#541 = ORIENTED_EDGE('',*,*,#342,.T.);
#542 = ORIENTED_EDGE('',*,*,#543,.F.);
#543 = EDGE_CURVE('',#163,#343,#544,.T.);
#544 = LINE('',#545,#546);
#545 = CARTESIAN_POINT('',(27.5,0.,0.));
#546 = VECTOR('',#547,1.);
#547 = DIRECTION('',(0.,0.,1.));
#548 = ORIENTED_EDGE('',*,*,#162,.F.);
#549 = PLANE('',#550);
#550 = AXIS2_PLACEMENT_3D('',#551,#552,#553);
#551 = CARTESIAN_POINT('',(19.5,0.,0.));
#552 = DIRECTION('',(0.,1.,0.));
#553 = DIRECTION('',(1.,0.,0.));
#554 = ADVANCED_FACE('',(#555,#566,#577),#588,.F.);
#555 = FACE_BOUND('',#556,.F.);
#556 = EDGE_LOOP('',(#557));
#557 = ORIENTED_EDGE('',*,*,#558,.T.);
#558 = EDGE_CURVE('',#559,#559,#561,.T.);
#559 = VERTEX_POINT('',#560);
#560 = CARTESIAN_POINT('',(27.5,6.17,9.8));
#561 = CIRCLE('',#562,2.65);
#562 = AXIS2_PLACEMENT_3D('',#563,#564,#565);
#563 = CARTESIAN_POINT('',(27.5,3.52,9.8));
#564 = DIRECTION('',(1.,0.,0.));
#565 = DIRECTION('',(0.,1.,0.));
#566 = FACE_BOUND('',#567,.F.);
#567 = EDGE_LOOP('',(#568,#569,#570,#576));
#568 = ORIENTED_EDGE('',*,*,#543,.T.);
#569 = ORIENTED_EDGE('',*,*,#350,.T.);
#570 = ORIENTED_EDGE('',*,*,#571,.F.);
#571 = EDGE_CURVE('',#171,#351,#572,.T.);
#572 = LINE('',#573,#574);
#573 = CARTESIAN_POINT('',(27.5,32.,0.));
#574 = VECTOR('',#575,1.);
#575 = DIRECTION('',(0.,0.,1.));
#576 = ORIENTED_EDGE('',*,*,#170,.F.);
#577 = FACE_BOUND('',#578,.F.);
#578 = EDGE_LOOP('',(#579));
#579 = ORIENTED_EDGE('',*,*,#580,.T.);
#580 = EDGE_CURVE('',#581,#581,#583,.T.);
#581 = VERTEX_POINT('',#582);
#582 = CARTESIAN_POINT('',(27.5,6.17,28.8));
#583 = CIRCLE('',#584,2.65);
#584 = AXIS2_PLACEMENT_3D('',#585,#586,#587);
#585 = CARTESIAN_POINT('',(27.5,3.52,28.8));
#586 = DIRECTION('',(1.,0.,0.));
#587 = DIRECTION('',(0.,1.,0.));
#588 = PLANE('',#589);
#589 = AXIS2_PLACEMENT_3D('',#590,#591,#592);
#590 = CARTESIAN_POINT('',(27.5,0.,0.));
#591 = DIRECTION('',(-1.,0.,0.));
#592 = DIRECTION('',(0.,1.,0.));
#593 = ADVANCED_FACE('',(#594,#605),#641,.F.);
#594 = FACE_BOUND('',#595,.F.);
#595 = EDGE_LOOP('',(#596,#597,#598,#604));
#596 = ORIENTED_EDGE('',*,*,#571,.T.);
#597 = ORIENTED_EDGE('',*,*,#358,.T.);
#598 = ORIENTED_EDGE('',*,*,#599,.F.);
#599 = EDGE_CURVE('',#179,#359,#600,.T.);
#600 = LINE('',#601,#602);
#601 = CARTESIAN_POINT('',(45.3,32.,0.));
#602 = VECTOR('',#603,1.);
#603 = DIRECTION('',(0.,0.,1.));
#604 = ORIENTED_EDGE('',*,*,#178,.F.);
#605 = FACE_BOUND('',#606,.F.);
#606 = EDGE_LOOP('',(#607,#617,#626,#634));
#607 = ORIENTED_EDGE('',*,*,#608,.T.);
#608 = EDGE_CURVE('',#609,#611,#613,.T.);
#609 = VERTEX_POINT('',#610);
#610 = CARTESIAN_POINT('',(41.777199999994,32.,5.500000000021));
#611 = VERTEX_POINT('',#612);
#612 = CARTESIAN_POINT('',(41.777199999994,32.,27.5));
#613 = LINE('',#614,#615);
#614 = CARTESIAN_POINT('',(41.777199999994,32.,13.75));
#615 = VECTOR('',#616,1.);
#616 = DIRECTION('',(-3.2E-16,0.,1.));
#617 = ORIENTED_EDGE('',*,*,#618,.T.);
#618 = EDGE_CURVE('',#611,#619,#621,.T.);
#619 = VERTEX_POINT('',#620);
#620 = CARTESIAN_POINT('',(33.777199999994,32.,27.5));
#621 = CIRCLE('',#622,4.);
#622 = AXIS2_PLACEMENT_3D('',#623,#624,#625);
#623 = CARTESIAN_POINT('',(37.777199999994,32.,27.5));
#624 = DIRECTION('',(0.,-1.,2.2E-16));
#625 = DIRECTION('',(1.,0.,0.));
#626 = ORIENTED_EDGE('',*,*,#627,.F.);
#627 = EDGE_CURVE('',#628,#619,#630,.T.);
#628 = VERTEX_POINT('',#629);
#629 = CARTESIAN_POINT('',(33.777199999994,32.,5.500000000021));
#630 = LINE('',#631,#632);
#631 = CARTESIAN_POINT('',(33.777199999994,32.,13.75));
#632 = VECTOR('',#633,1.);
#633 = DIRECTION('',(-3.2E-16,0.,1.));
#634 = ORIENTED_EDGE('',*,*,#635,.T.);
#635 = EDGE_CURVE('',#628,#609,#636,.T.);
#636 = CIRCLE('',#637,4.);
#637 = AXIS2_PLACEMENT_3D('',#638,#639,#640);
#638 = CARTESIAN_POINT('',(37.777199999994,32.,5.500000000021));
#639 = DIRECTION('',(0.,-1.,2.2E-16));
#640 = DIRECTION('',(1.,0.,0.));
#641 = PLANE('',#642);
#642 = AXIS2_PLACEMENT_3D('',#643,#644,#645);
#643 = CARTESIAN_POINT('',(27.5,32.,0.));
#644 = DIRECTION('',(0.,1.,0.));
#645 = DIRECTION('',(1.,0.,0.));
#646 = ADVANCED_FACE('',(#647),#658,.F.);
#647 = FACE_BOUND('',#648,.F.);
#648 = EDGE_LOOP('',(#649,#650,#651,#657));
#649 = ORIENTED_EDGE('',*,*,#599,.T.);
#650 = ORIENTED_EDGE('',*,*,#366,.T.);
#651 = ORIENTED_EDGE('',*,*,#652,.F.);
#652 = EDGE_CURVE('',#187,#293,#653,.T.);
#653 = LINE('',#654,#655);
#654 = CARTESIAN_POINT('',(45.3,40.,0.));
#655 = VECTOR('',#656,1.);
#656 = DIRECTION('',(0.,0.,1.));
#657 = ORIENTED_EDGE('',*,*,#186,.F.);
#658 = PLANE('',#659);
#659 = AXIS2_PLACEMENT_3D('',#660,#661,#662);
#660 = CARTESIAN_POINT('',(45.3,32.,0.));
#661 = DIRECTION('',(-1.,0.,0.));
#662 = DIRECTION('',(0.,1.,0.));
#663 = ADVANCED_FACE('',(#664,#670,#706),#742,.F.);
#664 = FACE_BOUND('',#665,.F.);
#665 = EDGE_LOOP('',(#666,#667,#668,#669));
#666 = ORIENTED_EDGE('',*,*,#652,.T.);
#667 = ORIENTED_EDGE('',*,*,#292,.T.);
#668 = ORIENTED_EDGE('',*,*,#446,.F.);
#669 = ORIENTED_EDGE('',*,*,#194,.F.);
#670 = FACE_BOUND('',#671,.F.);
#671 = EDGE_LOOP('',(#672,#683,#691,#700));
#672 = ORIENTED_EDGE('',*,*,#673,.F.);
#673 = EDGE_CURVE('',#674,#676,#678,.T.);
#674 = VERTEX_POINT('',#675);
#675 = CARTESIAN_POINT('',(35.627199999994,40.,5.500000000021));
#676 = VERTEX_POINT('',#677);
#677 = CARTESIAN_POINT('',(39.927199999994,40.,5.500000000021));
#678 = CIRCLE('',#679,2.15);
#679 = AXIS2_PLACEMENT_3D('',#680,#681,#682);
#680 = CARTESIAN_POINT('',(37.777199999994,40.,5.500000000021));
#681 = DIRECTION('',(0.,-1.,2.2E-16));
#682 = DIRECTION('',(1.,0.,0.));
#683 = ORIENTED_EDGE('',*,*,#684,.T.);
#684 = EDGE_CURVE('',#674,#685,#687,.T.);
#685 = VERTEX_POINT('',#686);
#686 = CARTESIAN_POINT('',(35.627199999994,40.,27.5));
#687 = LINE('',#688,#689);
#688 = CARTESIAN_POINT('',(35.627199999994,40.,2.75000000001));
#689 = VECTOR('',#690,1.);
#690 = DIRECTION('',(0.,0.,1.));
#691 = ORIENTED_EDGE('',*,*,#692,.F.);
#692 = EDGE_CURVE('',#693,#685,#695,.T.);
#693 = VERTEX_POINT('',#694);
#694 = CARTESIAN_POINT('',(39.927199999994,40.,27.5));
#695 = CIRCLE('',#696,2.15);
#696 = AXIS2_PLACEMENT_3D('',#697,#698,#699);
#697 = CARTESIAN_POINT('',(37.777199999994,40.,27.5));
#698 = DIRECTION('',(0.,-1.,2.2E-16));
#699 = DIRECTION('',(1.,0.,0.));
#700 = ORIENTED_EDGE('',*,*,#701,.F.);
#701 = EDGE_CURVE('',#676,#693,#702,.T.);
#702 = LINE('',#703,#704);
#703 = CARTESIAN_POINT('',(39.927199999994,40.,2.75000000001));
#704 = VECTOR('',#705,1.);
#705 = DIRECTION('',(-6.5E-16,0.,1.));
#706 = FACE_BOUND('',#707,.F.);
#707 = EDGE_LOOP('',(#708,#719,#727,#736));
#708 = ORIENTED_EDGE('',*,*,#709,.F.);
#709 = EDGE_CURVE('',#710,#712,#714,.T.);
#710 = VERTEX_POINT('',#711);
#711 = CARTESIAN_POINT('',(-39.9728,40.,5.5));
#712 = VERTEX_POINT('',#713);
#713 = CARTESIAN_POINT('',(-35.6728,40.,5.5));
#714 = CIRCLE('',#715,2.15);
#715 = AXIS2_PLACEMENT_3D('',#716,#717,#718);
#716 = CARTESIAN_POINT('',(-37.8228,40.,5.5));
#717 = DIRECTION('',(0.,-1.,2.2E-16));
#718 = DIRECTION('',(1.,0.,0.));
#719 = ORIENTED_EDGE('',*,*,#720,.T.);
#720 = EDGE_CURVE('',#710,#721,#723,.T.);
#721 = VERTEX_POINT('',#722);
#722 = CARTESIAN_POINT('',(-39.9728,40.,27.5));
#723 = LINE('',#724,#725);
#724 = CARTESIAN_POINT('',(-39.9728,40.,2.75));
#725 = VECTOR('',#726,1.);
#726 = DIRECTION('',(0.,0.,1.));
#727 = ORIENTED_EDGE('',*,*,#728,.F.);
#728 = EDGE_CURVE('',#729,#721,#731,.T.);
#729 = VERTEX_POINT('',#730);
#730 = CARTESIAN_POINT('',(-35.6728,40.,27.5));
#731 = CIRCLE('',#732,2.15);
#732 = AXIS2_PLACEMENT_3D('',#733,#734,#735);
#733 = CARTESIAN_POINT('',(-37.8228,40.,27.5));
#734 = DIRECTION('',(0.,-1.,2.2E-16));
#735 = DIRECTION('',(1.,0.,0.));
#736 = ORIENTED_EDGE('',*,*,#737,.F.);
#737 = EDGE_CURVE('',#712,#729,#738,.T.);
#738 = LINE('',#739,#740);
#739 = CARTESIAN_POINT('',(-35.6728,40.,2.75));
#740 = VECTOR('',#741,1.);
#741 = DIRECTION('',(-3.2E-16,0.,1.));
#742 = PLANE('',#743);
#743 = AXIS2_PLACEMENT_3D('',#744,#745,#746);
#744 = CARTESIAN_POINT('',(45.3,40.,0.));
#745 = DIRECTION('',(0.,-1.,0.));
#746 = DIRECTION('',(-1.,0.,0.));
#747 = ADVANCED_FACE('',(#748),#773,.T.);
#748 = FACE_BOUND('',#749,.T.);
#749 = EDGE_LOOP('',(#750,#751,#759,#767));
#750 = ORIENTED_EDGE('',*,*,#226,.T.);
#751 = ORIENTED_EDGE('',*,*,#752,.T.);
#752 = EDGE_CURVE('',#229,#753,#755,.T.);
#753 = VERTEX_POINT('',#754);
#754 = CARTESIAN_POINT('',(-33.8228,36.,27.5));
#755 = LINE('',#756,#757);
#756 = CARTESIAN_POINT('',(-33.8228,6.11E-15,27.5));
#757 = VECTOR('',#758,1.);
#758 = DIRECTION('',(0.,1.,-2.2E-16));
#759 = ORIENTED_EDGE('',*,*,#760,.T.);
#760 = EDGE_CURVE('',#753,#761,#763,.T.);
#761 = VERTEX_POINT('',#762);
#762 = CARTESIAN_POINT('',(-33.8228,36.,5.5));
#763 = LINE('',#764,#765);
#764 = CARTESIAN_POINT('',(-33.8228,36.,13.75));
#765 = VECTOR('',#766,1.);
#766 = DIRECTION('',(0.,0.,-1.));
#767 = ORIENTED_EDGE('',*,*,#768,.F.);
#768 = EDGE_CURVE('',#227,#761,#769,.T.);
#769 = LINE('',#770,#771);
#770 = CARTESIAN_POINT('',(-33.8228,1.22E-15,5.5));
#771 = VECTOR('',#772,1.);
#772 = DIRECTION('',(0.,1.,-2.2E-16));
#773 = PLANE('',#774);
#774 = AXIS2_PLACEMENT_3D('',#775,#776,#777);
#775 = CARTESIAN_POINT('',(-33.8228,6.11E-15,27.5));
#776 = DIRECTION('',(-1.,0.,0.));
#777 = DIRECTION('',(-0.,-2.2E-16,-1.));
#778 = ADVANCED_FACE('',(#779),#798,.F.);
#779 = FACE_BOUND('',#780,.F.);
#780 = EDGE_LOOP('',(#781,#782,#790,#797));
#781 = ORIENTED_EDGE('',*,*,#253,.F.);
#782 = ORIENTED_EDGE('',*,*,#783,.T.);
#783 = EDGE_CURVE('',#246,#784,#786,.T.);
#784 = VERTEX_POINT('',#785);
#785 = CARTESIAN_POINT('',(-41.8228,36.,5.5));
#786 = LINE('',#787,#788);
#787 = CARTESIAN_POINT('',(-41.8228,1.22E-15,5.5));
#788 = VECTOR('',#789,1.);
#789 = DIRECTION('',(0.,1.,-2.2E-16));
#790 = ORIENTED_EDGE('',*,*,#791,.T.);
#791 = EDGE_CURVE('',#784,#761,#792,.T.);
#792 = CIRCLE('',#793,4.);
#793 = AXIS2_PLACEMENT_3D('',#794,#795,#796);
#794 = CARTESIAN_POINT('',(-37.8228,36.,5.5));
#795 = DIRECTION('',(0.,-1.,2.2E-16));
#796 = DIRECTION('',(1.,0.,0.));
#797 = ORIENTED_EDGE('',*,*,#768,.F.);
#798 = CYLINDRICAL_SURFACE('',#799,4.);
#799 = AXIS2_PLACEMENT_3D('',#800,#801,#802);
#800 = CARTESIAN_POINT('',(-37.8228,1.22E-15,5.5));
#801 = DIRECTION('',(0.,-1.,2.2E-16));
#802 = DIRECTION('',(1.,0.,0.));
#803 = ADVANCED_FACE('',(#804),#822,.F.);
#804 = FACE_BOUND('',#805,.F.);
#805 = EDGE_LOOP('',(#806,#807,#815,#821));
#806 = ORIENTED_EDGE('',*,*,#245,.T.);
#807 = ORIENTED_EDGE('',*,*,#808,.T.);
#808 = EDGE_CURVE('',#237,#809,#811,.T.);
#809 = VERTEX_POINT('',#810);
#810 = CARTESIAN_POINT('',(-41.8228,36.,27.5));
#811 = LINE('',#812,#813);
#812 = CARTESIAN_POINT('',(-41.8228,6.11E-15,27.5));
#813 = VECTOR('',#814,1.);
#814 = DIRECTION('',(0.,1.,-2.2E-16));
#815 = ORIENTED_EDGE('',*,*,#816,.T.);
#816 = EDGE_CURVE('',#809,#784,#817,.T.);
#817 = LINE('',#818,#819);
#818 = CARTESIAN_POINT('',(-41.8228,36.,13.75));
#819 = VECTOR('',#820,1.);
#820 = DIRECTION('',(0.,0.,-1.));
#821 = ORIENTED_EDGE('',*,*,#783,.F.);
#822 = PLANE('',#823);
#823 = AXIS2_PLACEMENT_3D('',#824,#825,#826);
#824 = CARTESIAN_POINT('',(-41.8228,6.11E-15,27.5));
#825 = DIRECTION('',(-1.,0.,0.));
#826 = DIRECTION('',(-0.,-2.2E-16,-1.));
#827 = ADVANCED_FACE('',(#828),#840,.F.);
#828 = FACE_BOUND('',#829,.F.);
#829 = EDGE_LOOP('',(#830,#831,#832,#839));
#830 = ORIENTED_EDGE('',*,*,#236,.F.);
#831 = ORIENTED_EDGE('',*,*,#752,.T.);
#832 = ORIENTED_EDGE('',*,*,#833,.T.);
#833 = EDGE_CURVE('',#753,#809,#834,.T.);
#834 = CIRCLE('',#835,4.);
#835 = AXIS2_PLACEMENT_3D('',#836,#837,#838);
#836 = CARTESIAN_POINT('',(-37.8228,36.,27.5));
#837 = DIRECTION('',(0.,-1.,2.2E-16));
#838 = DIRECTION('',(1.,0.,0.));
#839 = ORIENTED_EDGE('',*,*,#808,.F.);
#840 = CYLINDRICAL_SURFACE('',#841,4.);
#841 = AXIS2_PLACEMENT_3D('',#842,#843,#844);
#842 = CARTESIAN_POINT('',(-37.8228,6.11E-15,27.5));
#843 = DIRECTION('',(0.,-1.,2.2E-16));
#844 = DIRECTION('',(1.,0.,0.));
#845 = ADVANCED_FACE('',(#846),#865,.F.);
#846 = FACE_BOUND('',#847,.F.);
#847 = EDGE_LOOP('',(#848,#856,#863,#864));
#848 = ORIENTED_EDGE('',*,*,#849,.F.);
#849 = EDGE_CURVE('',#850,#514,#852,.T.);
#850 = VERTEX_POINT('',#851);
#851 = CARTESIAN_POINT('',(26.5,5.17,28.8));
#852 = LINE('',#853,#854);
#853 = CARTESIAN_POINT('',(105.43432522665,5.17,28.8));
#854 = VECTOR('',#855,1.);
#855 = DIRECTION('',(-1.,-0.,-0.));
#856 = ORIENTED_EDGE('',*,*,#857,.F.);
#857 = EDGE_CURVE('',#850,#850,#858,.T.);
#858 = CIRCLE('',#859,1.65);
#859 = AXIS2_PLACEMENT_3D('',#860,#861,#862);
#860 = CARTESIAN_POINT('',(26.5,3.52,28.8));
#861 = DIRECTION('',(1.,0.,0.));
#862 = DIRECTION('',(0.,1.,0.));
#863 = ORIENTED_EDGE('',*,*,#849,.T.);
#864 = ORIENTED_EDGE('',*,*,#513,.T.);
#865 = CYLINDRICAL_SURFACE('',#866,1.65);
#866 = AXIS2_PLACEMENT_3D('',#867,#868,#869);
#867 = CARTESIAN_POINT('',(105.43432522665,3.52,28.8));
#868 = DIRECTION('',(1.,0.,0.));
#869 = DIRECTION('',(0.,1.,0.));
#870 = ADVANCED_FACE('',(#871),#890,.F.);
#871 = FACE_BOUND('',#872,.F.);
#872 = EDGE_LOOP('',(#873,#881,#888,#889));
#873 = ORIENTED_EDGE('',*,*,#874,.F.);
#874 = EDGE_CURVE('',#875,#525,#877,.T.);
#875 = VERTEX_POINT('',#876);
#876 = CARTESIAN_POINT('',(26.5,5.17,9.8));
#877 = LINE('',#878,#879);
#878 = CARTESIAN_POINT('',(105.43432522665,5.17,9.8));
#879 = VECTOR('',#880,1.);
#880 = DIRECTION('',(-1.,-0.,-0.));
#881 = ORIENTED_EDGE('',*,*,#882,.F.);
#882 = EDGE_CURVE('',#875,#875,#883,.T.);
#883 = CIRCLE('',#884,1.65);
#884 = AXIS2_PLACEMENT_3D('',#885,#886,#887);
#885 = CARTESIAN_POINT('',(26.5,3.52,9.8));
#886 = DIRECTION('',(1.,0.,0.));
#887 = DIRECTION('',(0.,1.,0.));
#888 = ORIENTED_EDGE('',*,*,#874,.T.);
#889 = ORIENTED_EDGE('',*,*,#524,.T.);
#890 = CYLINDRICAL_SURFACE('',#891,1.65);
#891 = AXIS2_PLACEMENT_3D('',#892,#893,#894);
#892 = CARTESIAN_POINT('',(105.43432522665,3.52,9.8));
#893 = DIRECTION('',(1.,0.,0.));
#894 = DIRECTION('',(0.,1.,0.));
#895 = ADVANCED_FACE('',(#896),#907,.F.);
#896 = FACE_BOUND('',#897,.T.);
#897 = EDGE_LOOP('',(#898,#904,#905,#906));
#898 = ORIENTED_EDGE('',*,*,#899,.F.);
#899 = EDGE_CURVE('',#559,#875,#900,.T.);
#900 = LINE('',#901,#902);
#901 = CARTESIAN_POINT('',(26.5,5.17,9.8));
#902 = VECTOR('',#903,1.);
#903 = DIRECTION('',(-0.707106781187,-0.707106781187,0.));
#904 = ORIENTED_EDGE('',*,*,#558,.T.);
#905 = ORIENTED_EDGE('',*,*,#899,.T.);
#906 = ORIENTED_EDGE('',*,*,#882,.F.);
#907 = CONICAL_SURFACE('',#908,1.65,0.785398163397);
#908 = AXIS2_PLACEMENT_3D('',#909,#910,#911);
#909 = CARTESIAN_POINT('',(26.5,3.52,9.8));
#910 = DIRECTION('',(1.,0.,0.));
#911 = DIRECTION('',(0.,1.,0.));
#912 = ADVANCED_FACE('',(#913),#924,.F.);
#913 = FACE_BOUND('',#914,.T.);
#914 = EDGE_LOOP('',(#915,#921,#922,#923));
#915 = ORIENTED_EDGE('',*,*,#916,.F.);
#916 = EDGE_CURVE('',#581,#850,#917,.T.);
#917 = LINE('',#918,#919);
#918 = CARTESIAN_POINT('',(26.5,5.17,28.8));
#919 = VECTOR('',#920,1.);
#920 = DIRECTION('',(-0.707106781187,-0.707106781187,0.));
#921 = ORIENTED_EDGE('',*,*,#580,.T.);
#922 = ORIENTED_EDGE('',*,*,#916,.T.);
#923 = ORIENTED_EDGE('',*,*,#857,.F.);
#924 = CONICAL_SURFACE('',#925,1.65,0.785398163397);
#925 = AXIS2_PLACEMENT_3D('',#926,#927,#928);
#926 = CARTESIAN_POINT('',(26.5,3.52,28.8));
#927 = DIRECTION('',(1.,0.,0.));
#928 = DIRECTION('',(0.,1.,0.));
#929 = ADVANCED_FACE('',(#930),#955,.T.);
#930 = FACE_BOUND('',#931,.T.);
#931 = EDGE_LOOP('',(#932,#933,#941,#949));
#932 = ORIENTED_EDGE('',*,*,#608,.T.);
#933 = ORIENTED_EDGE('',*,*,#934,.T.);
#934 = EDGE_CURVE('',#611,#935,#937,.T.);
#935 = VERTEX_POINT('',#936);
#936 = CARTESIAN_POINT('',(41.777199999994,36.,27.5));
#937 = LINE('',#938,#939);
#938 = CARTESIAN_POINT('',(41.777199999994,6.11E-15,27.5));
#939 = VECTOR('',#940,1.);
#940 = DIRECTION('',(0.,1.,-2.2E-16));
#941 = ORIENTED_EDGE('',*,*,#942,.T.);
#942 = EDGE_CURVE('',#935,#943,#945,.T.);
#943 = VERTEX_POINT('',#944);
#944 = CARTESIAN_POINT('',(41.777199999994,36.,5.500000000021));
#945 = LINE('',#946,#947);
#946 = CARTESIAN_POINT('',(41.777199999994,36.,13.75));
#947 = VECTOR('',#948,1.);
#948 = DIRECTION('',(3.2E-16,0.,-1.));
#949 = ORIENTED_EDGE('',*,*,#950,.F.);
#950 = EDGE_CURVE('',#609,#943,#951,.T.);
#951 = LINE('',#952,#953);
#952 = CARTESIAN_POINT('',(41.777199999994,1.22E-15,5.500000000021));
#953 = VECTOR('',#954,1.);
#954 = DIRECTION('',(0.,1.,-2.2E-16));
#955 = PLANE('',#956);
#956 = AXIS2_PLACEMENT_3D('',#957,#958,#959);
#957 = CARTESIAN_POINT('',(41.777199999994,6.11E-15,27.5));
#958 = DIRECTION('',(-1.,-0.,-3.2E-16));
#959 = DIRECTION('',(3.2E-16,-2.2E-16,-1.));
#960 = ADVANCED_FACE('',(#961),#980,.F.);
#961 = FACE_BOUND('',#962,.F.);
#962 = EDGE_LOOP('',(#963,#964,#972,#979));
#963 = ORIENTED_EDGE('',*,*,#635,.F.);
#964 = ORIENTED_EDGE('',*,*,#965,.T.);
#965 = EDGE_CURVE('',#628,#966,#968,.T.);
#966 = VERTEX_POINT('',#967);
#967 = CARTESIAN_POINT('',(33.777199999994,36.,5.500000000021));
#968 = LINE('',#969,#970);
#969 = CARTESIAN_POINT('',(33.777199999994,1.22E-15,5.500000000021));
#970 = VECTOR('',#971,1.);
#971 = DIRECTION('',(0.,1.,-2.2E-16));
#972 = ORIENTED_EDGE('',*,*,#973,.T.);
#973 = EDGE_CURVE('',#966,#943,#974,.T.);
#974 = CIRCLE('',#975,4.);
#975 = AXIS2_PLACEMENT_3D('',#976,#977,#978);
#976 = CARTESIAN_POINT('',(37.777199999994,36.,5.500000000021));
#977 = DIRECTION('',(0.,-1.,2.2E-16));
#978 = DIRECTION('',(1.,0.,0.));
#979 = ORIENTED_EDGE('',*,*,#950,.F.);
#980 = CYLINDRICAL_SURFACE('',#981,4.);
#981 = AXIS2_PLACEMENT_3D('',#982,#983,#984);
#982 = CARTESIAN_POINT('',(37.777199999994,1.22E-15,5.500000000021));
#983 = DIRECTION('',(0.,-1.,2.2E-16));
#984 = DIRECTION('',(1.,0.,0.));
#985 = ADVANCED_FACE('',(#986),#1004,.F.);
#986 = FACE_BOUND('',#987,.F.);
#987 = EDGE_LOOP('',(#988,#989,#997,#1003));
#988 = ORIENTED_EDGE('',*,*,#627,.T.);
#989 = ORIENTED_EDGE('',*,*,#990,.T.);
#990 = EDGE_CURVE('',#619,#991,#993,.T.);
#991 = VERTEX_POINT('',#992);
#992 = CARTESIAN_POINT('',(33.777199999994,36.,27.5));
#993 = LINE('',#994,#995);
#994 = CARTESIAN_POINT('',(33.777199999994,6.11E-15,27.5));
#995 = VECTOR('',#996,1.);
#996 = DIRECTION('',(0.,1.,-2.2E-16));
#997 = ORIENTED_EDGE('',*,*,#998,.T.);
#998 = EDGE_CURVE('',#991,#966,#999,.T.);
#999 = LINE('',#1000,#1001);
#1000 = CARTESIAN_POINT('',(33.777199999994,36.,13.75));
#1001 = VECTOR('',#1002,1.);
#1002 = DIRECTION('',(3.2E-16,0.,-1.));
#1003 = ORIENTED_EDGE('',*,*,#965,.F.);
#1004 = PLANE('',#1005);
#1005 = AXIS2_PLACEMENT_3D('',#1006,#1007,#1008);
#1006 = CARTESIAN_POINT('',(33.777199999994,6.11E-15,27.5));
#1007 = DIRECTION('',(-1.,-0.,-3.2E-16));
#1008 = DIRECTION('',(3.2E-16,-2.2E-16,-1.));
#1009 = ADVANCED_FACE('',(#1010),#1022,.F.);
#1010 = FACE_BOUND('',#1011,.F.);
#1011 = EDGE_LOOP('',(#1012,#1013,#1014,#1021));
#1012 = ORIENTED_EDGE('',*,*,#618,.F.);
#1013 = ORIENTED_EDGE('',*,*,#934,.T.);
#1014 = ORIENTED_EDGE('',*,*,#1015,.T.);
#1015 = EDGE_CURVE('',#935,#991,#1016,.T.);
#1016 = CIRCLE('',#1017,4.);
#1017 = AXIS2_PLACEMENT_3D('',#1018,#1019,#1020);
#1018 = CARTESIAN_POINT('',(37.777199999994,36.,27.5));
#1019 = DIRECTION('',(0.,-1.,2.2E-16));
#1020 = DIRECTION('',(1.,0.,0.));
#1021 = ORIENTED_EDGE('',*,*,#990,.F.);
#1022 = CYLINDRICAL_SURFACE('',#1023,4.);
#1023 = AXIS2_PLACEMENT_3D('',#1024,#1025,#1026);
#1024 = CARTESIAN_POINT('',(37.777199999994,6.11E-15,27.5));
#1025 = DIRECTION('',(0.,-1.,2.2E-16));
#1026 = DIRECTION('',(1.,0.,0.));
#1027 = ADVANCED_FACE('',(#1028),#1054,.F.);
#1028 = FACE_BOUND('',#1029,.F.);
#1029 = EDGE_LOOP('',(#1030,#1041,#1047,#1048));
#1030 = ORIENTED_EDGE('',*,*,#1031,.F.);
#1031 = EDGE_CURVE('',#1032,#1034,#1036,.T.);
#1032 = VERTEX_POINT('',#1033);
#1033 = CARTESIAN_POINT('',(35.627199999994,36.,5.500000000021));
#1034 = VERTEX_POINT('',#1035);
#1035 = CARTESIAN_POINT('',(39.927199999994,36.,5.500000000021));
#1036 = CIRCLE('',#1037,2.15);
#1037 = AXIS2_PLACEMENT_3D('',#1038,#1039,#1040);
#1038 = CARTESIAN_POINT('',(37.777199999994,36.,5.500000000021));
#1039 = DIRECTION('',(0.,-1.,2.2E-16));
#1040 = DIRECTION('',(1.,0.,0.));
#1041 = ORIENTED_EDGE('',*,*,#1042,.T.);
#1042 = EDGE_CURVE('',#1032,#674,#1043,.T.);
#1043 = LINE('',#1044,#1045);
#1044 = CARTESIAN_POINT('',(35.627199999994,1.22E-15,5.500000000021));
#1045 = VECTOR('',#1046,1.);
#1046 = DIRECTION('',(0.,1.,-2.2E-16));
#1047 = ORIENTED_EDGE('',*,*,#673,.T.);
#1048 = ORIENTED_EDGE('',*,*,#1049,.F.);
#1049 = EDGE_CURVE('',#1034,#676,#1050,.T.);
#1050 = LINE('',#1051,#1052);
#1051 = CARTESIAN_POINT('',(39.927199999994,1.22E-15,5.500000000021));
#1052 = VECTOR('',#1053,1.);
#1053 = DIRECTION('',(0.,1.,-2.2E-16));
#1054 = CYLINDRICAL_SURFACE('',#1055,2.15);
#1055 = AXIS2_PLACEMENT_3D('',#1056,#1057,#1058);
#1056 = CARTESIAN_POINT('',(37.777199999994,1.22E-15,5.500000000021));
#1057 = DIRECTION('',(0.,-1.,2.2E-16));
#1058 = DIRECTION('',(1.,0.,0.));
#1059 = ADVANCED_FACE('',(#1060),#1078,.F.);
#1060 = FACE_BOUND('',#1061,.F.);
#1061 = EDGE_LOOP('',(#1062,#1070,#1076,#1077));
#1062 = ORIENTED_EDGE('',*,*,#1063,.F.);
#1063 = EDGE_CURVE('',#1064,#693,#1066,.T.);
#1064 = VERTEX_POINT('',#1065);
#1065 = CARTESIAN_POINT('',(39.927199999994,36.,27.5));
#1066 = LINE('',#1067,#1068);
#1067 = CARTESIAN_POINT('',(39.927199999994,6.11E-15,27.5));
#1068 = VECTOR('',#1069,1.);
#1069 = DIRECTION('',(0.,1.,-2.2E-16));
#1070 = ORIENTED_EDGE('',*,*,#1071,.F.);
#1071 = EDGE_CURVE('',#1034,#1064,#1072,.T.);
#1072 = LINE('',#1073,#1074);
#1073 = CARTESIAN_POINT('',(39.927199999994,36.,2.75000000001));
#1074 = VECTOR('',#1075,1.);
#1075 = DIRECTION('',(-6.5E-16,0.,1.));
#1076 = ORIENTED_EDGE('',*,*,#1049,.T.);
#1077 = ORIENTED_EDGE('',*,*,#701,.T.);
#1078 = PLANE('',#1079);
#1079 = AXIS2_PLACEMENT_3D('',#1080,#1081,#1082);
#1080 = CARTESIAN_POINT('',(39.927199999994,1.22E-15,5.500000000021));
#1081 = DIRECTION('',(1.,0.,6.5E-16));
#1082 = DIRECTION('',(-6.5E-16,2.2E-16,1.));
#1083 = ADVANCED_FACE('',(#1084),#1103,.F.);
#1084 = FACE_BOUND('',#1085,.F.);
#1085 = EDGE_LOOP('',(#1086,#1095,#1096,#1097));
#1086 = ORIENTED_EDGE('',*,*,#1087,.F.);
#1087 = EDGE_CURVE('',#1064,#1088,#1090,.T.);
#1088 = VERTEX_POINT('',#1089);
#1089 = CARTESIAN_POINT('',(35.627199999994,36.,27.5));
#1090 = CIRCLE('',#1091,2.15);
#1091 = AXIS2_PLACEMENT_3D('',#1092,#1093,#1094);
#1092 = CARTESIAN_POINT('',(37.777199999994,36.,27.5));
#1093 = DIRECTION('',(0.,-1.,2.2E-16));
#1094 = DIRECTION('',(1.,0.,0.));
#1095 = ORIENTED_EDGE('',*,*,#1063,.T.);
#1096 = ORIENTED_EDGE('',*,*,#692,.T.);
#1097 = ORIENTED_EDGE('',*,*,#1098,.F.);
#1098 = EDGE_CURVE('',#1088,#685,#1099,.T.);
#1099 = LINE('',#1100,#1101);
#1100 = CARTESIAN_POINT('',(35.627199999994,6.11E-15,27.5));
#1101 = VECTOR('',#1102,1.);
#1102 = DIRECTION('',(0.,1.,-2.2E-16));
#1103 = CYLINDRICAL_SURFACE('',#1104,2.15);
#1104 = AXIS2_PLACEMENT_3D('',#1105,#1106,#1107);
#1105 = CARTESIAN_POINT('',(37.777199999994,6.11E-15,27.5));
#1106 = DIRECTION('',(0.,-1.,2.2E-16));
#1107 = DIRECTION('',(1.,0.,0.));
#1108 = ADVANCED_FACE('',(#1109),#1120,.T.);
#1109 = FACE_BOUND('',#1110,.T.);
#1110 = EDGE_LOOP('',(#1111,#1112,#1118,#1119));
#1111 = ORIENTED_EDGE('',*,*,#1098,.F.);
#1112 = ORIENTED_EDGE('',*,*,#1113,.F.);
#1113 = EDGE_CURVE('',#1032,#1088,#1114,.T.);
#1114 = LINE('',#1115,#1116);
#1115 = CARTESIAN_POINT('',(35.627199999994,36.,2.75000000001));
#1116 = VECTOR('',#1117,1.);
#1117 = DIRECTION('',(0.,0.,1.));
#1118 = ORIENTED_EDGE('',*,*,#1042,.T.);
#1119 = ORIENTED_EDGE('',*,*,#684,.T.);
#1120 = PLANE('',#1121);
#1121 = AXIS2_PLACEMENT_3D('',#1122,#1123,#1124);
#1122 = CARTESIAN_POINT('',(35.627199999994,1.22E-15,5.500000000021));
#1123 = DIRECTION('',(1.,0.,0.));
#1124 = DIRECTION('',(0.,2.2E-16,1.));
#1125 = ADVANCED_FACE('',(#1126),#1152,.F.);
#1126 = FACE_BOUND('',#1127,.F.);
#1127 = EDGE_LOOP('',(#1128,#1139,#1145,#1146));
#1128 = ORIENTED_EDGE('',*,*,#1129,.F.);
#1129 = EDGE_CURVE('',#1130,#1132,#1134,.T.);
#1130 = VERTEX_POINT('',#1131);
#1131 = CARTESIAN_POINT('',(-39.9728,36.,5.5));
#1132 = VERTEX_POINT('',#1133);
#1133 = CARTESIAN_POINT('',(-35.6728,36.,5.5));
#1134 = CIRCLE('',#1135,2.15);
#1135 = AXIS2_PLACEMENT_3D('',#1136,#1137,#1138);
#1136 = CARTESIAN_POINT('',(-37.8228,36.,5.5));
#1137 = DIRECTION('',(0.,-1.,2.2E-16));
#1138 = DIRECTION('',(1.,0.,0.));
#1139 = ORIENTED_EDGE('',*,*,#1140,.T.);
#1140 = EDGE_CURVE('',#1130,#710,#1141,.T.);
#1141 = LINE('',#1142,#1143);
#1142 = CARTESIAN_POINT('',(-39.9728,1.22E-15,5.5));
#1143 = VECTOR('',#1144,1.);
#1144 = DIRECTION('',(0.,1.,-2.2E-16));
#1145 = ORIENTED_EDGE('',*,*,#709,.T.);
#1146 = ORIENTED_EDGE('',*,*,#1147,.F.);
#1147 = EDGE_CURVE('',#1132,#712,#1148,.T.);
#1148 = LINE('',#1149,#1150);
#1149 = CARTESIAN_POINT('',(-35.6728,1.22E-15,5.5));
#1150 = VECTOR('',#1151,1.);
#1151 = DIRECTION('',(0.,1.,-2.2E-16));
#1152 = CYLINDRICAL_SURFACE('',#1153,2.15);
#1153 = AXIS2_PLACEMENT_3D('',#1154,#1155,#1156);
#1154 = CARTESIAN_POINT('',(-37.8228,1.22E-15,5.5));
#1155 = DIRECTION('',(0.,-1.,2.2E-16));
#1156 = DIRECTION('',(1.,0.,0.));
#1157 = ADVANCED_FACE('',(#1158),#1176,.F.);
#1158 = FACE_BOUND('',#1159,.F.);
#1159 = EDGE_LOOP('',(#1160,#1168,#1174,#1175));
#1160 = ORIENTED_EDGE('',*,*,#1161,.F.);
#1161 = EDGE_CURVE('',#1162,#729,#1164,.T.);
#1162 = VERTEX_POINT('',#1163);
#1163 = CARTESIAN_POINT('',(-35.6728,36.,27.5));
#1164 = LINE('',#1165,#1166);
#1165 = CARTESIAN_POINT('',(-35.6728,6.11E-15,27.5));
#1166 = VECTOR('',#1167,1.);
#1167 = DIRECTION('',(0.,1.,-2.2E-16));
#1168 = ORIENTED_EDGE('',*,*,#1169,.F.);
#1169 = EDGE_CURVE('',#1132,#1162,#1170,.T.);
#1170 = LINE('',#1171,#1172);
#1171 = CARTESIAN_POINT('',(-35.6728,36.,2.75));
#1172 = VECTOR('',#1173,1.);
#1173 = DIRECTION('',(-3.2E-16,0.,1.));
#1174 = ORIENTED_EDGE('',*,*,#1147,.T.);
#1175 = ORIENTED_EDGE('',*,*,#737,.T.);
#1176 = PLANE('',#1177);
#1177 = AXIS2_PLACEMENT_3D('',#1178,#1179,#1180);
#1178 = CARTESIAN_POINT('',(-35.6728,1.22E-15,5.5));
#1179 = DIRECTION('',(1.,0.,3.2E-16));
#1180 = DIRECTION('',(-3.2E-16,2.2E-16,1.));
#1181 = ADVANCED_FACE('',(#1182),#1201,.F.);
#1182 = FACE_BOUND('',#1183,.F.);
#1183 = EDGE_LOOP('',(#1184,#1193,#1194,#1195));
#1184 = ORIENTED_EDGE('',*,*,#1185,.F.);
#1185 = EDGE_CURVE('',#1162,#1186,#1188,.T.);
#1186 = VERTEX_POINT('',#1187);
#1187 = CARTESIAN_POINT('',(-39.9728,36.,27.5));
#1188 = CIRCLE('',#1189,2.15);
#1189 = AXIS2_PLACEMENT_3D('',#1190,#1191,#1192);
#1190 = CARTESIAN_POINT('',(-37.8228,36.,27.5));
#1191 = DIRECTION('',(0.,-1.,2.2E-16));
#1192 = DIRECTION('',(1.,0.,0.));
#1193 = ORIENTED_EDGE('',*,*,#1161,.T.);
#1194 = ORIENTED_EDGE('',*,*,#728,.T.);
#1195 = ORIENTED_EDGE('',*,*,#1196,.F.);
#1196 = EDGE_CURVE('',#1186,#721,#1197,.T.);
#1197 = LINE('',#1198,#1199);
#1198 = CARTESIAN_POINT('',(-39.9728,6.11E-15,27.5));
#1199 = VECTOR('',#1200,1.);
#1200 = DIRECTION('',(0.,1.,-2.2E-16));
#1201 = CYLINDRICAL_SURFACE('',#1202,2.15);
#1202 = AXIS2_PLACEMENT_3D('',#1203,#1204,#1205);
#1203 = CARTESIAN_POINT('',(-37.8228,6.11E-15,27.5));
#1204 = DIRECTION('',(0.,-1.,2.2E-16));
#1205 = DIRECTION('',(1.,0.,0.));
#1206 = ADVANCED_FACE('',(#1207),#1218,.T.);
#1207 = FACE_BOUND('',#1208,.T.);
#1208 = EDGE_LOOP('',(#1209,#1210,#1216,#1217));
#1209 = ORIENTED_EDGE('',*,*,#1196,.F.);
#1210 = ORIENTED_EDGE('',*,*,#1211,.F.);
#1211 = EDGE_CURVE('',#1130,#1186,#1212,.T.);
#1212 = LINE('',#1213,#1214);
#1213 = CARTESIAN_POINT('',(-39.9728,36.,2.75));
#1214 = VECTOR('',#1215,1.);
#1215 = DIRECTION('',(0.,0.,1.));
#1216 = ORIENTED_EDGE('',*,*,#1140,.T.);
#1217 = ORIENTED_EDGE('',*,*,#720,.T.);
#1218 = PLANE('',#1219);
#1219 = AXIS2_PLACEMENT_3D('',#1220,#1221,#1222);
#1220 = CARTESIAN_POINT('',(-39.9728,1.22E-15,5.5));
#1221 = DIRECTION('',(1.,0.,0.));
#1222 = DIRECTION('',(0.,2.2E-16,1.));
#1223 = ADVANCED_FACE('',(#1224,#1230),#1236,.F.);
#1224 = FACE_BOUND('',#1225,.F.);
#1225 = EDGE_LOOP('',(#1226,#1227,#1228,#1229));
#1226 = ORIENTED_EDGE('',*,*,#833,.F.);
#1227 = ORIENTED_EDGE('',*,*,#760,.T.);
#1228 = ORIENTED_EDGE('',*,*,#791,.F.);
#1229 = ORIENTED_EDGE('',*,*,#816,.F.);
#1230 = FACE_BOUND('',#1231,.F.);
#1231 = EDGE_LOOP('',(#1232,#1233,#1234,#1235));
#1232 = ORIENTED_EDGE('',*,*,#1211,.F.);
#1233 = ORIENTED_EDGE('',*,*,#1129,.T.);
#1234 = ORIENTED_EDGE('',*,*,#1169,.T.);
#1235 = ORIENTED_EDGE('',*,*,#1185,.T.);
#1236 = PLANE('',#1237);
#1237 = AXIS2_PLACEMENT_3D('',#1238,#1239,#1240);
#1238 = CARTESIAN_POINT('',(-19.5,36.,-8.9E-16));
#1239 = DIRECTION('',(0.,1.,0.));
#1240 = DIRECTION('',(1.,0.,0.));
#1241 = ADVANCED_FACE('',(#1242,#1248),#1254,.F.);
#1242 = FACE_BOUND('',#1243,.F.);
#1243 = EDGE_LOOP('',(#1244,#1245,#1246,#1247));
#1244 = ORIENTED_EDGE('',*,*,#1015,.F.);
#1245 = ORIENTED_EDGE('',*,*,#942,.T.);
#1246 = ORIENTED_EDGE('',*,*,#973,.F.);
#1247 = ORIENTED_EDGE('',*,*,#998,.F.);
#1248 = FACE_BOUND('',#1249,.F.);
#1249 = EDGE_LOOP('',(#1250,#1251,#1252,#1253));
#1250 = ORIENTED_EDGE('',*,*,#1113,.F.);
#1251 = ORIENTED_EDGE('',*,*,#1031,.T.);
#1252 = ORIENTED_EDGE('',*,*,#1071,.T.);
#1253 = ORIENTED_EDGE('',*,*,#1087,.T.);
#1254 = PLANE('',#1255);
#1255 = AXIS2_PLACEMENT_3D('',#1256,#1257,#1258);
#1256 = CARTESIAN_POINT('',(-19.5,36.,-8.9E-16));
#1257 = DIRECTION('',(0.,1.,0.));
#1258 = DIRECTION('',(1.,0.,0.));
#1259 = ( GEOMETRIC_REPRESENTATION_CONTEXT(3) 
GLOBAL_UNCERTAINTY_ASSIGNED_CONTEXT((#1263)) 
GLOBAL_UNIT_ASSIGNED_CONTEXT((#1260,#1261,#1262)) REPRESENTATION_CONTEXT
('Context #1','3D Context with UNIT and UNCERTAINTY') );
#1260 = ( LENGTH_UNIT() NAMED_UNIT(*) SI_UNIT(.MILLI.,.METRE.) );
#1261 = ( NAMED_UNIT(*) PLANE_ANGLE_UNIT() SI_UNIT($,.RADIAN.) );
#1262 = ( NAMED_UNIT(*) SI_UNIT($,.STERADIAN.) SOLID_ANGLE_UNIT() );
#1263 = UNCERTAINTY_MEASURE_WITH_UNIT(LENGTH_MEASURE(2.E-05),#1260,
  'distance_accuracy_value','confusion accuracy');
#1264 = PRODUCT_RELATED_PRODUCT_CATEGORY('part',$,(#7));
#1265 = MECHANICAL_DESIGN_GEOMETRIC_PRESENTATION_REPRESENTATION('',(
    #1266),#1259);
#1266 = STYLED_ITEM('color',(#1267),#15);
#1267 = PRESENTATION_STYLE_ASSIGNMENT((#1268,#1276));
#1268 = SURFACE_STYLE_USAGE(.BOTH.,#1269);
#1269 = SURFACE_SIDE_STYLE('',(#1270,#1274));
#1270 = SURFACE_STYLE_FILL_AREA(#1271);
#1271 = FILL_AREA_STYLE('',(#1272));
#1272 = FILL_AREA_STYLE_COLOUR('',#1273);
#1273 = COLOUR_RGB('',0.447058818107,0.474509808674,0.501960817233);
#1274 = SURFACE_STYLE_RENDERING_WITH_PROPERTIES(.NORMAL_SHADING.,#1273,(
    #1275));
#1275 = SURFACE_STYLE_TRANSPARENT(0.699999988079);
#1276 = CURVE_STYLE('',#1277,POSITIVE_LENGTH_MEASURE(0.1),#1278);
#1277 = DRAUGHTING_PRE_DEFINED_CURVE_FONT('continuous');
#1278 = COLOUR_RGB('',9.803921802644E-02,9.803921802644E-02,
  9.803921802644E-02);
ENDSEC;
END-ISO-10303-21;
