ISO-10303-21;
HEADER;
FILE_DESCRIPTION(('FreeCAD Model'),'2;1');
FILE_NAME('Open CASCADE Shape Model','2026-04-01T10:02:10',(''),(''),
  'Open CASCADE STEP processor 7.8','FreeCAD','Unknown');
FILE_SCHEMA(('AUTOMOTIVE_DESIGN { 1 0 10303 214 1 1 1 1 }'));
ENDSEC;
DATA;
#1 = APPLICATION_PROTOCOL_DEFINITION('international standard',
  'automotive_design',2000,#2);
#2 = APPLICATION_CONTEXT(
  'core data for automotive mechanical design processes');
#3 = SHAPE_DEFINITION_REPRESENTATION(#4,#10);
#4 = PRODUCT_DEFINITION_SHAPE('','',#5);
#5 = PRODUCT_DEFINITION('design','',#6,#9);
#6 = PRODUCT_DEFINITION_FORMATION('','',#7);
#7 = PRODUCT('BBL-RapidChange','BBL-RapidChange','',(#8));
#8 = PRODUCT_CONTEXT('',#2,'mechanical');
#9 = PRODUCT_DEFINITION_CONTEXT('part definition',#2,'design');
#10 = ADVANCED_BREP_SHAPE_REPRESENTATION('',(#11,#15),#1036);
#11 = AXIS2_PLACEMENT_3D('',#12,#13,#14);
#12 = CARTESIAN_POINT('',(0.,0.,0.));
#13 = DIRECTION('',(0.,0.,1.));
#14 = DIRECTION('',(1.,0.,-0.));
#15 = MANIFOLD_SOLID_BREP('',#16);
#16 = CLOSED_SHELL('',(#17,#57,#131,#155,#281,#298,#380,#404,#484,#501,
    #513,#530,#595,#619,#698,#722,#746,#770,#787,#812,#829,#846,#878,
    #895,#912,#929,#946,#958,#991,#1008,#1025));
#17 = ADVANCED_FACE('',(#18),#52,.T.);
#18 = FACE_BOUND('',#19,.T.);
#19 = EDGE_LOOP('',(#20,#30,#38,#46));
#20 = ORIENTED_EDGE('',*,*,#21,.F.);
#21 = EDGE_CURVE('',#22,#24,#26,.T.);
#22 = VERTEX_POINT('',#23);
#23 = CARTESIAN_POINT('',(-67.5,10.,0.));
#24 = VERTEX_POINT('',#25);
#25 = CARTESIAN_POINT('',(-45.,10.,0.));
#26 = LINE('',#27,#28);
#27 = CARTESIAN_POINT('',(-67.5,10.,0.));
#28 = VECTOR('',#29,1.);
#29 = DIRECTION('',(1.,0.,0.));
#30 = ORIENTED_EDGE('',*,*,#31,.T.);
#31 = EDGE_CURVE('',#22,#32,#34,.T.);
#32 = VERTEX_POINT('',#33);
#33 = CARTESIAN_POINT('',(-67.5,10.,14.));
#34 = LINE('',#35,#36);
#35 = CARTESIAN_POINT('',(-67.5,10.,0.));
#36 = VECTOR('',#37,1.);
#37 = DIRECTION('',(0.,0.,1.));
#38 = ORIENTED_EDGE('',*,*,#39,.T.);
#39 = EDGE_CURVE('',#32,#40,#42,.T.);
#40 = VERTEX_POINT('',#41);
#41 = CARTESIAN_POINT('',(-45.,10.,14.));
#42 = LINE('',#43,#44);
#43 = CARTESIAN_POINT('',(-33.75,10.,14.));
#44 = VECTOR('',#45,1.);
#45 = DIRECTION('',(1.,0.,0.));
#46 = ORIENTED_EDGE('',*,*,#47,.F.);
#47 = EDGE_CURVE('',#24,#40,#48,.T.);
#48 = LINE('',#49,#50);
#49 = CARTESIAN_POINT('',(-45.,10.,0.));
#50 = VECTOR('',#51,1.);
#51 = DIRECTION('',(0.,0.,1.));
#52 = PLANE('',#53);
#53 = AXIS2_PLACEMENT_3D('',#54,#55,#56);
#54 = CARTESIAN_POINT('',(-67.5,10.,0.));
#55 = DIRECTION('',(0.,1.,0.));
#56 = DIRECTION('',(1.,0.,0.));
#57 = ADVANCED_FACE('',(#58,#115),#126,.F.);
#58 = FACE_BOUND('',#59,.F.);
#59 = EDGE_LOOP('',(#60,#61,#69,#77,#85,#93,#101,#109));
#60 = ORIENTED_EDGE('',*,*,#21,.F.);
#61 = ORIENTED_EDGE('',*,*,#62,.T.);
#62 = EDGE_CURVE('',#22,#63,#65,.T.);
#63 = VERTEX_POINT('',#64);
#64 = CARTESIAN_POINT('',(-67.5,-10.,0.));
#65 = LINE('',#66,#67);
#66 = CARTESIAN_POINT('',(-67.5,10.,0.));
#67 = VECTOR('',#68,1.);
#68 = DIRECTION('',(0.,-1.,0.));
#69 = ORIENTED_EDGE('',*,*,#70,.T.);
#70 = EDGE_CURVE('',#63,#71,#73,.T.);
#71 = VERTEX_POINT('',#72);
#72 = CARTESIAN_POINT('',(-10.2,-10.,0.));
#73 = LINE('',#74,#75);
#74 = CARTESIAN_POINT('',(-67.5,-10.,0.));
#75 = VECTOR('',#76,1.);
#76 = DIRECTION('',(1.,0.,0.));
#77 = ORIENTED_EDGE('',*,*,#78,.F.);
#78 = EDGE_CURVE('',#79,#71,#81,.T.);
#79 = VERTEX_POINT('',#80);
#80 = CARTESIAN_POINT('',(-10.2,15.7,0.));
#81 = LINE('',#82,#83);
#82 = CARTESIAN_POINT('',(-10.2,15.7,0.));
#83 = VECTOR('',#84,1.);
#84 = DIRECTION('',(0.,-1.,0.));
#85 = ORIENTED_EDGE('',*,*,#86,.F.);
#86 = EDGE_CURVE('',#87,#79,#89,.T.);
#87 = VERTEX_POINT('',#88);
#88 = CARTESIAN_POINT('',(-9.2,15.7,0.));
#89 = LINE('',#90,#91);
#90 = CARTESIAN_POINT('',(26.7,15.7,0.));
#91 = VECTOR('',#92,1.);
#92 = DIRECTION('',(-1.,0.,0.));
#93 = ORIENTED_EDGE('',*,*,#94,.T.);
#94 = EDGE_CURVE('',#87,#95,#97,.T.);
#95 = VERTEX_POINT('',#96);
#96 = CARTESIAN_POINT('',(-9.2,25.7,0.));
#97 = LINE('',#98,#99);
#98 = CARTESIAN_POINT('',(-9.2,9.791363810519,0.));
#99 = VECTOR('',#100,1.);
#100 = DIRECTION('',(0.,1.,0.));
#101 = ORIENTED_EDGE('',*,*,#102,.F.);
#102 = EDGE_CURVE('',#103,#95,#105,.T.);
#103 = VERTEX_POINT('',#104);
#104 = CARTESIAN_POINT('',(-30.,25.7,0.));
#105 = LINE('',#106,#107);
#106 = CARTESIAN_POINT('',(-30.,25.7,0.));
#107 = VECTOR('',#108,1.);
#108 = DIRECTION('',(1.,0.,0.));
#109 = ORIENTED_EDGE('',*,*,#110,.F.);
#110 = EDGE_CURVE('',#24,#103,#111,.T.);
#111 = LINE('',#112,#113);
#112 = CARTESIAN_POINT('',(-45.,10.,0.));
#113 = VECTOR('',#114,1.);
#114 = DIRECTION('',(0.690804274229,0.723041807026,0.));
#115 = FACE_BOUND('',#116,.F.);
#116 = EDGE_LOOP('',(#117));
#117 = ORIENTED_EDGE('',*,*,#118,.F.);
#118 = EDGE_CURVE('',#119,#119,#121,.T.);
#119 = VERTEX_POINT('',#120);
#120 = CARTESIAN_POINT('',(-56.,0.,0.));
#121 = CIRCLE('',#122,4.);
#122 = AXIS2_PLACEMENT_3D('',#123,#124,#125);
#123 = CARTESIAN_POINT('',(-60.,0.,0.));
#124 = DIRECTION('',(0.,0.,1.));
#125 = DIRECTION('',(1.,0.,0.));
#126 = PLANE('',#127);
#127 = AXIS2_PLACEMENT_3D('',#128,#129,#130);
#128 = CARTESIAN_POINT('',(-5.5E-16,3.882727621037,0.));
#129 = DIRECTION('',(0.,0.,1.));
#130 = DIRECTION('',(1.,0.,0.));
#131 = ADVANCED_FACE('',(#132),#150,.T.);
#132 = FACE_BOUND('',#133,.T.);
#133 = EDGE_LOOP('',(#134,#135,#136,#144));
#134 = ORIENTED_EDGE('',*,*,#110,.F.);
#135 = ORIENTED_EDGE('',*,*,#47,.T.);
#136 = ORIENTED_EDGE('',*,*,#137,.T.);
#137 = EDGE_CURVE('',#40,#138,#140,.T.);
#138 = VERTEX_POINT('',#139);
#139 = CARTESIAN_POINT('',(-30.,25.7,14.));
#140 = LINE('',#141,#142);
#141 = CARTESIAN_POINT('',(-36.76016458461,18.624361068103,14.));
#142 = VECTOR('',#143,1.);
#143 = DIRECTION('',(0.690804274229,0.723041807026,0.));
#144 = ORIENTED_EDGE('',*,*,#145,.F.);
#145 = EDGE_CURVE('',#103,#138,#146,.T.);
#146 = LINE('',#147,#148);
#147 = CARTESIAN_POINT('',(-30.,25.7,0.));
#148 = VECTOR('',#149,1.);
#149 = DIRECTION('',(0.,0.,1.));
#150 = PLANE('',#151);
#151 = AXIS2_PLACEMENT_3D('',#152,#153,#154);
#152 = CARTESIAN_POINT('',(-45.,10.,0.));
#153 = DIRECTION('',(-0.723041807026,0.690804274229,0.));
#154 = DIRECTION('',(0.690804274229,0.723041807026,0.));
#155 = ADVANCED_FACE('',(#156,#254,#265),#276,.T.);
#156 = FACE_BOUND('',#157,.T.);
#157 = EDGE_LOOP('',(#158,#159,#167,#175,#183,#191,#199,#207,#215,#223,
    #231,#239,#247,#253));
#158 = ORIENTED_EDGE('',*,*,#39,.F.);
#159 = ORIENTED_EDGE('',*,*,#160,.T.);
#160 = EDGE_CURVE('',#32,#161,#163,.T.);
#161 = VERTEX_POINT('',#162);
#162 = CARTESIAN_POINT('',(-67.5,-10.,14.));
#163 = LINE('',#164,#165);
#164 = CARTESIAN_POINT('',(-67.5,5.,14.));
#165 = VECTOR('',#166,1.);
#166 = DIRECTION('',(0.,-1.,0.));
#167 = ORIENTED_EDGE('',*,*,#168,.T.);
#168 = EDGE_CURVE('',#161,#169,#171,.T.);
#169 = VERTEX_POINT('',#170);
#170 = CARTESIAN_POINT('',(-10.2,-10.,14.));
#171 = LINE('',#172,#173);
#172 = CARTESIAN_POINT('',(-33.75,-10.,14.));
#173 = VECTOR('',#174,1.);
#174 = DIRECTION('',(1.,0.,0.));
#175 = ORIENTED_EDGE('',*,*,#176,.T.);
#176 = EDGE_CURVE('',#169,#177,#179,.T.);
#177 = VERTEX_POINT('',#178);
#178 = CARTESIAN_POINT('',(-10.2,15.7,14.));
#179 = LINE('',#180,#181);
#180 = CARTESIAN_POINT('',(-10.2,7.85,14.));
#181 = VECTOR('',#182,1.);
#182 = DIRECTION('',(0.,1.,0.));
#183 = ORIENTED_EDGE('',*,*,#184,.T.);
#184 = EDGE_CURVE('',#177,#185,#187,.T.);
#185 = VERTEX_POINT('',#186);
#186 = CARTESIAN_POINT('',(20.7,15.7,14.));
#187 = LINE('',#188,#189);
#188 = CARTESIAN_POINT('',(13.35,15.7,14.));
#189 = VECTOR('',#190,1.);
#190 = DIRECTION('',(1.,0.,0.));
#191 = ORIENTED_EDGE('',*,*,#192,.T.);
#192 = EDGE_CURVE('',#185,#193,#195,.T.);
#193 = VERTEX_POINT('',#194);
#194 = CARTESIAN_POINT('',(20.7,-10.4,14.));
#195 = LINE('',#196,#197);
#196 = CARTESIAN_POINT('',(20.7,15.7,14.));
#197 = VECTOR('',#198,1.);
#198 = DIRECTION('',(0.,-1.,0.));
#199 = ORIENTED_EDGE('',*,*,#200,.T.);
#200 = EDGE_CURVE('',#193,#201,#203,.T.);
#201 = VERTEX_POINT('',#202);
#202 = CARTESIAN_POINT('',(26.7,-10.4,14.));
#203 = LINE('',#204,#205);
#204 = CARTESIAN_POINT('',(20.7,-10.4,14.));
#205 = VECTOR('',#206,1.);
#206 = DIRECTION('',(1.,0.,0.));
#207 = ORIENTED_EDGE('',*,*,#208,.F.);
#208 = EDGE_CURVE('',#209,#201,#211,.T.);
#209 = VERTEX_POINT('',#210);
#210 = CARTESIAN_POINT('',(26.7,-10.,14.));
#211 = LINE('',#212,#213);
#212 = CARTESIAN_POINT('',(26.7,13.7,14.));
#213 = VECTOR('',#214,1.);
#214 = DIRECTION('',(0.,-1.,0.));
#215 = ORIENTED_EDGE('',*,*,#216,.T.);
#216 = EDGE_CURVE('',#209,#217,#219,.T.);
#217 = VERTEX_POINT('',#218);
#218 = CARTESIAN_POINT('',(67.5,-10.,14.));
#219 = LINE('',#220,#221);
#220 = CARTESIAN_POINT('',(-33.75,-10.,14.));
#221 = VECTOR('',#222,1.);
#222 = DIRECTION('',(1.,0.,0.));
#223 = ORIENTED_EDGE('',*,*,#224,.T.);
#224 = EDGE_CURVE('',#217,#225,#227,.T.);
#225 = VERTEX_POINT('',#226);
#226 = CARTESIAN_POINT('',(67.5,10.,14.));
#227 = LINE('',#228,#229);
#228 = CARTESIAN_POINT('',(67.5,-5.,14.));
#229 = VECTOR('',#230,1.);
#230 = DIRECTION('',(0.,1.,0.));
#231 = ORIENTED_EDGE('',*,*,#232,.F.);
#232 = EDGE_CURVE('',#233,#225,#235,.T.);
#233 = VERTEX_POINT('',#234);
#234 = CARTESIAN_POINT('',(45.,10.,14.));
#235 = LINE('',#236,#237);
#236 = CARTESIAN_POINT('',(22.5,10.,14.));
#237 = VECTOR('',#238,1.);
#238 = DIRECTION('',(1.,0.,0.));
#239 = ORIENTED_EDGE('',*,*,#240,.F.);
#240 = EDGE_CURVE('',#241,#233,#243,.T.);
#241 = VERTEX_POINT('',#242);
#242 = CARTESIAN_POINT('',(30.,25.7,14.));
#243 = LINE('',#244,#245);
#244 = CARTESIAN_POINT('',(29.260164584615,26.474361068103,14.));
#245 = VECTOR('',#246,1.);
#246 = DIRECTION('',(0.690804274229,-0.723041807026,0.));
#247 = ORIENTED_EDGE('',*,*,#248,.F.);
#248 = EDGE_CURVE('',#138,#241,#249,.T.);
#249 = LINE('',#250,#251);
#250 = CARTESIAN_POINT('',(-15.,25.7,14.));
#251 = VECTOR('',#252,1.);
#252 = DIRECTION('',(1.,0.,0.));
#253 = ORIENTED_EDGE('',*,*,#137,.F.);
#254 = FACE_BOUND('',#255,.T.);
#255 = EDGE_LOOP('',(#256));
#256 = ORIENTED_EDGE('',*,*,#257,.T.);
#257 = EDGE_CURVE('',#258,#258,#260,.T.);
#258 = VERTEX_POINT('',#259);
#259 = CARTESIAN_POINT('',(-56.,0.,14.));
#260 = CIRCLE('',#261,4.);
#261 = AXIS2_PLACEMENT_3D('',#262,#263,#264);
#262 = CARTESIAN_POINT('',(-60.,0.,14.));
#263 = DIRECTION('',(0.,0.,-1.));
#264 = DIRECTION('',(1.,0.,0.));
#265 = FACE_BOUND('',#266,.T.);
#266 = EDGE_LOOP('',(#267));
#267 = ORIENTED_EDGE('',*,*,#268,.T.);
#268 = EDGE_CURVE('',#269,#269,#271,.T.);
#269 = VERTEX_POINT('',#270);
#270 = CARTESIAN_POINT('',(64.,0.,14.));
#271 = CIRCLE('',#272,4.);
#272 = AXIS2_PLACEMENT_3D('',#273,#274,#275);
#273 = CARTESIAN_POINT('',(60.,0.,14.));
#274 = DIRECTION('',(0.,0.,-1.));
#275 = DIRECTION('',(1.,0.,0.));
#276 = PLANE('',#277);
#277 = AXIS2_PLACEMENT_3D('',#278,#279,#280);
#278 = CARTESIAN_POINT('',(0.768873129933,6.24885694041,14.));
#279 = DIRECTION('',(0.,0.,1.));
#280 = DIRECTION('',(1.,0.,0.));
#281 = ADVANCED_FACE('',(#282),#293,.F.);
#282 = FACE_BOUND('',#283,.F.);
#283 = EDGE_LOOP('',(#284,#285,#286,#287));
#284 = ORIENTED_EDGE('',*,*,#62,.F.);
#285 = ORIENTED_EDGE('',*,*,#31,.T.);
#286 = ORIENTED_EDGE('',*,*,#160,.T.);
#287 = ORIENTED_EDGE('',*,*,#288,.F.);
#288 = EDGE_CURVE('',#63,#161,#289,.T.);
#289 = LINE('',#290,#291);
#290 = CARTESIAN_POINT('',(-67.5,-10.,0.));
#291 = VECTOR('',#292,1.);
#292 = DIRECTION('',(0.,0.,1.));
#293 = PLANE('',#294);
#294 = AXIS2_PLACEMENT_3D('',#295,#296,#297);
#295 = CARTESIAN_POINT('',(-67.5,10.,0.));
#296 = DIRECTION('',(1.,0.,0.));
#297 = DIRECTION('',(0.,-1.,0.));
#298 = ADVANCED_FACE('',(#299,#342,#353,#364),#375,.T.);
#299 = FACE_BOUND('',#300,.T.);
#300 = EDGE_LOOP('',(#301,#302,#303,#304,#312,#320,#328,#336));
#301 = ORIENTED_EDGE('',*,*,#102,.F.);
#302 = ORIENTED_EDGE('',*,*,#145,.T.);
#303 = ORIENTED_EDGE('',*,*,#248,.T.);
#304 = ORIENTED_EDGE('',*,*,#305,.F.);
#305 = EDGE_CURVE('',#306,#241,#308,.T.);
#306 = VERTEX_POINT('',#307);
#307 = CARTESIAN_POINT('',(30.,25.7,0.));
#308 = LINE('',#309,#310);
#309 = CARTESIAN_POINT('',(30.,25.7,0.));
#310 = VECTOR('',#311,1.);
#311 = DIRECTION('',(0.,0.,1.));
#312 = ORIENTED_EDGE('',*,*,#313,.F.);
#313 = EDGE_CURVE('',#314,#306,#316,.T.);
#314 = VERTEX_POINT('',#315);
#315 = CARTESIAN_POINT('',(8.95,25.7,0.));
#316 = LINE('',#317,#318);
#317 = CARTESIAN_POINT('',(-30.,25.7,0.));
#318 = VECTOR('',#319,1.);
#319 = DIRECTION('',(1.,0.,0.));
#320 = ORIENTED_EDGE('',*,*,#321,.T.);
#321 = EDGE_CURVE('',#314,#322,#324,.T.);
#322 = VERTEX_POINT('',#323);
#323 = CARTESIAN_POINT('',(8.95,25.7,-22.3));
#324 = LINE('',#325,#326);
#325 = CARTESIAN_POINT('',(8.95,25.7,9.15));
#326 = VECTOR('',#327,1.);
#327 = DIRECTION('',(0.,-2.2E-16,-1.));
#328 = ORIENTED_EDGE('',*,*,#329,.T.);
#329 = EDGE_CURVE('',#322,#330,#332,.T.);
#330 = VERTEX_POINT('',#331);
#331 = CARTESIAN_POINT('',(-9.2,25.7,-22.3));
#332 = LINE('',#333,#334);
#333 = CARTESIAN_POINT('',(7.875,25.7,-22.3));
#334 = VECTOR('',#335,1.);
#335 = DIRECTION('',(-1.,0.,0.));
#336 = ORIENTED_EDGE('',*,*,#337,.T.);
#337 = EDGE_CURVE('',#330,#95,#338,.T.);
#338 = LINE('',#339,#340);
#339 = CARTESIAN_POINT('',(-9.2,25.7,-5.35));
#340 = VECTOR('',#341,1.);
#341 = DIRECTION('',(0.,2.2E-16,1.));
#342 = FACE_BOUND('',#343,.T.);
#343 = EDGE_LOOP('',(#344));
#344 = ORIENTED_EDGE('',*,*,#345,.T.);
#345 = EDGE_CURVE('',#346,#346,#348,.T.);
#346 = VERTEX_POINT('',#347);
#347 = CARTESIAN_POINT('',(-1.525,25.7,-6.9));
#348 = CIRCLE('',#349,1.4);
#349 = AXIS2_PLACEMENT_3D('',#350,#351,#352);
#350 = CARTESIAN_POINT('',(-0.125,25.7,-6.9));
#351 = DIRECTION('',(0.,-1.,2.2E-16));
#352 = DIRECTION('',(-1.,0.,0.));
#353 = FACE_BOUND('',#354,.T.);
#354 = EDGE_LOOP('',(#355));
#355 = ORIENTED_EDGE('',*,*,#356,.T.);
#356 = EDGE_CURVE('',#357,#357,#359,.T.);
#357 = VERTEX_POINT('',#358);
#358 = CARTESIAN_POINT('',(-7.525,25.7,3.35));
#359 = CIRCLE('',#360,1.4);
#360 = AXIS2_PLACEMENT_3D('',#361,#362,#363);
#361 = CARTESIAN_POINT('',(-6.125,25.7,3.35));
#362 = DIRECTION('',(0.,-1.,2.2E-16));
#363 = DIRECTION('',(-1.,0.,0.));
#364 = FACE_BOUND('',#365,.T.);
#365 = EDGE_LOOP('',(#366));
#366 = ORIENTED_EDGE('',*,*,#367,.T.);
#367 = EDGE_CURVE('',#368,#368,#370,.T.);
#368 = VERTEX_POINT('',#369);
#369 = CARTESIAN_POINT('',(4.475,25.7,3.35));
#370 = CIRCLE('',#371,1.4);
#371 = AXIS2_PLACEMENT_3D('',#372,#373,#374);
#372 = CARTESIAN_POINT('',(5.875,25.7,3.35));
#373 = DIRECTION('',(0.,-1.,2.2E-16));
#374 = DIRECTION('',(-1.,0.,0.));
#375 = PLANE('',#376);
#376 = AXIS2_PLACEMENT_3D('',#377,#378,#379);
#377 = CARTESIAN_POINT('',(-2.894600207684E-02,25.7,0.695560747664));
#378 = DIRECTION('',(0.,1.,-3.6E-16));
#379 = DIRECTION('',(0.,3.6E-16,1.));
#380 = ADVANCED_FACE('',(#381),#399,.F.);
#381 = FACE_BOUND('',#382,.F.);
#382 = EDGE_LOOP('',(#383,#391,#397,#398));
#383 = ORIENTED_EDGE('',*,*,#384,.F.);
#384 = EDGE_CURVE('',#385,#87,#387,.T.);
#385 = VERTEX_POINT('',#386);
#386 = CARTESIAN_POINT('',(-9.2,15.7,-22.3));
#387 = LINE('',#388,#389);
#388 = CARTESIAN_POINT('',(-9.2,15.7,-22.3));
#389 = VECTOR('',#390,1.);
#390 = DIRECTION('',(0.,0.,1.));
#391 = ORIENTED_EDGE('',*,*,#392,.T.);
#392 = EDGE_CURVE('',#385,#330,#393,.T.);
#393 = LINE('',#394,#395);
#394 = CARTESIAN_POINT('',(-9.2,15.7,-22.3));
#395 = VECTOR('',#396,1.);
#396 = DIRECTION('',(0.,1.,-2.2E-16));
#397 = ORIENTED_EDGE('',*,*,#337,.T.);
#398 = ORIENTED_EDGE('',*,*,#94,.F.);
#399 = PLANE('',#400);
#400 = AXIS2_PLACEMENT_3D('',#401,#402,#403);
#401 = CARTESIAN_POINT('',(-9.2,15.7,-22.3));
#402 = DIRECTION('',(1.,0.,0.));
#403 = DIRECTION('',(0.,2.2E-16,1.));
#404 = ADVANCED_FACE('',(#405,#446,#457,#468),#479,.T.);
#405 = FACE_BOUND('',#406,.T.);
#406 = EDGE_LOOP('',(#407,#417,#423,#424,#430,#431,#432,#440));
#407 = ORIENTED_EDGE('',*,*,#408,.F.);
#408 = EDGE_CURVE('',#409,#411,#413,.T.);
#409 = VERTEX_POINT('',#410);
#410 = CARTESIAN_POINT('',(20.7,15.7,0.));
#411 = VERTEX_POINT('',#412);
#412 = CARTESIAN_POINT('',(8.95,15.7,0.));
#413 = LINE('',#414,#415);
#414 = CARTESIAN_POINT('',(26.7,15.7,0.));
#415 = VECTOR('',#416,1.);
#416 = DIRECTION('',(-1.,0.,0.));
#417 = ORIENTED_EDGE('',*,*,#418,.T.);
#418 = EDGE_CURVE('',#409,#185,#419,.T.);
#419 = LINE('',#420,#421);
#420 = CARTESIAN_POINT('',(20.7,15.7,-12.2));
#421 = VECTOR('',#422,1.);
#422 = DIRECTION('',(0.,0.,1.));
#423 = ORIENTED_EDGE('',*,*,#184,.F.);
#424 = ORIENTED_EDGE('',*,*,#425,.F.);
#425 = EDGE_CURVE('',#79,#177,#426,.T.);
#426 = LINE('',#427,#428);
#427 = CARTESIAN_POINT('',(-10.2,15.7,0.));
#428 = VECTOR('',#429,1.);
#429 = DIRECTION('',(0.,0.,1.));
#430 = ORIENTED_EDGE('',*,*,#86,.F.);
#431 = ORIENTED_EDGE('',*,*,#384,.F.);
#432 = ORIENTED_EDGE('',*,*,#433,.F.);
#433 = EDGE_CURVE('',#434,#385,#436,.T.);
#434 = VERTEX_POINT('',#435);
#435 = CARTESIAN_POINT('',(8.95,15.7,-22.3));
#436 = LINE('',#437,#438);
#437 = CARTESIAN_POINT('',(8.95,15.7,-22.3));
#438 = VECTOR('',#439,1.);
#439 = DIRECTION('',(-1.,0.,0.));
#440 = ORIENTED_EDGE('',*,*,#441,.F.);
#441 = EDGE_CURVE('',#411,#434,#442,.T.);
#442 = LINE('',#443,#444);
#443 = CARTESIAN_POINT('',(8.95,15.7,6.7));
#444 = VECTOR('',#445,1.);
#445 = DIRECTION('',(0.,0.,-1.));
#446 = FACE_BOUND('',#447,.T.);
#447 = EDGE_LOOP('',(#448));
#448 = ORIENTED_EDGE('',*,*,#449,.T.);
#449 = EDGE_CURVE('',#450,#450,#452,.T.);
#450 = VERTEX_POINT('',#451);
#451 = CARTESIAN_POINT('',(-7.525,15.7,3.35));
#452 = CIRCLE('',#453,1.4);
#453 = AXIS2_PLACEMENT_3D('',#454,#455,#456);
#454 = CARTESIAN_POINT('',(-6.125,15.7,3.35));
#455 = DIRECTION('',(0.,1.,-0.));
#456 = DIRECTION('',(-1.,0.,0.));
#457 = FACE_BOUND('',#458,.T.);
#458 = EDGE_LOOP('',(#459));
#459 = ORIENTED_EDGE('',*,*,#460,.T.);
#460 = EDGE_CURVE('',#461,#461,#463,.T.);
#461 = VERTEX_POINT('',#462);
#462 = CARTESIAN_POINT('',(-1.525,15.7,-6.9));
#463 = CIRCLE('',#464,1.4);
#464 = AXIS2_PLACEMENT_3D('',#465,#466,#467);
#465 = CARTESIAN_POINT('',(-0.125,15.7,-6.9));
#466 = DIRECTION('',(0.,1.,-0.));
#467 = DIRECTION('',(-1.,0.,0.));
#468 = FACE_BOUND('',#469,.T.);
#469 = EDGE_LOOP('',(#470));
#470 = ORIENTED_EDGE('',*,*,#471,.T.);
#471 = EDGE_CURVE('',#472,#472,#474,.T.);
#472 = VERTEX_POINT('',#473);
#473 = CARTESIAN_POINT('',(4.475,15.7,3.35));
#474 = CIRCLE('',#475,1.4);
#475 = AXIS2_PLACEMENT_3D('',#476,#477,#478);
#476 = CARTESIAN_POINT('',(5.875,15.7,3.35));
#477 = DIRECTION('',(0.,1.,-0.));
#478 = DIRECTION('',(-1.,0.,0.));
#479 = PLANE('',#480);
#480 = AXIS2_PLACEMENT_3D('',#481,#482,#483);
#481 = CARTESIAN_POINT('',(3.466331845238,15.7,-2.034486607143));
#482 = DIRECTION('',(0.,-1.,2.8E-16));
#483 = DIRECTION('',(0.,-2.8E-16,-1.));
#484 = ADVANCED_FACE('',(#485),#496,.T.);
#485 = FACE_BOUND('',#486,.T.);
#486 = EDGE_LOOP('',(#487,#488,#489,#490));
#487 = ORIENTED_EDGE('',*,*,#78,.F.);
#488 = ORIENTED_EDGE('',*,*,#425,.T.);
#489 = ORIENTED_EDGE('',*,*,#176,.F.);
#490 = ORIENTED_EDGE('',*,*,#491,.T.);
#491 = EDGE_CURVE('',#169,#71,#492,.T.);
#492 = LINE('',#493,#494);
#493 = CARTESIAN_POINT('',(-10.2,-10.,0.));
#494 = VECTOR('',#495,1.);
#495 = DIRECTION('',(0.,0.,-1.));
#496 = PLANE('',#497);
#497 = AXIS2_PLACEMENT_3D('',#498,#499,#500);
#498 = CARTESIAN_POINT('',(-10.2,15.7,0.));
#499 = DIRECTION('',(1.,0.,0.));
#500 = DIRECTION('',(0.,-1.,0.));
#501 = ADVANCED_FACE('',(#502),#508,.F.);
#502 = FACE_BOUND('',#503,.F.);
#503 = EDGE_LOOP('',(#504,#505,#506,#507));
#504 = ORIENTED_EDGE('',*,*,#70,.F.);
#505 = ORIENTED_EDGE('',*,*,#288,.T.);
#506 = ORIENTED_EDGE('',*,*,#168,.T.);
#507 = ORIENTED_EDGE('',*,*,#491,.T.);
#508 = PLANE('',#509);
#509 = AXIS2_PLACEMENT_3D('',#510,#511,#512);
#510 = CARTESIAN_POINT('',(-67.5,-10.,0.));
#511 = DIRECTION('',(0.,1.,0.));
#512 = DIRECTION('',(1.,0.,0.));
#513 = ADVANCED_FACE('',(#514),#525,.F.);
#514 = FACE_BOUND('',#515,.T.);
#515 = EDGE_LOOP('',(#516,#517,#523,#524));
#516 = ORIENTED_EDGE('',*,*,#118,.F.);
#517 = ORIENTED_EDGE('',*,*,#518,.T.);
#518 = EDGE_CURVE('',#119,#258,#519,.T.);
#519 = LINE('',#520,#521);
#520 = CARTESIAN_POINT('',(-56.,0.,0.));
#521 = VECTOR('',#522,1.);
#522 = DIRECTION('',(0.,0.,1.));
#523 = ORIENTED_EDGE('',*,*,#257,.F.);
#524 = ORIENTED_EDGE('',*,*,#518,.F.);
#525 = CYLINDRICAL_SURFACE('',#526,4.);
#526 = AXIS2_PLACEMENT_3D('',#527,#528,#529);
#527 = CARTESIAN_POINT('',(-60.,0.,0.));
#528 = DIRECTION('',(-0.,-0.,-1.));
#529 = DIRECTION('',(1.,0.,0.));
#530 = ADVANCED_FACE('',(#531,#557,#568,#579),#590,.F.);
#531 = FACE_BOUND('',#532,.F.);
#532 = EDGE_LOOP('',(#533,#543,#549,#550,#551));
#533 = ORIENTED_EDGE('',*,*,#534,.T.);
#534 = EDGE_CURVE('',#535,#537,#539,.T.);
#535 = VERTEX_POINT('',#536);
#536 = CARTESIAN_POINT('',(20.7,-10.4,-12.2));
#537 = VERTEX_POINT('',#538);
#538 = CARTESIAN_POINT('',(20.7,15.7,-12.2));
#539 = LINE('',#540,#541);
#540 = CARTESIAN_POINT('',(20.7,-10.4,-12.2));
#541 = VECTOR('',#542,1.);
#542 = DIRECTION('',(0.,1.,0.));
#543 = ORIENTED_EDGE('',*,*,#544,.T.);
#544 = EDGE_CURVE('',#537,#409,#545,.T.);
#545 = LINE('',#546,#547);
#546 = CARTESIAN_POINT('',(20.7,15.7,-12.2));
#547 = VECTOR('',#548,1.);
#548 = DIRECTION('',(0.,0.,1.));
#549 = ORIENTED_EDGE('',*,*,#418,.T.);
#550 = ORIENTED_EDGE('',*,*,#192,.T.);
#551 = ORIENTED_EDGE('',*,*,#552,.T.);
#552 = EDGE_CURVE('',#193,#535,#553,.T.);
#553 = LINE('',#554,#555);
#554 = CARTESIAN_POINT('',(20.7,-10.4,14.));
#555 = VECTOR('',#556,1.);
#556 = DIRECTION('',(0.,0.,-1.));
#557 = FACE_BOUND('',#558,.T.);
#558 = EDGE_LOOP('',(#559));
#559 = ORIENTED_EDGE('',*,*,#560,.T.);
#560 = EDGE_CURVE('',#561,#561,#563,.T.);
#561 = VERTEX_POINT('',#562);
#562 = CARTESIAN_POINT('',(20.7,12.25,0.45));
#563 = CIRCLE('',#564,10.);
#564 = AXIS2_PLACEMENT_3D('',#565,#566,#567);
#565 = CARTESIAN_POINT('',(20.7,2.25,0.45));
#566 = DIRECTION('',(1.,0.,0.));
#567 = DIRECTION('',(0.,1.,0.));
#568 = FACE_BOUND('',#569,.T.);
#569 = EDGE_LOOP('',(#570));
#570 = ORIENTED_EDGE('',*,*,#571,.T.);
#571 = EDGE_CURVE('',#572,#572,#574,.T.);
#572 = VERTEX_POINT('',#573);
#573 = CARTESIAN_POINT('',(20.7,14.05,-9.7));
#574 = CIRCLE('',#575,1.65);
#575 = AXIS2_PLACEMENT_3D('',#576,#577,#578);
#576 = CARTESIAN_POINT('',(20.7,12.4,-9.7));
#577 = DIRECTION('',(1.,0.,0.));
#578 = DIRECTION('',(0.,1.,0.));
#579 = FACE_BOUND('',#580,.T.);
#580 = EDGE_LOOP('',(#581));
#581 = ORIENTED_EDGE('',*,*,#582,.T.);
#582 = EDGE_CURVE('',#583,#583,#585,.T.);
#583 = VERTEX_POINT('',#584);
#584 = CARTESIAN_POINT('',(20.7,-6.25,-9.7));
#585 = CIRCLE('',#586,1.65);
#586 = AXIS2_PLACEMENT_3D('',#587,#588,#589);
#587 = CARTESIAN_POINT('',(20.7,-7.9,-9.7));
#588 = DIRECTION('',(1.,0.,0.));
#589 = DIRECTION('',(0.,1.,0.));
#590 = PLANE('',#591);
#591 = AXIS2_PLACEMENT_3D('',#592,#593,#594);
#592 = CARTESIAN_POINT('',(20.7,2.490862831608,-0.280965302277));
#593 = DIRECTION('',(1.,0.,0.));
#594 = DIRECTION('',(0.,0.,1.));
#595 = ADVANCED_FACE('',(#596),#614,.F.);
#596 = FACE_BOUND('',#597,.F.);
#597 = EDGE_LOOP('',(#598,#599,#600,#608));
#598 = ORIENTED_EDGE('',*,*,#552,.F.);
#599 = ORIENTED_EDGE('',*,*,#200,.T.);
#600 = ORIENTED_EDGE('',*,*,#601,.T.);
#601 = EDGE_CURVE('',#201,#602,#604,.T.);
#602 = VERTEX_POINT('',#603);
#603 = CARTESIAN_POINT('',(26.7,-10.4,-12.2));
#604 = LINE('',#605,#606);
#605 = CARTESIAN_POINT('',(26.7,-10.4,12.8));
#606 = VECTOR('',#607,1.);
#607 = DIRECTION('',(0.,0.,-1.));
#608 = ORIENTED_EDGE('',*,*,#609,.F.);
#609 = EDGE_CURVE('',#535,#602,#610,.T.);
#610 = LINE('',#611,#612);
#611 = CARTESIAN_POINT('',(20.7,-10.4,-12.2));
#612 = VECTOR('',#613,1.);
#613 = DIRECTION('',(1.,0.,0.));
#614 = PLANE('',#615);
#615 = AXIS2_PLACEMENT_3D('',#616,#617,#618);
#616 = CARTESIAN_POINT('',(20.7,-10.4,14.));
#617 = DIRECTION('',(0.,1.,0.));
#618 = DIRECTION('',(0.,0.,-1.));
#619 = ADVANCED_FACE('',(#620,#671,#682),#693,.T.);
#620 = FACE_BOUND('',#621,.T.);
#621 = EDGE_LOOP('',(#622,#623,#624,#632,#640,#648,#657,#665));
#622 = ORIENTED_EDGE('',*,*,#208,.T.);
#623 = ORIENTED_EDGE('',*,*,#601,.T.);
#624 = ORIENTED_EDGE('',*,*,#625,.T.);
#625 = EDGE_CURVE('',#602,#626,#628,.T.);
#626 = VERTEX_POINT('',#627);
#627 = CARTESIAN_POINT('',(26.7,15.7,-12.2));
#628 = LINE('',#629,#630);
#629 = CARTESIAN_POINT('',(26.7,0.65,-12.2));
#630 = VECTOR('',#631,1.);
#631 = DIRECTION('',(0.,1.,0.));
#632 = ORIENTED_EDGE('',*,*,#633,.T.);
#633 = EDGE_CURVE('',#626,#634,#636,.T.);
#634 = VERTEX_POINT('',#635);
#635 = CARTESIAN_POINT('',(26.7,15.7,0.));
#636 = LINE('',#637,#638);
#637 = CARTESIAN_POINT('',(26.7,15.7,-0.3));
#638 = VECTOR('',#639,1.);
#639 = DIRECTION('',(0.,0.,1.));
#640 = ORIENTED_EDGE('',*,*,#641,.F.);
#641 = EDGE_CURVE('',#642,#634,#644,.T.);
#642 = VERTEX_POINT('',#643);
#643 = CARTESIAN_POINT('',(26.7,12.239869869022,-4.4E-14));
#644 = LINE('',#645,#646);
#645 = CARTESIAN_POINT('',(26.7,-14.3,0.));
#646 = VECTOR('',#647,1.);
#647 = DIRECTION('',(0.,1.,0.));
#648 = ORIENTED_EDGE('',*,*,#649,.T.);
#649 = EDGE_CURVE('',#642,#650,#652,.T.);
#650 = VERTEX_POINT('',#651);
#651 = CARTESIAN_POINT('',(26.7,-7.739869869022,-3.01E-13));
#652 = CIRCLE('',#653,10.);
#653 = AXIS2_PLACEMENT_3D('',#654,#655,#656);
#654 = CARTESIAN_POINT('',(26.7,2.25,0.45));
#655 = DIRECTION('',(-1.,0.,0.));
#656 = DIRECTION('',(0.,1.,0.));
#657 = ORIENTED_EDGE('',*,*,#658,.F.);
#658 = EDGE_CURVE('',#659,#650,#661,.T.);
#659 = VERTEX_POINT('',#660);
#660 = CARTESIAN_POINT('',(26.7,-10.,0.));
#661 = LINE('',#662,#663);
#662 = CARTESIAN_POINT('',(26.7,-14.3,0.));
#663 = VECTOR('',#664,1.);
#664 = DIRECTION('',(0.,1.,0.));
#665 = ORIENTED_EDGE('',*,*,#666,.T.);
#666 = EDGE_CURVE('',#659,#209,#667,.T.);
#667 = LINE('',#668,#669);
#668 = CARTESIAN_POINT('',(26.7,-10.,0.));
#669 = VECTOR('',#670,1.);
#670 = DIRECTION('',(0.,0.,1.));
#671 = FACE_BOUND('',#672,.T.);
#672 = EDGE_LOOP('',(#673));
#673 = ORIENTED_EDGE('',*,*,#674,.T.);
#674 = EDGE_CURVE('',#675,#675,#677,.T.);
#675 = VERTEX_POINT('',#676);
#676 = CARTESIAN_POINT('',(26.7,-6.25,-9.7));
#677 = CIRCLE('',#678,1.65);
#678 = AXIS2_PLACEMENT_3D('',#679,#680,#681);
#679 = CARTESIAN_POINT('',(26.7,-7.9,-9.7));
#680 = DIRECTION('',(-1.,0.,0.));
#681 = DIRECTION('',(0.,1.,0.));
#682 = FACE_BOUND('',#683,.T.);
#683 = EDGE_LOOP('',(#684));
#684 = ORIENTED_EDGE('',*,*,#685,.T.);
#685 = EDGE_CURVE('',#686,#686,#688,.T.);
#686 = VERTEX_POINT('',#687);
#687 = CARTESIAN_POINT('',(26.7,14.05,-9.7));
#688 = CIRCLE('',#689,1.65);
#689 = AXIS2_PLACEMENT_3D('',#690,#691,#692);
#690 = CARTESIAN_POINT('',(26.7,12.4,-9.7));
#691 = DIRECTION('',(-1.,0.,0.));
#692 = DIRECTION('',(0.,1.,0.));
#693 = PLANE('',#694);
#694 = AXIS2_PLACEMENT_3D('',#695,#696,#697);
#695 = CARTESIAN_POINT('',(26.7,11.7,11.6));
#696 = DIRECTION('',(1.,0.,0.));
#697 = DIRECTION('',(0.,1.,0.));
#698 = ADVANCED_FACE('',(#699),#717,.F.);
#699 = FACE_BOUND('',#700,.F.);
#700 = EDGE_LOOP('',(#701,#709,#710,#711));
#701 = ORIENTED_EDGE('',*,*,#702,.F.);
#702 = EDGE_CURVE('',#659,#703,#705,.T.);
#703 = VERTEX_POINT('',#704);
#704 = CARTESIAN_POINT('',(67.5,-10.,0.));
#705 = LINE('',#706,#707);
#706 = CARTESIAN_POINT('',(-67.5,-10.,0.));
#707 = VECTOR('',#708,1.);
#708 = DIRECTION('',(1.,0.,0.));
#709 = ORIENTED_EDGE('',*,*,#666,.T.);
#710 = ORIENTED_EDGE('',*,*,#216,.T.);
#711 = ORIENTED_EDGE('',*,*,#712,.F.);
#712 = EDGE_CURVE('',#703,#217,#713,.T.);
#713 = LINE('',#714,#715);
#714 = CARTESIAN_POINT('',(67.5,-10.,0.));
#715 = VECTOR('',#716,1.);
#716 = DIRECTION('',(0.,0.,1.));
#717 = PLANE('',#718);
#718 = AXIS2_PLACEMENT_3D('',#719,#720,#721);
#719 = CARTESIAN_POINT('',(-67.5,-10.,0.));
#720 = DIRECTION('',(0.,1.,0.));
#721 = DIRECTION('',(1.,0.,0.));
#722 = ADVANCED_FACE('',(#723),#741,.F.);
#723 = FACE_BOUND('',#724,.F.);
#724 = EDGE_LOOP('',(#725,#733,#734,#735));
#725 = ORIENTED_EDGE('',*,*,#726,.F.);
#726 = EDGE_CURVE('',#703,#727,#729,.T.);
#727 = VERTEX_POINT('',#728);
#728 = CARTESIAN_POINT('',(67.5,10.,0.));
#729 = LINE('',#730,#731);
#730 = CARTESIAN_POINT('',(67.5,-10.,0.));
#731 = VECTOR('',#732,1.);
#732 = DIRECTION('',(0.,1.,0.));
#733 = ORIENTED_EDGE('',*,*,#712,.T.);
#734 = ORIENTED_EDGE('',*,*,#224,.T.);
#735 = ORIENTED_EDGE('',*,*,#736,.F.);
#736 = EDGE_CURVE('',#727,#225,#737,.T.);
#737 = LINE('',#738,#739);
#738 = CARTESIAN_POINT('',(67.5,10.,0.));
#739 = VECTOR('',#740,1.);
#740 = DIRECTION('',(0.,0.,1.));
#741 = PLANE('',#742);
#742 = AXIS2_PLACEMENT_3D('',#743,#744,#745);
#743 = CARTESIAN_POINT('',(67.5,-10.,0.));
#744 = DIRECTION('',(-1.,0.,0.));
#745 = DIRECTION('',(0.,1.,0.));
#746 = ADVANCED_FACE('',(#747),#765,.T.);
#747 = FACE_BOUND('',#748,.T.);
#748 = EDGE_LOOP('',(#749,#757,#763,#764));
#749 = ORIENTED_EDGE('',*,*,#750,.F.);
#750 = EDGE_CURVE('',#751,#727,#753,.T.);
#751 = VERTEX_POINT('',#752);
#752 = CARTESIAN_POINT('',(45.,10.,0.));
#753 = LINE('',#754,#755);
#754 = CARTESIAN_POINT('',(45.,10.,0.));
#755 = VECTOR('',#756,1.);
#756 = DIRECTION('',(1.,0.,0.));
#757 = ORIENTED_EDGE('',*,*,#758,.T.);
#758 = EDGE_CURVE('',#751,#233,#759,.T.);
#759 = LINE('',#760,#761);
#760 = CARTESIAN_POINT('',(45.,10.,0.));
#761 = VECTOR('',#762,1.);
#762 = DIRECTION('',(0.,0.,1.));
#763 = ORIENTED_EDGE('',*,*,#232,.T.);
#764 = ORIENTED_EDGE('',*,*,#736,.F.);
#765 = PLANE('',#766);
#766 = AXIS2_PLACEMENT_3D('',#767,#768,#769);
#767 = CARTESIAN_POINT('',(45.,10.,0.));
#768 = DIRECTION('',(0.,1.,0.));
#769 = DIRECTION('',(1.,0.,0.));
#770 = ADVANCED_FACE('',(#771),#782,.T.);
#771 = FACE_BOUND('',#772,.T.);
#772 = EDGE_LOOP('',(#773,#779,#780,#781));
#773 = ORIENTED_EDGE('',*,*,#774,.F.);
#774 = EDGE_CURVE('',#306,#751,#775,.T.);
#775 = LINE('',#776,#777);
#776 = CARTESIAN_POINT('',(30.,25.7,0.));
#777 = VECTOR('',#778,1.);
#778 = DIRECTION('',(0.690804274229,-0.723041807026,0.));
#779 = ORIENTED_EDGE('',*,*,#305,.T.);
#780 = ORIENTED_EDGE('',*,*,#240,.T.);
#781 = ORIENTED_EDGE('',*,*,#758,.F.);
#782 = PLANE('',#783);
#783 = AXIS2_PLACEMENT_3D('',#784,#785,#786);
#784 = CARTESIAN_POINT('',(30.,25.7,0.));
#785 = DIRECTION('',(0.723041807026,0.690804274229,0.));
#786 = DIRECTION('',(0.690804274229,-0.723041807026,0.));
#787 = ADVANCED_FACE('',(#788),#807,.F.);
#788 = FACE_BOUND('',#789,.T.);
#789 = EDGE_LOOP('',(#790,#799,#805,#806));
#790 = ORIENTED_EDGE('',*,*,#791,.F.);
#791 = EDGE_CURVE('',#792,#792,#794,.T.);
#792 = VERTEX_POINT('',#793);
#793 = CARTESIAN_POINT('',(64.,0.,0.));
#794 = CIRCLE('',#795,4.);
#795 = AXIS2_PLACEMENT_3D('',#796,#797,#798);
#796 = CARTESIAN_POINT('',(60.,0.,0.));
#797 = DIRECTION('',(0.,0.,1.));
#798 = DIRECTION('',(1.,0.,0.));
#799 = ORIENTED_EDGE('',*,*,#800,.T.);
#800 = EDGE_CURVE('',#792,#269,#801,.T.);
#801 = LINE('',#802,#803);
#802 = CARTESIAN_POINT('',(64.,0.,0.));
#803 = VECTOR('',#804,1.);
#804 = DIRECTION('',(0.,0.,1.));
#805 = ORIENTED_EDGE('',*,*,#268,.F.);
#806 = ORIENTED_EDGE('',*,*,#800,.F.);
#807 = CYLINDRICAL_SURFACE('',#808,4.);
#808 = AXIS2_PLACEMENT_3D('',#809,#810,#811);
#809 = CARTESIAN_POINT('',(60.,0.,0.));
#810 = DIRECTION('',(-0.,-0.,-1.));
#811 = DIRECTION('',(1.,0.,0.));
#812 = ADVANCED_FACE('',(#813),#824,.F.);
#813 = FACE_BOUND('',#814,.F.);
#814 = EDGE_LOOP('',(#815,#816,#822,#823));
#815 = ORIENTED_EDGE('',*,*,#433,.F.);
#816 = ORIENTED_EDGE('',*,*,#817,.T.);
#817 = EDGE_CURVE('',#434,#322,#818,.T.);
#818 = LINE('',#819,#820);
#819 = CARTESIAN_POINT('',(8.95,15.7,-22.3));
#820 = VECTOR('',#821,1.);
#821 = DIRECTION('',(0.,1.,-2.2E-16));
#822 = ORIENTED_EDGE('',*,*,#329,.T.);
#823 = ORIENTED_EDGE('',*,*,#392,.F.);
#824 = PLANE('',#825);
#825 = AXIS2_PLACEMENT_3D('',#826,#827,#828);
#826 = CARTESIAN_POINT('',(8.95,15.7,-22.3));
#827 = DIRECTION('',(0.,2.2E-16,1.));
#828 = DIRECTION('',(-1.,0.,0.));
#829 = ADVANCED_FACE('',(#830),#841,.F.);
#830 = FACE_BOUND('',#831,.F.);
#831 = EDGE_LOOP('',(#832,#833,#839,#840));
#832 = ORIENTED_EDGE('',*,*,#441,.F.);
#833 = ORIENTED_EDGE('',*,*,#834,.F.);
#834 = EDGE_CURVE('',#314,#411,#835,.T.);
#835 = LINE('',#836,#837);
#836 = CARTESIAN_POINT('',(8.95,9.791363810519,0.));
#837 = VECTOR('',#838,1.);
#838 = DIRECTION('',(0.,-1.,0.));
#839 = ORIENTED_EDGE('',*,*,#321,.T.);
#840 = ORIENTED_EDGE('',*,*,#817,.F.);
#841 = PLANE('',#842);
#842 = AXIS2_PLACEMENT_3D('',#843,#844,#845);
#843 = CARTESIAN_POINT('',(8.95,15.7,6.7));
#844 = DIRECTION('',(-1.,0.,0.));
#845 = DIRECTION('',(-0.,-2.2E-16,-1.));
#846 = ADVANCED_FACE('',(#847,#870),#873,.F.);
#847 = FACE_BOUND('',#848,.F.);
#848 = EDGE_LOOP('',(#849,#850,#851,#852,#858,#859,#865,#866,#867,#868,
    #869));
#849 = ORIENTED_EDGE('',*,*,#313,.F.);
#850 = ORIENTED_EDGE('',*,*,#834,.T.);
#851 = ORIENTED_EDGE('',*,*,#408,.F.);
#852 = ORIENTED_EDGE('',*,*,#853,.F.);
#853 = EDGE_CURVE('',#634,#409,#854,.T.);
#854 = LINE('',#855,#856);
#855 = CARTESIAN_POINT('',(26.7,15.7,0.));
#856 = VECTOR('',#857,1.);
#857 = DIRECTION('',(-1.,0.,0.));
#858 = ORIENTED_EDGE('',*,*,#641,.F.);
#859 = ORIENTED_EDGE('',*,*,#860,.F.);
#860 = EDGE_CURVE('',#650,#642,#861,.T.);
#861 = LINE('',#862,#863);
#862 = CARTESIAN_POINT('',(26.7,-14.3,0.));
#863 = VECTOR('',#864,1.);
#864 = DIRECTION('',(0.,1.,0.));
#865 = ORIENTED_EDGE('',*,*,#658,.F.);
#866 = ORIENTED_EDGE('',*,*,#702,.T.);
#867 = ORIENTED_EDGE('',*,*,#726,.T.);
#868 = ORIENTED_EDGE('',*,*,#750,.F.);
#869 = ORIENTED_EDGE('',*,*,#774,.F.);
#870 = FACE_BOUND('',#871,.F.);
#871 = EDGE_LOOP('',(#872));
#872 = ORIENTED_EDGE('',*,*,#791,.F.);
#873 = PLANE('',#874);
#874 = AXIS2_PLACEMENT_3D('',#875,#876,#877);
#875 = CARTESIAN_POINT('',(-5.5E-16,3.882727621037,0.));
#876 = DIRECTION('',(0.,0.,1.));
#877 = DIRECTION('',(1.,0.,0.));
#878 = ADVANCED_FACE('',(#879),#890,.F.);
#879 = FACE_BOUND('',#880,.T.);
#880 = EDGE_LOOP('',(#881,#887,#888,#889));
#881 = ORIENTED_EDGE('',*,*,#882,.F.);
#882 = EDGE_CURVE('',#461,#346,#883,.T.);
#883 = LINE('',#884,#885);
#884 = CARTESIAN_POINT('',(-1.525,15.7,-6.9));
#885 = VECTOR('',#886,1.);
#886 = DIRECTION('',(0.,1.,-2.2E-16));
#887 = ORIENTED_EDGE('',*,*,#460,.F.);
#888 = ORIENTED_EDGE('',*,*,#882,.T.);
#889 = ORIENTED_EDGE('',*,*,#345,.F.);
#890 = CYLINDRICAL_SURFACE('',#891,1.4);
#891 = AXIS2_PLACEMENT_3D('',#892,#893,#894);
#892 = CARTESIAN_POINT('',(-0.125,15.7,-6.9));
#893 = DIRECTION('',(0.,-1.,2.2E-16));
#894 = DIRECTION('',(-1.,0.,0.));
#895 = ADVANCED_FACE('',(#896),#907,.F.);
#896 = FACE_BOUND('',#897,.T.);
#897 = EDGE_LOOP('',(#898,#904,#905,#906));
#898 = ORIENTED_EDGE('',*,*,#899,.F.);
#899 = EDGE_CURVE('',#450,#357,#900,.T.);
#900 = LINE('',#901,#902);
#901 = CARTESIAN_POINT('',(-7.525,15.7,3.35));
#902 = VECTOR('',#903,1.);
#903 = DIRECTION('',(0.,1.,-2.2E-16));
#904 = ORIENTED_EDGE('',*,*,#449,.F.);
#905 = ORIENTED_EDGE('',*,*,#899,.T.);
#906 = ORIENTED_EDGE('',*,*,#356,.F.);
#907 = CYLINDRICAL_SURFACE('',#908,1.4);
#908 = AXIS2_PLACEMENT_3D('',#909,#910,#911);
#909 = CARTESIAN_POINT('',(-6.125,15.7,3.35));
#910 = DIRECTION('',(0.,-1.,2.2E-16));
#911 = DIRECTION('',(-1.,0.,0.));
#912 = ADVANCED_FACE('',(#913),#924,.F.);
#913 = FACE_BOUND('',#914,.T.);
#914 = EDGE_LOOP('',(#915,#921,#922,#923));
#915 = ORIENTED_EDGE('',*,*,#916,.F.);
#916 = EDGE_CURVE('',#472,#368,#917,.T.);
#917 = LINE('',#918,#919);
#918 = CARTESIAN_POINT('',(4.475,15.7,3.35));
#919 = VECTOR('',#920,1.);
#920 = DIRECTION('',(0.,1.,-2.2E-16));
#921 = ORIENTED_EDGE('',*,*,#471,.F.);
#922 = ORIENTED_EDGE('',*,*,#916,.T.);
#923 = ORIENTED_EDGE('',*,*,#367,.F.);
#924 = CYLINDRICAL_SURFACE('',#925,1.4);
#925 = AXIS2_PLACEMENT_3D('',#926,#927,#928);
#926 = CARTESIAN_POINT('',(5.875,15.7,3.35));
#927 = DIRECTION('',(0.,-1.,2.2E-16));
#928 = DIRECTION('',(-1.,0.,0.));
#929 = ADVANCED_FACE('',(#930),#941,.F.);
#930 = FACE_BOUND('',#931,.F.);
#931 = EDGE_LOOP('',(#932,#933,#934,#935));
#932 = ORIENTED_EDGE('',*,*,#534,.F.);
#933 = ORIENTED_EDGE('',*,*,#609,.T.);
#934 = ORIENTED_EDGE('',*,*,#625,.T.);
#935 = ORIENTED_EDGE('',*,*,#936,.F.);
#936 = EDGE_CURVE('',#537,#626,#937,.T.);
#937 = LINE('',#938,#939);
#938 = CARTESIAN_POINT('',(20.7,15.7,-12.2));
#939 = VECTOR('',#940,1.);
#940 = DIRECTION('',(1.,0.,0.));
#941 = PLANE('',#942);
#942 = AXIS2_PLACEMENT_3D('',#943,#944,#945);
#943 = CARTESIAN_POINT('',(20.7,-10.4,-12.2));
#944 = DIRECTION('',(0.,0.,1.));
#945 = DIRECTION('',(0.,1.,0.));
#946 = ADVANCED_FACE('',(#947),#953,.F.);
#947 = FACE_BOUND('',#948,.F.);
#948 = EDGE_LOOP('',(#949,#950,#951,#952));
#949 = ORIENTED_EDGE('',*,*,#544,.F.);
#950 = ORIENTED_EDGE('',*,*,#936,.T.);
#951 = ORIENTED_EDGE('',*,*,#633,.T.);
#952 = ORIENTED_EDGE('',*,*,#853,.T.);
#953 = PLANE('',#954);
#954 = AXIS2_PLACEMENT_3D('',#955,#956,#957);
#955 = CARTESIAN_POINT('',(20.7,15.7,-12.2));
#956 = DIRECTION('',(0.,-1.,0.));
#957 = DIRECTION('',(0.,0.,1.));
#958 = ADVANCED_FACE('',(#959),#986,.F.);
#959 = FACE_BOUND('',#960,.T.);
#960 = EDGE_LOOP('',(#961,#969,#970,#971,#978,#979));
#961 = ORIENTED_EDGE('',*,*,#962,.F.);
#962 = EDGE_CURVE('',#561,#963,#965,.T.);
#963 = VERTEX_POINT('',#964);
#964 = CARTESIAN_POINT('',(26.7,12.25,0.45));
#965 = LINE('',#966,#967);
#966 = CARTESIAN_POINT('',(20.7,12.25,0.45));
#967 = VECTOR('',#968,1.);
#968 = DIRECTION('',(1.,0.,0.));
#969 = ORIENTED_EDGE('',*,*,#560,.F.);
#970 = ORIENTED_EDGE('',*,*,#962,.T.);
#971 = ORIENTED_EDGE('',*,*,#972,.F.);
#972 = EDGE_CURVE('',#650,#963,#973,.T.);
#973 = CIRCLE('',#974,10.);
#974 = AXIS2_PLACEMENT_3D('',#975,#976,#977);
#975 = CARTESIAN_POINT('',(26.7,2.25,0.45));
#976 = DIRECTION('',(-1.,0.,0.));
#977 = DIRECTION('',(0.,1.,0.));
#978 = ORIENTED_EDGE('',*,*,#649,.F.);
#979 = ORIENTED_EDGE('',*,*,#980,.F.);
#980 = EDGE_CURVE('',#963,#642,#981,.T.);
#981 = CIRCLE('',#982,10.);
#982 = AXIS2_PLACEMENT_3D('',#983,#984,#985);
#983 = CARTESIAN_POINT('',(26.7,2.25,0.45));
#984 = DIRECTION('',(-1.,0.,0.));
#985 = DIRECTION('',(0.,1.,0.));
#986 = CYLINDRICAL_SURFACE('',#987,10.);
#987 = AXIS2_PLACEMENT_3D('',#988,#989,#990);
#988 = CARTESIAN_POINT('',(20.7,2.25,0.45));
#989 = DIRECTION('',(-1.,-0.,-0.));
#990 = DIRECTION('',(0.,1.,0.));
#991 = ADVANCED_FACE('',(#992),#1003,.F.);
#992 = FACE_BOUND('',#993,.T.);
#993 = EDGE_LOOP('',(#994,#995,#1001,#1002));
#994 = ORIENTED_EDGE('',*,*,#571,.F.);
#995 = ORIENTED_EDGE('',*,*,#996,.T.);
#996 = EDGE_CURVE('',#572,#686,#997,.T.);
#997 = LINE('',#998,#999);
#998 = CARTESIAN_POINT('',(20.7,14.05,-9.7));
#999 = VECTOR('',#1000,1.);
#1000 = DIRECTION('',(1.,0.,0.));
#1001 = ORIENTED_EDGE('',*,*,#685,.F.);
#1002 = ORIENTED_EDGE('',*,*,#996,.F.);
#1003 = CYLINDRICAL_SURFACE('',#1004,1.65);
#1004 = AXIS2_PLACEMENT_3D('',#1005,#1006,#1007);
#1005 = CARTESIAN_POINT('',(20.7,12.4,-9.7));
#1006 = DIRECTION('',(-1.,-0.,-0.));
#1007 = DIRECTION('',(0.,1.,0.));
#1008 = ADVANCED_FACE('',(#1009),#1020,.F.);
#1009 = FACE_BOUND('',#1010,.T.);
#1010 = EDGE_LOOP('',(#1011,#1012,#1018,#1019));
#1011 = ORIENTED_EDGE('',*,*,#582,.F.);
#1012 = ORIENTED_EDGE('',*,*,#1013,.T.);
#1013 = EDGE_CURVE('',#583,#675,#1014,.T.);
#1014 = LINE('',#1015,#1016);
#1015 = CARTESIAN_POINT('',(20.7,-6.25,-9.7));
#1016 = VECTOR('',#1017,1.);
#1017 = DIRECTION('',(1.,0.,0.));
#1018 = ORIENTED_EDGE('',*,*,#674,.F.);
#1019 = ORIENTED_EDGE('',*,*,#1013,.F.);
#1020 = CYLINDRICAL_SURFACE('',#1021,1.65);
#1021 = AXIS2_PLACEMENT_3D('',#1022,#1023,#1024);
#1022 = CARTESIAN_POINT('',(20.7,-7.9,-9.7));
#1023 = DIRECTION('',(-1.,-0.,-0.));
#1024 = DIRECTION('',(0.,1.,0.));
#1025 = ADVANCED_FACE('',(#1026),#1031,.T.);
#1026 = FACE_BOUND('',#1027,.T.);
#1027 = EDGE_LOOP('',(#1028,#1029,#1030));
#1028 = ORIENTED_EDGE('',*,*,#860,.F.);
#1029 = ORIENTED_EDGE('',*,*,#972,.T.);
#1030 = ORIENTED_EDGE('',*,*,#980,.T.);
#1031 = PLANE('',#1032);
#1032 = AXIS2_PLACEMENT_3D('',#1033,#1034,#1035);
#1033 = CARTESIAN_POINT('',(26.7,-14.3,0.));
#1034 = DIRECTION('',(-1.,0.,0.));
#1035 = DIRECTION('',(0.,1.,0.));
#1036 = ( GEOMETRIC_REPRESENTATION_CONTEXT(3) 
GLOBAL_UNCERTAINTY_ASSIGNED_CONTEXT((#1040)) 
GLOBAL_UNIT_ASSIGNED_CONTEXT((#1037,#1038,#1039)) REPRESENTATION_CONTEXT
('Context #1','3D Context with UNIT and UNCERTAINTY') );
#1037 = ( LENGTH_UNIT() NAMED_UNIT(*) SI_UNIT(.MILLI.,.METRE.) );
#1038 = ( NAMED_UNIT(*) PLANE_ANGLE_UNIT() SI_UNIT($,.RADIAN.) );
#1039 = ( NAMED_UNIT(*) SI_UNIT($,.STERADIAN.) SOLID_ANGLE_UNIT() );
#1040 = UNCERTAINTY_MEASURE_WITH_UNIT(LENGTH_MEASURE(1.E-04),#1037,
  'distance_accuracy_value','confusion accuracy');
#1041 = PRODUCT_RELATED_PRODUCT_CATEGORY('part',$,(#7));
#1042 = MECHANICAL_DESIGN_GEOMETRIC_PRESENTATION_REPRESENTATION('',(
    #1043),#1036);
#1043 = STYLED_ITEM('color',(#1044),#15);
#1044 = PRESENTATION_STYLE_ASSIGNMENT((#1045,#1051));
#1045 = SURFACE_STYLE_USAGE(.BOTH.,#1046);
#1046 = SURFACE_SIDE_STYLE('',(#1047));
#1047 = SURFACE_STYLE_FILL_AREA(#1048);
#1048 = FILL_AREA_STYLE('',(#1049));
#1049 = FILL_AREA_STYLE_COLOUR('',#1050);
#1050 = COLOUR_RGB('',0.447058818107,0.474509808674,0.501960817233);
#1051 = CURVE_STYLE('',#1052,POSITIVE_LENGTH_MEASURE(0.1),#1053);
#1052 = DRAUGHTING_PRE_DEFINED_CURVE_FONT('continuous');
#1053 = COLOUR_RGB('',9.803921802644E-02,9.803921802644E-02,
  9.803921802644E-02);
ENDSEC;
END-ISO-10303-21;
