ISO-10303-21;
HEADER;
FILE_DESCRIPTION(('FreeCAD Model'),'2;1');
FILE_NAME('Open CASCADE Shape Model','2026-04-01T10:00:47',(''),(''),
  'Open CASCADE STEP processor 7.8','FreeCAD','Unknown');
FILE_SCHEMA(('AUTOMOTIVE_DESIGN { 1 0 10303 214 1 1 1 1 }'));
ENDSEC;
DATA;
#1 = APPLICATION_PROTOCOL_DEFINITION('international standard',
  'automotive_design',2000,#2);
#2 = APPLICATION_CONTEXT(
  'core data for automotive mechanical design processes');
#3 = SHAPE_DEFINITION_REPRESENTATION(#4,#10);
#4 = PRODUCT_DEFINITION_SHAPE('','',#5);
#5 = PRODUCT_DEFINITION('design','',#6,#9);
#6 = PRODUCT_DEFINITION_FORMATION('','',#7);
#7 = PRODUCT('主面板','主面板','',(#8));
#8 = PRODUCT_CONTEXT('',#2,'mechanical');
#9 = PRODUCT_DEFINITION_CONTEXT('part definition',#2,'design');
#10 = ADVANCED_BREP_SHAPE_REPRESENTATION('',(#11,#15),#1103);
#11 = AXIS2_PLACEMENT_3D('',#12,#13,#14);
#12 = CARTESIAN_POINT('',(0.,0.,0.));
#13 = DIRECTION('',(0.,0.,1.));
#14 = DIRECTION('',(1.,0.,-0.));
#15 = MANIFOLD_SOLID_BREP('',#16);
#16 = CLOSED_SHELL('',(#17,#57,#88,#119,#384,#649,#661,#678,#700,#717,
    #729,#746,#768,#785,#797,#814,#831,#848,#870,#887,#899,#916,#938,
    #955,#967,#984,#1001,#1018,#1040,#1057,#1074,#1086));
#17 = ADVANCED_FACE('',(#18),#52,.F.);
#18 = FACE_BOUND('',#19,.F.);
#19 = EDGE_LOOP('',(#20,#30,#38,#46));
#20 = ORIENTED_EDGE('',*,*,#21,.T.);
#21 = EDGE_CURVE('',#22,#24,#26,.T.);
#22 = VERTEX_POINT('',#23);
#23 = CARTESIAN_POINT('',(-125.,-150.,2.84217094304E-14));
#24 = VERTEX_POINT('',#25);
#25 = CARTESIAN_POINT('',(-125.,-158.,5.684341886081E-14));
#26 = LINE('',#27,#28);
#27 = CARTESIAN_POINT('',(-125.,-150.,3.330669073875E-14));
#28 = VECTOR('',#29,1.);
#29 = DIRECTION('',(0.,-1.,5.551115123126E-16));
#30 = ORIENTED_EDGE('',*,*,#31,.T.);
#31 = EDGE_CURVE('',#24,#32,#34,.T.);
#32 = VERTEX_POINT('',#33);
#33 = CARTESIAN_POINT('',(125.,-158.,5.684341886081E-14));
#34 = LINE('',#35,#36);
#35 = CARTESIAN_POINT('',(-125.,-158.,3.819167204711E-14));
#36 = VECTOR('',#37,1.);
#37 = DIRECTION('',(1.,0.,0.));
#38 = ORIENTED_EDGE('',*,*,#39,.F.);
#39 = EDGE_CURVE('',#40,#32,#42,.T.);
#40 = VERTEX_POINT('',#41);
#41 = CARTESIAN_POINT('',(125.,-150.,2.84217094304E-14));
#42 = LINE('',#43,#44);
#43 = CARTESIAN_POINT('',(125.,-150.,3.330669073875E-14));
#44 = VECTOR('',#45,1.);
#45 = DIRECTION('',(0.,-1.,5.551115123126E-16));
#46 = ORIENTED_EDGE('',*,*,#47,.F.);
#47 = EDGE_CURVE('',#22,#40,#48,.T.);
#48 = LINE('',#49,#50);
#49 = CARTESIAN_POINT('',(-125.,-150.,3.330669073875E-14));
#50 = VECTOR('',#51,1.);
#51 = DIRECTION('',(1.,0.,0.));
#52 = PLANE('',#53);
#53 = AXIS2_PLACEMENT_3D('',#54,#55,#56);
#54 = CARTESIAN_POINT('',(-125.,-150.,3.330669073875E-14));
#55 = DIRECTION('',(0.,5.551115123126E-16,1.));
#56 = DIRECTION('',(1.,0.,0.));
#57 = ADVANCED_FACE('',(#58),#83,.F.);
#58 = FACE_BOUND('',#59,.F.);
#59 = EDGE_LOOP('',(#60,#70,#76,#77));
#60 = ORIENTED_EDGE('',*,*,#61,.T.);
#61 = EDGE_CURVE('',#62,#64,#66,.T.);
#62 = VERTEX_POINT('',#63);
#63 = CARTESIAN_POINT('',(-125.,-150.,220.));
#64 = VERTEX_POINT('',#65);
#65 = CARTESIAN_POINT('',(-125.,-158.,220.));
#66 = LINE('',#67,#68);
#67 = CARTESIAN_POINT('',(-125.,-150.,220.));
#68 = VECTOR('',#69,1.);
#69 = DIRECTION('',(0.,-1.,5.551115123126E-16));
#70 = ORIENTED_EDGE('',*,*,#71,.T.);
#71 = EDGE_CURVE('',#64,#24,#72,.T.);
#72 = LINE('',#73,#74);
#73 = CARTESIAN_POINT('',(-125.,-158.,220.));
#74 = VECTOR('',#75,1.);
#75 = DIRECTION('',(0.,-5.551115123126E-16,-1.));
#76 = ORIENTED_EDGE('',*,*,#21,.F.);
#77 = ORIENTED_EDGE('',*,*,#78,.F.);
#78 = EDGE_CURVE('',#62,#22,#79,.T.);
#79 = LINE('',#80,#81);
#80 = CARTESIAN_POINT('',(-125.,-150.,220.));
#81 = VECTOR('',#82,1.);
#82 = DIRECTION('',(0.,-5.551115123126E-16,-1.));
#83 = PLANE('',#84);
#84 = AXIS2_PLACEMENT_3D('',#85,#86,#87);
#85 = CARTESIAN_POINT('',(-125.,-150.,220.));
#86 = DIRECTION('',(1.,0.,0.));
#87 = DIRECTION('',(0.,-5.551115123126E-16,-1.));
#88 = ADVANCED_FACE('',(#89),#114,.F.);
#89 = FACE_BOUND('',#90,.F.);
#90 = EDGE_LOOP('',(#91,#92,#100,#108));
#91 = ORIENTED_EDGE('',*,*,#39,.T.);
#92 = ORIENTED_EDGE('',*,*,#93,.T.);
#93 = EDGE_CURVE('',#32,#94,#96,.T.);
#94 = VERTEX_POINT('',#95);
#95 = CARTESIAN_POINT('',(125.,-158.,220.));
#96 = LINE('',#97,#98);
#97 = CARTESIAN_POINT('',(125.,-158.,3.819167204711E-14));
#98 = VECTOR('',#99,1.);
#99 = DIRECTION('',(0.,5.551115123126E-16,1.));
#100 = ORIENTED_EDGE('',*,*,#101,.F.);
#101 = EDGE_CURVE('',#102,#94,#104,.T.);
#102 = VERTEX_POINT('',#103);
#103 = CARTESIAN_POINT('',(125.,-150.,220.));
#104 = LINE('',#105,#106);
#105 = CARTESIAN_POINT('',(125.,-150.,220.));
#106 = VECTOR('',#107,1.);
#107 = DIRECTION('',(0.,-1.,5.551115123126E-16));
#108 = ORIENTED_EDGE('',*,*,#109,.F.);
#109 = EDGE_CURVE('',#40,#102,#110,.T.);
#110 = LINE('',#111,#112);
#111 = CARTESIAN_POINT('',(125.,-150.,3.330669073875E-14));
#112 = VECTOR('',#113,1.);
#113 = DIRECTION('',(0.,5.551115123126E-16,1.));
#114 = PLANE('',#115);
#115 = AXIS2_PLACEMENT_3D('',#116,#117,#118);
#116 = CARTESIAN_POINT('',(125.,-150.,3.330669073875E-14));
#117 = DIRECTION('',(-1.,0.,0.));
#118 = DIRECTION('',(0.,5.551115123126E-16,1.));
#119 = ADVANCED_FACE('',(#120,#131,#142,#168,#179,#205,#216,#227,#238,
    #264,#275,#301,#312,#323,#334,#368),#379,.T.);
#120 = FACE_BOUND('',#121,.T.);
#121 = EDGE_LOOP('',(#122,#123,#124,#130));
#122 = ORIENTED_EDGE('',*,*,#47,.F.);
#123 = ORIENTED_EDGE('',*,*,#78,.F.);
#124 = ORIENTED_EDGE('',*,*,#125,.F.);
#125 = EDGE_CURVE('',#102,#62,#126,.T.);
#126 = LINE('',#127,#128);
#127 = CARTESIAN_POINT('',(125.,-150.,220.));
#128 = VECTOR('',#129,1.);
#129 = DIRECTION('',(-1.,0.,0.));
#130 = ORIENTED_EDGE('',*,*,#109,.F.);
#131 = FACE_BOUND('',#132,.T.);
#132 = EDGE_LOOP('',(#133));
#133 = ORIENTED_EDGE('',*,*,#134,.F.);
#134 = EDGE_CURVE('',#135,#135,#137,.T.);
#135 = VERTEX_POINT('',#136);
#136 = CARTESIAN_POINT('',(-67.65,-150.,23.414489327056));
#137 = CIRCLE('',#138,2.85);
#138 = AXIS2_PLACEMENT_3D('',#139,#140,#141);
#139 = CARTESIAN_POINT('',(-70.5,-150.,23.414489327056));
#140 = DIRECTION('',(0.,1.,-4.440892098501E-16));
#141 = DIRECTION('',(1.,0.,0.));
#142 = FACE_BOUND('',#143,.T.);
#143 = EDGE_LOOP('',(#144,#154,#162));
#144 = ORIENTED_EDGE('',*,*,#145,.T.);
#145 = EDGE_CURVE('',#146,#148,#150,.T.);
#146 = VERTEX_POINT('',#147);
#147 = CARTESIAN_POINT('',(-17.25,-150.,155.29175668138));
#148 = VERTEX_POINT('',#149);
#149 = CARTESIAN_POINT('',(-104.75,-150.,53.164489327056));
#150 = LINE('',#151,#152);
#151 = CARTESIAN_POINT('',(-24.78786165212,-150.,146.49379997022));
#152 = VECTOR('',#153,1.);
#153 = DIRECTION('',(-0.650629938761,-4.49141166566E-16,-0.759394945195)
  );
#154 = ORIENTED_EDGE('',*,*,#155,.T.);
#155 = EDGE_CURVE('',#148,#156,#158,.T.);
#156 = VERTEX_POINT('',#157);
#157 = CARTESIAN_POINT('',(-17.25,-150.,53.164489327056));
#158 = LINE('',#159,#160);
#159 = CARTESIAN_POINT('',(-52.375,-150.,53.164489327056));
#160 = VECTOR('',#161,1.);
#161 = DIRECTION('',(1.,0.,0.));
#162 = ORIENTED_EDGE('',*,*,#163,.T.);
#163 = EDGE_CURVE('',#156,#146,#164,.T.);
#164 = LINE('',#165,#166);
#165 = CARTESIAN_POINT('',(-17.25,-150.,81.582244663528));
#166 = VECTOR('',#167,1.);
#167 = DIRECTION('',(0.,5.914460840276E-16,1.));
#168 = FACE_BOUND('',#169,.T.);
#169 = EDGE_LOOP('',(#170));
#170 = ORIENTED_EDGE('',*,*,#171,.F.);
#171 = EDGE_CURVE('',#172,#172,#174,.T.);
#172 = VERTEX_POINT('',#173);
#173 = CARTESIAN_POINT('',(-42.65,-150.,23.414489327056));
#174 = CIRCLE('',#175,2.85);
#175 = AXIS2_PLACEMENT_3D('',#176,#177,#178);
#176 = CARTESIAN_POINT('',(-45.5,-150.,23.414489327056));
#177 = DIRECTION('',(0.,1.,-4.440892098501E-16));
#178 = DIRECTION('',(1.,0.,0.));
#179 = FACE_BOUND('',#180,.T.);
#180 = EDGE_LOOP('',(#181,#191,#199));
#181 = ORIENTED_EDGE('',*,*,#182,.T.);
#182 = EDGE_CURVE('',#183,#185,#187,.T.);
#183 = VERTEX_POINT('',#184);
#184 = CARTESIAN_POINT('',(-11.25,-150.,177.66448932705));
#185 = VERTEX_POINT('',#186);
#186 = CARTESIAN_POINT('',(-98.75,-150.,177.66448932705));
#187 = LINE('',#188,#189);
#188 = CARTESIAN_POINT('',(-5.625,-150.,177.66448932705));
#189 = VECTOR('',#190,1.);
#190 = DIRECTION('',(-1.,-0.,0.));
#191 = ORIENTED_EDGE('',*,*,#192,.T.);
#192 = EDGE_CURVE('',#185,#193,#195,.T.);
#193 = VERTEX_POINT('',#194);
#194 = CARTESIAN_POINT('',(-98.75,-150.,75.53722197273));
#195 = LINE('',#196,#197);
#196 = CARTESIAN_POINT('',(-98.75,-150.,143.83224466352));
#197 = VECTOR('',#198,1.);
#198 = DIRECTION('',(0.,-5.914460840276E-16,-1.));
#199 = ORIENTED_EDGE('',*,*,#200,.T.);
#200 = EDGE_CURVE('',#193,#183,#201,.T.);
#201 = LINE('',#202,#203);
#202 = CARTESIAN_POINT('',(-69.3348363781,-150.,109.8696823097));
#203 = VECTOR('',#204,1.);
#204 = DIRECTION('',(0.650629938761,4.49141166566E-16,0.759394945195));
#205 = FACE_BOUND('',#206,.T.);
#206 = EDGE_LOOP('',(#207));
#207 = ORIENTED_EDGE('',*,*,#208,.F.);
#208 = EDGE_CURVE('',#209,#209,#211,.T.);
#209 = VERTEX_POINT('',#210);
#210 = CARTESIAN_POINT('',(-67.65,-150.,207.41448932705));
#211 = CIRCLE('',#212,2.85);
#212 = AXIS2_PLACEMENT_3D('',#213,#214,#215);
#213 = CARTESIAN_POINT('',(-70.5,-150.,207.41448932705));
#214 = DIRECTION('',(0.,1.,-4.440892098501E-16));
#215 = DIRECTION('',(1.,0.,0.));
#216 = FACE_BOUND('',#217,.T.);
#217 = EDGE_LOOP('',(#218));
#218 = ORIENTED_EDGE('',*,*,#219,.F.);
#219 = EDGE_CURVE('',#220,#220,#222,.T.);
#220 = VERTEX_POINT('',#221);
#221 = CARTESIAN_POINT('',(-42.65,-150.,207.41448932705));
#222 = CIRCLE('',#223,2.85);
#223 = AXIS2_PLACEMENT_3D('',#224,#225,#226);
#224 = CARTESIAN_POINT('',(-45.5,-150.,207.41448932705));
#225 = DIRECTION('',(0.,1.,-4.440892098501E-16));
#226 = DIRECTION('',(1.,0.,0.));
#227 = FACE_BOUND('',#228,.T.);
#228 = EDGE_LOOP('',(#229));
#229 = ORIENTED_EDGE('',*,*,#230,.F.);
#230 = EDGE_CURVE('',#231,#231,#233,.T.);
#231 = VERTEX_POINT('',#232);
#232 = CARTESIAN_POINT('',(20.35,-150.,46.2));
#233 = CIRCLE('',#234,1.85);
#234 = AXIS2_PLACEMENT_3D('',#235,#236,#237);
#235 = CARTESIAN_POINT('',(18.5,-150.,46.2));
#236 = DIRECTION('',(0.,1.,-4.440892098501E-16));
#237 = DIRECTION('',(1.,0.,0.));
#238 = FACE_BOUND('',#239,.T.);
#239 = EDGE_LOOP('',(#240,#250,#258));
#240 = ORIENTED_EDGE('',*,*,#241,.F.);
#241 = EDGE_CURVE('',#242,#244,#246,.T.);
#242 = VERTEX_POINT('',#243);
#243 = CARTESIAN_POINT('',(20.,-150.,22.5));
#244 = VERTEX_POINT('',#245);
#245 = CARTESIAN_POINT('',(81.,-150.,90.216827587771));
#246 = LINE('',#247,#248);
#247 = CARTESIAN_POINT('',(37.276602185788,-150.,41.678962156025));
#248 = VECTOR('',#249,1.);
#249 = DIRECTION('',(0.669297192638,4.394413629625E-16,0.742994796702));
#250 = ORIENTED_EDGE('',*,*,#251,.T.);
#251 = EDGE_CURVE('',#242,#252,#254,.T.);
#252 = VERTEX_POINT('',#253);
#253 = CARTESIAN_POINT('',(81.,-150.,22.5));
#254 = LINE('',#255,#256);
#255 = CARTESIAN_POINT('',(10.,-150.,22.5));
#256 = VECTOR('',#257,1.);
#257 = DIRECTION('',(1.,0.,0.));
#258 = ORIENTED_EDGE('',*,*,#259,.T.);
#259 = EDGE_CURVE('',#252,#244,#260,.T.);
#260 = LINE('',#261,#262);
#261 = CARTESIAN_POINT('',(81.,-150.,66.25));
#262 = VECTOR('',#263,1.);
#263 = DIRECTION('',(0.,5.914460840276E-16,1.));
#264 = FACE_BOUND('',#265,.T.);
#265 = EDGE_LOOP('',(#266));
#266 = ORIENTED_EDGE('',*,*,#267,.F.);
#267 = EDGE_CURVE('',#268,#268,#270,.T.);
#268 = VERTEX_POINT('',#269);
#269 = CARTESIAN_POINT('',(20.35,-150.,88.8));
#270 = CIRCLE('',#271,1.85);
#271 = AXIS2_PLACEMENT_3D('',#272,#273,#274);
#272 = CARTESIAN_POINT('',(18.5,-150.,88.8));
#273 = DIRECTION('',(0.,1.,-4.440892098501E-16));
#274 = DIRECTION('',(1.,0.,0.));
#275 = FACE_BOUND('',#276,.T.);
#276 = EDGE_LOOP('',(#277,#287,#295));
#277 = ORIENTED_EDGE('',*,*,#278,.F.);
#278 = EDGE_CURVE('',#279,#281,#283,.T.);
#279 = VERTEX_POINT('',#280);
#280 = CARTESIAN_POINT('',(84.,-150.,105.5));
#281 = VERTEX_POINT('',#282);
#282 = CARTESIAN_POINT('',(23.,-150.,37.783172412229));
#283 = LINE('',#284,#285);
#284 = CARTESIAN_POINT('',(66.304622998978,-150.,85.856150926577));
#285 = VECTOR('',#286,1.);
#286 = DIRECTION('',(-0.669297192638,-4.394413629625E-16,-0.742994796702
    ));
#287 = ORIENTED_EDGE('',*,*,#288,.T.);
#288 = EDGE_CURVE('',#279,#289,#291,.T.);
#289 = VERTEX_POINT('',#290);
#290 = CARTESIAN_POINT('',(23.,-150.,105.5));
#291 = LINE('',#292,#293);
#292 = CARTESIAN_POINT('',(42.,-150.,105.5));
#293 = VECTOR('',#294,1.);
#294 = DIRECTION('',(-1.,-0.,0.));
#295 = ORIENTED_EDGE('',*,*,#296,.T.);
#296 = EDGE_CURVE('',#289,#281,#297,.T.);
#297 = LINE('',#298,#299);
#298 = CARTESIAN_POINT('',(23.,-150.,107.75));
#299 = VECTOR('',#300,1.);
#300 = DIRECTION('',(0.,-5.914460840276E-16,-1.));
#301 = FACE_BOUND('',#302,.T.);
#302 = EDGE_LOOP('',(#303));
#303 = ORIENTED_EDGE('',*,*,#304,.F.);
#304 = EDGE_CURVE('',#305,#305,#307,.T.);
#305 = VERTEX_POINT('',#306);
#306 = CARTESIAN_POINT('',(87.35,-150.,46.2));
#307 = CIRCLE('',#308,1.85);
#308 = AXIS2_PLACEMENT_3D('',#309,#310,#311);
#309 = CARTESIAN_POINT('',(85.5,-150.,46.2));
#310 = DIRECTION('',(0.,1.,-4.440892098501E-16));
#311 = DIRECTION('',(1.,0.,0.));
#312 = FACE_BOUND('',#313,.T.);
#313 = EDGE_LOOP('',(#314));
#314 = ORIENTED_EDGE('',*,*,#315,.F.);
#315 = EDGE_CURVE('',#316,#316,#318,.T.);
#316 = VERTEX_POINT('',#317);
#317 = CARTESIAN_POINT('',(114.15,-150.,33.));
#318 = CIRCLE('',#319,2.15);
#319 = AXIS2_PLACEMENT_3D('',#320,#321,#322);
#320 = CARTESIAN_POINT('',(112.,-150.,33.));
#321 = DIRECTION('',(0.,1.,-4.440892098501E-16));
#322 = DIRECTION('',(1.,0.,0.));
#323 = FACE_BOUND('',#324,.T.);
#324 = EDGE_LOOP('',(#325));
#325 = ORIENTED_EDGE('',*,*,#326,.F.);
#326 = EDGE_CURVE('',#327,#327,#329,.T.);
#327 = VERTEX_POINT('',#328);
#328 = CARTESIAN_POINT('',(87.35,-150.,88.8));
#329 = CIRCLE('',#330,1.85);
#330 = AXIS2_PLACEMENT_3D('',#331,#332,#333);
#331 = CARTESIAN_POINT('',(85.5,-150.,88.8));
#332 = DIRECTION('',(0.,1.,-4.440892098501E-16));
#333 = DIRECTION('',(1.,0.,0.));
#334 = FACE_BOUND('',#335,.T.);
#335 = EDGE_LOOP('',(#336,#346,#354,#362));
#336 = ORIENTED_EDGE('',*,*,#337,.T.);
#337 = EDGE_CURVE('',#338,#340,#342,.T.);
#338 = VERTEX_POINT('',#339);
#339 = CARTESIAN_POINT('',(17.549999999996,-150.,138.55));
#340 = VERTEX_POINT('',#341);
#341 = CARTESIAN_POINT('',(88.45,-150.,138.55));
#342 = LINE('',#343,#344);
#343 = CARTESIAN_POINT('',(8.774999999998,-150.,138.55));
#344 = VECTOR('',#345,1.);
#345 = DIRECTION('',(1.,0.,0.));
#346 = ORIENTED_EDGE('',*,*,#347,.T.);
#347 = EDGE_CURVE('',#340,#348,#350,.T.);
#348 = VERTEX_POINT('',#349);
#349 = CARTESIAN_POINT('',(88.45,-150.,185.45));
#350 = LINE('',#351,#352);
#351 = CARTESIAN_POINT('',(88.45,-150.,124.275));
#352 = VECTOR('',#353,1.);
#353 = DIRECTION('',(0.,5.914460840276E-16,1.));
#354 = ORIENTED_EDGE('',*,*,#355,.T.);
#355 = EDGE_CURVE('',#348,#356,#358,.T.);
#356 = VERTEX_POINT('',#357);
#357 = CARTESIAN_POINT('',(17.549999999996,-150.,185.45));
#358 = LINE('',#359,#360);
#359 = CARTESIAN_POINT('',(44.225,-150.,185.45));
#360 = VECTOR('',#361,1.);
#361 = DIRECTION('',(-1.,0.,0.));
#362 = ORIENTED_EDGE('',*,*,#363,.T.);
#363 = EDGE_CURVE('',#356,#338,#364,.T.);
#364 = LINE('',#365,#366);
#365 = CARTESIAN_POINT('',(17.549999999996,-150.,147.725));
#366 = VECTOR('',#367,1.);
#367 = DIRECTION('',(0.,-5.914460840276E-16,-1.));
#368 = FACE_BOUND('',#369,.T.);
#369 = EDGE_LOOP('',(#370));
#370 = ORIENTED_EDGE('',*,*,#371,.F.);
#371 = EDGE_CURVE('',#372,#372,#374,.T.);
#372 = VERTEX_POINT('',#373);
#373 = CARTESIAN_POINT('',(114.15,-150.,183.));
#374 = CIRCLE('',#375,2.15);
#375 = AXIS2_PLACEMENT_3D('',#376,#377,#378);
#376 = CARTESIAN_POINT('',(112.,-150.,183.));
#377 = DIRECTION('',(0.,1.,-4.440892098501E-16));
#378 = DIRECTION('',(1.,0.,0.));
#379 = PLANE('',#380);
#380 = AXIS2_PLACEMENT_3D('',#381,#382,#383);
#381 = CARTESIAN_POINT('',(0.,-150.,110.));
#382 = DIRECTION('',(0.,1.,-5.914460840276E-16));
#383 = DIRECTION('',(0.,5.914460840276E-16,1.));
#384 = ADVANCED_FACE('',(#385,#396,#407,#433,#444,#470,#481,#492,#503,
    #529,#540,#566,#577,#588,#599,#633),#644,.F.);
#385 = FACE_BOUND('',#386,.F.);
#386 = EDGE_LOOP('',(#387,#388,#389,#395));
#387 = ORIENTED_EDGE('',*,*,#31,.F.);
#388 = ORIENTED_EDGE('',*,*,#71,.F.);
#389 = ORIENTED_EDGE('',*,*,#390,.F.);
#390 = EDGE_CURVE('',#94,#64,#391,.T.);
#391 = LINE('',#392,#393);
#392 = CARTESIAN_POINT('',(125.,-158.,220.));
#393 = VECTOR('',#394,1.);
#394 = DIRECTION('',(-1.,0.,0.));
#395 = ORIENTED_EDGE('',*,*,#93,.F.);
#396 = FACE_BOUND('',#397,.F.);
#397 = EDGE_LOOP('',(#398));
#398 = ORIENTED_EDGE('',*,*,#399,.F.);
#399 = EDGE_CURVE('',#400,#400,#402,.T.);
#400 = VERTEX_POINT('',#401);
#401 = CARTESIAN_POINT('',(-67.65,-158.,23.414489327056));
#402 = CIRCLE('',#403,2.85);
#403 = AXIS2_PLACEMENT_3D('',#404,#405,#406);
#404 = CARTESIAN_POINT('',(-70.5,-158.,23.414489327056));
#405 = DIRECTION('',(0.,1.,-4.440892098501E-16));
#406 = DIRECTION('',(1.,0.,0.));
#407 = FACE_BOUND('',#408,.F.);
#408 = EDGE_LOOP('',(#409,#419,#427));
#409 = ORIENTED_EDGE('',*,*,#410,.T.);
#410 = EDGE_CURVE('',#411,#413,#415,.T.);
#411 = VERTEX_POINT('',#412);
#412 = CARTESIAN_POINT('',(-17.25,-158.,155.29175668138));
#413 = VERTEX_POINT('',#414);
#414 = CARTESIAN_POINT('',(-104.75,-158.,53.164489327056));
#415 = LINE('',#416,#417);
#416 = CARTESIAN_POINT('',(-24.78786165212,-158.,146.49379997022));
#417 = VECTOR('',#418,1.);
#418 = DIRECTION('',(-0.650629938761,-4.49141166566E-16,-0.759394945195)
  );
#419 = ORIENTED_EDGE('',*,*,#420,.T.);
#420 = EDGE_CURVE('',#413,#421,#423,.T.);
#421 = VERTEX_POINT('',#422);
#422 = CARTESIAN_POINT('',(-17.25,-158.,53.164489327056));
#423 = LINE('',#424,#425);
#424 = CARTESIAN_POINT('',(-52.375,-158.,53.164489327056));
#425 = VECTOR('',#426,1.);
#426 = DIRECTION('',(1.,0.,0.));
#427 = ORIENTED_EDGE('',*,*,#428,.T.);
#428 = EDGE_CURVE('',#421,#411,#429,.T.);
#429 = LINE('',#430,#431);
#430 = CARTESIAN_POINT('',(-17.25,-158.,81.582244663528));
#431 = VECTOR('',#432,1.);
#432 = DIRECTION('',(0.,5.914460840276E-16,1.));
#433 = FACE_BOUND('',#434,.F.);
#434 = EDGE_LOOP('',(#435));
#435 = ORIENTED_EDGE('',*,*,#436,.F.);
#436 = EDGE_CURVE('',#437,#437,#439,.T.);
#437 = VERTEX_POINT('',#438);
#438 = CARTESIAN_POINT('',(-42.65,-158.,23.414489327056));
#439 = CIRCLE('',#440,2.85);
#440 = AXIS2_PLACEMENT_3D('',#441,#442,#443);
#441 = CARTESIAN_POINT('',(-45.5,-158.,23.414489327056));
#442 = DIRECTION('',(0.,1.,-4.440892098501E-16));
#443 = DIRECTION('',(1.,0.,0.));
#444 = FACE_BOUND('',#445,.F.);
#445 = EDGE_LOOP('',(#446,#456,#464));
#446 = ORIENTED_EDGE('',*,*,#447,.T.);
#447 = EDGE_CURVE('',#448,#450,#452,.T.);
#448 = VERTEX_POINT('',#449);
#449 = CARTESIAN_POINT('',(-11.25,-158.,177.66448932705));
#450 = VERTEX_POINT('',#451);
#451 = CARTESIAN_POINT('',(-98.75,-158.,177.66448932705));
#452 = LINE('',#453,#454);
#453 = CARTESIAN_POINT('',(-5.625,-158.,177.66448932705));
#454 = VECTOR('',#455,1.);
#455 = DIRECTION('',(-1.,-0.,0.));
#456 = ORIENTED_EDGE('',*,*,#457,.T.);
#457 = EDGE_CURVE('',#450,#458,#460,.T.);
#458 = VERTEX_POINT('',#459);
#459 = CARTESIAN_POINT('',(-98.75,-158.,75.53722197273));
#460 = LINE('',#461,#462);
#461 = CARTESIAN_POINT('',(-98.75,-158.,143.83224466352));
#462 = VECTOR('',#463,1.);
#463 = DIRECTION('',(0.,-5.914460840276E-16,-1.));
#464 = ORIENTED_EDGE('',*,*,#465,.T.);
#465 = EDGE_CURVE('',#458,#448,#466,.T.);
#466 = LINE('',#467,#468);
#467 = CARTESIAN_POINT('',(-69.3348363781,-158.,109.8696823097));
#468 = VECTOR('',#469,1.);
#469 = DIRECTION('',(0.650629938761,4.49141166566E-16,0.759394945195));
#470 = FACE_BOUND('',#471,.F.);
#471 = EDGE_LOOP('',(#472));
#472 = ORIENTED_EDGE('',*,*,#473,.F.);
#473 = EDGE_CURVE('',#474,#474,#476,.T.);
#474 = VERTEX_POINT('',#475);
#475 = CARTESIAN_POINT('',(-67.65,-158.,207.41448932705));
#476 = CIRCLE('',#477,2.85);
#477 = AXIS2_PLACEMENT_3D('',#478,#479,#480);
#478 = CARTESIAN_POINT('',(-70.5,-158.,207.41448932705));
#479 = DIRECTION('',(0.,1.,-4.440892098501E-16));
#480 = DIRECTION('',(1.,0.,0.));
#481 = FACE_BOUND('',#482,.F.);
#482 = EDGE_LOOP('',(#483));
#483 = ORIENTED_EDGE('',*,*,#484,.F.);
#484 = EDGE_CURVE('',#485,#485,#487,.T.);
#485 = VERTEX_POINT('',#486);
#486 = CARTESIAN_POINT('',(-42.65,-158.,207.41448932705));
#487 = CIRCLE('',#488,2.85);
#488 = AXIS2_PLACEMENT_3D('',#489,#490,#491);
#489 = CARTESIAN_POINT('',(-45.5,-158.,207.41448932705));
#490 = DIRECTION('',(0.,1.,-4.440892098501E-16));
#491 = DIRECTION('',(1.,0.,0.));
#492 = FACE_BOUND('',#493,.F.);
#493 = EDGE_LOOP('',(#494));
#494 = ORIENTED_EDGE('',*,*,#495,.F.);
#495 = EDGE_CURVE('',#496,#496,#498,.T.);
#496 = VERTEX_POINT('',#497);
#497 = CARTESIAN_POINT('',(20.35,-158.,46.2));
#498 = CIRCLE('',#499,1.85);
#499 = AXIS2_PLACEMENT_3D('',#500,#501,#502);
#500 = CARTESIAN_POINT('',(18.5,-158.,46.2));
#501 = DIRECTION('',(0.,1.,-4.440892098501E-16));
#502 = DIRECTION('',(1.,0.,0.));
#503 = FACE_BOUND('',#504,.F.);
#504 = EDGE_LOOP('',(#505,#515,#523));
#505 = ORIENTED_EDGE('',*,*,#506,.F.);
#506 = EDGE_CURVE('',#507,#509,#511,.T.);
#507 = VERTEX_POINT('',#508);
#508 = CARTESIAN_POINT('',(20.,-158.,22.5));
#509 = VERTEX_POINT('',#510);
#510 = CARTESIAN_POINT('',(81.,-158.,90.216827587771));
#511 = LINE('',#512,#513);
#512 = CARTESIAN_POINT('',(37.276602185788,-158.,41.678962156025));
#513 = VECTOR('',#514,1.);
#514 = DIRECTION('',(0.669297192638,4.394413629625E-16,0.742994796702));
#515 = ORIENTED_EDGE('',*,*,#516,.T.);
#516 = EDGE_CURVE('',#507,#517,#519,.T.);
#517 = VERTEX_POINT('',#518);
#518 = CARTESIAN_POINT('',(81.,-158.,22.5));
#519 = LINE('',#520,#521);
#520 = CARTESIAN_POINT('',(10.,-158.,22.5));
#521 = VECTOR('',#522,1.);
#522 = DIRECTION('',(1.,0.,0.));
#523 = ORIENTED_EDGE('',*,*,#524,.T.);
#524 = EDGE_CURVE('',#517,#509,#525,.T.);
#525 = LINE('',#526,#527);
#526 = CARTESIAN_POINT('',(81.,-158.,66.25));
#527 = VECTOR('',#528,1.);
#528 = DIRECTION('',(0.,5.914460840276E-16,1.));
#529 = FACE_BOUND('',#530,.F.);
#530 = EDGE_LOOP('',(#531));
#531 = ORIENTED_EDGE('',*,*,#532,.F.);
#532 = EDGE_CURVE('',#533,#533,#535,.T.);
#533 = VERTEX_POINT('',#534);
#534 = CARTESIAN_POINT('',(20.35,-158.,88.8));
#535 = CIRCLE('',#536,1.85);
#536 = AXIS2_PLACEMENT_3D('',#537,#538,#539);
#537 = CARTESIAN_POINT('',(18.5,-158.,88.8));
#538 = DIRECTION('',(0.,1.,-4.440892098501E-16));
#539 = DIRECTION('',(1.,0.,0.));
#540 = FACE_BOUND('',#541,.F.);
#541 = EDGE_LOOP('',(#542,#552,#560));
#542 = ORIENTED_EDGE('',*,*,#543,.F.);
#543 = EDGE_CURVE('',#544,#546,#548,.T.);
#544 = VERTEX_POINT('',#545);
#545 = CARTESIAN_POINT('',(84.,-158.,105.5));
#546 = VERTEX_POINT('',#547);
#547 = CARTESIAN_POINT('',(23.,-158.,37.783172412229));
#548 = LINE('',#549,#550);
#549 = CARTESIAN_POINT('',(66.304622998978,-158.,85.856150926577));
#550 = VECTOR('',#551,1.);
#551 = DIRECTION('',(-0.669297192638,-4.394413629625E-16,-0.742994796702
    ));
#552 = ORIENTED_EDGE('',*,*,#553,.T.);
#553 = EDGE_CURVE('',#544,#554,#556,.T.);
#554 = VERTEX_POINT('',#555);
#555 = CARTESIAN_POINT('',(23.,-158.,105.5));
#556 = LINE('',#557,#558);
#557 = CARTESIAN_POINT('',(42.,-158.,105.5));
#558 = VECTOR('',#559,1.);
#559 = DIRECTION('',(-1.,-0.,0.));
#560 = ORIENTED_EDGE('',*,*,#561,.T.);
#561 = EDGE_CURVE('',#554,#546,#562,.T.);
#562 = LINE('',#563,#564);
#563 = CARTESIAN_POINT('',(23.,-158.,107.75));
#564 = VECTOR('',#565,1.);
#565 = DIRECTION('',(0.,-5.914460840276E-16,-1.));
#566 = FACE_BOUND('',#567,.F.);
#567 = EDGE_LOOP('',(#568));
#568 = ORIENTED_EDGE('',*,*,#569,.F.);
#569 = EDGE_CURVE('',#570,#570,#572,.T.);
#570 = VERTEX_POINT('',#571);
#571 = CARTESIAN_POINT('',(87.35,-158.,46.2));
#572 = CIRCLE('',#573,1.85);
#573 = AXIS2_PLACEMENT_3D('',#574,#575,#576);
#574 = CARTESIAN_POINT('',(85.5,-158.,46.2));
#575 = DIRECTION('',(0.,1.,-4.440892098501E-16));
#576 = DIRECTION('',(1.,0.,0.));
#577 = FACE_BOUND('',#578,.F.);
#578 = EDGE_LOOP('',(#579));
#579 = ORIENTED_EDGE('',*,*,#580,.F.);
#580 = EDGE_CURVE('',#581,#581,#583,.T.);
#581 = VERTEX_POINT('',#582);
#582 = CARTESIAN_POINT('',(114.15,-158.,33.));
#583 = CIRCLE('',#584,2.15);
#584 = AXIS2_PLACEMENT_3D('',#585,#586,#587);
#585 = CARTESIAN_POINT('',(112.,-158.,33.));
#586 = DIRECTION('',(0.,1.,-4.440892098501E-16));
#587 = DIRECTION('',(1.,0.,0.));
#588 = FACE_BOUND('',#589,.F.);
#589 = EDGE_LOOP('',(#590));
#590 = ORIENTED_EDGE('',*,*,#591,.F.);
#591 = EDGE_CURVE('',#592,#592,#594,.T.);
#592 = VERTEX_POINT('',#593);
#593 = CARTESIAN_POINT('',(87.35,-158.,88.8));
#594 = CIRCLE('',#595,1.85);
#595 = AXIS2_PLACEMENT_3D('',#596,#597,#598);
#596 = CARTESIAN_POINT('',(85.5,-158.,88.8));
#597 = DIRECTION('',(0.,1.,-4.440892098501E-16));
#598 = DIRECTION('',(1.,0.,0.));
#599 = FACE_BOUND('',#600,.F.);
#600 = EDGE_LOOP('',(#601,#611,#619,#627));
#601 = ORIENTED_EDGE('',*,*,#602,.T.);
#602 = EDGE_CURVE('',#603,#605,#607,.T.);
#603 = VERTEX_POINT('',#604);
#604 = CARTESIAN_POINT('',(17.549999999996,-158.,138.55));
#605 = VERTEX_POINT('',#606);
#606 = CARTESIAN_POINT('',(88.45,-158.,138.55));
#607 = LINE('',#608,#609);
#608 = CARTESIAN_POINT('',(8.774999999998,-158.,138.55));
#609 = VECTOR('',#610,1.);
#610 = DIRECTION('',(1.,0.,0.));
#611 = ORIENTED_EDGE('',*,*,#612,.T.);
#612 = EDGE_CURVE('',#605,#613,#615,.T.);
#613 = VERTEX_POINT('',#614);
#614 = CARTESIAN_POINT('',(88.45,-158.,185.45));
#615 = LINE('',#616,#617);
#616 = CARTESIAN_POINT('',(88.45,-158.,124.275));
#617 = VECTOR('',#618,1.);
#618 = DIRECTION('',(0.,5.914460840276E-16,1.));
#619 = ORIENTED_EDGE('',*,*,#620,.T.);
#620 = EDGE_CURVE('',#613,#621,#623,.T.);
#621 = VERTEX_POINT('',#622);
#622 = CARTESIAN_POINT('',(17.549999999996,-158.,185.45));
#623 = LINE('',#624,#625);
#624 = CARTESIAN_POINT('',(44.225,-158.,185.45));
#625 = VECTOR('',#626,1.);
#626 = DIRECTION('',(-1.,0.,0.));
#627 = ORIENTED_EDGE('',*,*,#628,.T.);
#628 = EDGE_CURVE('',#621,#603,#629,.T.);
#629 = LINE('',#630,#631);
#630 = CARTESIAN_POINT('',(17.549999999996,-158.,147.725));
#631 = VECTOR('',#632,1.);
#632 = DIRECTION('',(0.,-5.914460840276E-16,-1.));
#633 = FACE_BOUND('',#634,.F.);
#634 = EDGE_LOOP('',(#635));
#635 = ORIENTED_EDGE('',*,*,#636,.F.);
#636 = EDGE_CURVE('',#637,#637,#639,.T.);
#637 = VERTEX_POINT('',#638);
#638 = CARTESIAN_POINT('',(114.15,-158.,183.));
#639 = CIRCLE('',#640,2.15);
#640 = AXIS2_PLACEMENT_3D('',#641,#642,#643);
#641 = CARTESIAN_POINT('',(112.,-158.,183.));
#642 = DIRECTION('',(0.,1.,-4.440892098501E-16));
#643 = DIRECTION('',(1.,0.,0.));
#644 = PLANE('',#645);
#645 = AXIS2_PLACEMENT_3D('',#646,#647,#648);
#646 = CARTESIAN_POINT('',(0.,-158.,110.));
#647 = DIRECTION('',(0.,1.,-5.914460840276E-16));
#648 = DIRECTION('',(0.,5.914460840276E-16,1.));
#649 = ADVANCED_FACE('',(#650),#656,.F.);
#650 = FACE_BOUND('',#651,.F.);
#651 = EDGE_LOOP('',(#652,#653,#654,#655));
#652 = ORIENTED_EDGE('',*,*,#101,.T.);
#653 = ORIENTED_EDGE('',*,*,#390,.T.);
#654 = ORIENTED_EDGE('',*,*,#61,.F.);
#655 = ORIENTED_EDGE('',*,*,#125,.F.);
#656 = PLANE('',#657);
#657 = AXIS2_PLACEMENT_3D('',#658,#659,#660);
#658 = CARTESIAN_POINT('',(125.,-150.,220.));
#659 = DIRECTION('',(0.,-5.551115123126E-16,-1.));
#660 = DIRECTION('',(-1.,0.,0.));
#661 = ADVANCED_FACE('',(#662),#673,.F.);
#662 = FACE_BOUND('',#663,.T.);
#663 = EDGE_LOOP('',(#664,#665,#671,#672));
#664 = ORIENTED_EDGE('',*,*,#134,.T.);
#665 = ORIENTED_EDGE('',*,*,#666,.T.);
#666 = EDGE_CURVE('',#135,#400,#667,.T.);
#667 = LINE('',#668,#669);
#668 = CARTESIAN_POINT('',(-67.65,2.599530516074E-15,23.414489327056));
#669 = VECTOR('',#670,1.);
#670 = DIRECTION('',(0.,-1.,4.440892098501E-16));
#671 = ORIENTED_EDGE('',*,*,#399,.F.);
#672 = ORIENTED_EDGE('',*,*,#666,.F.);
#673 = CYLINDRICAL_SURFACE('',#674,2.85);
#674 = AXIS2_PLACEMENT_3D('',#675,#676,#677);
#675 = CARTESIAN_POINT('',(-70.5,2.599530516074E-15,23.414489327056));
#676 = DIRECTION('',(0.,1.,-4.440892098501E-16));
#677 = DIRECTION('',(1.,0.,0.));
#678 = ADVANCED_FACE('',(#679),#695,.T.);
#679 = FACE_BOUND('',#680,.T.);
#680 = EDGE_LOOP('',(#681,#682,#688,#689));
#681 = ORIENTED_EDGE('',*,*,#145,.F.);
#682 = ORIENTED_EDGE('',*,*,#683,.T.);
#683 = EDGE_CURVE('',#146,#411,#684,.T.);
#684 = LINE('',#685,#686);
#685 = CARTESIAN_POINT('',(-17.25,5.684341886081E-14,155.29175668138));
#686 = VECTOR('',#687,1.);
#687 = DIRECTION('',(0.,-1.,3.330669073875E-16));
#688 = ORIENTED_EDGE('',*,*,#410,.T.);
#689 = ORIENTED_EDGE('',*,*,#690,.F.);
#690 = EDGE_CURVE('',#148,#413,#691,.T.);
#691 = LINE('',#692,#693);
#692 = CARTESIAN_POINT('',(-104.75,0.,53.164489327056));
#693 = VECTOR('',#694,1.);
#694 = DIRECTION('',(0.,-1.,3.330669073875E-16));
#695 = PLANE('',#696);
#696 = AXIS2_PLACEMENT_3D('',#697,#698,#699);
#697 = CARTESIAN_POINT('',(-17.25,5.684341886081E-14,155.29175668138));
#698 = DIRECTION('',(0.759394945195,-2.167033015569E-16,-0.650629938761)
  );
#699 = DIRECTION('',(-0.650629938761,-2.529293258819E-16,-0.759394945195
    ));
#700 = ADVANCED_FACE('',(#701),#712,.T.);
#701 = FACE_BOUND('',#702,.T.);
#702 = EDGE_LOOP('',(#703,#704,#710,#711));
#703 = ORIENTED_EDGE('',*,*,#163,.F.);
#704 = ORIENTED_EDGE('',*,*,#705,.T.);
#705 = EDGE_CURVE('',#156,#421,#706,.T.);
#706 = LINE('',#707,#708);
#707 = CARTESIAN_POINT('',(-17.25,0.,53.164489327056));
#708 = VECTOR('',#709,1.);
#709 = DIRECTION('',(0.,-1.,3.330669073875E-16));
#710 = ORIENTED_EDGE('',*,*,#428,.T.);
#711 = ORIENTED_EDGE('',*,*,#683,.F.);
#712 = PLANE('',#713);
#713 = AXIS2_PLACEMENT_3D('',#714,#715,#716);
#714 = CARTESIAN_POINT('',(-17.25,0.,53.164489327056));
#715 = DIRECTION('',(-1.,0.,0.));
#716 = DIRECTION('',(0.,3.330669073875E-16,1.));
#717 = ADVANCED_FACE('',(#718),#724,.T.);
#718 = FACE_BOUND('',#719,.T.);
#719 = EDGE_LOOP('',(#720,#721,#722,#723));
#720 = ORIENTED_EDGE('',*,*,#155,.F.);
#721 = ORIENTED_EDGE('',*,*,#690,.T.);
#722 = ORIENTED_EDGE('',*,*,#420,.T.);
#723 = ORIENTED_EDGE('',*,*,#705,.F.);
#724 = PLANE('',#725);
#725 = AXIS2_PLACEMENT_3D('',#726,#727,#728);
#726 = CARTESIAN_POINT('',(-104.75,0.,53.164489327056));
#727 = DIRECTION('',(0.,3.330669073875E-16,1.));
#728 = DIRECTION('',(1.,0.,0.));
#729 = ADVANCED_FACE('',(#730),#741,.F.);
#730 = FACE_BOUND('',#731,.T.);
#731 = EDGE_LOOP('',(#732,#733,#739,#740));
#732 = ORIENTED_EDGE('',*,*,#171,.T.);
#733 = ORIENTED_EDGE('',*,*,#734,.T.);
#734 = EDGE_CURVE('',#172,#437,#735,.T.);
#735 = LINE('',#736,#737);
#736 = CARTESIAN_POINT('',(-42.65,2.599530516074E-15,23.414489327056));
#737 = VECTOR('',#738,1.);
#738 = DIRECTION('',(0.,-1.,4.440892098501E-16));
#739 = ORIENTED_EDGE('',*,*,#436,.F.);
#740 = ORIENTED_EDGE('',*,*,#734,.F.);
#741 = CYLINDRICAL_SURFACE('',#742,2.85);
#742 = AXIS2_PLACEMENT_3D('',#743,#744,#745);
#743 = CARTESIAN_POINT('',(-45.5,2.599530516074E-15,23.414489327056));
#744 = DIRECTION('',(0.,1.,-4.440892098501E-16));
#745 = DIRECTION('',(1.,0.,0.));
#746 = ADVANCED_FACE('',(#747),#763,.T.);
#747 = FACE_BOUND('',#748,.T.);
#748 = EDGE_LOOP('',(#749,#750,#756,#757));
#749 = ORIENTED_EDGE('',*,*,#182,.F.);
#750 = ORIENTED_EDGE('',*,*,#751,.T.);
#751 = EDGE_CURVE('',#183,#448,#752,.T.);
#752 = LINE('',#753,#754);
#753 = CARTESIAN_POINT('',(-11.25,5.684341886081E-14,177.66448932705));
#754 = VECTOR('',#755,1.);
#755 = DIRECTION('',(0.,-1.,3.330669073875E-16));
#756 = ORIENTED_EDGE('',*,*,#447,.T.);
#757 = ORIENTED_EDGE('',*,*,#758,.F.);
#758 = EDGE_CURVE('',#185,#450,#759,.T.);
#759 = LINE('',#760,#761);
#760 = CARTESIAN_POINT('',(-98.75,5.684341886081E-14,177.66448932705));
#761 = VECTOR('',#762,1.);
#762 = DIRECTION('',(0.,-1.,3.330669073875E-16));
#763 = PLANE('',#764);
#764 = AXIS2_PLACEMENT_3D('',#765,#766,#767);
#765 = CARTESIAN_POINT('',(-11.25,5.684341886081E-14,177.66448932705));
#766 = DIRECTION('',(0.,-3.330669073875E-16,-1.));
#767 = DIRECTION('',(-1.,0.,0.));
#768 = ADVANCED_FACE('',(#769),#780,.T.);
#769 = FACE_BOUND('',#770,.T.);
#770 = EDGE_LOOP('',(#771,#772,#778,#779));
#771 = ORIENTED_EDGE('',*,*,#200,.F.);
#772 = ORIENTED_EDGE('',*,*,#773,.T.);
#773 = EDGE_CURVE('',#193,#458,#774,.T.);
#774 = LINE('',#775,#776);
#775 = CARTESIAN_POINT('',(-98.75,2.84217094304E-14,75.53722197273));
#776 = VECTOR('',#777,1.);
#777 = DIRECTION('',(0.,-1.,3.330669073875E-16));
#778 = ORIENTED_EDGE('',*,*,#465,.T.);
#779 = ORIENTED_EDGE('',*,*,#751,.F.);
#780 = PLANE('',#781);
#781 = AXIS2_PLACEMENT_3D('',#782,#783,#784);
#782 = CARTESIAN_POINT('',(-98.75,2.84217094304E-14,75.53722197273));
#783 = DIRECTION('',(-0.759394945195,2.167033015569E-16,0.650629938761)
  );
#784 = DIRECTION('',(0.650629938761,2.529293258819E-16,0.759394945195));
#785 = ADVANCED_FACE('',(#786),#792,.T.);
#786 = FACE_BOUND('',#787,.T.);
#787 = EDGE_LOOP('',(#788,#789,#790,#791));
#788 = ORIENTED_EDGE('',*,*,#192,.F.);
#789 = ORIENTED_EDGE('',*,*,#758,.T.);
#790 = ORIENTED_EDGE('',*,*,#457,.T.);
#791 = ORIENTED_EDGE('',*,*,#773,.F.);
#792 = PLANE('',#793);
#793 = AXIS2_PLACEMENT_3D('',#794,#795,#796);
#794 = CARTESIAN_POINT('',(-98.75,5.684341886081E-14,177.66448932705));
#795 = DIRECTION('',(1.,0.,0.));
#796 = DIRECTION('',(0.,-3.330669073875E-16,-1.));
#797 = ADVANCED_FACE('',(#798),#809,.F.);
#798 = FACE_BOUND('',#799,.T.);
#799 = EDGE_LOOP('',(#800,#801,#807,#808));
#800 = ORIENTED_EDGE('',*,*,#208,.T.);
#801 = ORIENTED_EDGE('',*,*,#802,.T.);
#802 = EDGE_CURVE('',#209,#474,#803,.T.);
#803 = LINE('',#804,#805);
#804 = CARTESIAN_POINT('',(-67.65,1.082927624604E-13,207.41448932705));
#805 = VECTOR('',#806,1.);
#806 = DIRECTION('',(0.,-1.,4.440892098501E-16));
#807 = ORIENTED_EDGE('',*,*,#473,.F.);
#808 = ORIENTED_EDGE('',*,*,#802,.F.);
#809 = CYLINDRICAL_SURFACE('',#810,2.85);
#810 = AXIS2_PLACEMENT_3D('',#811,#812,#813);
#811 = CARTESIAN_POINT('',(-70.5,1.082927624604E-13,207.41448932705));
#812 = DIRECTION('',(0.,1.,-4.440892098501E-16));
#813 = DIRECTION('',(1.,0.,0.));
#814 = ADVANCED_FACE('',(#815),#826,.F.);
#815 = FACE_BOUND('',#816,.T.);
#816 = EDGE_LOOP('',(#817,#818,#824,#825));
#817 = ORIENTED_EDGE('',*,*,#219,.T.);
#818 = ORIENTED_EDGE('',*,*,#819,.T.);
#819 = EDGE_CURVE('',#220,#485,#820,.T.);
#820 = LINE('',#821,#822);
#821 = CARTESIAN_POINT('',(-42.65,1.082927624604E-13,207.41448932705));
#822 = VECTOR('',#823,1.);
#823 = DIRECTION('',(0.,-1.,4.440892098501E-16));
#824 = ORIENTED_EDGE('',*,*,#484,.F.);
#825 = ORIENTED_EDGE('',*,*,#819,.F.);
#826 = CYLINDRICAL_SURFACE('',#827,2.85);
#827 = AXIS2_PLACEMENT_3D('',#828,#829,#830);
#828 = CARTESIAN_POINT('',(-45.5,1.082927624604E-13,207.41448932705));
#829 = DIRECTION('',(0.,1.,-4.440892098501E-16));
#830 = DIRECTION('',(1.,0.,0.));
#831 = ADVANCED_FACE('',(#832),#843,.F.);
#832 = FACE_BOUND('',#833,.T.);
#833 = EDGE_LOOP('',(#834,#835,#841,#842));
#834 = ORIENTED_EDGE('',*,*,#230,.T.);
#835 = ORIENTED_EDGE('',*,*,#836,.T.);
#836 = EDGE_CURVE('',#231,#496,#837,.T.);
#837 = LINE('',#838,#839);
#838 = CARTESIAN_POINT('',(20.35,5.129230373768E-15,46.2));
#839 = VECTOR('',#840,1.);
#840 = DIRECTION('',(0.,-1.,4.440892098501E-16));
#841 = ORIENTED_EDGE('',*,*,#495,.F.);
#842 = ORIENTED_EDGE('',*,*,#836,.F.);
#843 = CYLINDRICAL_SURFACE('',#844,1.85);
#844 = AXIS2_PLACEMENT_3D('',#845,#846,#847);
#845 = CARTESIAN_POINT('',(18.5,5.129230373768E-15,46.2));
#846 = DIRECTION('',(0.,1.,-4.440892098501E-16));
#847 = DIRECTION('',(1.,0.,0.));
#848 = ADVANCED_FACE('',(#849),#865,.F.);
#849 = FACE_BOUND('',#850,.F.);
#850 = EDGE_LOOP('',(#851,#852,#858,#859));
#851 = ORIENTED_EDGE('',*,*,#241,.F.);
#852 = ORIENTED_EDGE('',*,*,#853,.T.);
#853 = EDGE_CURVE('',#242,#507,#854,.T.);
#854 = LINE('',#855,#856);
#855 = CARTESIAN_POINT('',(20.,0.,22.5));
#856 = VECTOR('',#857,1.);
#857 = DIRECTION('',(0.,-1.,3.330669073875E-16));
#858 = ORIENTED_EDGE('',*,*,#506,.T.);
#859 = ORIENTED_EDGE('',*,*,#860,.F.);
#860 = EDGE_CURVE('',#244,#509,#861,.T.);
#861 = LINE('',#862,#863);
#862 = CARTESIAN_POINT('',(81.,2.84217094304E-14,90.216827587771));
#863 = VECTOR('',#864,1.);
#864 = DIRECTION('',(0.,-1.,3.330669073875E-16));
#865 = PLANE('',#866);
#866 = AXIS2_PLACEMENT_3D('',#867,#868,#869);
#867 = CARTESIAN_POINT('',(20.,0.,22.5));
#868 = DIRECTION('',(-0.742994796702,2.229207460751E-16,0.669297192638)
  );
#869 = DIRECTION('',(0.669297192638,2.474669791427E-16,0.742994796702));
#870 = ADVANCED_FACE('',(#871),#882,.T.);
#871 = FACE_BOUND('',#872,.T.);
#872 = EDGE_LOOP('',(#873,#874,#880,#881));
#873 = ORIENTED_EDGE('',*,*,#259,.F.);
#874 = ORIENTED_EDGE('',*,*,#875,.T.);
#875 = EDGE_CURVE('',#252,#517,#876,.T.);
#876 = LINE('',#877,#878);
#877 = CARTESIAN_POINT('',(81.,0.,22.5));
#878 = VECTOR('',#879,1.);
#879 = DIRECTION('',(0.,-1.,3.330669073875E-16));
#880 = ORIENTED_EDGE('',*,*,#524,.T.);
#881 = ORIENTED_EDGE('',*,*,#860,.F.);
#882 = PLANE('',#883);
#883 = AXIS2_PLACEMENT_3D('',#884,#885,#886);
#884 = CARTESIAN_POINT('',(81.,0.,22.5));
#885 = DIRECTION('',(-1.,0.,0.));
#886 = DIRECTION('',(0.,3.330669073875E-16,1.));
#887 = ADVANCED_FACE('',(#888),#894,.T.);
#888 = FACE_BOUND('',#889,.T.);
#889 = EDGE_LOOP('',(#890,#891,#892,#893));
#890 = ORIENTED_EDGE('',*,*,#251,.F.);
#891 = ORIENTED_EDGE('',*,*,#853,.T.);
#892 = ORIENTED_EDGE('',*,*,#516,.T.);
#893 = ORIENTED_EDGE('',*,*,#875,.F.);
#894 = PLANE('',#895);
#895 = AXIS2_PLACEMENT_3D('',#896,#897,#898);
#896 = CARTESIAN_POINT('',(20.,0.,22.5));
#897 = DIRECTION('',(0.,3.330669073875E-16,1.));
#898 = DIRECTION('',(1.,0.,0.));
#899 = ADVANCED_FACE('',(#900),#911,.F.);
#900 = FACE_BOUND('',#901,.T.);
#901 = EDGE_LOOP('',(#902,#903,#909,#910));
#902 = ORIENTED_EDGE('',*,*,#267,.T.);
#903 = ORIENTED_EDGE('',*,*,#904,.T.);
#904 = EDGE_CURVE('',#268,#533,#905,.T.);
#905 = LINE('',#906,#907);
#906 = CARTESIAN_POINT('',(20.35,3.828048988908E-14,88.8));
#907 = VECTOR('',#908,1.);
#908 = DIRECTION('',(0.,-1.,4.440892098501E-16));
#909 = ORIENTED_EDGE('',*,*,#532,.F.);
#910 = ORIENTED_EDGE('',*,*,#904,.F.);
#911 = CYLINDRICAL_SURFACE('',#912,1.85);
#912 = AXIS2_PLACEMENT_3D('',#913,#914,#915);
#913 = CARTESIAN_POINT('',(18.5,3.828048988908E-14,88.8));
#914 = DIRECTION('',(0.,1.,-4.440892098501E-16));
#915 = DIRECTION('',(1.,0.,0.));
#916 = ADVANCED_FACE('',(#917),#933,.F.);
#917 = FACE_BOUND('',#918,.F.);
#918 = EDGE_LOOP('',(#919,#920,#926,#927));
#919 = ORIENTED_EDGE('',*,*,#278,.F.);
#920 = ORIENTED_EDGE('',*,*,#921,.T.);
#921 = EDGE_CURVE('',#279,#544,#922,.T.);
#922 = LINE('',#923,#924);
#923 = CARTESIAN_POINT('',(84.,2.84217094304E-14,105.5));
#924 = VECTOR('',#925,1.);
#925 = DIRECTION('',(0.,-1.,3.330669073875E-16));
#926 = ORIENTED_EDGE('',*,*,#543,.T.);
#927 = ORIENTED_EDGE('',*,*,#928,.F.);
#928 = EDGE_CURVE('',#281,#546,#929,.T.);
#929 = LINE('',#930,#931);
#930 = CARTESIAN_POINT('',(23.,0.,37.783172412229));
#931 = VECTOR('',#932,1.);
#932 = DIRECTION('',(0.,-1.,3.330669073875E-16));
#933 = PLANE('',#934);
#934 = AXIS2_PLACEMENT_3D('',#935,#936,#937);
#935 = CARTESIAN_POINT('',(84.,2.84217094304E-14,105.5));
#936 = DIRECTION('',(0.742994796702,-2.229207460751E-16,-0.669297192638)
  );
#937 = DIRECTION('',(-0.669297192638,-2.474669791427E-16,-0.742994796702
    ));
#938 = ADVANCED_FACE('',(#939),#950,.T.);
#939 = FACE_BOUND('',#940,.T.);
#940 = EDGE_LOOP('',(#941,#942,#948,#949));
#941 = ORIENTED_EDGE('',*,*,#296,.F.);
#942 = ORIENTED_EDGE('',*,*,#943,.T.);
#943 = EDGE_CURVE('',#289,#554,#944,.T.);
#944 = LINE('',#945,#946);
#945 = CARTESIAN_POINT('',(23.,2.84217094304E-14,105.5));
#946 = VECTOR('',#947,1.);
#947 = DIRECTION('',(0.,-1.,3.330669073875E-16));
#948 = ORIENTED_EDGE('',*,*,#561,.T.);
#949 = ORIENTED_EDGE('',*,*,#928,.F.);
#950 = PLANE('',#951);
#951 = AXIS2_PLACEMENT_3D('',#952,#953,#954);
#952 = CARTESIAN_POINT('',(23.,2.84217094304E-14,105.5));
#953 = DIRECTION('',(1.,0.,0.));
#954 = DIRECTION('',(0.,-3.330669073875E-16,-1.));
#955 = ADVANCED_FACE('',(#956),#962,.T.);
#956 = FACE_BOUND('',#957,.T.);
#957 = EDGE_LOOP('',(#958,#959,#960,#961));
#958 = ORIENTED_EDGE('',*,*,#288,.F.);
#959 = ORIENTED_EDGE('',*,*,#921,.T.);
#960 = ORIENTED_EDGE('',*,*,#553,.T.);
#961 = ORIENTED_EDGE('',*,*,#943,.F.);
#962 = PLANE('',#963);
#963 = AXIS2_PLACEMENT_3D('',#964,#965,#966);
#964 = CARTESIAN_POINT('',(84.,2.84217094304E-14,105.5));
#965 = DIRECTION('',(0.,-3.330669073875E-16,-1.));
#966 = DIRECTION('',(-1.,0.,0.));
#967 = ADVANCED_FACE('',(#968),#979,.F.);
#968 = FACE_BOUND('',#969,.T.);
#969 = EDGE_LOOP('',(#970,#971,#977,#978));
#970 = ORIENTED_EDGE('',*,*,#304,.T.);
#971 = ORIENTED_EDGE('',*,*,#972,.T.);
#972 = EDGE_CURVE('',#305,#570,#973,.T.);
#973 = LINE('',#974,#975);
#974 = CARTESIAN_POINT('',(87.35,5.129230373768E-15,46.2));
#975 = VECTOR('',#976,1.);
#976 = DIRECTION('',(0.,-1.,4.440892098501E-16));
#977 = ORIENTED_EDGE('',*,*,#569,.F.);
#978 = ORIENTED_EDGE('',*,*,#972,.F.);
#979 = CYLINDRICAL_SURFACE('',#980,1.85);
#980 = AXIS2_PLACEMENT_3D('',#981,#982,#983);
#981 = CARTESIAN_POINT('',(85.5,5.129230373768E-15,46.2));
#982 = DIRECTION('',(0.,1.,-4.440892098501E-16));
#983 = DIRECTION('',(1.,0.,0.));
#984 = ADVANCED_FACE('',(#985),#996,.F.);
#985 = FACE_BOUND('',#986,.T.);
#986 = EDGE_LOOP('',(#987,#988,#994,#995));
#987 = ORIENTED_EDGE('',*,*,#315,.T.);
#988 = ORIENTED_EDGE('',*,*,#989,.T.);
#989 = EDGE_CURVE('',#316,#581,#990,.T.);
#990 = LINE('',#991,#992);
#991 = CARTESIAN_POINT('',(114.15,3.663735981263E-15,33.));
#992 = VECTOR('',#993,1.);
#993 = DIRECTION('',(0.,-1.,4.440892098501E-16));
#994 = ORIENTED_EDGE('',*,*,#580,.F.);
#995 = ORIENTED_EDGE('',*,*,#989,.F.);
#996 = CYLINDRICAL_SURFACE('',#997,2.15);
#997 = AXIS2_PLACEMENT_3D('',#998,#999,#1000);
#998 = CARTESIAN_POINT('',(112.,3.663735981263E-15,33.));
#999 = DIRECTION('',(0.,1.,-4.440892098501E-16));
#1000 = DIRECTION('',(1.,0.,0.));
#1001 = ADVANCED_FACE('',(#1002),#1013,.F.);
#1002 = FACE_BOUND('',#1003,.T.);
#1003 = EDGE_LOOP('',(#1004,#1005,#1011,#1012));
#1004 = ORIENTED_EDGE('',*,*,#326,.T.);
#1005 = ORIENTED_EDGE('',*,*,#1006,.T.);
#1006 = EDGE_CURVE('',#327,#592,#1007,.T.);
#1007 = LINE('',#1008,#1009);
#1008 = CARTESIAN_POINT('',(87.35,3.828048988908E-14,88.8));
#1009 = VECTOR('',#1010,1.);
#1010 = DIRECTION('',(0.,-1.,4.440892098501E-16));
#1011 = ORIENTED_EDGE('',*,*,#591,.F.);
#1012 = ORIENTED_EDGE('',*,*,#1006,.F.);
#1013 = CYLINDRICAL_SURFACE('',#1014,1.85);
#1014 = AXIS2_PLACEMENT_3D('',#1015,#1016,#1017);
#1015 = CARTESIAN_POINT('',(85.5,3.828048988908E-14,88.8));
#1016 = DIRECTION('',(0.,1.,-4.440892098501E-16));
#1017 = DIRECTION('',(1.,0.,0.));
#1018 = ADVANCED_FACE('',(#1019),#1035,.T.);
#1019 = FACE_BOUND('',#1020,.T.);
#1020 = EDGE_LOOP('',(#1021,#1022,#1028,#1029));
#1021 = ORIENTED_EDGE('',*,*,#337,.F.);
#1022 = ORIENTED_EDGE('',*,*,#1023,.T.);
#1023 = EDGE_CURVE('',#338,#603,#1024,.T.);
#1024 = LINE('',#1025,#1026);
#1025 = CARTESIAN_POINT('',(17.549999999996,7.222555886699E-14,138.55));
#1026 = VECTOR('',#1027,1.);
#1027 = DIRECTION('',(0.,-1.,4.440892098501E-16));
#1028 = ORIENTED_EDGE('',*,*,#602,.T.);
#1029 = ORIENTED_EDGE('',*,*,#1030,.F.);
#1030 = EDGE_CURVE('',#340,#605,#1031,.T.);
#1031 = LINE('',#1032,#1033);
#1032 = CARTESIAN_POINT('',(88.45,7.222555886699E-14,138.55));
#1033 = VECTOR('',#1034,1.);
#1034 = DIRECTION('',(0.,-1.,4.440892098501E-16));
#1035 = PLANE('',#1036);
#1036 = AXIS2_PLACEMENT_3D('',#1037,#1038,#1039);
#1037 = CARTESIAN_POINT('',(17.549999999996,7.222555886699E-14,138.55));
#1038 = DIRECTION('',(0.,4.440892098501E-16,1.));
#1039 = DIRECTION('',(1.,0.,0.));
#1040 = ADVANCED_FACE('',(#1041),#1052,.T.);
#1041 = FACE_BOUND('',#1042,.T.);
#1042 = EDGE_LOOP('',(#1043,#1044,#1050,#1051));
#1043 = ORIENTED_EDGE('',*,*,#363,.F.);
#1044 = ORIENTED_EDGE('',*,*,#1045,.T.);
#1045 = EDGE_CURVE('',#356,#621,#1046,.T.);
#1046 = LINE('',#1047,#1048);
#1047 = CARTESIAN_POINT('',(17.549999999996,7.743250485248E-14,185.45));
#1048 = VECTOR('',#1049,1.);
#1049 = DIRECTION('',(0.,-1.,4.440892098501E-16));
#1050 = ORIENTED_EDGE('',*,*,#628,.T.);
#1051 = ORIENTED_EDGE('',*,*,#1023,.F.);
#1052 = PLANE('',#1053);
#1053 = AXIS2_PLACEMENT_3D('',#1054,#1055,#1056);
#1054 = CARTESIAN_POINT('',(17.549999999996,7.743250485248E-14,185.45));
#1055 = DIRECTION('',(1.,0.,0.));
#1056 = DIRECTION('',(0.,-4.440892098501E-16,-1.));
#1057 = ADVANCED_FACE('',(#1058),#1069,.T.);
#1058 = FACE_BOUND('',#1059,.T.);
#1059 = EDGE_LOOP('',(#1060,#1061,#1062,#1063));
#1060 = ORIENTED_EDGE('',*,*,#347,.F.);
#1061 = ORIENTED_EDGE('',*,*,#1030,.T.);
#1062 = ORIENTED_EDGE('',*,*,#612,.T.);
#1063 = ORIENTED_EDGE('',*,*,#1064,.F.);
#1064 = EDGE_CURVE('',#348,#613,#1065,.T.);
#1065 = LINE('',#1066,#1067);
#1066 = CARTESIAN_POINT('',(88.45,7.743250485248E-14,185.45));
#1067 = VECTOR('',#1068,1.);
#1068 = DIRECTION('',(0.,-1.,4.440892098501E-16));
#1069 = PLANE('',#1070);
#1070 = AXIS2_PLACEMENT_3D('',#1071,#1072,#1073);
#1071 = CARTESIAN_POINT('',(88.45,7.222555886699E-14,138.55));
#1072 = DIRECTION('',(-1.,0.,0.));
#1073 = DIRECTION('',(0.,4.440892098501E-16,1.));
#1074 = ADVANCED_FACE('',(#1075),#1081,.T.);
#1075 = FACE_BOUND('',#1076,.T.);
#1076 = EDGE_LOOP('',(#1077,#1078,#1079,#1080));
#1077 = ORIENTED_EDGE('',*,*,#355,.F.);
#1078 = ORIENTED_EDGE('',*,*,#1064,.T.);
#1079 = ORIENTED_EDGE('',*,*,#620,.T.);
#1080 = ORIENTED_EDGE('',*,*,#1045,.F.);
#1081 = PLANE('',#1082);
#1082 = AXIS2_PLACEMENT_3D('',#1083,#1084,#1085);
#1083 = CARTESIAN_POINT('',(88.45,7.743250485248E-14,185.45));
#1084 = DIRECTION('',(0.,-4.440892098501E-16,-1.));
#1085 = DIRECTION('',(-1.,0.,0.));
#1086 = ADVANCED_FACE('',(#1087),#1098,.F.);
#1087 = FACE_BOUND('',#1088,.T.);
#1088 = EDGE_LOOP('',(#1089,#1090,#1096,#1097));
#1089 = ORIENTED_EDGE('',*,*,#371,.T.);
#1090 = ORIENTED_EDGE('',*,*,#1091,.T.);
#1091 = EDGE_CURVE('',#372,#637,#1092,.T.);
#1092 = LINE('',#1093,#1094);
#1093 = CARTESIAN_POINT('',(114.15,7.716050021145E-14,183.));
#1094 = VECTOR('',#1095,1.);
#1095 = DIRECTION('',(0.,-1.,4.440892098501E-16));
#1096 = ORIENTED_EDGE('',*,*,#636,.F.);
#1097 = ORIENTED_EDGE('',*,*,#1091,.F.);
#1098 = CYLINDRICAL_SURFACE('',#1099,2.15);
#1099 = AXIS2_PLACEMENT_3D('',#1100,#1101,#1102);
#1100 = CARTESIAN_POINT('',(112.,7.716050021145E-14,183.));
#1101 = DIRECTION('',(0.,1.,-4.440892098501E-16));
#1102 = DIRECTION('',(1.,0.,0.));
#1103 = ( GEOMETRIC_REPRESENTATION_CONTEXT(3) 
GLOBAL_UNCERTAINTY_ASSIGNED_CONTEXT((#1107)) 
GLOBAL_UNIT_ASSIGNED_CONTEXT((#1104,#1105,#1106)) REPRESENTATION_CONTEXT
('Context #1','3D Context with UNIT and UNCERTAINTY') );
#1104 = ( LENGTH_UNIT() NAMED_UNIT(*) SI_UNIT(.MILLI.,.METRE.) );
#1105 = ( NAMED_UNIT(*) PLANE_ANGLE_UNIT() SI_UNIT($,.RADIAN.) );
#1106 = ( NAMED_UNIT(*) SI_UNIT($,.STERADIAN.) SOLID_ANGLE_UNIT() );
#1107 = UNCERTAINTY_MEASURE_WITH_UNIT(LENGTH_MEASURE(2.E-04),#1104,
  'distance_accuracy_value','confusion accuracy');
#1108 = PRODUCT_RELATED_PRODUCT_CATEGORY('part',$,(#7));
#1109 = MECHANICAL_DESIGN_GEOMETRIC_PRESENTATION_REPRESENTATION('',(
    #1110),#1103);
#1110 = STYLED_ITEM('color',(#1111),#15);
#1111 = PRESENTATION_STYLE_ASSIGNMENT((#1112,#1120));
#1112 = SURFACE_STYLE_USAGE(.BOTH.,#1113);
#1113 = SURFACE_SIDE_STYLE('',(#1114,#1118));
#1114 = SURFACE_STYLE_FILL_AREA(#1115);
#1115 = FILL_AREA_STYLE('',(#1116));
#1116 = FILL_AREA_STYLE_COLOUR('',#1117);
#1117 = COLOUR_RGB('',0.447058818107,0.474509808674,0.501960817233);
#1118 = SURFACE_STYLE_RENDERING_WITH_PROPERTIES(.NORMAL_SHADING.,#1117,(
    #1119));
#1119 = SURFACE_STYLE_TRANSPARENT(0.699999988079);
#1120 = CURVE_STYLE('',#1121,POSITIVE_LENGTH_MEASURE(0.1),#1122);
#1121 = DRAUGHTING_PRE_DEFINED_CURVE_FONT('continuous');
#1122 = COLOUR_RGB('',9.803921802644E-02,9.803921802644E-02,
  9.803921802644E-02);
ENDSEC;
END-ISO-10303-21;
