ISO-10303-21;
HEADER;
FILE_DESCRIPTION(('FreeCAD Model'),'2;1');
FILE_NAME('Open CASCADE Shape Model','2026-08-13T15:49:14',(''),(''),
  'Open CASCADE STEP processor 7.8','FreeCAD','Unknown');
FILE_SCHEMA(('AUTOMOTIVE_DESIGN { 1 0 10303 214 1 1 1 1 }'));
ENDSEC;
DATA;
#1 = APPLICATION_PROTOCOL_DEFINITION('international standard',
  'automotive_design',2000,#2);
#2 = APPLICATION_CONTEXT(
  'core data for automotive mechanical design processes');
#3 = SHAPE_DEFINITION_REPRESENTATION(#4,#10);
#4 = PRODUCT_DEFINITION_SHAPE('','',#5);
#5 = PRODUCT_DEFINITION('design','',#6,#9);
#6 = PRODUCT_DEFINITION_FORMATION('','',#7);
#7 = PRODUCT('guide_wheel_holder','guide_wheel_holder','',(#8));
#8 = PRODUCT_CONTEXT('',#2,'mechanical');
#9 = PRODUCT_DEFINITION_CONTEXT('part definition',#2,'design');
#10 = ADVANCED_BREP_SHAPE_REPRESENTATION('',(#11,#15),#976);
#11 = AXIS2_PLACEMENT_3D('',#12,#13,#14);
#12 = CARTESIAN_POINT('',(0.,0.,0.));
#13 = DIRECTION('',(0.,0.,1.));
#14 = DIRECTION('',(1.,0.,-0.));
#15 = MANIFOLD_SOLID_BREP('',#16);
#16 = CLOSED_SHELL('',(#17,#84,#109,#239,#263,#287,#371,#395,#412,#437,
    #475,#521,#547,#569,#586,#603,#615,#646,#670,#694,#718,#742,#759,
    #798,#823,#835,#860,#885,#902,#927,#952,#964));
#17 = ADVANCED_FACE('',(#18,#29),#79,.T.);
#18 = FACE_BOUND('',#19,.T.);
#19 = EDGE_LOOP('',(#20));
#20 = ORIENTED_EDGE('',*,*,#21,.T.);
#21 = EDGE_CURVE('',#22,#22,#24,.T.);
#22 = VERTEX_POINT('',#23);
#23 = CARTESIAN_POINT('',(28.75,-45.5,32.));
#24 = CIRCLE('',#25,3.25);
#25 = AXIS2_PLACEMENT_3D('',#26,#27,#28);
#26 = CARTESIAN_POINT('',(25.5,-45.5,32.));
#27 = DIRECTION('',(0.,-2.2E-16,-1.));
#28 = DIRECTION('',(1.,0.,0.));
#29 = FACE_BOUND('',#30,.T.);
#30 = EDGE_LOOP('',(#31,#41,#49,#57,#65,#73));
#31 = ORIENTED_EDGE('',*,*,#32,.F.);
#32 = EDGE_CURVE('',#33,#35,#37,.T.);
#33 = VERTEX_POINT('',#34);
#34 = CARTESIAN_POINT('',(11.,-32.,32.));
#35 = VERTEX_POINT('',#36);
#36 = CARTESIAN_POINT('',(29.5,-32.,32.));
#37 = LINE('',#38,#39);
#38 = CARTESIAN_POINT('',(11.,-32.,32.));
#39 = VECTOR('',#40,1.);
#40 = DIRECTION('',(1.,0.,0.));
#41 = ORIENTED_EDGE('',*,*,#42,.F.);
#42 = EDGE_CURVE('',#43,#33,#45,.T.);
#43 = VERTEX_POINT('',#44);
#44 = CARTESIAN_POINT('',(11.,-40.,32.));
#45 = LINE('',#46,#47);
#46 = CARTESIAN_POINT('',(11.,-40.,32.));
#47 = VECTOR('',#48,1.);
#48 = DIRECTION('',(0.,1.,0.));
#49 = ORIENTED_EDGE('',*,*,#50,.F.);
#50 = EDGE_CURVE('',#51,#43,#53,.T.);
#51 = VERTEX_POINT('',#52);
#52 = CARTESIAN_POINT('',(21.5,-40.,32.));
#53 = LINE('',#54,#55);
#54 = CARTESIAN_POINT('',(21.5,-40.,32.));
#55 = VECTOR('',#56,1.);
#56 = DIRECTION('',(-1.,0.,0.));
#57 = ORIENTED_EDGE('',*,*,#58,.F.);
#58 = EDGE_CURVE('',#59,#51,#61,.T.);
#59 = VERTEX_POINT('',#60);
#60 = CARTESIAN_POINT('',(21.5,-53.,32.));
#61 = LINE('',#62,#63);
#62 = CARTESIAN_POINT('',(21.5,-53.,32.));
#63 = VECTOR('',#64,1.);
#64 = DIRECTION('',(0.,1.,0.));
#65 = ORIENTED_EDGE('',*,*,#66,.F.);
#66 = EDGE_CURVE('',#67,#59,#69,.T.);
#67 = VERTEX_POINT('',#68);
#68 = CARTESIAN_POINT('',(29.5,-53.,32.));
#69 = LINE('',#70,#71);
#70 = CARTESIAN_POINT('',(29.5,-53.,32.));
#71 = VECTOR('',#72,1.);
#72 = DIRECTION('',(-1.,0.,0.));
#73 = ORIENTED_EDGE('',*,*,#74,.F.);
#74 = EDGE_CURVE('',#35,#67,#75,.T.);
#75 = LINE('',#76,#77);
#76 = CARTESIAN_POINT('',(29.5,-32.,32.));
#77 = VECTOR('',#78,1.);
#78 = DIRECTION('',(0.,-1.,0.));
#79 = PLANE('',#80);
#80 = AXIS2_PLACEMENT_3D('',#81,#82,#83);
#81 = CARTESIAN_POINT('',(21.977848101266,-40.77215189873,32.));
#82 = DIRECTION('',(0.,0.,1.));
#83 = DIRECTION('',(1.,0.,0.));
#84 = ADVANCED_FACE('',(#85),#104,.F.);
#85 = FACE_BOUND('',#86,.F.);
#86 = EDGE_LOOP('',(#87,#95,#96,#97));
#87 = ORIENTED_EDGE('',*,*,#88,.F.);
#88 = EDGE_CURVE('',#22,#89,#91,.T.);
#89 = VERTEX_POINT('',#90);
#90 = CARTESIAN_POINT('',(26.75,-45.5,30.));
#91 = LINE('',#92,#93);
#92 = CARTESIAN_POINT('',(26.75,-45.5,30.));
#93 = VECTOR('',#94,1.);
#94 = DIRECTION('',(-0.707106781187,-1.6E-16,-0.707106781187));
#95 = ORIENTED_EDGE('',*,*,#21,.T.);
#96 = ORIENTED_EDGE('',*,*,#88,.T.);
#97 = ORIENTED_EDGE('',*,*,#98,.F.);
#98 = EDGE_CURVE('',#89,#89,#99,.T.);
#99 = CIRCLE('',#100,1.25);
#100 = AXIS2_PLACEMENT_3D('',#101,#102,#103);
#101 = CARTESIAN_POINT('',(25.5,-45.5,30.));
#102 = DIRECTION('',(0.,-2.2E-16,-1.));
#103 = DIRECTION('',(1.,0.,0.));
#104 = CONICAL_SURFACE('',#105,1.25,0.785398163397);
#105 = AXIS2_PLACEMENT_3D('',#106,#107,#108);
#106 = CARTESIAN_POINT('',(25.5,-45.5,30.));
#107 = DIRECTION('',(-0.,2.2E-16,1.));
#108 = DIRECTION('',(1.,0.,0.));
#109 = ADVANCED_FACE('',(#110,#184),#234,.T.);
#110 = FACE_BOUND('',#111,.T.);
#111 = EDGE_LOOP('',(#112,#122,#130,#138,#144,#145,#153,#161,#169,#178)
  );
#112 = ORIENTED_EDGE('',*,*,#113,.F.);
#113 = EDGE_CURVE('',#114,#116,#118,.T.);
#114 = VERTEX_POINT('',#115);
#115 = CARTESIAN_POINT('',(8.,-32.,7.E-15));
#116 = VERTEX_POINT('',#117);
#117 = CARTESIAN_POINT('',(19.,-32.,1.6E-14));
#118 = LINE('',#119,#120);
#119 = CARTESIAN_POINT('',(8.,-32.,0.));
#120 = VECTOR('',#121,1.);
#121 = DIRECTION('',(1.,0.,0.));
#122 = ORIENTED_EDGE('',*,*,#123,.T.);
#123 = EDGE_CURVE('',#114,#124,#126,.T.);
#124 = VERTEX_POINT('',#125);
#125 = CARTESIAN_POINT('',(8.,-32.,20.));
#126 = LINE('',#127,#128);
#127 = CARTESIAN_POINT('',(8.,-32.,7.11E-15));
#128 = VECTOR('',#129,1.);
#129 = DIRECTION('',(0.,2.2E-16,1.));
#130 = ORIENTED_EDGE('',*,*,#131,.T.);
#131 = EDGE_CURVE('',#124,#132,#134,.T.);
#132 = VERTEX_POINT('',#133);
#133 = CARTESIAN_POINT('',(11.,-32.,20.));
#134 = LINE('',#135,#136);
#135 = CARTESIAN_POINT('',(19.,-32.,20.));
#136 = VECTOR('',#137,1.);
#137 = DIRECTION('',(1.,0.,0.));
#138 = ORIENTED_EDGE('',*,*,#139,.T.);
#139 = EDGE_CURVE('',#132,#33,#140,.T.);
#140 = LINE('',#141,#142);
#141 = CARTESIAN_POINT('',(11.,-32.,20.));
#142 = VECTOR('',#143,1.);
#143 = DIRECTION('',(0.,2.2E-16,1.));
#144 = ORIENTED_EDGE('',*,*,#32,.T.);
#145 = ORIENTED_EDGE('',*,*,#146,.F.);
#146 = EDGE_CURVE('',#147,#35,#149,.T.);
#147 = VERTEX_POINT('',#148);
#148 = CARTESIAN_POINT('',(29.5,-32.,26.));
#149 = LINE('',#150,#151);
#150 = CARTESIAN_POINT('',(29.5,-32.,26.));
#151 = VECTOR('',#152,1.);
#152 = DIRECTION('',(0.,2.2E-16,1.));
#153 = ORIENTED_EDGE('',*,*,#154,.F.);
#154 = EDGE_CURVE('',#155,#147,#157,.T.);
#155 = VERTEX_POINT('',#156);
#156 = CARTESIAN_POINT('',(19.,-32.,26.));
#157 = LINE('',#158,#159);
#158 = CARTESIAN_POINT('',(11.,-32.,26.));
#159 = VECTOR('',#160,1.);
#160 = DIRECTION('',(1.,0.,0.));
#161 = ORIENTED_EDGE('',*,*,#162,.F.);
#162 = EDGE_CURVE('',#163,#155,#165,.T.);
#163 = VERTEX_POINT('',#164);
#164 = CARTESIAN_POINT('',(19.,-32.,19.));
#165 = LINE('',#166,#167);
#166 = CARTESIAN_POINT('',(19.,-32.,20.));
#167 = VECTOR('',#168,1.);
#168 = DIRECTION('',(0.,2.2E-16,1.));
#169 = ORIENTED_EDGE('',*,*,#170,.T.);
#170 = EDGE_CURVE('',#163,#171,#173,.T.);
#171 = VERTEX_POINT('',#172);
#172 = CARTESIAN_POINT('',(19.,-32.,1.));
#173 = CIRCLE('',#174,9.);
#174 = AXIS2_PLACEMENT_3D('',#175,#176,#177);
#175 = CARTESIAN_POINT('',(19.,-32.,10.));
#176 = DIRECTION('',(0.,1.,-4.4E-16));
#177 = DIRECTION('',(1.,0.,0.));
#178 = ORIENTED_EDGE('',*,*,#179,.F.);
#179 = EDGE_CURVE('',#116,#171,#180,.T.);
#180 = LINE('',#181,#182);
#181 = CARTESIAN_POINT('',(19.,-32.,1.951E-14));
#182 = VECTOR('',#183,1.);
#183 = DIRECTION('',(0.,4.4E-16,1.));
#184 = FACE_BOUND('',#185,.T.);
#185 = EDGE_LOOP('',(#186,#196,#204,#212,#220,#228));
#186 = ORIENTED_EDGE('',*,*,#187,.T.);
#187 = EDGE_CURVE('',#188,#190,#192,.T.);
#188 = VERTEX_POINT('',#189);
#189 = CARTESIAN_POINT('',(21.4,-32.,5.843078061835));
#190 = VERTEX_POINT('',#191);
#191 = CARTESIAN_POINT('',(23.8,-32.,10.));
#192 = LINE('',#193,#194);
#193 = CARTESIAN_POINT('',(18.459936490539,-32.,0.750738685969));
#194 = VECTOR('',#195,1.);
#195 = DIRECTION('',(0.5,1.9E-16,0.866025403784));
#196 = ORIENTED_EDGE('',*,*,#197,.T.);
#197 = EDGE_CURVE('',#190,#198,#200,.T.);
#198 = VERTEX_POINT('',#199);
#199 = CARTESIAN_POINT('',(21.4,-32.,14.156921938165));
#200 = LINE('',#201,#202);
#201 = CARTESIAN_POINT('',(23.990063509461,-32.,9.670800344949));
#202 = VECTOR('',#203,1.);
#203 = DIRECTION('',(-0.5,1.9E-16,0.866025403784));
#204 = ORIENTED_EDGE('',*,*,#205,.T.);
#205 = EDGE_CURVE('',#198,#206,#208,.T.);
#206 = VERTEX_POINT('',#207);
#207 = CARTESIAN_POINT('',(16.6,-32.,14.156921938165));
#208 = LINE('',#209,#210);
#209 = CARTESIAN_POINT('',(14.7,-32.,14.156921938165));
#210 = VECTOR('',#211,1.);
#211 = DIRECTION('',(-1.,0.,0.));
#212 = ORIENTED_EDGE('',*,*,#213,.T.);
#213 = EDGE_CURVE('',#206,#214,#216,.T.);
#214 = VERTEX_POINT('',#215);
#215 = CARTESIAN_POINT('',(14.2,-32.,10.));
#216 = LINE('',#217,#218);
#217 = CARTESIAN_POINT('',(12.459936490539,-32.,6.986121593217));
#218 = VECTOR('',#219,1.);
#219 = DIRECTION('',(-0.5,-1.9E-16,-0.866025403784));
#220 = ORIENTED_EDGE('',*,*,#221,.T.);
#221 = EDGE_CURVE('',#214,#222,#224,.T.);
#222 = VERTEX_POINT('',#223);
#223 = CARTESIAN_POINT('',(16.6,-32.,5.843078061835));
#224 = LINE('',#225,#226);
#225 = CARTESIAN_POINT('',(15.590063509461,-32.,7.592339375866));
#226 = VECTOR('',#227,1.);
#227 = DIRECTION('',(0.5,-1.9E-16,-0.866025403784));
#228 = ORIENTED_EDGE('',*,*,#229,.T.);
#229 = EDGE_CURVE('',#222,#188,#230,.T.);
#230 = LINE('',#231,#232);
#231 = CARTESIAN_POINT('',(12.3,-32.,5.843078061835));
#232 = VECTOR('',#233,1.);
#233 = DIRECTION('',(1.,0.,0.));
#234 = PLANE('',#235);
#235 = AXIS2_PLACEMENT_3D('',#236,#237,#238);
#236 = CARTESIAN_POINT('',(17.935742374251,-32.,17.577586206897));
#237 = DIRECTION('',(0.,1.,-4.8E-16));
#238 = DIRECTION('',(0.,-4.8E-16,-1.));
#239 = ADVANCED_FACE('',(#240),#258,.T.);
#240 = FACE_BOUND('',#241,.T.);
#241 = EDGE_LOOP('',(#242,#243,#251,#257));
#242 = ORIENTED_EDGE('',*,*,#139,.F.);
#243 = ORIENTED_EDGE('',*,*,#244,.T.);
#244 = EDGE_CURVE('',#132,#245,#247,.T.);
#245 = VERTEX_POINT('',#246);
#246 = CARTESIAN_POINT('',(11.,-40.,20.));
#247 = LINE('',#248,#249);
#248 = CARTESIAN_POINT('',(11.,-32.,20.));
#249 = VECTOR('',#250,1.);
#250 = DIRECTION('',(0.,-1.,0.));
#251 = ORIENTED_EDGE('',*,*,#252,.T.);
#252 = EDGE_CURVE('',#245,#43,#253,.T.);
#253 = LINE('',#254,#255);
#254 = CARTESIAN_POINT('',(11.,-40.,26.));
#255 = VECTOR('',#256,1.);
#256 = DIRECTION('',(0.,2.2E-16,1.));
#257 = ORIENTED_EDGE('',*,*,#42,.T.);
#258 = PLANE('',#259);
#259 = AXIS2_PLACEMENT_3D('',#260,#261,#262);
#260 = CARTESIAN_POINT('',(11.,-36.,26.));
#261 = DIRECTION('',(-1.,0.,0.));
#262 = DIRECTION('',(0.,1.,0.));
#263 = ADVANCED_FACE('',(#264),#282,.T.);
#264 = FACE_BOUND('',#265,.T.);
#265 = EDGE_LOOP('',(#266,#267,#268,#276));
#266 = ORIENTED_EDGE('',*,*,#146,.T.);
#267 = ORIENTED_EDGE('',*,*,#74,.T.);
#268 = ORIENTED_EDGE('',*,*,#269,.F.);
#269 = EDGE_CURVE('',#270,#67,#272,.T.);
#270 = VERTEX_POINT('',#271);
#271 = CARTESIAN_POINT('',(29.5,-53.,26.));
#272 = LINE('',#273,#274);
#273 = CARTESIAN_POINT('',(29.5,-53.,26.));
#274 = VECTOR('',#275,1.);
#275 = DIRECTION('',(0.,2.2E-16,1.));
#276 = ORIENTED_EDGE('',*,*,#277,.F.);
#277 = EDGE_CURVE('',#147,#270,#278,.T.);
#278 = LINE('',#279,#280);
#279 = CARTESIAN_POINT('',(29.5,-32.,26.));
#280 = VECTOR('',#281,1.);
#281 = DIRECTION('',(0.,-1.,0.));
#282 = PLANE('',#283);
#283 = AXIS2_PLACEMENT_3D('',#284,#285,#286);
#284 = CARTESIAN_POINT('',(29.5,-32.,26.));
#285 = DIRECTION('',(1.,0.,0.));
#286 = DIRECTION('',(0.,-1.,2.2E-16));
#287 = ADVANCED_FACE('',(#288,#355),#366,.T.);
#288 = FACE_BOUND('',#289,.T.);
#289 = EDGE_LOOP('',(#290,#300,#308,#317,#325,#333,#339,#340,#341,#349)
  );
#290 = ORIENTED_EDGE('',*,*,#291,.T.);
#291 = EDGE_CURVE('',#292,#294,#296,.T.);
#292 = VERTEX_POINT('',#293);
#293 = CARTESIAN_POINT('',(0.,-40.,1.8E-14));
#294 = VERTEX_POINT('',#295);
#295 = CARTESIAN_POINT('',(19.,-40.,2.8E-14));
#296 = LINE('',#297,#298);
#297 = CARTESIAN_POINT('',(0.,-40.,2.13162820728E-14));
#298 = VECTOR('',#299,1.);
#299 = DIRECTION('',(1.,0.,0.));
#300 = ORIENTED_EDGE('',*,*,#301,.T.);
#301 = EDGE_CURVE('',#294,#302,#304,.T.);
#302 = VERTEX_POINT('',#303);
#303 = CARTESIAN_POINT('',(19.,-40.,1.));
#304 = LINE('',#305,#306);
#305 = CARTESIAN_POINT('',(19.,-40.,5.));
#306 = VECTOR('',#307,1.);
#307 = DIRECTION('',(0.,2.2E-16,1.));
#308 = ORIENTED_EDGE('',*,*,#309,.F.);
#309 = EDGE_CURVE('',#310,#302,#312,.T.);
#310 = VERTEX_POINT('',#311);
#311 = CARTESIAN_POINT('',(19.,-40.,19.));
#312 = CIRCLE('',#313,9.);
#313 = AXIS2_PLACEMENT_3D('',#314,#315,#316);
#314 = CARTESIAN_POINT('',(19.,-40.,10.));
#315 = DIRECTION('',(0.,1.,-4.4E-16));
#316 = DIRECTION('',(1.,0.,0.));
#317 = ORIENTED_EDGE('',*,*,#318,.T.);
#318 = EDGE_CURVE('',#310,#319,#321,.T.);
#319 = VERTEX_POINT('',#320);
#320 = CARTESIAN_POINT('',(19.,-40.,26.));
#321 = LINE('',#322,#323);
#322 = CARTESIAN_POINT('',(19.,-40.,20.));
#323 = VECTOR('',#324,1.);
#324 = DIRECTION('',(0.,2.2E-16,1.));
#325 = ORIENTED_EDGE('',*,*,#326,.F.);
#326 = EDGE_CURVE('',#327,#319,#329,.T.);
#327 = VERTEX_POINT('',#328);
#328 = CARTESIAN_POINT('',(21.5,-40.,26.));
#329 = LINE('',#330,#331);
#330 = CARTESIAN_POINT('',(21.5,-40.,26.));
#331 = VECTOR('',#332,1.);
#332 = DIRECTION('',(-1.,0.,0.));
#333 = ORIENTED_EDGE('',*,*,#334,.T.);
#334 = EDGE_CURVE('',#327,#51,#335,.T.);
#335 = LINE('',#336,#337);
#336 = CARTESIAN_POINT('',(21.5,-40.,26.));
#337 = VECTOR('',#338,1.);
#338 = DIRECTION('',(0.,2.2E-16,1.));
#339 = ORIENTED_EDGE('',*,*,#50,.T.);
#340 = ORIENTED_EDGE('',*,*,#252,.F.);
#341 = ORIENTED_EDGE('',*,*,#342,.T.);
#342 = EDGE_CURVE('',#245,#343,#345,.T.);
#343 = VERTEX_POINT('',#344);
#344 = CARTESIAN_POINT('',(0.,-40.,20.));
#345 = LINE('',#346,#347);
#346 = CARTESIAN_POINT('',(30.,-40.,20.));
#347 = VECTOR('',#348,1.);
#348 = DIRECTION('',(-1.,0.,0.));
#349 = ORIENTED_EDGE('',*,*,#350,.T.);
#350 = EDGE_CURVE('',#343,#292,#351,.T.);
#351 = LINE('',#352,#353);
#352 = CARTESIAN_POINT('',(0.,-40.,20.));
#353 = VECTOR('',#354,1.);
#354 = DIRECTION('',(0.,0.,-1.));
#355 = FACE_BOUND('',#356,.T.);
#356 = EDGE_LOOP('',(#357));
#357 = ORIENTED_EDGE('',*,*,#358,.T.);
#358 = EDGE_CURVE('',#359,#359,#361,.T.);
#359 = VERTEX_POINT('',#360);
#360 = CARTESIAN_POINT('',(21.6,-40.,10.));
#361 = CIRCLE('',#362,2.6);
#362 = AXIS2_PLACEMENT_3D('',#363,#364,#365);
#363 = CARTESIAN_POINT('',(19.,-40.,10.));
#364 = DIRECTION('',(0.,1.,-4.4E-16));
#365 = DIRECTION('',(1.,0.,0.));
#366 = PLANE('',#367);
#367 = AXIS2_PLACEMENT_3D('',#368,#369,#370);
#368 = CARTESIAN_POINT('',(13.177121684596,-40.,14.956896551724));
#369 = DIRECTION('',(0.,-1.,-3.6E-16));
#370 = DIRECTION('',(0.,-3.6E-16,1.));
#371 = ADVANCED_FACE('',(#372),#390,.T.);
#372 = FACE_BOUND('',#373,.T.);
#373 = EDGE_LOOP('',(#374,#375,#376,#384));
#374 = ORIENTED_EDGE('',*,*,#269,.T.);
#375 = ORIENTED_EDGE('',*,*,#66,.T.);
#376 = ORIENTED_EDGE('',*,*,#377,.F.);
#377 = EDGE_CURVE('',#378,#59,#380,.T.);
#378 = VERTEX_POINT('',#379);
#379 = CARTESIAN_POINT('',(21.5,-53.,26.));
#380 = LINE('',#381,#382);
#381 = CARTESIAN_POINT('',(21.5,-53.,26.));
#382 = VECTOR('',#383,1.);
#383 = DIRECTION('',(0.,2.2E-16,1.));
#384 = ORIENTED_EDGE('',*,*,#385,.F.);
#385 = EDGE_CURVE('',#270,#378,#386,.T.);
#386 = LINE('',#387,#388);
#387 = CARTESIAN_POINT('',(29.5,-53.,26.));
#388 = VECTOR('',#389,1.);
#389 = DIRECTION('',(-1.,0.,0.));
#390 = PLANE('',#391);
#391 = AXIS2_PLACEMENT_3D('',#392,#393,#394);
#392 = CARTESIAN_POINT('',(29.5,-53.,26.));
#393 = DIRECTION('',(0.,-1.,2.2E-16));
#394 = DIRECTION('',(-1.,0.,0.));
#395 = ADVANCED_FACE('',(#396),#407,.T.);
#396 = FACE_BOUND('',#397,.T.);
#397 = EDGE_LOOP('',(#398,#399,#400,#401));
#398 = ORIENTED_EDGE('',*,*,#377,.T.);
#399 = ORIENTED_EDGE('',*,*,#58,.T.);
#400 = ORIENTED_EDGE('',*,*,#334,.F.);
#401 = ORIENTED_EDGE('',*,*,#402,.F.);
#402 = EDGE_CURVE('',#378,#327,#403,.T.);
#403 = LINE('',#404,#405);
#404 = CARTESIAN_POINT('',(21.5,-53.,26.));
#405 = VECTOR('',#406,1.);
#406 = DIRECTION('',(0.,1.,0.));
#407 = PLANE('',#408);
#408 = AXIS2_PLACEMENT_3D('',#409,#410,#411);
#409 = CARTESIAN_POINT('',(21.5,-53.,26.));
#410 = DIRECTION('',(-1.,0.,0.));
#411 = DIRECTION('',(0.,1.,-2.2E-16));
#412 = ADVANCED_FACE('',(#413),#432,.F.);
#413 = FACE_BOUND('',#414,.T.);
#414 = EDGE_LOOP('',(#415,#423,#430,#431));
#415 = ORIENTED_EDGE('',*,*,#416,.F.);
#416 = EDGE_CURVE('',#417,#89,#419,.T.);
#417 = VERTEX_POINT('',#418);
#418 = CARTESIAN_POINT('',(26.75,-45.5,26.));
#419 = LINE('',#420,#421);
#420 = CARTESIAN_POINT('',(26.75,-45.5,1.01E-14));
#421 = VECTOR('',#422,1.);
#422 = DIRECTION('',(0.,2.2E-16,1.));
#423 = ORIENTED_EDGE('',*,*,#424,.T.);
#424 = EDGE_CURVE('',#417,#417,#425,.T.);
#425 = CIRCLE('',#426,1.25);
#426 = AXIS2_PLACEMENT_3D('',#427,#428,#429);
#427 = CARTESIAN_POINT('',(25.5,-45.5,26.));
#428 = DIRECTION('',(0.,-2.2E-16,-1.));
#429 = DIRECTION('',(1.,0.,0.));
#430 = ORIENTED_EDGE('',*,*,#416,.T.);
#431 = ORIENTED_EDGE('',*,*,#98,.F.);
#432 = CYLINDRICAL_SURFACE('',#433,1.25);
#433 = AXIS2_PLACEMENT_3D('',#434,#435,#436);
#434 = CARTESIAN_POINT('',(25.5,-45.5,1.01E-14));
#435 = DIRECTION('',(0.,-2.2E-16,-1.));
#436 = DIRECTION('',(1.,0.,0.));
#437 = ADVANCED_FACE('',(#438),#470,.F.);
#438 = FACE_BOUND('',#439,.F.);
#439 = EDGE_LOOP('',(#440,#450,#456,#457,#463,#464));
#440 = ORIENTED_EDGE('',*,*,#441,.F.);
#441 = EDGE_CURVE('',#442,#444,#446,.T.);
#442 = VERTEX_POINT('',#443);
#443 = CARTESIAN_POINT('',(0.,0.,0.));
#444 = VERTEX_POINT('',#445);
#445 = CARTESIAN_POINT('',(8.,4.E-15,0.));
#446 = LINE('',#447,#448);
#447 = CARTESIAN_POINT('',(0.,0.,0.));
#448 = VECTOR('',#449,1.);
#449 = DIRECTION('',(1.,0.,0.));
#450 = ORIENTED_EDGE('',*,*,#451,.T.);
#451 = EDGE_CURVE('',#442,#292,#452,.T.);
#452 = LINE('',#453,#454);
#453 = CARTESIAN_POINT('',(0.,0.,0.));
#454 = VECTOR('',#455,1.);
#455 = DIRECTION('',(0.,-1.,4.4E-16));
#456 = ORIENTED_EDGE('',*,*,#291,.T.);
#457 = ORIENTED_EDGE('',*,*,#458,.F.);
#458 = EDGE_CURVE('',#116,#294,#459,.T.);
#459 = LINE('',#460,#461);
#460 = CARTESIAN_POINT('',(19.,0.,1.066E-14));
#461 = VECTOR('',#462,1.);
#462 = DIRECTION('',(0.,-1.,4.4E-16));
#463 = ORIENTED_EDGE('',*,*,#113,.F.);
#464 = ORIENTED_EDGE('',*,*,#465,.F.);
#465 = EDGE_CURVE('',#444,#114,#466,.T.);
#466 = LINE('',#467,#468);
#467 = CARTESIAN_POINT('',(8.,3.55E-15,0.));
#468 = VECTOR('',#469,1.);
#469 = DIRECTION('',(0.,-1.,0.));
#470 = PLANE('',#471);
#471 = AXIS2_PLACEMENT_3D('',#472,#473,#474);
#472 = CARTESIAN_POINT('',(0.,0.,0.));
#473 = DIRECTION('',(0.,4.4E-16,1.));
#474 = DIRECTION('',(1.,0.,0.));
#475 = ADVANCED_FACE('',(#476,#494,#505),#516,.T.);
#476 = FACE_BOUND('',#477,.T.);
#477 = EDGE_LOOP('',(#478,#479,#487,#493));
#478 = ORIENTED_EDGE('',*,*,#465,.F.);
#479 = ORIENTED_EDGE('',*,*,#480,.T.);
#480 = EDGE_CURVE('',#444,#481,#483,.T.);
#481 = VERTEX_POINT('',#482);
#482 = CARTESIAN_POINT('',(8.,8.E-15,20.));
#483 = LINE('',#484,#485);
#484 = CARTESIAN_POINT('',(8.,3.55E-15,0.));
#485 = VECTOR('',#486,1.);
#486 = DIRECTION('',(0.,2.2E-16,1.));
#487 = ORIENTED_EDGE('',*,*,#488,.T.);
#488 = EDGE_CURVE('',#481,#124,#489,.T.);
#489 = LINE('',#490,#491);
#490 = CARTESIAN_POINT('',(8.,1.066E-14,20.));
#491 = VECTOR('',#492,1.);
#492 = DIRECTION('',(0.,-1.,4.4E-16));
#493 = ORIENTED_EDGE('',*,*,#123,.F.);
#494 = FACE_BOUND('',#495,.T.);
#495 = EDGE_LOOP('',(#496));
#496 = ORIENTED_EDGE('',*,*,#497,.F.);
#497 = EDGE_CURVE('',#498,#498,#500,.T.);
#498 = VERTEX_POINT('',#499);
#499 = CARTESIAN_POINT('',(8.,-3.75,10.));
#500 = CIRCLE('',#501,4.25);
#501 = AXIS2_PLACEMENT_3D('',#502,#503,#504);
#502 = CARTESIAN_POINT('',(8.,-8.,10.));
#503 = DIRECTION('',(1.,0.,0.));
#504 = DIRECTION('',(0.,1.,0.));
#505 = FACE_BOUND('',#506,.T.);
#506 = EDGE_LOOP('',(#507));
#507 = ORIENTED_EDGE('',*,*,#508,.F.);
#508 = EDGE_CURVE('',#509,#509,#511,.T.);
#509 = VERTEX_POINT('',#510);
#510 = CARTESIAN_POINT('',(8.,-19.75,10.));
#511 = CIRCLE('',#512,4.25);
#512 = AXIS2_PLACEMENT_3D('',#513,#514,#515);
#513 = CARTESIAN_POINT('',(8.,-24.,10.));
#514 = DIRECTION('',(1.,0.,0.));
#515 = DIRECTION('',(0.,1.,0.));
#516 = PLANE('',#517);
#517 = AXIS2_PLACEMENT_3D('',#518,#519,#520);
#518 = CARTESIAN_POINT('',(8.,3.55E-15,0.));
#519 = DIRECTION('',(1.,0.,0.));
#520 = DIRECTION('',(0.,-1.,2.2E-16));
#521 = ADVANCED_FACE('',(#522),#542,.F.);
#522 = FACE_BOUND('',#523,.F.);
#523 = EDGE_LOOP('',(#524,#532,#533,#534,#535,#536));
#524 = ORIENTED_EDGE('',*,*,#525,.F.);
#525 = EDGE_CURVE('',#481,#526,#528,.T.);
#526 = VERTEX_POINT('',#527);
#527 = CARTESIAN_POINT('',(0.,0.,20.));
#528 = LINE('',#529,#530);
#529 = CARTESIAN_POINT('',(30.,0.,20.));
#530 = VECTOR('',#531,1.);
#531 = DIRECTION('',(-1.,0.,0.));
#532 = ORIENTED_EDGE('',*,*,#488,.T.);
#533 = ORIENTED_EDGE('',*,*,#131,.T.);
#534 = ORIENTED_EDGE('',*,*,#244,.T.);
#535 = ORIENTED_EDGE('',*,*,#342,.T.);
#536 = ORIENTED_EDGE('',*,*,#537,.F.);
#537 = EDGE_CURVE('',#526,#343,#538,.T.);
#538 = LINE('',#539,#540);
#539 = CARTESIAN_POINT('',(0.,8.88E-15,20.));
#540 = VECTOR('',#541,1.);
#541 = DIRECTION('',(0.,-1.,4.4E-16));
#542 = PLANE('',#543);
#543 = AXIS2_PLACEMENT_3D('',#544,#545,#546);
#544 = CARTESIAN_POINT('',(30.,8.88E-15,20.));
#545 = DIRECTION('',(0.,-4.4E-16,-1.));
#546 = DIRECTION('',(-1.,0.,0.));
#547 = ADVANCED_FACE('',(#548,#561),#564,.F.);
#548 = FACE_BOUND('',#549,.F.);
#549 = EDGE_LOOP('',(#550,#551,#557,#558,#559,#560));
#550 = ORIENTED_EDGE('',*,*,#154,.F.);
#551 = ORIENTED_EDGE('',*,*,#552,.F.);
#552 = EDGE_CURVE('',#319,#155,#553,.T.);
#553 = LINE('',#554,#555);
#554 = CARTESIAN_POINT('',(19.,-40.,26.));
#555 = VECTOR('',#556,1.);
#556 = DIRECTION('',(0.,1.,0.));
#557 = ORIENTED_EDGE('',*,*,#326,.F.);
#558 = ORIENTED_EDGE('',*,*,#402,.F.);
#559 = ORIENTED_EDGE('',*,*,#385,.F.);
#560 = ORIENTED_EDGE('',*,*,#277,.F.);
#561 = FACE_BOUND('',#562,.F.);
#562 = EDGE_LOOP('',(#563));
#563 = ORIENTED_EDGE('',*,*,#424,.T.);
#564 = PLANE('',#565);
#565 = AXIS2_PLACEMENT_3D('',#566,#567,#568);
#566 = CARTESIAN_POINT('',(21.977848101266,-40.77215189873,26.));
#567 = DIRECTION('',(0.,0.,1.));
#568 = DIRECTION('',(1.,0.,0.));
#569 = ADVANCED_FACE('',(#570),#581,.T.);
#570 = FACE_BOUND('',#571,.T.);
#571 = EDGE_LOOP('',(#572,#573,#574,#575));
#572 = ORIENTED_EDGE('',*,*,#162,.T.);
#573 = ORIENTED_EDGE('',*,*,#552,.F.);
#574 = ORIENTED_EDGE('',*,*,#318,.F.);
#575 = ORIENTED_EDGE('',*,*,#576,.F.);
#576 = EDGE_CURVE('',#163,#310,#577,.T.);
#577 = LINE('',#578,#579);
#578 = CARTESIAN_POINT('',(19.,8.44E-15,19.));
#579 = VECTOR('',#580,1.);
#580 = DIRECTION('',(0.,-1.,4.4E-16));
#581 = PLANE('',#582);
#582 = AXIS2_PLACEMENT_3D('',#583,#584,#585);
#583 = CARTESIAN_POINT('',(19.,-36.,22.5));
#584 = DIRECTION('',(1.,0.,-4.217E-14));
#585 = DIRECTION('',(4.217E-14,0.,1.));
#586 = ADVANCED_FACE('',(#587),#598,.T.);
#587 = FACE_BOUND('',#588,.F.);
#588 = EDGE_LOOP('',(#589,#590,#596,#597));
#589 = ORIENTED_EDGE('',*,*,#170,.T.);
#590 = ORIENTED_EDGE('',*,*,#591,.T.);
#591 = EDGE_CURVE('',#171,#302,#592,.T.);
#592 = LINE('',#593,#594);
#593 = CARTESIAN_POINT('',(19.,4.4E-16,1.));
#594 = VECTOR('',#595,1.);
#595 = DIRECTION('',(0.,-1.,4.4E-16));
#596 = ORIENTED_EDGE('',*,*,#309,.F.);
#597 = ORIENTED_EDGE('',*,*,#576,.F.);
#598 = CYLINDRICAL_SURFACE('',#599,9.);
#599 = AXIS2_PLACEMENT_3D('',#600,#601,#602);
#600 = CARTESIAN_POINT('',(19.,4.44E-15,10.));
#601 = DIRECTION('',(0.,1.,-4.4E-16));
#602 = DIRECTION('',(1.,0.,0.));
#603 = ADVANCED_FACE('',(#604),#610,.F.);
#604 = FACE_BOUND('',#605,.F.);
#605 = EDGE_LOOP('',(#606,#607,#608,#609));
#606 = ORIENTED_EDGE('',*,*,#179,.F.);
#607 = ORIENTED_EDGE('',*,*,#458,.T.);
#608 = ORIENTED_EDGE('',*,*,#301,.T.);
#609 = ORIENTED_EDGE('',*,*,#591,.F.);
#610 = PLANE('',#611);
#611 = AXIS2_PLACEMENT_3D('',#612,#613,#614);
#612 = CARTESIAN_POINT('',(19.,0.,1.066E-14));
#613 = DIRECTION('',(-1.,0.,0.));
#614 = DIRECTION('',(0.,4.4E-16,1.));
#615 = ADVANCED_FACE('',(#616),#641,.T.);
#616 = FACE_BOUND('',#617,.T.);
#617 = EDGE_LOOP('',(#618,#619,#627,#635));
#618 = ORIENTED_EDGE('',*,*,#187,.F.);
#619 = ORIENTED_EDGE('',*,*,#620,.T.);
#620 = EDGE_CURVE('',#188,#621,#623,.T.);
#621 = VERTEX_POINT('',#622);
#622 = CARTESIAN_POINT('',(21.4,-36.,5.843078061835));
#623 = LINE('',#624,#625);
#624 = CARTESIAN_POINT('',(21.4,2.59E-15,5.843078061835));
#625 = VECTOR('',#626,1.);
#626 = DIRECTION('',(0.,-1.,4.4E-16));
#627 = ORIENTED_EDGE('',*,*,#628,.F.);
#628 = EDGE_CURVE('',#629,#621,#631,.T.);
#629 = VERTEX_POINT('',#630);
#630 = CARTESIAN_POINT('',(23.8,-36.,10.));
#631 = LINE('',#632,#633);
#632 = CARTESIAN_POINT('',(18.459936490539,-36.,0.750738685969));
#633 = VECTOR('',#634,1.);
#634 = DIRECTION('',(-0.5,-1.9E-16,-0.866025403784));
#635 = ORIENTED_EDGE('',*,*,#636,.F.);
#636 = EDGE_CURVE('',#190,#629,#637,.T.);
#637 = LINE('',#638,#639);
#638 = CARTESIAN_POINT('',(23.8,4.44E-15,10.));
#639 = VECTOR('',#640,1.);
#640 = DIRECTION('',(0.,-1.,4.4E-16));
#641 = PLANE('',#642);
#642 = AXIS2_PLACEMENT_3D('',#643,#644,#645);
#643 = CARTESIAN_POINT('',(21.4,2.59E-15,5.843078061835));
#644 = DIRECTION('',(-0.866025403784,2.2E-16,0.5));
#645 = DIRECTION('',(0.5,3.8E-16,0.866025403784));
#646 = ADVANCED_FACE('',(#647),#665,.T.);
#647 = FACE_BOUND('',#648,.T.);
#648 = EDGE_LOOP('',(#649,#650,#651,#659));
#649 = ORIENTED_EDGE('',*,*,#197,.F.);
#650 = ORIENTED_EDGE('',*,*,#636,.T.);
#651 = ORIENTED_EDGE('',*,*,#652,.F.);
#652 = EDGE_CURVE('',#653,#629,#655,.T.);
#653 = VERTEX_POINT('',#654);
#654 = CARTESIAN_POINT('',(21.4,-36.,14.156921938165));
#655 = LINE('',#656,#657);
#656 = CARTESIAN_POINT('',(23.990063509461,-36.,9.670800344949));
#657 = VECTOR('',#658,1.);
#658 = DIRECTION('',(0.5,-1.9E-16,-0.866025403784));
#659 = ORIENTED_EDGE('',*,*,#660,.F.);
#660 = EDGE_CURVE('',#198,#653,#661,.T.);
#661 = LINE('',#662,#663);
#662 = CARTESIAN_POINT('',(21.4,6.29E-15,14.156921938165));
#663 = VECTOR('',#664,1.);
#664 = DIRECTION('',(0.,-1.,4.4E-16));
#665 = PLANE('',#666);
#666 = AXIS2_PLACEMENT_3D('',#667,#668,#669);
#667 = CARTESIAN_POINT('',(23.8,4.44E-15,10.));
#668 = DIRECTION('',(-0.866025403784,-2.2E-16,-0.5));
#669 = DIRECTION('',(-0.5,3.8E-16,0.866025403784));
#670 = ADVANCED_FACE('',(#671),#689,.T.);
#671 = FACE_BOUND('',#672,.T.);
#672 = EDGE_LOOP('',(#673,#674,#675,#683));
#673 = ORIENTED_EDGE('',*,*,#205,.F.);
#674 = ORIENTED_EDGE('',*,*,#660,.T.);
#675 = ORIENTED_EDGE('',*,*,#676,.F.);
#676 = EDGE_CURVE('',#677,#653,#679,.T.);
#677 = VERTEX_POINT('',#678);
#678 = CARTESIAN_POINT('',(16.6,-36.,14.156921938165));
#679 = LINE('',#680,#681);
#680 = CARTESIAN_POINT('',(14.7,-36.,14.156921938165));
#681 = VECTOR('',#682,1.);
#682 = DIRECTION('',(1.,0.,0.));
#683 = ORIENTED_EDGE('',*,*,#684,.F.);
#684 = EDGE_CURVE('',#206,#677,#685,.T.);
#685 = LINE('',#686,#687);
#686 = CARTESIAN_POINT('',(16.6,6.29E-15,14.156921938165));
#687 = VECTOR('',#688,1.);
#688 = DIRECTION('',(0.,-1.,4.4E-16));
#689 = PLANE('',#690);
#690 = AXIS2_PLACEMENT_3D('',#691,#692,#693);
#691 = CARTESIAN_POINT('',(21.4,6.29E-15,14.156921938165));
#692 = DIRECTION('',(0.,-4.4E-16,-1.));
#693 = DIRECTION('',(-1.,0.,0.));
#694 = ADVANCED_FACE('',(#695),#713,.T.);
#695 = FACE_BOUND('',#696,.T.);
#696 = EDGE_LOOP('',(#697,#698,#699,#707));
#697 = ORIENTED_EDGE('',*,*,#213,.F.);
#698 = ORIENTED_EDGE('',*,*,#684,.T.);
#699 = ORIENTED_EDGE('',*,*,#700,.F.);
#700 = EDGE_CURVE('',#701,#677,#703,.T.);
#701 = VERTEX_POINT('',#702);
#702 = CARTESIAN_POINT('',(14.2,-36.,10.));
#703 = LINE('',#704,#705);
#704 = CARTESIAN_POINT('',(12.459936490539,-36.,6.986121593217));
#705 = VECTOR('',#706,1.);
#706 = DIRECTION('',(0.5,1.9E-16,0.866025403784));
#707 = ORIENTED_EDGE('',*,*,#708,.F.);
#708 = EDGE_CURVE('',#214,#701,#709,.T.);
#709 = LINE('',#710,#711);
#710 = CARTESIAN_POINT('',(14.2,4.44E-15,10.));
#711 = VECTOR('',#712,1.);
#712 = DIRECTION('',(0.,-1.,4.4E-16));
#713 = PLANE('',#714);
#714 = AXIS2_PLACEMENT_3D('',#715,#716,#717);
#715 = CARTESIAN_POINT('',(16.6,6.29E-15,14.156921938165));
#716 = DIRECTION('',(0.866025403784,-2.2E-16,-0.5));
#717 = DIRECTION('',(-0.5,-3.8E-16,-0.866025403784));
#718 = ADVANCED_FACE('',(#719),#737,.T.);
#719 = FACE_BOUND('',#720,.T.);
#720 = EDGE_LOOP('',(#721,#722,#723,#731));
#721 = ORIENTED_EDGE('',*,*,#221,.F.);
#722 = ORIENTED_EDGE('',*,*,#708,.T.);
#723 = ORIENTED_EDGE('',*,*,#724,.F.);
#724 = EDGE_CURVE('',#725,#701,#727,.T.);
#725 = VERTEX_POINT('',#726);
#726 = CARTESIAN_POINT('',(16.6,-36.,5.843078061835));
#727 = LINE('',#728,#729);
#728 = CARTESIAN_POINT('',(15.590063509461,-36.,7.592339375866));
#729 = VECTOR('',#730,1.);
#730 = DIRECTION('',(-0.5,1.9E-16,0.866025403784));
#731 = ORIENTED_EDGE('',*,*,#732,.F.);
#732 = EDGE_CURVE('',#222,#725,#733,.T.);
#733 = LINE('',#734,#735);
#734 = CARTESIAN_POINT('',(16.6,2.59E-15,5.843078061835));
#735 = VECTOR('',#736,1.);
#736 = DIRECTION('',(0.,-1.,4.4E-16));
#737 = PLANE('',#738);
#738 = AXIS2_PLACEMENT_3D('',#739,#740,#741);
#739 = CARTESIAN_POINT('',(14.2,4.44E-15,10.));
#740 = DIRECTION('',(0.866025403784,2.2E-16,0.5));
#741 = DIRECTION('',(0.5,-3.8E-16,-0.866025403784));
#742 = ADVANCED_FACE('',(#743),#754,.T.);
#743 = FACE_BOUND('',#744,.T.);
#744 = EDGE_LOOP('',(#745,#746,#747,#753));
#745 = ORIENTED_EDGE('',*,*,#229,.F.);
#746 = ORIENTED_EDGE('',*,*,#732,.T.);
#747 = ORIENTED_EDGE('',*,*,#748,.F.);
#748 = EDGE_CURVE('',#621,#725,#749,.T.);
#749 = LINE('',#750,#751);
#750 = CARTESIAN_POINT('',(12.3,-36.,5.843078061835));
#751 = VECTOR('',#752,1.);
#752 = DIRECTION('',(-1.,0.,0.));
#753 = ORIENTED_EDGE('',*,*,#620,.F.);
#754 = PLANE('',#755);
#755 = AXIS2_PLACEMENT_3D('',#756,#757,#758);
#756 = CARTESIAN_POINT('',(16.6,2.59E-15,5.843078061835));
#757 = DIRECTION('',(0.,4.4E-16,1.));
#758 = DIRECTION('',(1.,0.,0.));
#759 = ADVANCED_FACE('',(#760,#771,#782),#793,.F.);
#760 = FACE_BOUND('',#761,.F.);
#761 = EDGE_LOOP('',(#762,#763,#764,#765));
#762 = ORIENTED_EDGE('',*,*,#537,.T.);
#763 = ORIENTED_EDGE('',*,*,#350,.T.);
#764 = ORIENTED_EDGE('',*,*,#451,.F.);
#765 = ORIENTED_EDGE('',*,*,#766,.F.);
#766 = EDGE_CURVE('',#526,#442,#767,.T.);
#767 = LINE('',#768,#769);
#768 = CARTESIAN_POINT('',(0.,0.,20.));
#769 = VECTOR('',#770,1.);
#770 = DIRECTION('',(0.,0.,-1.));
#771 = FACE_BOUND('',#772,.F.);
#772 = EDGE_LOOP('',(#773));
#773 = ORIENTED_EDGE('',*,*,#774,.F.);
#774 = EDGE_CURVE('',#775,#775,#777,.T.);
#775 = VERTEX_POINT('',#776);
#776 = CARTESIAN_POINT('',(0.,-21.4,10.));
#777 = CIRCLE('',#778,2.6);
#778 = AXIS2_PLACEMENT_3D('',#779,#780,#781);
#779 = CARTESIAN_POINT('',(0.,-24.,10.));
#780 = DIRECTION('',(1.,0.,0.));
#781 = DIRECTION('',(0.,1.,0.));
#782 = FACE_BOUND('',#783,.F.);
#783 = EDGE_LOOP('',(#784));
#784 = ORIENTED_EDGE('',*,*,#785,.F.);
#785 = EDGE_CURVE('',#786,#786,#788,.T.);
#786 = VERTEX_POINT('',#787);
#787 = CARTESIAN_POINT('',(0.,-5.4,10.));
#788 = CIRCLE('',#789,2.6);
#789 = AXIS2_PLACEMENT_3D('',#790,#791,#792);
#790 = CARTESIAN_POINT('',(0.,-8.,10.));
#791 = DIRECTION('',(1.,0.,0.));
#792 = DIRECTION('',(0.,1.,0.));
#793 = PLANE('',#794);
#794 = AXIS2_PLACEMENT_3D('',#795,#796,#797);
#795 = CARTESIAN_POINT('',(0.,8.88E-15,20.));
#796 = DIRECTION('',(1.,0.,0.));
#797 = DIRECTION('',(0.,-4.4E-16,-1.));
#798 = ADVANCED_FACE('',(#799),#818,.F.);
#799 = FACE_BOUND('',#800,.T.);
#800 = EDGE_LOOP('',(#801,#810,#816,#817));
#801 = ORIENTED_EDGE('',*,*,#802,.T.);
#802 = EDGE_CURVE('',#803,#803,#805,.T.);
#803 = VERTEX_POINT('',#804);
#804 = CARTESIAN_POINT('',(21.6,-36.,10.));
#805 = CIRCLE('',#806,2.6);
#806 = AXIS2_PLACEMENT_3D('',#807,#808,#809);
#807 = CARTESIAN_POINT('',(19.,-36.,10.));
#808 = DIRECTION('',(0.,1.,-4.4E-16));
#809 = DIRECTION('',(1.,0.,0.));
#810 = ORIENTED_EDGE('',*,*,#811,.T.);
#811 = EDGE_CURVE('',#803,#359,#812,.T.);
#812 = LINE('',#813,#814);
#813 = CARTESIAN_POINT('',(21.6,4.44E-15,10.));
#814 = VECTOR('',#815,1.);
#815 = DIRECTION('',(0.,-1.,4.4E-16));
#816 = ORIENTED_EDGE('',*,*,#358,.F.);
#817 = ORIENTED_EDGE('',*,*,#811,.F.);
#818 = CYLINDRICAL_SURFACE('',#819,2.6);
#819 = AXIS2_PLACEMENT_3D('',#820,#821,#822);
#820 = CARTESIAN_POINT('',(19.,4.44E-15,10.));
#821 = DIRECTION('',(0.,1.,-4.4E-16));
#822 = DIRECTION('',(1.,0.,0.));
#823 = ADVANCED_FACE('',(#824),#830,.T.);
#824 = FACE_BOUND('',#825,.T.);
#825 = EDGE_LOOP('',(#826,#827,#828,#829));
#826 = ORIENTED_EDGE('',*,*,#441,.F.);
#827 = ORIENTED_EDGE('',*,*,#766,.F.);
#828 = ORIENTED_EDGE('',*,*,#525,.F.);
#829 = ORIENTED_EDGE('',*,*,#480,.F.);
#830 = PLANE('',#831);
#831 = AXIS2_PLACEMENT_3D('',#832,#833,#834);
#832 = CARTESIAN_POINT('',(15.,2.22E-15,10.));
#833 = DIRECTION('',(0.,1.,0.));
#834 = DIRECTION('',(0.,0.,1.));
#835 = ADVANCED_FACE('',(#836),#855,.F.);
#836 = FACE_BOUND('',#837,.F.);
#837 = EDGE_LOOP('',(#838,#846,#853,#854));
#838 = ORIENTED_EDGE('',*,*,#839,.T.);
#839 = EDGE_CURVE('',#498,#840,#842,.T.);
#840 = VERTEX_POINT('',#841);
#841 = CARTESIAN_POINT('',(4.,-3.75,10.));
#842 = LINE('',#843,#844);
#843 = CARTESIAN_POINT('',(8.,-3.75,10.));
#844 = VECTOR('',#845,1.);
#845 = DIRECTION('',(-1.,0.,0.));
#846 = ORIENTED_EDGE('',*,*,#847,.T.);
#847 = EDGE_CURVE('',#840,#840,#848,.T.);
#848 = CIRCLE('',#849,4.25);
#849 = AXIS2_PLACEMENT_3D('',#850,#851,#852);
#850 = CARTESIAN_POINT('',(4.,-8.,10.));
#851 = DIRECTION('',(1.,0.,0.));
#852 = DIRECTION('',(0.,1.,0.));
#853 = ORIENTED_EDGE('',*,*,#839,.F.);
#854 = ORIENTED_EDGE('',*,*,#497,.F.);
#855 = CYLINDRICAL_SURFACE('',#856,4.25);
#856 = AXIS2_PLACEMENT_3D('',#857,#858,#859);
#857 = CARTESIAN_POINT('',(8.,-8.,10.));
#858 = DIRECTION('',(1.,0.,0.));
#859 = DIRECTION('',(0.,1.,-2.2E-16));
#860 = ADVANCED_FACE('',(#861),#880,.F.);
#861 = FACE_BOUND('',#862,.F.);
#862 = EDGE_LOOP('',(#863,#871,#878,#879));
#863 = ORIENTED_EDGE('',*,*,#864,.T.);
#864 = EDGE_CURVE('',#509,#865,#867,.T.);
#865 = VERTEX_POINT('',#866);
#866 = CARTESIAN_POINT('',(4.,-19.75,10.));
#867 = LINE('',#868,#869);
#868 = CARTESIAN_POINT('',(8.,-19.75,10.));
#869 = VECTOR('',#870,1.);
#870 = DIRECTION('',(-1.,0.,0.));
#871 = ORIENTED_EDGE('',*,*,#872,.T.);
#872 = EDGE_CURVE('',#865,#865,#873,.T.);
#873 = CIRCLE('',#874,4.25);
#874 = AXIS2_PLACEMENT_3D('',#875,#876,#877);
#875 = CARTESIAN_POINT('',(4.,-24.,10.));
#876 = DIRECTION('',(1.,0.,0.));
#877 = DIRECTION('',(0.,1.,0.));
#878 = ORIENTED_EDGE('',*,*,#864,.F.);
#879 = ORIENTED_EDGE('',*,*,#508,.F.);
#880 = CYLINDRICAL_SURFACE('',#881,4.25);
#881 = AXIS2_PLACEMENT_3D('',#882,#883,#884);
#882 = CARTESIAN_POINT('',(8.,-24.,10.));
#883 = DIRECTION('',(1.,0.,0.));
#884 = DIRECTION('',(0.,1.,-2.2E-16));
#885 = ADVANCED_FACE('',(#886,#894),#897,.T.);
#886 = FACE_BOUND('',#887,.T.);
#887 = EDGE_LOOP('',(#888,#889,#890,#891,#892,#893));
#888 = ORIENTED_EDGE('',*,*,#676,.T.);
#889 = ORIENTED_EDGE('',*,*,#652,.T.);
#890 = ORIENTED_EDGE('',*,*,#628,.T.);
#891 = ORIENTED_EDGE('',*,*,#748,.T.);
#892 = ORIENTED_EDGE('',*,*,#724,.T.);
#893 = ORIENTED_EDGE('',*,*,#700,.T.);
#894 = FACE_BOUND('',#895,.T.);
#895 = EDGE_LOOP('',(#896));
#896 = ORIENTED_EDGE('',*,*,#802,.F.);
#897 = PLANE('',#898);
#898 = AXIS2_PLACEMENT_3D('',#899,#900,#901);
#899 = CARTESIAN_POINT('',(8.,-36.,8.88E-15));
#900 = DIRECTION('',(0.,1.,-2.2E-16));
#901 = DIRECTION('',(1.,0.,0.));
#902 = ADVANCED_FACE('',(#903),#922,.F.);
#903 = FACE_BOUND('',#904,.T.);
#904 = EDGE_LOOP('',(#905,#913,#914,#915));
#905 = ORIENTED_EDGE('',*,*,#906,.F.);
#906 = EDGE_CURVE('',#775,#907,#909,.T.);
#907 = VERTEX_POINT('',#908);
#908 = CARTESIAN_POINT('',(4.,-21.4,10.));
#909 = LINE('',#910,#911);
#910 = CARTESIAN_POINT('',(0.,-21.4,10.));
#911 = VECTOR('',#912,1.);
#912 = DIRECTION('',(1.,0.,0.));
#913 = ORIENTED_EDGE('',*,*,#774,.F.);
#914 = ORIENTED_EDGE('',*,*,#906,.T.);
#915 = ORIENTED_EDGE('',*,*,#916,.F.);
#916 = EDGE_CURVE('',#907,#907,#917,.T.);
#917 = CIRCLE('',#918,2.6);
#918 = AXIS2_PLACEMENT_3D('',#919,#920,#921);
#919 = CARTESIAN_POINT('',(4.,-24.,10.));
#920 = DIRECTION('',(-1.,0.,-0.));
#921 = DIRECTION('',(0.,1.,-2.2E-16));
#922 = CYLINDRICAL_SURFACE('',#923,2.6);
#923 = AXIS2_PLACEMENT_3D('',#924,#925,#926);
#924 = CARTESIAN_POINT('',(0.,-24.,10.));
#925 = DIRECTION('',(-1.,0.,0.));
#926 = DIRECTION('',(0.,1.,-2.2E-16));
#927 = ADVANCED_FACE('',(#928),#947,.F.);
#928 = FACE_BOUND('',#929,.T.);
#929 = EDGE_LOOP('',(#930,#938,#939,#940));
#930 = ORIENTED_EDGE('',*,*,#931,.F.);
#931 = EDGE_CURVE('',#786,#932,#934,.T.);
#932 = VERTEX_POINT('',#933);
#933 = CARTESIAN_POINT('',(4.,-5.4,10.));
#934 = LINE('',#935,#936);
#935 = CARTESIAN_POINT('',(0.,-5.4,10.));
#936 = VECTOR('',#937,1.);
#937 = DIRECTION('',(1.,0.,0.));
#938 = ORIENTED_EDGE('',*,*,#785,.F.);
#939 = ORIENTED_EDGE('',*,*,#931,.T.);
#940 = ORIENTED_EDGE('',*,*,#941,.F.);
#941 = EDGE_CURVE('',#932,#932,#942,.T.);
#942 = CIRCLE('',#943,2.6);
#943 = AXIS2_PLACEMENT_3D('',#944,#945,#946);
#944 = CARTESIAN_POINT('',(4.,-8.,10.));
#945 = DIRECTION('',(-1.,0.,-0.));
#946 = DIRECTION('',(0.,1.,-2.2E-16));
#947 = CYLINDRICAL_SURFACE('',#948,2.6);
#948 = AXIS2_PLACEMENT_3D('',#949,#950,#951);
#949 = CARTESIAN_POINT('',(0.,-8.,10.));
#950 = DIRECTION('',(-1.,0.,0.));
#951 = DIRECTION('',(0.,1.,-2.2E-16));
#952 = ADVANCED_FACE('',(#953,#956),#959,.T.);
#953 = FACE_BOUND('',#954,.T.);
#954 = EDGE_LOOP('',(#955));
#955 = ORIENTED_EDGE('',*,*,#847,.T.);
#956 = FACE_BOUND('',#957,.T.);
#957 = EDGE_LOOP('',(#958));
#958 = ORIENTED_EDGE('',*,*,#941,.T.);
#959 = PLANE('',#960);
#960 = AXIS2_PLACEMENT_3D('',#961,#962,#963);
#961 = CARTESIAN_POINT('',(4.,-16.,10.));
#962 = DIRECTION('',(1.,0.,0.));
#963 = DIRECTION('',(0.,0.,1.));
#964 = ADVANCED_FACE('',(#965,#968),#971,.T.);
#965 = FACE_BOUND('',#966,.T.);
#966 = EDGE_LOOP('',(#967));
#967 = ORIENTED_EDGE('',*,*,#872,.T.);
#968 = FACE_BOUND('',#969,.T.);
#969 = EDGE_LOOP('',(#970));
#970 = ORIENTED_EDGE('',*,*,#916,.T.);
#971 = PLANE('',#972);
#972 = AXIS2_PLACEMENT_3D('',#973,#974,#975);
#973 = CARTESIAN_POINT('',(4.,-16.,10.));
#974 = DIRECTION('',(1.,0.,0.));
#975 = DIRECTION('',(0.,0.,1.));
#976 = ( GEOMETRIC_REPRESENTATION_CONTEXT(3) 
GLOBAL_UNCERTAINTY_ASSIGNED_CONTEXT((#980)) GLOBAL_UNIT_ASSIGNED_CONTEXT
((#977,#978,#979)) REPRESENTATION_CONTEXT('Context #1',
  '3D Context with UNIT and UNCERTAINTY') );
#977 = ( LENGTH_UNIT() NAMED_UNIT(*) SI_UNIT(.MILLI.,.METRE.) );
#978 = ( NAMED_UNIT(*) PLANE_ANGLE_UNIT() SI_UNIT($,.RADIAN.) );
#979 = ( NAMED_UNIT(*) SI_UNIT($,.STERADIAN.) SOLID_ANGLE_UNIT() );
#980 = UNCERTAINTY_MEASURE_WITH_UNIT(LENGTH_MEASURE(2.E-05),#977,
  'distance_accuracy_value','confusion accuracy');
#981 = PRODUCT_RELATED_PRODUCT_CATEGORY('part',$,(#7));
#982 = MECHANICAL_DESIGN_GEOMETRIC_PRESENTATION_REPRESENTATION('',(#983)
  ,#976);
#983 = STYLED_ITEM('color',(#984),#15);
#984 = PRESENTATION_STYLE_ASSIGNMENT((#985,#991));
#985 = SURFACE_STYLE_USAGE(.BOTH.,#986);
#986 = SURFACE_SIDE_STYLE('',(#987));
#987 = SURFACE_STYLE_FILL_AREA(#988);
#988 = FILL_AREA_STYLE('',(#989));
#989 = FILL_AREA_STYLE_COLOUR('',#990);
#990 = DRAUGHTING_PRE_DEFINED_COLOUR('white');
#991 = CURVE_STYLE('',#992,POSITIVE_LENGTH_MEASURE(0.1),#993);
#992 = DRAUGHTING_PRE_DEFINED_CURVE_FONT('continuous');
#993 = COLOUR_RGB('',9.803921802644E-02,9.803921802644E-02,
  9.803921802644E-02);
ENDSEC;
END-ISO-10303-21;
