ISO-10303-21;
HEADER;
/* Generated by software containing ST-Developer
 * from STEP Tools, Inc. (www.steptools.com) 
 */

FILE_DESCRIPTION(
/* description */ (''),
/* implementation_level */ '2;1');

FILE_NAME(
/* name */ 'C:\\Users\\Administrator\\Desktop\\R127.stp',
/* time_stamp */ '2019-09-25T16:39:34+08:00',
/* author */ ('Administrator'),
/* organization */ (''),
/* preprocessor_version */ 'ST-DEVELOPER v15.2',
/* originating_system */ 'Autodesk Inventor 2014',
/* authorisation */ '');

FILE_SCHEMA (('AUTOMOTIVE_DESIGN { 1 0 10303 214 3 1 1 }'));
ENDSEC;

DATA;
#10=SHAPE_REPRESENTATION_RELATIONSHIP('SRR','None',#981,#11);
#11=ADVANCED_BREP_SHAPE_REPRESENTATION($,(#576),#972);
#12=STYLED_ITEM($,(#989),#576);
#13=CYLINDRICAL_SURFACE($,#583,2.4585);
#14=CYLINDRICAL_SURFACE($,#587,2.4585);
#15=CYLINDRICAL_SURFACE($,#594,2.4585);
#16=CYLINDRICAL_SURFACE($,#598,2.4585);
#17=CYLINDRICAL_SURFACE($,#600,2.);
#18=CYLINDRICAL_SURFACE($,#605,6.);
#19=CYLINDRICAL_SURFACE($,#609,6.);
#20=CYLINDRICAL_SURFACE($,#613,6.);
#21=CYLINDRICAL_SURFACE($,#617,6.);
#22=CYLINDRICAL_SURFACE($,#620,6.);
#23=CYLINDRICAL_SURFACE($,#623,6.);
#24=CYLINDRICAL_SURFACE($,#626,6.);
#25=CYLINDRICAL_SURFACE($,#629,6.);
#26=LINE($,#821,#70);
#27=LINE($,#823,#71);
#28=LINE($,#825,#72);
#29=LINE($,#826,#73);
#30=LINE($,#846,#74);
#31=LINE($,#848,#75);
#32=LINE($,#850,#76);
#33=LINE($,#851,#77);
#34=LINE($,#870,#78);
#35=LINE($,#872,#79);
#36=LINE($,#874,#80);
#37=LINE($,#875,#81);
#38=LINE($,#881,#82);
#39=LINE($,#884,#83);
#40=LINE($,#886,#84);
#41=LINE($,#887,#85);
#42=LINE($,#893,#86);
#43=LINE($,#896,#87);
#44=LINE($,#898,#88);
#45=LINE($,#899,#89);
#46=LINE($,#905,#90);
#47=LINE($,#908,#91);
#48=LINE($,#910,#92);
#49=LINE($,#911,#93);
#50=LINE($,#919,#94);
#51=LINE($,#925,#95);
#52=LINE($,#932,#96);
#53=LINE($,#935,#97);
#54=LINE($,#941,#98);
#55=LINE($,#944,#99);
#56=LINE($,#946,#100);
#57=LINE($,#947,#101);
#58=LINE($,#949,#102);
#59=LINE($,#950,#103);
#60=LINE($,#953,#104);
#61=LINE($,#955,#105);
#62=LINE($,#956,#106);
#63=LINE($,#958,#107);
#64=LINE($,#959,#108);
#65=LINE($,#962,#109);
#66=LINE($,#964,#110);
#67=LINE($,#965,#111);
#68=LINE($,#967,#112);
#69=LINE($,#969,#113);
#70=VECTOR($,#652,30.);
#71=VECTOR($,#653,24.);
#72=VECTOR($,#654,30.);
#73=VECTOR($,#655,24.);
#74=VECTOR($,#678,30.);
#75=VECTOR($,#679,24.);
#76=VECTOR($,#680,30.);
#77=VECTOR($,#681,24.);
#78=VECTOR($,#704,1.99999999999998);
#79=VECTOR($,#705,30.);
#80=VECTOR($,#706,1.99999999999998);
#81=VECTOR($,#707,30.);
#82=VECTOR($,#714,30.);
#83=VECTOR($,#717,29.6076951545867);
#84=VECTOR($,#718,29.6076951545867);
#85=VECTOR($,#719,30.);
#86=VECTOR($,#726,30.);
#87=VECTOR($,#729,2.);
#88=VECTOR($,#730,2.);
#89=VECTOR($,#731,30.);
#90=VECTOR($,#738,30.);
#91=VECTOR($,#741,29.6076951545867);
#92=VECTOR($,#742,29.6076951545867);
#93=VECTOR($,#743,30.);
#94=VECTOR($,#754,30.);
#95=VECTOR($,#761,30.);
#96=VECTOR($,#768,30.);
#97=VECTOR($,#771,30.);
#98=VECTOR($,#776,30.);
#99=VECTOR($,#779,30.);
#100=VECTOR($,#782,73.0557280900008);
#101=VECTOR($,#783,73.0557280900008);
#102=VECTOR($,#786,73.0557280900008);
#103=VECTOR($,#787,73.0557280900008);
#104=VECTOR($,#790,24.);
#105=VECTOR($,#791,30.);
#106=VECTOR($,#792,24.);
#107=VECTOR($,#795,22.);
#108=VECTOR($,#796,22.);
#109=VECTOR($,#799,24.);
#110=VECTOR($,#800,30.);
#111=VECTOR($,#801,24.);
#112=VECTOR($,#804,22.);
#113=VECTOR($,#807,22.);
#114=PLANE($,#581);
#115=PLANE($,#592);
#116=PLANE($,#603);
#117=PLANE($,#604);
#118=PLANE($,#608);
#119=PLANE($,#612);
#120=PLANE($,#616);
#121=PLANE($,#632);
#122=PLANE($,#633);
#123=PLANE($,#634);
#124=PLANE($,#635);
#125=PLANE($,#636);
#126=PLANE($,#637);
#127=PLANE($,#638);
#128=PLANE($,#639);
#129=FACE_BOUND($,#182,.T.);
#130=FACE_BOUND($,#183,.T.);
#131=FACE_BOUND($,#184,.T.);
#132=FACE_BOUND($,#185,.T.);
#133=FACE_BOUND($,#187,.T.);
#134=FACE_BOUND($,#189,.T.);
#135=FACE_BOUND($,#191,.T.);
#136=FACE_BOUND($,#193,.T.);
#137=FACE_BOUND($,#194,.T.);
#138=FACE_BOUND($,#195,.T.);
#139=FACE_BOUND($,#196,.T.);
#140=FACE_BOUND($,#198,.T.);
#141=FACE_BOUND($,#200,.T.);
#142=FACE_BOUND($,#202,.T.);
#143=FACE_BOUND($,#204,.T.);
#144=FACE_BOUND($,#220,.T.);
#145=FACE_BOUND($,#221,.T.);
#146=FACE_BOUND($,#222,.T.);
#147=FACE_BOUND($,#224,.T.);
#148=FACE_BOUND($,#225,.T.);
#149=FACE_BOUND($,#226,.T.);
#150=FACE_BOUND($,#227,.T.);
#151=FACE_BOUND($,#228,.T.);
#152=FACE_BOUND($,#229,.T.);
#153=FACE_BOUND($,#230,.T.);
#154=FACE_BOUND($,#231,.T.);
#155=FACE_BOUND($,#232,.T.);
#156=FACE_OUTER_BOUND($,#181,.T.);
#157=FACE_OUTER_BOUND($,#186,.T.);
#158=FACE_OUTER_BOUND($,#188,.T.);
#159=FACE_OUTER_BOUND($,#190,.T.);
#160=FACE_OUTER_BOUND($,#192,.T.);
#161=FACE_OUTER_BOUND($,#197,.T.);
#162=FACE_OUTER_BOUND($,#199,.T.);
#163=FACE_OUTER_BOUND($,#201,.T.);
#164=FACE_OUTER_BOUND($,#203,.T.);
#165=FACE_OUTER_BOUND($,#205,.T.);
#166=FACE_OUTER_BOUND($,#206,.T.);
#167=FACE_OUTER_BOUND($,#207,.T.);
#168=FACE_OUTER_BOUND($,#208,.T.);
#169=FACE_OUTER_BOUND($,#209,.T.);
#170=FACE_OUTER_BOUND($,#210,.T.);
#171=FACE_OUTER_BOUND($,#211,.T.);
#172=FACE_OUTER_BOUND($,#212,.T.);
#173=FACE_OUTER_BOUND($,#213,.T.);
#174=FACE_OUTER_BOUND($,#214,.T.);
#175=FACE_OUTER_BOUND($,#215,.T.);
#176=FACE_OUTER_BOUND($,#216,.T.);
#177=FACE_OUTER_BOUND($,#217,.T.);
#178=FACE_OUTER_BOUND($,#218,.T.);
#179=FACE_OUTER_BOUND($,#219,.T.);
#180=FACE_OUTER_BOUND($,#223,.T.);
#181=EDGE_LOOP($,(#391));
#182=EDGE_LOOP($,(#392));
#183=EDGE_LOOP($,(#393));
#184=EDGE_LOOP($,(#394,#395,#396,#397));
#185=EDGE_LOOP($,(#398));
#186=EDGE_LOOP($,(#399));
#187=EDGE_LOOP($,(#400));
#188=EDGE_LOOP($,(#401));
#189=EDGE_LOOP($,(#402));
#190=EDGE_LOOP($,(#403));
#191=EDGE_LOOP($,(#404));
#192=EDGE_LOOP($,(#405));
#193=EDGE_LOOP($,(#406));
#194=EDGE_LOOP($,(#407));
#195=EDGE_LOOP($,(#408,#409,#410,#411));
#196=EDGE_LOOP($,(#412));
#197=EDGE_LOOP($,(#413));
#198=EDGE_LOOP($,(#414));
#199=EDGE_LOOP($,(#415));
#200=EDGE_LOOP($,(#416));
#201=EDGE_LOOP($,(#417));
#202=EDGE_LOOP($,(#418));
#203=EDGE_LOOP($,(#419));
#204=EDGE_LOOP($,(#420));
#205=EDGE_LOOP($,(#421));
#206=EDGE_LOOP($,(#422,#423,#424,#425));
#207=EDGE_LOOP($,(#426,#427,#428,#429));
#208=EDGE_LOOP($,(#430,#431,#432,#433));
#209=EDGE_LOOP($,(#434,#435,#436,#437));
#210=EDGE_LOOP($,(#438,#439,#440,#441));
#211=EDGE_LOOP($,(#442,#443,#444,#445));
#212=EDGE_LOOP($,(#446,#447,#448,#449));
#213=EDGE_LOOP($,(#450,#451,#452,#453));
#214=EDGE_LOOP($,(#454,#455,#456,#457));
#215=EDGE_LOOP($,(#458,#459,#460,#461));
#216=EDGE_LOOP($,(#462,#463,#464,#465));
#217=EDGE_LOOP($,(#466,#467,#468,#469));
#218=EDGE_LOOP($,(#470,#471,#472,#473));
#219=EDGE_LOOP($,(#474,#475,#476,#477));
#220=EDGE_LOOP($,(#478));
#221=EDGE_LOOP($,(#479));
#222=EDGE_LOOP($,(#480,#481,#482,#483));
#223=EDGE_LOOP($,(#484,#485,#486,#487));
#224=EDGE_LOOP($,(#488));
#225=EDGE_LOOP($,(#489));
#226=EDGE_LOOP($,(#490,#491,#492,#493));
#227=EDGE_LOOP($,(#494,#495,#496,#497,#498,#499,#500,#501));
#228=EDGE_LOOP($,(#502,#503,#504,#505,#506,#507,#508,#509,#510,#511,#512,
#513));
#229=EDGE_LOOP($,(#514,#515,#516,#517,#518,#519,#520,#521));
#230=EDGE_LOOP($,(#522,#523,#524,#525,#526,#527,#528,#529,#530,#531,#532,
#533));
#231=EDGE_LOOP($,(#534));
#232=EDGE_LOOP($,(#535,#536,#537,#538));
#233=CIRCLE($,#579,2.4585);
#234=CIRCLE($,#580,2.9585);
#235=CIRCLE($,#582,2.9585);
#236=CIRCLE($,#584,2.4585);
#237=CIRCLE($,#586,2.4585);
#238=CIRCLE($,#588,2.4585);
#239=CIRCLE($,#590,2.4585);
#240=CIRCLE($,#591,2.9585);
#241=CIRCLE($,#593,2.9585);
#242=CIRCLE($,#595,2.4585);
#243=CIRCLE($,#597,2.4585);
#244=CIRCLE($,#599,2.4585);
#245=CIRCLE($,#601,2.);
#246=CIRCLE($,#602,2.);
#247=CIRCLE($,#606,6.);
#248=CIRCLE($,#607,6.);
#249=CIRCLE($,#610,6.);
#250=CIRCLE($,#611,6.);
#251=CIRCLE($,#614,6.);
#252=CIRCLE($,#615,6.);
#253=CIRCLE($,#618,6.);
#254=CIRCLE($,#619,6.);
#255=CIRCLE($,#621,6.);
#256=CIRCLE($,#622,6.);
#257=CIRCLE($,#624,6.);
#258=CIRCLE($,#625,6.);
#259=CIRCLE($,#627,6.);
#260=CIRCLE($,#628,6.);
#261=CIRCLE($,#630,6.);
#262=CIRCLE($,#631,6.);
#263=VERTEX_POINT($,#812);
#264=VERTEX_POINT($,#814);
#265=VERTEX_POINT($,#817);
#266=VERTEX_POINT($,#819);
#267=VERTEX_POINT($,#820);
#268=VERTEX_POINT($,#822);
#269=VERTEX_POINT($,#824);
#270=VERTEX_POINT($,#828);
#271=VERTEX_POINT($,#831);
#272=VERTEX_POINT($,#834);
#273=VERTEX_POINT($,#837);
#274=VERTEX_POINT($,#839);
#275=VERTEX_POINT($,#842);
#276=VERTEX_POINT($,#844);
#277=VERTEX_POINT($,#845);
#278=VERTEX_POINT($,#847);
#279=VERTEX_POINT($,#849);
#280=VERTEX_POINT($,#853);
#281=VERTEX_POINT($,#856);
#282=VERTEX_POINT($,#859);
#283=VERTEX_POINT($,#862);
#284=VERTEX_POINT($,#864);
#285=VERTEX_POINT($,#868);
#286=VERTEX_POINT($,#869);
#287=VERTEX_POINT($,#871);
#288=VERTEX_POINT($,#873);
#289=VERTEX_POINT($,#877);
#290=VERTEX_POINT($,#879);
#291=VERTEX_POINT($,#883);
#292=VERTEX_POINT($,#885);
#293=VERTEX_POINT($,#889);
#294=VERTEX_POINT($,#891);
#295=VERTEX_POINT($,#895);
#296=VERTEX_POINT($,#897);
#297=VERTEX_POINT($,#901);
#298=VERTEX_POINT($,#903);
#299=VERTEX_POINT($,#907);
#300=VERTEX_POINT($,#909);
#301=VERTEX_POINT($,#916);
#302=VERTEX_POINT($,#918);
#303=VERTEX_POINT($,#922);
#304=VERTEX_POINT($,#924);
#305=VERTEX_POINT($,#928);
#306=VERTEX_POINT($,#929);
#307=VERTEX_POINT($,#931);
#308=VERTEX_POINT($,#933);
#309=VERTEX_POINT($,#937);
#310=VERTEX_POINT($,#938);
#311=VERTEX_POINT($,#940);
#312=VERTEX_POINT($,#942);
#313=VERTEX_POINT($,#952);
#314=VERTEX_POINT($,#954);
#315=VERTEX_POINT($,#961);
#316=VERTEX_POINT($,#963);
#317=EDGE_CURVE($,#263,#263,#233,.T.);
#318=EDGE_CURVE($,#264,#264,#234,.T.);
#319=EDGE_CURVE($,#265,#265,#235,.T.);
#320=EDGE_CURVE($,#266,#267,#26,.T.);
#321=EDGE_CURVE($,#268,#267,#27,.T.);
#322=EDGE_CURVE($,#269,#268,#28,.T.);
#323=EDGE_CURVE($,#269,#266,#29,.T.);
#324=EDGE_CURVE($,#270,#270,#236,.T.);
#325=EDGE_CURVE($,#271,#271,#237,.T.);
#326=EDGE_CURVE($,#272,#272,#238,.T.);
#327=EDGE_CURVE($,#273,#273,#239,.T.);
#328=EDGE_CURVE($,#274,#274,#240,.T.);
#329=EDGE_CURVE($,#275,#275,#241,.T.);
#330=EDGE_CURVE($,#276,#277,#30,.T.);
#331=EDGE_CURVE($,#277,#278,#31,.T.);
#332=EDGE_CURVE($,#278,#279,#32,.T.);
#333=EDGE_CURVE($,#276,#279,#33,.T.);
#334=EDGE_CURVE($,#280,#280,#242,.T.);
#335=EDGE_CURVE($,#281,#281,#243,.T.);
#336=EDGE_CURVE($,#282,#282,#244,.T.);
#337=EDGE_CURVE($,#283,#283,#245,.T.);
#338=EDGE_CURVE($,#284,#284,#246,.T.);
#339=EDGE_CURVE($,#285,#286,#34,.T.);
#340=EDGE_CURVE($,#287,#285,#35,.T.);
#341=EDGE_CURVE($,#288,#287,#36,.T.);
#342=EDGE_CURVE($,#288,#286,#37,.T.);
#343=EDGE_CURVE($,#286,#289,#247,.T.);
#344=EDGE_CURVE($,#290,#288,#248,.T.);
#345=EDGE_CURVE($,#290,#289,#38,.T.);
#346=EDGE_CURVE($,#289,#291,#39,.T.);
#347=EDGE_CURVE($,#292,#290,#40,.T.);
#348=EDGE_CURVE($,#292,#291,#41,.T.);
#349=EDGE_CURVE($,#291,#293,#249,.T.);
#350=EDGE_CURVE($,#294,#292,#250,.T.);
#351=EDGE_CURVE($,#294,#293,#42,.T.);
#352=EDGE_CURVE($,#293,#295,#43,.T.);
#353=EDGE_CURVE($,#296,#294,#44,.T.);
#354=EDGE_CURVE($,#296,#295,#45,.T.);
#355=EDGE_CURVE($,#295,#297,#251,.T.);
#356=EDGE_CURVE($,#298,#296,#252,.T.);
#357=EDGE_CURVE($,#298,#297,#46,.T.);
#358=EDGE_CURVE($,#297,#299,#47,.T.);
#359=EDGE_CURVE($,#300,#298,#48,.T.);
#360=EDGE_CURVE($,#300,#299,#49,.T.);
#361=EDGE_CURVE($,#299,#285,#253,.T.);
#362=EDGE_CURVE($,#287,#300,#254,.T.);
#363=EDGE_CURVE($,#301,#266,#255,.F.);
#364=EDGE_CURVE($,#301,#302,#50,.T.);
#365=EDGE_CURVE($,#302,#267,#256,.T.);
#366=EDGE_CURVE($,#303,#276,#257,.F.);
#367=EDGE_CURVE($,#303,#304,#51,.T.);
#368=EDGE_CURVE($,#304,#277,#258,.T.);
#369=EDGE_CURVE($,#305,#306,#259,.F.);
#370=EDGE_CURVE($,#305,#307,#52,.T.);
#371=EDGE_CURVE($,#307,#308,#260,.T.);
#372=EDGE_CURVE($,#306,#308,#53,.T.);
#373=EDGE_CURVE($,#309,#310,#261,.F.);
#374=EDGE_CURVE($,#309,#311,#54,.T.);
#375=EDGE_CURVE($,#311,#312,#262,.T.);
#376=EDGE_CURVE($,#310,#312,#55,.T.);
#377=EDGE_CURVE($,#311,#305,#56,.T.);
#378=EDGE_CURVE($,#307,#309,#57,.T.);
#379=EDGE_CURVE($,#304,#301,#58,.T.);
#380=EDGE_CURVE($,#302,#303,#59,.T.);
#381=EDGE_CURVE($,#308,#313,#60,.T.);
#382=EDGE_CURVE($,#313,#314,#61,.T.);
#383=EDGE_CURVE($,#306,#314,#62,.T.);
#384=EDGE_CURVE($,#313,#269,#63,.T.);
#385=EDGE_CURVE($,#314,#268,#64,.T.);
#386=EDGE_CURVE($,#315,#312,#65,.T.);
#387=EDGE_CURVE($,#316,#315,#66,.T.);
#388=EDGE_CURVE($,#316,#310,#67,.T.);
#389=EDGE_CURVE($,#278,#316,#68,.T.);
#390=EDGE_CURVE($,#279,#315,#69,.T.);
#391=ORIENTED_EDGE($,*,*,#317,.T.);
#392=ORIENTED_EDGE($,*,*,#318,.T.);
#393=ORIENTED_EDGE($,*,*,#319,.F.);
#394=ORIENTED_EDGE($,*,*,#320,.T.);
#395=ORIENTED_EDGE($,*,*,#321,.F.);
#396=ORIENTED_EDGE($,*,*,#322,.F.);
#397=ORIENTED_EDGE($,*,*,#323,.T.);
#398=ORIENTED_EDGE($,*,*,#318,.F.);
#399=ORIENTED_EDGE($,*,*,#324,.F.);
#400=ORIENTED_EDGE($,*,*,#317,.F.);
#401=ORIENTED_EDGE($,*,*,#325,.T.);
#402=ORIENTED_EDGE($,*,*,#319,.T.);
#403=ORIENTED_EDGE($,*,*,#326,.F.);
#404=ORIENTED_EDGE($,*,*,#325,.F.);
#405=ORIENTED_EDGE($,*,*,#327,.T.);
#406=ORIENTED_EDGE($,*,*,#328,.T.);
#407=ORIENTED_EDGE($,*,*,#329,.F.);
#408=ORIENTED_EDGE($,*,*,#330,.T.);
#409=ORIENTED_EDGE($,*,*,#331,.T.);
#410=ORIENTED_EDGE($,*,*,#332,.T.);
#411=ORIENTED_EDGE($,*,*,#333,.F.);
#412=ORIENTED_EDGE($,*,*,#328,.F.);
#413=ORIENTED_EDGE($,*,*,#334,.F.);
#414=ORIENTED_EDGE($,*,*,#327,.F.);
#415=ORIENTED_EDGE($,*,*,#335,.T.);
#416=ORIENTED_EDGE($,*,*,#329,.T.);
#417=ORIENTED_EDGE($,*,*,#336,.F.);
#418=ORIENTED_EDGE($,*,*,#335,.F.);
#419=ORIENTED_EDGE($,*,*,#337,.F.);
#420=ORIENTED_EDGE($,*,*,#338,.F.);
#421=ORIENTED_EDGE($,*,*,#337,.T.);
#422=ORIENTED_EDGE($,*,*,#339,.F.);
#423=ORIENTED_EDGE($,*,*,#340,.F.);
#424=ORIENTED_EDGE($,*,*,#341,.F.);
#425=ORIENTED_EDGE($,*,*,#342,.T.);
#426=ORIENTED_EDGE($,*,*,#343,.F.);
#427=ORIENTED_EDGE($,*,*,#342,.F.);
#428=ORIENTED_EDGE($,*,*,#344,.F.);
#429=ORIENTED_EDGE($,*,*,#345,.T.);
#430=ORIENTED_EDGE($,*,*,#346,.F.);
#431=ORIENTED_EDGE($,*,*,#345,.F.);
#432=ORIENTED_EDGE($,*,*,#347,.F.);
#433=ORIENTED_EDGE($,*,*,#348,.T.);
#434=ORIENTED_EDGE($,*,*,#349,.F.);
#435=ORIENTED_EDGE($,*,*,#348,.F.);
#436=ORIENTED_EDGE($,*,*,#350,.F.);
#437=ORIENTED_EDGE($,*,*,#351,.T.);
#438=ORIENTED_EDGE($,*,*,#352,.F.);
#439=ORIENTED_EDGE($,*,*,#351,.F.);
#440=ORIENTED_EDGE($,*,*,#353,.F.);
#441=ORIENTED_EDGE($,*,*,#354,.T.);
#442=ORIENTED_EDGE($,*,*,#355,.F.);
#443=ORIENTED_EDGE($,*,*,#354,.F.);
#444=ORIENTED_EDGE($,*,*,#356,.F.);
#445=ORIENTED_EDGE($,*,*,#357,.T.);
#446=ORIENTED_EDGE($,*,*,#358,.F.);
#447=ORIENTED_EDGE($,*,*,#357,.F.);
#448=ORIENTED_EDGE($,*,*,#359,.F.);
#449=ORIENTED_EDGE($,*,*,#360,.T.);
#450=ORIENTED_EDGE($,*,*,#361,.F.);
#451=ORIENTED_EDGE($,*,*,#360,.F.);
#452=ORIENTED_EDGE($,*,*,#362,.F.);
#453=ORIENTED_EDGE($,*,*,#340,.T.);
#454=ORIENTED_EDGE($,*,*,#363,.F.);
#455=ORIENTED_EDGE($,*,*,#364,.T.);
#456=ORIENTED_EDGE($,*,*,#365,.T.);
#457=ORIENTED_EDGE($,*,*,#320,.F.);
#458=ORIENTED_EDGE($,*,*,#366,.F.);
#459=ORIENTED_EDGE($,*,*,#367,.T.);
#460=ORIENTED_EDGE($,*,*,#368,.T.);
#461=ORIENTED_EDGE($,*,*,#330,.F.);
#462=ORIENTED_EDGE($,*,*,#369,.F.);
#463=ORIENTED_EDGE($,*,*,#370,.T.);
#464=ORIENTED_EDGE($,*,*,#371,.T.);
#465=ORIENTED_EDGE($,*,*,#372,.F.);
#466=ORIENTED_EDGE($,*,*,#373,.F.);
#467=ORIENTED_EDGE($,*,*,#374,.T.);
#468=ORIENTED_EDGE($,*,*,#375,.T.);
#469=ORIENTED_EDGE($,*,*,#376,.F.);
#470=ORIENTED_EDGE($,*,*,#370,.F.);
#471=ORIENTED_EDGE($,*,*,#377,.F.);
#472=ORIENTED_EDGE($,*,*,#374,.F.);
#473=ORIENTED_EDGE($,*,*,#378,.F.);
#474=ORIENTED_EDGE($,*,*,#364,.F.);
#475=ORIENTED_EDGE($,*,*,#379,.F.);
#476=ORIENTED_EDGE($,*,*,#367,.F.);
#477=ORIENTED_EDGE($,*,*,#380,.F.);
#478=ORIENTED_EDGE($,*,*,#326,.T.);
#479=ORIENTED_EDGE($,*,*,#324,.T.);
#480=ORIENTED_EDGE($,*,*,#372,.T.);
#481=ORIENTED_EDGE($,*,*,#381,.T.);
#482=ORIENTED_EDGE($,*,*,#382,.T.);
#483=ORIENTED_EDGE($,*,*,#383,.F.);
#484=ORIENTED_EDGE($,*,*,#384,.T.);
#485=ORIENTED_EDGE($,*,*,#322,.T.);
#486=ORIENTED_EDGE($,*,*,#385,.F.);
#487=ORIENTED_EDGE($,*,*,#382,.F.);
#488=ORIENTED_EDGE($,*,*,#336,.T.);
#489=ORIENTED_EDGE($,*,*,#334,.T.);
#490=ORIENTED_EDGE($,*,*,#376,.T.);
#491=ORIENTED_EDGE($,*,*,#386,.F.);
#492=ORIENTED_EDGE($,*,*,#387,.F.);
#493=ORIENTED_EDGE($,*,*,#388,.T.);
#494=ORIENTED_EDGE($,*,*,#352,.T.);
#495=ORIENTED_EDGE($,*,*,#355,.T.);
#496=ORIENTED_EDGE($,*,*,#358,.T.);
#497=ORIENTED_EDGE($,*,*,#361,.T.);
#498=ORIENTED_EDGE($,*,*,#339,.T.);
#499=ORIENTED_EDGE($,*,*,#343,.T.);
#500=ORIENTED_EDGE($,*,*,#346,.T.);
#501=ORIENTED_EDGE($,*,*,#349,.T.);
#502=ORIENTED_EDGE($,*,*,#368,.F.);
#503=ORIENTED_EDGE($,*,*,#379,.T.);
#504=ORIENTED_EDGE($,*,*,#363,.T.);
#505=ORIENTED_EDGE($,*,*,#323,.F.);
#506=ORIENTED_EDGE($,*,*,#384,.F.);
#507=ORIENTED_EDGE($,*,*,#381,.F.);
#508=ORIENTED_EDGE($,*,*,#371,.F.);
#509=ORIENTED_EDGE($,*,*,#378,.T.);
#510=ORIENTED_EDGE($,*,*,#373,.T.);
#511=ORIENTED_EDGE($,*,*,#388,.F.);
#512=ORIENTED_EDGE($,*,*,#389,.F.);
#513=ORIENTED_EDGE($,*,*,#331,.F.);
#514=ORIENTED_EDGE($,*,*,#353,.T.);
#515=ORIENTED_EDGE($,*,*,#350,.T.);
#516=ORIENTED_EDGE($,*,*,#347,.T.);
#517=ORIENTED_EDGE($,*,*,#344,.T.);
#518=ORIENTED_EDGE($,*,*,#341,.T.);
#519=ORIENTED_EDGE($,*,*,#362,.T.);
#520=ORIENTED_EDGE($,*,*,#359,.T.);
#521=ORIENTED_EDGE($,*,*,#356,.T.);
#522=ORIENTED_EDGE($,*,*,#375,.F.);
#523=ORIENTED_EDGE($,*,*,#377,.T.);
#524=ORIENTED_EDGE($,*,*,#369,.T.);
#525=ORIENTED_EDGE($,*,*,#383,.T.);
#526=ORIENTED_EDGE($,*,*,#385,.T.);
#527=ORIENTED_EDGE($,*,*,#321,.T.);
#528=ORIENTED_EDGE($,*,*,#365,.F.);
#529=ORIENTED_EDGE($,*,*,#380,.T.);
#530=ORIENTED_EDGE($,*,*,#366,.T.);
#531=ORIENTED_EDGE($,*,*,#333,.T.);
#532=ORIENTED_EDGE($,*,*,#390,.T.);
#533=ORIENTED_EDGE($,*,*,#386,.T.);
#534=ORIENTED_EDGE($,*,*,#338,.T.);
#535=ORIENTED_EDGE($,*,*,#389,.T.);
#536=ORIENTED_EDGE($,*,*,#387,.T.);
#537=ORIENTED_EDGE($,*,*,#390,.F.);
#538=ORIENTED_EDGE($,*,*,#332,.F.);
#539=CONICAL_SURFACE($,#578,2.7085,44.9999999999994);
#540=CONICAL_SURFACE($,#585,2.7085,44.9999999999994);
#541=CONICAL_SURFACE($,#589,2.7085,44.9999999999991);
#542=CONICAL_SURFACE($,#596,2.7085,44.9999999999991);
#543=ADVANCED_FACE($,(#156,#129),#539,.F.);
#544=ADVANCED_FACE($,(#130,#131,#132),#114,.T.);
#545=ADVANCED_FACE($,(#157,#133),#13,.F.);
#546=ADVANCED_FACE($,(#158,#134),#540,.F.);
#547=ADVANCED_FACE($,(#159,#135),#14,.F.);
#548=ADVANCED_FACE($,(#160,#136),#541,.F.);
#549=ADVANCED_FACE($,(#137,#138,#139),#115,.T.);
#550=ADVANCED_FACE($,(#161,#140),#15,.F.);
#551=ADVANCED_FACE($,(#162,#141),#542,.F.);
#552=ADVANCED_FACE($,(#163,#142),#16,.F.);
#553=ADVANCED_FACE($,(#164,#143),#17,.T.);
#554=ADVANCED_FACE($,(#165),#116,.T.);
#555=ADVANCED_FACE($,(#166),#117,.F.);
#556=ADVANCED_FACE($,(#167),#18,.F.);
#557=ADVANCED_FACE($,(#168),#118,.F.);
#558=ADVANCED_FACE($,(#169),#19,.F.);
#559=ADVANCED_FACE($,(#170),#119,.F.);
#560=ADVANCED_FACE($,(#171),#20,.F.);
#561=ADVANCED_FACE($,(#172),#120,.F.);
#562=ADVANCED_FACE($,(#173),#21,.F.);
#563=ADVANCED_FACE($,(#174),#22,.F.);
#564=ADVANCED_FACE($,(#175),#23,.F.);
#565=ADVANCED_FACE($,(#176),#24,.F.);
#566=ADVANCED_FACE($,(#177),#25,.F.);
#567=ADVANCED_FACE($,(#178),#121,.T.);
#568=ADVANCED_FACE($,(#179),#122,.T.);
#569=ADVANCED_FACE($,(#144,#145,#146),#123,.T.);
#570=ADVANCED_FACE($,(#180),#124,.T.);
#571=ADVANCED_FACE($,(#147,#148,#149),#125,.T.);
#572=ADVANCED_FACE($,(#150,#151),#126,.F.);
#573=ADVANCED_FACE($,(#152,#153),#127,.T.);
#574=ADVANCED_FACE($,(#154,#155),#128,.T.);
#575=CLOSED_SHELL($,(#543,#544,#545,#546,#547,#548,#549,#550,#551,#552,
#553,#554,#555,#556,#557,#558,#559,#560,#561,#562,#563,#564,#565,#566,#567,
#568,#569,#570,#571,#572,#573,#574));
#576=MANIFOLD_SOLID_BREP('\X2\5B9E4F53\X0\1',#575);
#577=AXIS2_PLACEMENT_3D('placement',#810,#640,#641);
#578=AXIS2_PLACEMENT_3D($,#811,#642,#643);
#579=AXIS2_PLACEMENT_3D($,#813,#644,#645);
#580=AXIS2_PLACEMENT_3D($,#815,#646,#647);
#581=AXIS2_PLACEMENT_3D($,#816,#648,#649);
#582=AXIS2_PLACEMENT_3D($,#818,#650,#651);
#583=AXIS2_PLACEMENT_3D($,#827,#656,#657);
#584=AXIS2_PLACEMENT_3D($,#829,#658,#659);
#585=AXIS2_PLACEMENT_3D($,#830,#660,#661);
#586=AXIS2_PLACEMENT_3D($,#832,#662,#663);
#587=AXIS2_PLACEMENT_3D($,#833,#664,#665);
#588=AXIS2_PLACEMENT_3D($,#835,#666,#667);
#589=AXIS2_PLACEMENT_3D($,#836,#668,#669);
#590=AXIS2_PLACEMENT_3D($,#838,#670,#671);
#591=AXIS2_PLACEMENT_3D($,#840,#672,#673);
#592=AXIS2_PLACEMENT_3D($,#841,#674,#675);
#593=AXIS2_PLACEMENT_3D($,#843,#676,#677);
#594=AXIS2_PLACEMENT_3D($,#852,#682,#683);
#595=AXIS2_PLACEMENT_3D($,#854,#684,#685);
#596=AXIS2_PLACEMENT_3D($,#855,#686,#687);
#597=AXIS2_PLACEMENT_3D($,#857,#688,#689);
#598=AXIS2_PLACEMENT_3D($,#858,#690,#691);
#599=AXIS2_PLACEMENT_3D($,#860,#692,#693);
#600=AXIS2_PLACEMENT_3D($,#861,#694,#695);
#601=AXIS2_PLACEMENT_3D($,#863,#696,#697);
#602=AXIS2_PLACEMENT_3D($,#865,#698,#699);
#603=AXIS2_PLACEMENT_3D($,#866,#700,#701);
#604=AXIS2_PLACEMENT_3D($,#867,#702,#703);
#605=AXIS2_PLACEMENT_3D($,#876,#708,#709);
#606=AXIS2_PLACEMENT_3D($,#878,#710,#711);
#607=AXIS2_PLACEMENT_3D($,#880,#712,#713);
#608=AXIS2_PLACEMENT_3D($,#882,#715,#716);
#609=AXIS2_PLACEMENT_3D($,#888,#720,#721);
#610=AXIS2_PLACEMENT_3D($,#890,#722,#723);
#611=AXIS2_PLACEMENT_3D($,#892,#724,#725);
#612=AXIS2_PLACEMENT_3D($,#894,#727,#728);
#613=AXIS2_PLACEMENT_3D($,#900,#732,#733);
#614=AXIS2_PLACEMENT_3D($,#902,#734,#735);
#615=AXIS2_PLACEMENT_3D($,#904,#736,#737);
#616=AXIS2_PLACEMENT_3D($,#906,#739,#740);
#617=AXIS2_PLACEMENT_3D($,#912,#744,#745);
#618=AXIS2_PLACEMENT_3D($,#913,#746,#747);
#619=AXIS2_PLACEMENT_3D($,#914,#748,#749);
#620=AXIS2_PLACEMENT_3D($,#915,#750,#751);
#621=AXIS2_PLACEMENT_3D($,#917,#752,#753);
#622=AXIS2_PLACEMENT_3D($,#920,#755,#756);
#623=AXIS2_PLACEMENT_3D($,#921,#757,#758);
#624=AXIS2_PLACEMENT_3D($,#923,#759,#760);
#625=AXIS2_PLACEMENT_3D($,#926,#762,#763);
#626=AXIS2_PLACEMENT_3D($,#927,#764,#765);
#627=AXIS2_PLACEMENT_3D($,#930,#766,#767);
#628=AXIS2_PLACEMENT_3D($,#934,#769,#770);
#629=AXIS2_PLACEMENT_3D($,#936,#772,#773);
#630=AXIS2_PLACEMENT_3D($,#939,#774,#775);
#631=AXIS2_PLACEMENT_3D($,#943,#777,#778);
#632=AXIS2_PLACEMENT_3D($,#945,#780,#781);
#633=AXIS2_PLACEMENT_3D($,#948,#784,#785);
#634=AXIS2_PLACEMENT_3D($,#951,#788,#789);
#635=AXIS2_PLACEMENT_3D($,#957,#793,#794);
#636=AXIS2_PLACEMENT_3D($,#960,#797,#798);
#637=AXIS2_PLACEMENT_3D($,#966,#802,#803);
#638=AXIS2_PLACEMENT_3D($,#968,#805,#806);
#639=AXIS2_PLACEMENT_3D($,#970,#808,#809);
#640=DIRECTION('axis',(0.,0.,1.));
#641=DIRECTION('refdir',(1.,0.,0.));
#642=DIRECTION('center_axis',(0.,1.,0.));
#643=DIRECTION('ref_axis',(-1.,3.41607084500048E-017,0.));
#644=DIRECTION('center_axis',(-3.41607084500048E-017,-1.,0.));
#645=DIRECTION('ref_axis',(-1.,3.41607084500048E-017,0.));
#646=DIRECTION('center_axis',(3.41607084500048E-017,1.,0.));
#647=DIRECTION('ref_axis',(-1.,3.41607084500048E-017,0.));
#648=DIRECTION('center_axis',(3.41607084500048E-017,1.,0.));
#649=DIRECTION('ref_axis',(-1.,0.,0.));
#650=DIRECTION('center_axis',(3.41607084500048E-017,1.,0.));
#651=DIRECTION('ref_axis',(-1.,3.41607084500048E-017,0.));
#652=DIRECTION($,(0.,0.,1.));
#653=DIRECTION($,(-1.,3.41607084500048E-017,0.));
#654=DIRECTION($,(0.,0.,1.));
#655=DIRECTION($,(-1.,3.41607084500048E-017,0.));
#656=DIRECTION('center_axis',(3.41607084500048E-017,1.,0.));
#657=DIRECTION('ref_axis',(1.,-3.41607084500048E-017,0.));
#658=DIRECTION('center_axis',(-1.36642833800019E-016,1.,0.));
#659=DIRECTION('ref_axis',(1.,-3.41607084500048E-017,0.));
#660=DIRECTION('center_axis',(0.,1.,0.));
#661=DIRECTION('ref_axis',(-1.,3.41607084500048E-017,0.));
#662=DIRECTION('center_axis',(-3.41607084500048E-017,-1.,0.));
#663=DIRECTION('ref_axis',(-1.,3.41607084500048E-017,0.));
#664=DIRECTION('center_axis',(3.41607084500048E-017,1.,0.));
#665=DIRECTION('ref_axis',(1.,-3.41607084500048E-017,0.));
#666=DIRECTION('center_axis',(-1.36642833800019E-016,1.,0.));
#667=DIRECTION('ref_axis',(1.,-3.41607084500048E-017,0.));
#668=DIRECTION('center_axis',(0.,1.,0.));
#669=DIRECTION('ref_axis',(-1.,3.41607084500048E-017,0.));
#670=DIRECTION('center_axis',(-3.41607084500048E-017,-1.,0.));
#671=DIRECTION('ref_axis',(-1.,3.41607084500048E-017,0.));
#672=DIRECTION('center_axis',(3.41607084500048E-017,1.,0.));
#673=DIRECTION('ref_axis',(-1.,3.41607084500048E-017,0.));
#674=DIRECTION('center_axis',(3.41607084500048E-017,1.,0.));
#675=DIRECTION('ref_axis',(-1.,0.,0.));
#676=DIRECTION('center_axis',(3.41607084500048E-017,1.,0.));
#677=DIRECTION('ref_axis',(-1.,3.41607084500048E-017,0.));
#678=DIRECTION($,(0.,0.,-1.));
#679=DIRECTION($,(-1.,3.41607084500048E-017,0.));
#680=DIRECTION($,(0.,0.,1.));
#681=DIRECTION($,(-1.,3.41607084500048E-017,0.));
#682=DIRECTION('center_axis',(3.41607084500048E-017,1.,0.));
#683=DIRECTION('ref_axis',(1.,-3.41607084500048E-017,0.));
#684=DIRECTION('center_axis',(-1.36642833800019E-016,1.,0.));
#685=DIRECTION('ref_axis',(1.,-3.41607084500048E-017,0.));
#686=DIRECTION('center_axis',(0.,1.,0.));
#687=DIRECTION('ref_axis',(-1.,3.41607084500048E-017,0.));
#688=DIRECTION('center_axis',(-3.41607084500048E-017,-1.,0.));
#689=DIRECTION('ref_axis',(-1.,3.41607084500048E-017,0.));
#690=DIRECTION('center_axis',(3.41607084500048E-017,1.,0.));
#691=DIRECTION('ref_axis',(1.,-3.41607084500048E-017,0.));
#692=DIRECTION('center_axis',(-1.36642833800019E-016,1.,0.));
#693=DIRECTION('ref_axis',(1.,-3.41607084500048E-017,0.));
#694=DIRECTION('center_axis',(-1.,4.07081775695891E-016,0.));
#695=DIRECTION('ref_axis',(0.,0.,-1.));
#696=DIRECTION('center_axis',(-1.,4.03717463500057E-016,0.));
#697=DIRECTION('ref_axis',(0.,0.,-1.));
#698=DIRECTION('center_axis',(1.,-4.03717463500057E-016,0.));
#699=DIRECTION('ref_axis',(0.,0.,-1.));
#700=DIRECTION('center_axis',(-1.,4.03717463500057E-016,0.));
#701=DIRECTION('ref_axis',(0.,0.,1.));
#702=DIRECTION('center_axis',(1.,0.,0.));
#703=DIRECTION('ref_axis',(0.,-1.,0.));
#704=DIRECTION($,(0.,1.,0.));
#705=DIRECTION($,(0.,0.,-1.));
#706=DIRECTION($,(0.,-1.,0.));
#707=DIRECTION($,(0.,0.,-1.));
#708=DIRECTION('center_axis',(0.,0.,-1.));
#709=DIRECTION('ref_axis',(1.,-2.1741867565576E-015,0.));
#710=DIRECTION('center_axis',(0.,0.,1.));
#711=DIRECTION('ref_axis',(1.,-2.1741867565576E-015,0.));
#712=DIRECTION('center_axis',(0.,0.,-1.));
#713=DIRECTION('ref_axis',(1.,-2.1741867565576E-015,0.));
#714=DIRECTION($,(0.,0.,-1.));
#715=DIRECTION('center_axis',(-7.31206832114276E-016,1.,0.));
#716=DIRECTION('ref_axis',(1.,7.105427357601E-016,0.));
#717=DIRECTION($,(-1.,-7.31206832114276E-016,0.));
#718=DIRECTION($,(1.,7.31206832114276E-016,0.));
#719=DIRECTION($,(0.,0.,-1.));
#720=DIRECTION('center_axis',(0.,0.,-1.));
#721=DIRECTION('ref_axis',(0.866025403784439,0.499999999999999,0.));
#722=DIRECTION('center_axis',(0.,0.,1.));
#723=DIRECTION('ref_axis',(0.866025403784439,0.499999999999999,0.));
#724=DIRECTION('center_axis',(0.,0.,-1.));
#725=DIRECTION('ref_axis',(0.866025403784439,0.499999999999999,0.));
#726=DIRECTION($,(0.,0.,-1.));
#727=DIRECTION('center_axis',(-1.,0.,0.));
#728=DIRECTION('ref_axis',(0.,1.,0.));
#729=DIRECTION($,(0.,-1.,0.));
#730=DIRECTION($,(0.,1.,0.));
#731=DIRECTION($,(0.,0.,-1.));
#732=DIRECTION('center_axis',(0.,0.,-1.));
#733=DIRECTION('ref_axis',(-1.,3.00685402502647E-016,0.));
#734=DIRECTION('center_axis',(0.,0.,1.));
#735=DIRECTION('ref_axis',(-1.,3.00685402502647E-016,0.));
#736=DIRECTION('center_axis',(0.,0.,-1.));
#737=DIRECTION('ref_axis',(-1.,3.00685402502647E-016,0.));
#738=DIRECTION($,(0.,0.,-1.));
#739=DIRECTION('center_axis',(7.31206832114276E-016,-1.,0.));
#740=DIRECTION('ref_axis',(-1.,-7.105427357601E-016,0.));
#741=DIRECTION($,(1.,7.31206832114276E-016,0.));
#742=DIRECTION($,(-1.,-7.31206832114276E-016,0.));
#743=DIRECTION($,(0.,0.,-1.));
#744=DIRECTION('center_axis',(0.,0.,-1.));
#745=DIRECTION('ref_axis',(-0.866025403784439,-0.5,0.));
#746=DIRECTION('center_axis',(0.,0.,1.));
#747=DIRECTION('ref_axis',(-0.866025403784439,-0.5,0.));
#748=DIRECTION('center_axis',(0.,0.,-1.));
#749=DIRECTION('ref_axis',(-0.866025403784439,-0.5,0.));
#750=DIRECTION('center_axis',(0.,0.,-1.));
#751=DIRECTION('ref_axis',(0.745355992499929,-0.666666666666668,0.));
#752=DIRECTION('center_axis',(0.,0.,-1.));
#753=DIRECTION('ref_axis',(0.745355992499929,-0.666666666666668,0.));
#754=DIRECTION($,(0.,0.,1.));
#755=DIRECTION('center_axis',(0.,0.,1.));
#756=DIRECTION('ref_axis',(0.745355992499929,-0.666666666666668,0.));
#757=DIRECTION('center_axis',(0.,0.,1.));
#758=DIRECTION('ref_axis',(-0.74535599249993,-0.666666666666667,0.));
#759=DIRECTION('center_axis',(0.,0.,1.));
#760=DIRECTION('ref_axis',(-0.74535599249993,-0.666666666666667,0.));
#761=DIRECTION($,(0.,0.,-1.));
#762=DIRECTION('center_axis',(0.,0.,-1.));
#763=DIRECTION('ref_axis',(-0.74535599249993,-0.666666666666667,0.));
#764=DIRECTION('center_axis',(0.,0.,1.));
#765=DIRECTION('ref_axis',(0.745355992499928,0.666666666666668,0.));
#766=DIRECTION('center_axis',(0.,0.,1.));
#767=DIRECTION('ref_axis',(0.745355992499928,0.666666666666668,0.));
#768=DIRECTION($,(0.,0.,-1.));
#769=DIRECTION('center_axis',(0.,0.,-1.));
#770=DIRECTION('ref_axis',(0.745355992499928,0.666666666666668,0.));
#771=DIRECTION($,(0.,0.,-1.));
#772=DIRECTION('center_axis',(0.,0.,-1.));
#773=DIRECTION('ref_axis',(-0.74535599249993,0.666666666666666,0.));
#774=DIRECTION('center_axis',(0.,0.,-1.));
#775=DIRECTION('ref_axis',(-0.74535599249993,0.666666666666666,0.));
#776=DIRECTION($,(0.,0.,1.));
#777=DIRECTION('center_axis',(0.,0.,1.));
#778=DIRECTION('ref_axis',(-0.74535599249993,0.666666666666666,0.));
#779=DIRECTION($,(0.,0.,1.));
#780=DIRECTION('center_axis',(0.,-1.,0.));
#781=DIRECTION('ref_axis',(1.,0.,0.));
#782=DIRECTION($,(1.,0.,0.));
#783=DIRECTION($,(-1.,0.,0.));
#784=DIRECTION('center_axis',(0.,1.,0.));
#785=DIRECTION('ref_axis',(-1.,0.,0.));
#786=DIRECTION($,(1.,0.,0.));
#787=DIRECTION($,(-1.,0.,0.));
#788=DIRECTION('center_axis',(1.36642833800019E-016,-1.,0.));
#789=DIRECTION('ref_axis',(1.,1.77635683940025E-016,0.));
#790=DIRECTION($,(1.,1.36642833800019E-016,0.));
#791=DIRECTION($,(0.,0.,1.));
#792=DIRECTION($,(1.,1.36642833800019E-016,0.));
#793=DIRECTION('center_axis',(1.,-4.03717463500057E-016,0.));
#794=DIRECTION('ref_axis',(0.,1.,0.));
#795=DIRECTION($,(4.03717463500057E-016,1.,0.));
#796=DIRECTION($,(4.03717463500057E-016,1.,0.));
#797=DIRECTION('center_axis',(1.36642833800019E-016,-1.,0.));
#798=DIRECTION('ref_axis',(1.,1.77635683940025E-016,0.));
#799=DIRECTION($,(1.,1.36642833800019E-016,0.));
#800=DIRECTION($,(0.,0.,1.));
#801=DIRECTION($,(1.,1.36642833800019E-016,0.));
#802=DIRECTION('center_axis',(0.,0.,1.));
#803=DIRECTION('ref_axis',(1.,0.,0.));
#804=DIRECTION($,(-4.03717463500057E-016,-1.,0.));
#805=DIRECTION('center_axis',(0.,0.,1.));
#806=DIRECTION('ref_axis',(1.,0.,0.));
#807=DIRECTION($,(-4.03717463500057E-016,-1.,0.));
#808=DIRECTION('center_axis',(-1.,4.03717463500057E-016,0.));
#809=DIRECTION('ref_axis',(0.,-1.,0.));
#810=CARTESIAN_POINT('',(0.,0.,0.));
#811=CARTESIAN_POINT('Origin',(53.,10.75,22.5));
#812=CARTESIAN_POINT('',(55.4585,10.5,22.5));
#813=CARTESIAN_POINT('Origin',(53.,10.5,22.5));
#814=CARTESIAN_POINT('',(55.9585,11.,22.5));
#815=CARTESIAN_POINT('Origin',(53.,11.,22.5));
#816=CARTESIAN_POINT('Origin',(65.,11.,0.));
#817=CARTESIAN_POINT('',(55.9585,11.,7.5));
#818=CARTESIAN_POINT('Origin',(53.,11.,7.5));
#819=CARTESIAN_POINT('',(41.,11.,0.));
#820=CARTESIAN_POINT('',(41.,11.,30.));
#821=CARTESIAN_POINT($,(41.,11.,0.));
#822=CARTESIAN_POINT('',(65.,11.,30.));
#823=CARTESIAN_POINT($,(65.,11.,30.));
#824=CARTESIAN_POINT('',(65.,11.,0.));
#825=CARTESIAN_POINT($,(65.,11.,0.));
#826=CARTESIAN_POINT($,(65.,11.,0.));
#827=CARTESIAN_POINT('Origin',(53.,-153.268073587049,22.5));
#828=CARTESIAN_POINT('',(50.5415,-11.,22.5));
#829=CARTESIAN_POINT('Origin',(53.,-11.,22.5));
#830=CARTESIAN_POINT('Origin',(53.,10.75,7.5));
#831=CARTESIAN_POINT('',(55.4585,10.5,7.5));
#832=CARTESIAN_POINT('Origin',(53.,10.5,7.5));
#833=CARTESIAN_POINT('Origin',(53.,-153.268073587049,7.5));
#834=CARTESIAN_POINT('',(50.5415,-11.,7.5));
#835=CARTESIAN_POINT('Origin',(53.,-11.,7.5));
#836=CARTESIAN_POINT('Origin',(-53.,10.75,22.5));
#837=CARTESIAN_POINT('',(-50.5415,10.5,22.5));
#838=CARTESIAN_POINT('Origin',(-53.,10.5,22.5));
#839=CARTESIAN_POINT('',(-50.0415,11.,22.5));
#840=CARTESIAN_POINT('Origin',(-53.,11.,22.5));
#841=CARTESIAN_POINT('Origin',(65.,11.,0.));
#842=CARTESIAN_POINT('',(-50.0415,11.,7.5));
#843=CARTESIAN_POINT('Origin',(-53.,11.,7.5));
#844=CARTESIAN_POINT('',(-41.,11.,30.));
#845=CARTESIAN_POINT('',(-41.,11.,0.));
#846=CARTESIAN_POINT($,(-41.,11.,0.));
#847=CARTESIAN_POINT('',(-65.,11.,0.));
#848=CARTESIAN_POINT($,(65.,11.,0.));
#849=CARTESIAN_POINT('',(-65.,11.,30.));
#850=CARTESIAN_POINT($,(-65.,11.,0.));
#851=CARTESIAN_POINT($,(65.,11.,30.));
#852=CARTESIAN_POINT('Origin',(-53.,-153.268073587049,22.5));
#853=CARTESIAN_POINT('',(-55.4585,-11.,22.5));
#854=CARTESIAN_POINT('Origin',(-53.,-11.,22.5));
#855=CARTESIAN_POINT('Origin',(-53.,10.75,7.5));
#856=CARTESIAN_POINT('',(-50.5415,10.5,7.5));
#857=CARTESIAN_POINT('Origin',(-53.,10.5,7.5));
#858=CARTESIAN_POINT('Origin',(-53.,-153.268073587049,7.5));
#859=CARTESIAN_POINT('',(-55.4585,-11.,7.5));
#860=CARTESIAN_POINT('Origin',(-53.,-11.,7.5));
#861=CARTESIAN_POINT('Origin',(-65.,2.99999999999999,15.));
#862=CARTESIAN_POINT('',(-95.,3.,17.));
#863=CARTESIAN_POINT('Origin',(-95.,3.,15.));
#864=CARTESIAN_POINT('',(-65.,2.99999999999999,17.));
#865=CARTESIAN_POINT('Origin',(-65.,2.99999999999999,15.));
#866=CARTESIAN_POINT('Origin',(-95.,3.,15.));
#867=CARTESIAN_POINT('Origin',(26.,1.,30.));
#868=CARTESIAN_POINT('',(26.,-0.999999999999974,0.));
#869=CARTESIAN_POINT('',(26.,1.,0.));
#870=CARTESIAN_POINT($,(26.,0.500000000000001,0.));
#871=CARTESIAN_POINT('',(26.,-0.999999999999974,30.));
#872=CARTESIAN_POINT($,(26.,-0.999999999999974,30.));
#873=CARTESIAN_POINT('',(26.,1.,30.));
#874=CARTESIAN_POINT($,(26.,0.500000000000001,30.));
#875=CARTESIAN_POINT($,(26.,1.,30.));
#876=CARTESIAN_POINT('Origin',(20.,1.00000000000002,30.));
#877=CARTESIAN_POINT('',(14.8038475772934,4.,0.));
#878=CARTESIAN_POINT('Origin',(20.,1.00000000000002,0.));
#879=CARTESIAN_POINT('',(14.8038475772934,4.,30.));
#880=CARTESIAN_POINT('Origin',(20.,1.00000000000002,30.));
#881=CARTESIAN_POINT($,(14.8038475772934,4.,30.));
#882=CARTESIAN_POINT('Origin',(-14.8038475772934,3.99999999999998,30.));
#883=CARTESIAN_POINT('',(-14.8038475772934,3.99999999999998,0.));
#884=CARTESIAN_POINT($,(-7.4019237886467,3.99999999999999,0.));
#885=CARTESIAN_POINT('',(-14.8038475772934,3.99999999999998,30.));
#886=CARTESIAN_POINT($,(-7.4019237886467,3.99999999999999,30.));
#887=CARTESIAN_POINT($,(-14.8038475772934,3.99999999999998,30.));
#888=CARTESIAN_POINT('Origin',(-20.,0.999999999999986,30.));
#889=CARTESIAN_POINT('',(-26.,0.999999999999983,0.));
#890=CARTESIAN_POINT('Origin',(-20.,0.999999999999986,0.));
#891=CARTESIAN_POINT('',(-26.,0.999999999999983,30.));
#892=CARTESIAN_POINT('Origin',(-20.,0.999999999999986,30.));
#893=CARTESIAN_POINT($,(-26.,0.999999999999983,30.));
#894=CARTESIAN_POINT('Origin',(-26.,-1.00000000000001,30.));
#895=CARTESIAN_POINT('',(-26.,-1.00000000000001,0.));
#896=CARTESIAN_POINT($,(-26.,-0.500000000000006,0.));
#897=CARTESIAN_POINT('',(-26.,-1.00000000000001,30.));
#898=CARTESIAN_POINT($,(-26.,-0.500000000000006,30.));
#899=CARTESIAN_POINT($,(-26.,-1.00000000000001,30.));
#900=CARTESIAN_POINT('Origin',(-20.,-1.00000000000001,30.));
#901=CARTESIAN_POINT('',(-14.8038475772934,-4.00000000000001,0.));
#902=CARTESIAN_POINT('Origin',(-20.,-1.00000000000001,0.));
#903=CARTESIAN_POINT('',(-14.8038475772934,-4.00000000000001,30.));
#904=CARTESIAN_POINT('Origin',(-20.,-1.00000000000001,30.));
#905=CARTESIAN_POINT($,(-14.8038475772934,-4.00000000000001,30.));
#906=CARTESIAN_POINT('Origin',(14.8038475772934,-3.99999999999999,30.));
#907=CARTESIAN_POINT('',(14.8038475772934,-3.99999999999999,0.));
#908=CARTESIAN_POINT($,(7.40192378864666,-3.99999999999999,0.));
#909=CARTESIAN_POINT('',(14.8038475772934,-3.99999999999999,30.));
#910=CARTESIAN_POINT($,(7.40192378864666,-3.99999999999999,30.));
#911=CARTESIAN_POINT($,(14.8038475772934,-3.99999999999999,30.));
#912=CARTESIAN_POINT('Origin',(20.,-0.999999999999984,30.));
#913=CARTESIAN_POINT('Origin',(20.,-0.999999999999984,0.));
#914=CARTESIAN_POINT('Origin',(20.,-0.999999999999984,30.));
#915=CARTESIAN_POINT('Origin',(36.5278640450004,15.,0.));
#916=CARTESIAN_POINT('',(36.5278640450004,9.,0.));
#917=CARTESIAN_POINT('Origin',(36.5278640450004,15.,0.));
#918=CARTESIAN_POINT('',(36.5278640450004,9.,30.));
#919=CARTESIAN_POINT($,(36.5278640450004,9.,0.));
#920=CARTESIAN_POINT('Origin',(36.5278640450004,15.,30.));
#921=CARTESIAN_POINT('Origin',(-36.5278640450004,15.,0.));
#922=CARTESIAN_POINT('',(-36.5278640450004,9.,30.));
#923=CARTESIAN_POINT('Origin',(-36.5278640450004,15.,30.));
#924=CARTESIAN_POINT('',(-36.5278640450004,9.,0.));
#925=CARTESIAN_POINT($,(-36.5278640450004,9.,0.));
#926=CARTESIAN_POINT('Origin',(-36.5278640450004,15.,0.));
#927=CARTESIAN_POINT('Origin',(36.5278640450004,-15.,0.));
#928=CARTESIAN_POINT('',(36.5278640450004,-9.,30.));
#929=CARTESIAN_POINT('',(41.,-11.,30.));
#930=CARTESIAN_POINT('Origin',(36.5278640450004,-15.,30.));
#931=CARTESIAN_POINT('',(36.5278640450004,-9.,0.));
#932=CARTESIAN_POINT($,(36.5278640450004,-9.,0.));
#933=CARTESIAN_POINT('',(41.,-11.,0.));
#934=CARTESIAN_POINT('Origin',(36.5278640450004,-15.,0.));
#935=CARTESIAN_POINT($,(41.,-11.,0.));
#936=CARTESIAN_POINT('Origin',(-36.5278640450004,-15.,0.));
#937=CARTESIAN_POINT('',(-36.5278640450004,-9.,0.));
#938=CARTESIAN_POINT('',(-41.,-11.,0.));
#939=CARTESIAN_POINT('Origin',(-36.5278640450004,-15.,0.));
#940=CARTESIAN_POINT('',(-36.5278640450004,-9.,30.));
#941=CARTESIAN_POINT($,(-36.5278640450004,-9.,0.));
#942=CARTESIAN_POINT('',(-41.,-11.,30.));
#943=CARTESIAN_POINT('Origin',(-36.5278640450004,-15.,30.));
#944=CARTESIAN_POINT($,(-41.,-11.,0.));
#945=CARTESIAN_POINT('Origin',(-41.,-9.,0.));
#946=CARTESIAN_POINT($,(41.,-9.,30.));
#947=CARTESIAN_POINT($,(41.,-9.,0.));
#948=CARTESIAN_POINT('Origin',(41.,9.,0.));
#949=CARTESIAN_POINT($,(-41.,9.,0.));
#950=CARTESIAN_POINT($,(-41.,9.,30.));
#951=CARTESIAN_POINT('Origin',(-65.,-11.,0.));
#952=CARTESIAN_POINT('',(65.,-11.,0.));
#953=CARTESIAN_POINT($,(-65.,-11.,0.));
#954=CARTESIAN_POINT('',(65.,-11.,30.));
#955=CARTESIAN_POINT($,(65.,-11.,0.));
#956=CARTESIAN_POINT($,(-65.,-11.,30.));
#957=CARTESIAN_POINT('Origin',(65.,-11.,0.));
#958=CARTESIAN_POINT($,(65.,-11.,0.));
#959=CARTESIAN_POINT($,(65.,-11.,30.));
#960=CARTESIAN_POINT('Origin',(-65.,-11.,0.));
#961=CARTESIAN_POINT('',(-65.,-11.,30.));
#962=CARTESIAN_POINT($,(-65.,-11.,30.));
#963=CARTESIAN_POINT('',(-65.,-11.,0.));
#964=CARTESIAN_POINT($,(-65.,-11.,0.));
#965=CARTESIAN_POINT($,(-65.,-11.,0.));
#966=CARTESIAN_POINT('Origin',(-3.59361663233932E-014,0.,0.));
#967=CARTESIAN_POINT($,(-65.,11.,0.));
#968=CARTESIAN_POINT('Origin',(-3.59361663233932E-014,0.,30.));
#969=CARTESIAN_POINT($,(-65.,11.,30.));
#970=CARTESIAN_POINT('Origin',(-65.,11.,0.));
#971=UNCERTAINTY_MEASURE_WITH_UNIT(LENGTH_MEASURE(0.01),#973,
'DISTANCE_ACCURACY_VALUE',
'Maximum model space distance between geometric entities at asserted c
onnectivities');
#972=(
GEOMETRIC_REPRESENTATION_CONTEXT(3)
GLOBAL_UNCERTAINTY_ASSIGNED_CONTEXT((#971))
GLOBAL_UNIT_ASSIGNED_CONTEXT((#973,#976,#974))
REPRESENTATION_CONTEXT('','3D')
);
#973=(
LENGTH_UNIT()
NAMED_UNIT(*)
SI_UNIT(.MILLI.,.METRE.)
);
#974=(
NAMED_UNIT(*)
SI_UNIT($,.STERADIAN.)
SOLID_ANGLE_UNIT()
);
#975=DIMENSIONAL_EXPONENTS(0.,0.,0.,0.,0.,0.,0.);
#976=(
CONVERSION_BASED_UNIT('degree',#978)
NAMED_UNIT(#975)
PLANE_ANGLE_UNIT()
);
#977=(
NAMED_UNIT(*)
PLANE_ANGLE_UNIT()
SI_UNIT($,.RADIAN.)
);
#978=PLANE_ANGLE_MEASURE_WITH_UNIT(PLANE_ANGLE_MEASURE(0.01745329252),#977);
#979=SHAPE_DEFINITION_REPRESENTATION(#980,#981);
#980=PRODUCT_DEFINITION_SHAPE('',$,#983);
#981=SHAPE_REPRESENTATION('',(#577),#972);
#982=PRODUCT_DEFINITION_CONTEXT('3D Mechanical Parts',#986,'design');
#983=PRODUCT_DEFINITION('R127\X2\5F3960274F53\X0\','R127\X2\5F3960274F53\X0\',
#984,#982);
#984=PRODUCT_DEFINITION_FORMATION('',$,#988);
#985=APPLICATION_PROTOCOL_DEFINITION('international standard',
'automotive_design',2009,#986);
#986=APPLICATION_CONTEXT(
'Core Data for Automotive Mechanical Design Process');
#987=PRODUCT_CONTEXT('3D Mechanical Parts',#986,'mechanical');
#988=PRODUCT('R127\X2\5F3960274F53\X0\','R127\X2\5F3960274F53\X0\',$,(#987));
#989=PRESENTATION_STYLE_ASSIGNMENT((#990));
#990=SURFACE_STYLE_USAGE(.BOTH.,#991);
#991=SURFACE_SIDE_STYLE($,(#992));
#992=SURFACE_STYLE_FILL_AREA(#993);
#993=FILL_AREA_STYLE($,(#994));
#994=FILL_AREA_STYLE_COLOUR($,#995);
#995=COLOUR_RGB('',0.898039215686275,0.898039215686275,0.898039215686275);
ENDSEC;
END-ISO-10303-21;
